<?xml version="1.0" encoding="utf-8"?>
<!-- Generator: Adobe Illustrator 21.1.0, SVG Export Plug-In . SVG Version: 6.00 Build 0)  -->
<svg version="1.1" id="Layer_1" xmlns="http://www.w3.org/2000/svg" xmlns:xlink="http://www.w3.org/1999/xlink" x="0px" y="0px"
	 width="40.5px" height="88.7px" viewBox="0 0 40.5 88.7" style="enable-background:new 0 0 40.5 88.7;" xml:space="preserve">
<style type="text/css">
	.st0{fill:#A2195B;}
	.st1{fill:#DF4400;}
	.st2{fill:#14A9FF;}
	.st3{fill:#000050;}
	.st4{fill:#FFFFFF;}
</style>
<g>
	<polygon class="st0" points="20.2,72.1 3.7,88.6 36.8,88.6 	"/>
	<g>
		<path class="st1" d="M20.2,40.5c-9.1,0-16.8-6-19.3-14.2L16.3,76l3.9,12.7l4-12.7l15.4-49.7C37,34.5,29.3,40.5,20.2,40.5z"/>
		<path class="st2" d="M0.9,26.2L0.9,26.2L0.9,26.2z"/>
		<path class="st2" d="M40.5,20.2C40.5,9,31.4,0,20.2,0S0,9,0,20.2c0,1,0.1,2.1,0.2,3.1h40C40.4,22.3,40.5,21.3,40.5,20.2z"/>
		<path class="st2" d="M39.6,26.2L39.6,26.2L39.6,26.2z"/>
		<path class="st1" d="M20.2,40.5l-4.7-4.7l4.7-4.7l4.7,4.7L20.2,40.5c9.1,0,16.8-6,19.3-14.2l0,0c0.3-0.9,0.5-1.9,0.7-2.9h-40
			c0.2,1,0.4,2,0.7,2.9l0,0C3.5,34.5,11.2,40.5,20.2,40.5z"/>
		<path class="st3" d="M20.2,40.5l-4.7-4.7l4.7-4.7l4.7,4.7L20.2,40.5c9.1,0,16.8-6,19.3-14.2l0,0c0.3-0.9,0.5-1.9,0.7-2.9h-40
			c0.2,1,0.4,2,0.7,2.9l0,0C3.5,34.5,11.2,40.5,20.2,40.5z"/>
		
			<rect x="16.93" y="32.5271" transform="matrix(0.7071 -0.7071 0.7071 0.7071 -19.4084 24.7983)" class="st4" width="6.5999" height="6.5999"/>
	</g>
</g>
</svg>
