<svg xmlns="http://www.w3.org/2000/svg" width="178.45mm" height="26.987mm" viewBox="0 0 505.843 76.5"><defs><style>.a{fill:#ffffff;}</style></defs><title>Russia WC logo</title><path class="a" d="M441.625,10.771h2.155V73.158h12.606v2.263H427.079V73.158h13.684v-59.8a57.506,57.506,0,0,1-14.007,1.724V12.711A55.5,55.5,0,0,0,441.625,10.771Z"/><path class="a" d="M462.527,26.287a13.091,13.091,0,0,1,6.3-11.637,26.012,26.012,0,0,1,14.492-4.095q9.051,0,14.869,3.987a13.015,13.015,0,0,1,5.819,11.422q0,6.573-4.58,10.236t-12.769,6.25q19.178,6.036,19.18,17.025,0,8.3-6.519,12.661T483,76.5q-9.806,0-16.432-4.472A13.915,13.915,0,0,1,459.941,59.9q0-11.96,18.856-17.348Q462.526,37.062,462.527,26.287Zm.431,33.618a11.741,11.741,0,0,0,5.711,10.4q5.71,3.718,14.331,3.717,8.511,0,14.169-3.609t5.657-10.937q0-5.5-5.226-9.213t-14.816-6.519a71.964,71.964,0,0,0-7.058,2.263,42.813,42.813,0,0,0-6.2,3.017,13.678,13.678,0,0,0-4.849,4.633A11.683,11.683,0,0,0,462.958,59.9ZM501.1,25.964q0-6.465-4.9-9.7t-12.876-3.232a23.161,23.161,0,0,0-12.553,3.34,10.951,10.951,0,0,0-5.334,9.913q0,9.806,17.456,14.977,4.417-1.293,7.111-2.371a35.456,35.456,0,0,0,5.549-2.855,11.6,11.6,0,0,0,4.2-4.256A12.006,12.006,0,0,0,501.1,25.964Z"/><path class="a" d="M392.67,12.884h.139a30.174,30.174,0,0,1-.133,60.347h-.139a30.174,30.174,0,0,1,.133-60.347m0-2.752a32.926,32.926,0,0,0-.145,65.851h.151a32.926,32.926,0,0,0,.145-65.851Z"/><path class="a" d="M351.11,56.592V73.153H313.869c4.337-3.78,10.063-8.506,17.031-14.057,2.554-2.127,4.725-3.976,6.454-5.493s3.658-3.4,5.731-5.593A48.958,48.958,0,0,0,348.09,41.9a30.177,30.177,0,0,0,3.175-6.258,19.428,19.428,0,0,0,1.292-6.787c0-12.38-6.739-18.658-20.03-18.658h0c-12.982,0-21.37,8.948-21.37,22.795h2.51c0-12.6,7.135-20.435,18.861-20.435h0c11.359,0,17.118,5.482,17.118,16.295a19.783,19.783,0,0,1-1.587,7.619,28.918,28.918,0,0,1-4.775,7.548,83.992,83.992,0,0,1-6.254,6.62c-2.041,1.917-4.608,4.146-7.631,6.625-9.3,7.475-16.042,13.018-20.042,16.474l-.061.052v1.627h44.36V56.592Z"/><path class="a" d="M15.839,38.681V73.16H28.983v2.263H0V73.16H12.93V2.263H0V0H38.142q11.1,0,17.347,5.01t6.249,14.169a16.753,16.753,0,0,1-5.118,12.66,24.005,24.005,0,0,1-13.2,6.2Q54.3,40.083,55.058,51.61q.861,10.885.862,11.314,1.076,11.1,10.02,11.1a8.874,8.874,0,0,0,8.135-4.31q2.639-4.308,2.855-13.468h2.694q-.218,10.238-3.5,15.246T65.94,76.5a12.519,12.519,0,0,1-8.835-3.286q-3.556-3.286-4.2-10.074-.109-.861-.862-11.421a14.214,14.214,0,0,0-4.094-9.428q-3.664-3.609-12.93-3.61Zm0-2.263H37.28q9.374,0,15.462-4.417t6.088-12.822q0-8.3-5.495-12.607T38.142,2.263h-22.3Z"/><path class="a" d="M134.144,75.422H121.753V64a15.983,15.983,0,0,1-6.465,9,18.288,18.288,0,0,1-10.775,3.5q-7.543,0-11.852-3.663t-4.31-11.206V32.216H78.87v-2.37h12.5V61.631q0,6.25,3.448,9.374t9.7,3.125a15.834,15.834,0,0,0,12.014-5.387,19.557,19.557,0,0,0,5.118-13.576V32.216h-9.05v-2.37h12.068V73.16h9.482Z"/><path class="a" d="M166.359,45.9q-2.694-14.652-14.438-14.653a9.61,9.61,0,0,0-6.842,2.37,7.9,7.9,0,0,0-2.532,6.034,7.793,7.793,0,0,0,2.8,6.519,27.58,27.58,0,0,0,8.727,4.04q9.912,3.126,12.607,4.956,4.631,3.127,4.633,9.482a10.1,10.1,0,0,1-4.31,8.835A17.222,17.222,0,0,1,156.878,76.5a15.988,15.988,0,0,1-9.536-2.963,17.112,17.112,0,0,1-6.087-8.027v9.374h-2.586V56.351h2.586q.97,8.836,5.28,13.253a13.928,13.928,0,0,0,10.343,4.418,14.2,14.2,0,0,0,8.3-2.317q3.339-2.316,3.34-7.057a8.325,8.325,0,0,0-1.993-5.711,12.8,12.8,0,0,0-4.687-3.394q-2.695-1.132-8.4-2.856-6.787-1.939-10.236-4.741t-3.448-8.3a9.836,9.836,0,0,1,3.448-7.758,12.773,12.773,0,0,1,8.727-3.017q10.126,0,14.222,10.02V29.523h2.694V45.9Z"/><path class="a" d="M205.469,45.9q-2.694-14.652-14.438-14.653a9.61,9.61,0,0,0-6.842,2.37,7.9,7.9,0,0,0-2.532,6.034,7.793,7.793,0,0,0,2.8,6.519,27.58,27.58,0,0,0,8.727,4.04q9.912,3.126,12.607,4.956,4.631,3.127,4.633,9.482a10.1,10.1,0,0,1-4.31,8.835A17.222,17.222,0,0,1,195.988,76.5a15.988,15.988,0,0,1-9.536-2.963,17.112,17.112,0,0,1-6.087-8.027v9.374h-2.586V56.351h2.586q.97,8.836,5.28,13.253a13.928,13.928,0,0,0,10.343,4.418,14.2,14.2,0,0,0,8.3-2.317q3.339-2.316,3.34-7.057a8.325,8.325,0,0,0-1.993-5.711,12.8,12.8,0,0,0-4.687-3.394q-2.695-1.132-8.4-2.856-6.787-1.939-10.236-4.741t-3.448-8.3a9.836,9.836,0,0,1,3.448-7.758,12.773,12.773,0,0,1,8.727-3.017q10.126,0,14.222,10.02V29.523h2.694V45.9Z"/><path class="a" d="M214.842,29.846h12.822V73.16h9.7v2.263h-22.2V73.16h9.482V32.216h-9.8Zm7.65-18.748a2.929,2.929,0,0,1,.969-2.209,3.2,3.2,0,0,1,2.263-.916,3.075,3.075,0,0,1,2.155.916,2.93,2.93,0,0,1,.97,2.209,3.221,3.221,0,0,1-3.125,3.233,3.192,3.192,0,0,1-2.263-.916A3.048,3.048,0,0,1,222.492,11.1Z"/><path class="a" d="M271.084,68.1a13.563,13.563,0,0,1-6.465,6.088A22.571,22.571,0,0,1,254.383,76.5q-6.788,0-10.182-3.233a11.123,11.123,0,0,1-1.562-14.115,14.116,14.116,0,0,1,3.717-3.933,36.487,36.487,0,0,1,4.687-2.532q4.955-2.262,20.041-7V40.836q0-5.6-3.179-7.6t-9-1.993a16.285,16.285,0,0,0-9.643,2.855,11.4,11.4,0,0,0-4.687,8.458l-2.8-.323a12.983,12.983,0,0,1,5.657-9.913,19.759,19.759,0,0,1,11.475-3.447q7,0,11.152,2.586t4.148,9.374V66.695q0,7.328,4.525,7.327a4.56,4.56,0,0,0,4.58-2.856q1.237-2.853,1.239-9.966h2.694q0,8.727-2.047,12.014a7.058,7.058,0,0,1-6.465,3.286q-6.359,0-7.326-6.788Zm-18.963-13.36q-8.3,3.879-8.3,10.559a8.658,8.658,0,0,0,2.532,6.2q2.53,2.641,8.027,2.64a19.642,19.642,0,0,0,11.636-3.5q4.955-3.5,5.064-8.673V48.162Q256.752,52.688,252.121,54.735Z"/></svg>