<?xml version="1.0" encoding="utf-8"?>
<!-- Generator: Adobe Illustrator 21.1.0, SVG Export Plug-In . SVG Version: 6.00 Build 0)  -->
<svg version="1.1" id="Layer_1" xmlns="http://www.w3.org/2000/svg" xmlns:xlink="http://www.w3.org/1999/xlink" x="0px" y="0px"
	 viewBox="0 0 24.0069 23.9925" style="enable-background:new 0 0 24.0069 23.9925;" xml:space="preserve">
<style type="text/css">
	.st0{fill:#FFFFFF;}
</style>
<g>
	<path class="st0" d="M9.5085,17.477c4.3223,0.0291,7.8498-3.4513,7.8789-7.7737c0.0002-0.0326,0.0002-0.0652,0-0.0978
		c0-0.1199,0-0.2399,0-0.3598c0.5384-0.3924,1.0029-0.8772,1.3719-1.4319c-0.505,0.2236-1.0408,0.3701-1.5893,0.4348
		c0.5708-0.3388,1.0015-0.8706,1.2144-1.4993c-0.5421,0.323-1.1354,0.5512-1.7542,0.6747
		c-1.0552-1.1106-2.8108-1.1555-3.9214-0.1003c-0.7095,0.6742-1.0113,1.6723-0.794,2.6267
		C9.6802,9.8315,7.6023,8.7653,6.2025,7.0192c-0.7322,1.2665-0.3549,2.884,0.8621,3.6958
		c-0.4388-0.0134-0.8681-0.1316-1.2519-0.3448l0,0c0.0018,1.3269,0.9455,2.4657,2.249,2.7138
		c-0.4196,0.1301-0.8642,0.1583-1.2969,0.0825c0.3644,1.1259,1.4031,1.8967,2.5863,1.9191c-0.9815,0.77-2.1935,1.1872-3.4409,1.1845
		c-0.2153,0.0023-0.4306-0.0077-0.6447-0.03c1.2657,0.8133,2.7386,1.2452,4.2431,1.2444"/>
	<path class="st0" d="M22.3052,5.8648L21.7579,6.412c3.1075,5.4105,1.2406,12.3156-4.1699,15.4231S5.2724,23.0757,2.1649,17.6652
		S0.9243,5.3496,6.3348,2.2421c3.536-2.0309,7.8919-1.9987,11.3975,0.0843l0.5473-0.5473C12.6367-1.691,5.2493,0.0702,1.7791,5.713
		S0.0702,18.7432,5.713,22.2134s13.0303,1.7089,16.5004-3.9339C24.5499,14.4802,24.5852,9.6982,22.3052,5.8648z"/>
	<polygon class="st0" points="19.9213,0.0024 19.5539,0.3622 22.4926,1.0519 19.3815,4.163 19.9063,4.6878 22.9574,1.6367 
		23.6396,4.4479 24.0069,4.0881 23.9619,0.0399 	"/>
</g>
</svg>
