<?xml version="1.0" encoding="utf-8"?>
<!-- Generator: Adobe Illustrator 21.1.0, SVG Export Plug-In . SVG Version: 6.00 Build 0)  -->
<svg version="1.1" id="Layer_1" xmlns="http://www.w3.org/2000/svg" xmlns:xlink="http://www.w3.org/1999/xlink" x="0px" y="0px"
	 viewBox="0 0 50.9769 23.9891" style="enable-background:new 0 0 50.9769 23.9891;" xml:space="preserve">
<style type="text/css">
	.st0{fill:#FFFFFF;}
</style>
<g>
	<path class="st0" d="M11.7847,17.7445v-5.6299h1.8891l0.2849-2.1965h-2.174V8.5161c0-0.6372,0.1799-1.072,1.087-1.072h1.162V5.4875
		c-0.5627-0.0608-1.1283-0.0908-1.6942-0.09C10.8818,5.291,9.6138,6.3863,9.5072,7.8439c-0.0111,0.1515-0.0091,0.3037,0.006,0.4548
		V9.918H7.624v2.1965h1.8966v5.6299H11.7847z"/>
	<polygon class="st0" points="46.8912,0 46.5239,0.3598 49.4626,1.0495 46.3515,4.1606 46.8763,4.6854 49.9274,1.6343 
		50.6096,4.4455 50.9769,4.0856 50.9319,0.0375 	"/>
	<path class="st0" d="M22.8122,11.1624h-0.1199c-0.2901-0.2643-0.6723-0.4042-1.0645-0.3898c-0.4948,0-0.8096,0.1949-0.8096,0.5997
		c0,0.4048,0.2774,0.5997,0.9895,0.8246c0.9671,0.3074,1.4993,0.5922,1.4993,1.4319s-0.5697,1.4319-1.7317,1.4319
		c-0.613,0.0082-1.2114-0.1869-1.7017-0.5547l0.2849-0.5473h0.0825c0.3691,0.3247,0.8428,0.5056,1.3344,0.5098
		c0.5922,0,0.8996-0.2099,0.8996-0.6747c0-0.4648-0.2624-0.6147-1.1845-0.8996s-1.2894-0.6822-1.2894-1.4094
		c0-0.8546,0.7497-1.3269,1.6268-1.3269c0.5392-0.0386,1.0735,0.1244,1.4993,0.4573L22.8122,11.1624z"/>
	<path class="st0" d="M25.0986,10.93h0.06c0.4221-0.472,1.0236-0.7441,1.6567-0.7497c0.9371,0,1.3494,0.4573,1.3494,1.3719v3.4409
		h-0.8921v-3.2385c0-0.6372-0.2099-0.8921-0.8246-0.8921c-0.4964,0.0276-0.9656,0.2355-1.3194,0.5847v3.5459h-0.8921V8.2463
		l0.7497-0.0975h0.1424L25.0986,10.93z"/>
	<path class="st0" d="M29.2367,10.5702c0.542-0.2722,1.1402-0.4134,1.7467-0.4123c1.1395,0,1.6642,0.4498,1.6642,1.3644v2.5713
		c0,0.2849,0.1349,0.3973,0.3149,0.3973c0.0851-0.0014,0.1691-0.0192,0.2474-0.0525h0.0525l0.1199,0.4573
		c-0.2057,0.1162-0.4385,0.1757-0.6747,0.1724c-0.4948,0-0.8021-0.1949-0.8546-0.6822h-0.075
		c-0.2911,0.4493-0.7997,0.7093-1.3344,0.6822c-0.7946,0-1.3419-0.3898-1.3419-1.2219s0.4198-1.0795,1.2519-1.3344l1.3944-0.4348
		v-0.3823c0-0.6222-0.1874-0.8996-0.9371-0.8996c-0.4388,0.0108-0.8694,0.121-1.2594,0.3224h-0.105L29.2367,10.5702z
		 M31.7556,13.9887v-1.3644l-1.0495,0.3299c-0.5248,0.1649-0.7497,0.3973-0.7497,0.8171c0,0.5547,0.3074,0.6897,0.6897,0.6897
		c0.4088-0.0122,0.7965-0.1845,1.0795-0.4798L31.7556,13.9887z"/>
	<path class="st0" d="M34.9866,10.9375c0.2188-0.4456,0.6658-0.7339,1.162-0.7497c0.1568-0.0089,0.3135,0.0193,0.4573,0.0825
		l-0.1424,0.8171h-0.09c-0.1297-0.0576-0.2705-0.0858-0.4123-0.0825c-0.3958,0.0081-0.7603,0.2172-0.9671,0.5547v3.4334h-0.8996
		v-4.6929l0.6372-0.09h0.1499V10.96L34.9866,10.9375z"/>
	<path class="st0" d="M39.2597,15.0607c-1.4393,0-2.294-0.9446-2.294-2.4889s0.9521-2.4214,2.0916-2.4214
		c1.3869,0,1.9641,0.8621,1.9641,2.6088h-3.1411c0.045,0.997,0.4573,1.6642,1.4993,1.6642c0.4586,0.025,0.9077-0.1374,1.2444-0.4498
		h0.1049l0.2699,0.4873C40.5144,14.871,39.894,15.085,39.2597,15.0607z M40.1743,12.1595c0-0.9071-0.3224-1.4169-1.087-1.4169
		s-1.1395,0.5847-1.207,1.4993h2.294V12.1595z"/>
	<path class="st0" d="M49.2827,5.8698l-0.5547,0.5473c3.0804,5.3926,1.2059,12.2613-4.1867,15.3417
		c-1.6932,0.9672-3.6089,1.4775-5.5589,1.4807H11.9946c-6.2104,0-11.2449-5.0345-11.2449-11.2449S5.7842,0.7497,11.9946,0.7497
		h26.9878c2.0144,0.0015,3.9909,0.5481,5.7199,1.5818l0.5473-0.5473C43.3667,0.6189,41.1966,0.0011,38.9823,0H11.9946
		C5.3701,0,0,5.3701,0,11.9946s5.3701,11.9946,11.9946,11.9946h26.9878c6.6244-0.007,11.9889-5.3828,11.9819-12.0072
		C50.962,9.8306,50.3812,7.7195,49.2827,5.8698z"/>
</g>
</svg>
