<?xml version="1.0" encoding="utf-8"?>
<!-- Generator: Adobe Illustrator 21.1.0, SVG Export Plug-In . SVG Version: 6.00 Build 0)  -->
<svg version="1.1" id="Layer_1" xmlns="http://www.w3.org/2000/svg" xmlns:xlink="http://www.w3.org/1999/xlink" x="0px" y="0px"
	 viewBox="0 0 24.0069 23.9976" style="enable-background:new 0 0 24.0069 23.9976;" xml:space="preserve">
<style type="text/css">
	.st0{fill:#FFFFFF;}
</style>
<g>
	<path class="st0" d="M22.3052,5.8623l-0.5473,0.5547c3.1075,5.4105,1.2406,12.3157-4.1699,15.4231S5.2724,23.0808,2.1649,17.6703
		S0.9243,5.3547,6.3348,2.2472c3.536-2.0309,7.8919-1.9987,11.3975,0.0843l0.5473-0.5473C12.6367-1.686,5.2493,0.0753,1.7791,5.7181
		S0.0702,18.7483,5.713,22.2185s13.0303,1.7089,16.5004-3.9339c2.3365-3.7993,2.3718-8.5813,0.0918-12.4148V5.8623z"/>
	<polygon class="st0" points="19.9213,0 19.5539,0.3673 22.4926,1.0495 19.3815,4.1606 19.9063,4.6854 22.9574,1.6343 
		23.6396,4.4455 24.0069,4.0856 23.9994,0 	"/>
	<path class="st0" d="M19.509,9.1833V8.2463l-0.9371-0.9371H5.4528L4.5158,8.2463v7.4966l0.9371,0.9371h13.1191l0.9371-0.9371
		V9.1833z M18.5719,14.8058l-2.174-4.438l2.174-1.0795V14.8058z M5.4528,9.2433l2.174,1.087l-2.174,4.498V9.2433z M12.0124,12.5193
		l3.5459-1.7317l2.5413,4.9553H5.9176l2.5488-4.9927L12.0124,12.5193z M18.5719,8.2463L18.5719,8.2463l-6.5595,3.231l-6.5595-3.231
		H18.5719z"/>
</g>
</svg>
