<svg id="Layer_1" data-name="Layer 1" xmlns="http://www.w3.org/2000/svg" width="48" height="24" viewBox="0 0 48 24"><defs><style>.cls-1{fill:#2b7ec1;}.cls-2{fill:#fff;}.cls-3{fill:#f1c100;}</style></defs><title>Mobile_Flags_</title><rect class="cls-1" x="20" y="-4" width="8" height="48" transform="translate(4 44) rotate(-90)"/><rect class="cls-2" x="20" y="-12" width="8" height="48" transform="translate(12 36) rotate(-90)"/><rect class="cls-1" x="20" y="-20" width="8" height="48" transform="translate(20 28) rotate(-90)"/><polygon class="cls-3" points="24 7.95 25.27 4 25.25 8.15 27.68 4.78 26.38 8.72 29.73 6.27 27.28 9.62 31.22 8.32 27.85 10.75 32 10.73 28.05 12 32 13.27 27.85 13.25 31.22 15.68 27.28 14.38 29.73 17.73 26.38 15.28 27.68 19.22 25.25 15.85 25.27 20 24 16.05 22.73 20 22.75 15.85 20.32 19.22 21.62 15.28 18.27 17.73 20.72 14.38 16.78 15.68 20.15 13.25 16 13.27 19.95 12 16 10.73 20.15 10.75 16.78 8.32 20.72 9.62 18.27 6.27 21.62 8.72 20.32 4.78 22.75 8.15 22.73 4 24 7.95"/></svg>