<svg id="Layer_1" data-name="Layer 1" xmlns="http://www.w3.org/2000/svg" width="48" height="24" viewBox="0 0 48 24"><defs><style>.cls-1{fill:#1f3c89;}.cls-2{fill:#fff;}.cls-3{fill:#ededed;}.cls-4{fill:#e42427;}</style></defs><title>Mobile_Flags_</title><rect class="cls-1" x="20" y="-4" width="8" height="48" transform="translate(4 44) rotate(-90)"/><rect class="cls-1" x="20" y="-12" width="8" height="48" transform="translate(12 36) rotate(-90)"/><rect class="cls-1" x="20" y="-20" width="8" height="48" transform="translate(20 28) rotate(-90)"/><polygon class="cls-2" points="26.95 14.23 28.58 13.05 26.57 13.04 25.96 11.14 25.33 13.04 23.33 13.04 24.95 14.22 24.32 16.13 25.95 14.95 27.57 16.14 26.95 14.23"/><polygon class="cls-2" points="13.94 18.23 17.19 15.88 13.18 15.87 11.95 12.05 10.7 15.86 6.68 15.85 9.92 18.22 8.67 22.03 11.93 19.68 15.17 22.05 13.94 18.23"/><polygon class="cls-2" points="30.7 4.89 32.5 3.59 30.28 3.58 29.6 1.47 28.9 3.58 26.68 3.58 28.48 4.89 27.78 7 29.59 5.7 31.38 7.01 30.7 4.89"/><polygon class="cls-2" points="44.22 4.89 46.03 3.59 43.8 3.58 43.12 1.47 42.43 3.58 40.2 3.58 42 4.89 41.31 7 43.11 5.7 44.91 7.01 44.22 4.89"/><polygon class="cls-2" points="39.13 11 40.93 9.7 38.7 9.69 38.02 7.57 37.33 9.69 35.11 9.68 36.9 10.99 36.21 13.11 38.01 11.8 39.81 13.12 39.13 11"/><polygon class="cls-2" points="36.15 18.72 37.95 17.42 35.73 17.41 35.05 15.29 34.35 17.41 32.13 17.4 33.93 18.71 33.23 20.83 35.04 19.52 36.83 20.84 36.15 18.72"/><rect class="cls-3" x="0.01" width="19.99" height="10.02"/><rect class="cls-4" x="9.01" y="0.02" width="2" height="10"/><rect class="cls-4" x="0.02" y="4.01" width="19.98" height="2"/><polygon class="cls-1" points="0 8.89 0 6.67 4.45 6.67 0 8.89"/><polygon class="cls-1" points="0 1.14 0 3.37 4.45 3.37 0 1.14"/><polygon class="cls-1" points="20 8.89 20 6.67 15.55 6.67 20 8.89"/><polygon class="cls-1" points="20 1.14 20 3.37 15.55 3.37 20 1.14"/><polygon class="cls-1" points="11.67 3.07 11.67 0.02 17.75 0.02 11.67 3.07"/><polygon class="cls-1" points="8.33 6.97 8.33 10.02 2.23 10.02 8.33 6.97"/><polygon class="cls-1" points="11.67 6.97 11.67 10.02 17.77 10.02 11.67 6.97"/><polygon class="cls-1" points="8.33 3.07 8.33 0.02 2.23 0.02 8.33 3.07"/><polygon class="cls-4" points="1.51 10.02 0 10.02 6.7 6.67 8.16 6.67 1.51 10.02"/><polygon class="cls-4" points="13.33 3.37 11.84 3.37 18.51 0.02 20 0.02 13.33 3.37"/><polygon class="cls-4" points="20 10.02 20 9.26 14.82 6.67 13.33 6.67 20 10.02"/><polygon class="cls-4" points="0 0.02 0 0.77 5.18 3.37 6.67 3.37 0 0.02"/></svg>