<svg id="Layer_1" data-name="Layer 1" xmlns="http://www.w3.org/2000/svg" width="48" height="24" viewBox="0 0 48 24"><defs><style>.cls-1{fill:#1f3c89;}.cls-2{fill:#fff;}.cls-3{fill:#e42427;}.cls-4{fill:#ededed;}.cls-5{fill:#cea849;}.cls-6{fill:#f2c200;}.cls-7{fill:none;}.cls-8{fill:#89c5e3;}.cls-9{fill:#fcdd09;}.cls-10{fill:#039;}.cls-11{fill:#509164;}.cls-12{fill:#865800;}.cls-13{fill:#704d25;}.cls-14{fill:#00009e;}.cls-15{fill:#002b7f;}.cls-16{fill:#ff0016;}.cls-17{fill:#ce1126;}.cls-18{fill:#078930;}</style></defs><title>Mobile_Flags_</title><rect class="cls-1" x="21.57" y="-2.43" width="4.85" height="48" transform="translate(2.43 45.57) rotate(-90)"/><rect class="cls-2" x="21.57" y="-7.28" width="4.85" height="48" transform="translate(7.28 40.72) rotate(-90)"/><rect class="cls-3" x="21.57" y="-12.13" width="4.85" height="48" transform="translate(12.13 35.87) rotate(-90)"/><rect class="cls-2" x="21.57" y="-16.85" width="4.85" height="48" transform="translate(16.85 31.15) rotate(-90)"/><rect class="cls-1" x="21.57" y="-21.57" width="4.85" height="48" transform="translate(21.57 26.43) rotate(-90)"/><path class="cls-4" d="M24,4c3.79,0,6.86,3.58,6.86,8S27.79,20,24,20s-6.91-3.58-6.86-8S20.23,4,24,4Z"/><path class="cls-5" d="M28.38,10.92l-.15-.28.37-.1.11.25Z"/><path class="cls-6" d="M23.9,7.3l-.56,0c-.36,0-.5.17-.27.44a5.26,5.26,0,0,0-1.67.5.34.34,0,0,0-.37.2c0,.11.06.24.24.19-.12.31-1.5.27-1.54.79.11-.09.22-.17.34-.09L20,9.58c-.2.06-.34.09-.43.31s-.21.56-.3.73a.35.35,0,0,0-.07.2.23.23,0,0,0,.23.23.21.21,0,0,0,.24-.2c0-.07,0-.15-.21-.14a.9.9,0,0,1,.7.13.61.61,0,0,1,.15.77c-.13.26-.46.42-1,.22a.71.71,0,0,0-.94.41c-.61,1.65.46,3,1.66,3.76a6.63,6.63,0,0,1,1.82,1.43c.34.4.67.85,1.16.85a.45.45,0,0,0,.22-.06c.31,0,.33.12.74.12h0c.42,0,.44-.12.74-.12a.45.45,0,0,0,.22.06c.49,0,.82-.45,1.16-.85A6.64,6.64,0,0,1,28,16c1.21-.78,2.27-2.12,1.66-3.76a.71.71,0,0,0-.94-.41c-.5.19-.83,0-1-.22a.61.61,0,0,1,.15-.77.9.9,0,0,1,.7-.13c-.17,0-.2.07-.21.14a.21.21,0,0,0,.24.2.22.22,0,0,0,.23-.23.35.35,0,0,0-.07-.2c-.09-.17-.21-.5-.3-.73s-.23-.25-.43-.31l-.08-.24c.12-.08.23,0,.34.09,0-.52-1.42-.48-1.54-.79.18,0,.28-.07.24-.19a.34.34,0,0,0-.37-.2,5.26,5.26,0,0,0-1.67-.5c.22-.26.09-.4-.27-.44l-.56,0h-.2Z"/><path class="cls-7" d="M23.23,18.19a1,1,0,0,1,.32.05,1.28,1.28,0,0,0,.42.07h0a1.29,1.29,0,0,0,.42-.07,1,1,0,0,1,.32-.05h0a.42.42,0,0,0,.2.05c.43,0,.74-.37,1-.72l.1-.12A6.61,6.61,0,0,1,27.94,16c2.21-1.43,1.89-3.08,1.65-3.73a.69.69,0,0,0-.36-.39.7.7,0,0,0-.55,0c-.54.21-.87,0-1-.23a.64.64,0,0,1,.16-.8.93.93,0,0,1,.72-.14,0,0,0,0,1,0,0,0,0,0,0,1,0,0c-.15,0-.17.05-.18.12s.07.17.21.17a.2.2,0,0,0,.2-.2.32.32,0,0,0-.07-.18c-.07-.14-.17-.39-.25-.59l-.05-.14c-.08-.2-.2-.24-.39-.29h0l0,0-.08-.24a0,0,0,0,1,0,0,.26.26,0,0,1,.31,0c-.09-.22-.5-.33-.86-.42s-.6-.15-.66-.29a0,0,0,0,1,0,0h0a.18.18,0,0,0,.18,0,.12.12,0,0,0,0-.12.31.31,0,0,0-.34-.18h0a5.32,5.32,0,0,0-1.66-.5l0,0a0,0,0,0,1,0,0c.09-.1.12-.19.09-.25s-.15-.13-.35-.14l-.66,0h-.1l-.56,0c-.2,0-.32.07-.35.14s0,.14.09.25a0,0,0,0,1,0,0l0,0a5.32,5.32,0,0,0-1.66.5h0a.31.31,0,0,0-.34.18.12.12,0,0,0,0,.12.18.18,0,0,0,.18,0h0a0,0,0,0,1,0,0c-.06.15-.34.21-.66.29s-.78.19-.86.42a.26.26,0,0,1,.31,0,0,0,0,0,1,0,0L20,9.58l0,0h0c-.19.06-.31.09-.39.29l-.06.15c-.08.21-.17.45-.25.58a.33.33,0,0,0-.07.19.2.2,0,0,0,.2.2c.15,0,.21-.09.21-.17s0-.12-.18-.12a0,0,0,0,1,0,0,0,0,0,0,1,0,0,.93.93,0,0,1,.72.14.64.64,0,0,1,.16.8c-.13.25-.45.45-1,.24a.7.7,0,0,0-.55,0,.69.69,0,0,0-.36.39c-.24.65-.56,2.3,1.65,3.73a6.61,6.61,0,0,1,1.82,1.43l.1.12c.3.36.61.72,1,.72a.43.43,0,0,0,.2-.05ZM23.9,7.3h0Z"/><path class="cls-8" d="M20.73,12.1a3.78,3.78,0,0,0,0-2.09A5.16,5.16,0,0,1,24,8.8,4.41,4.41,0,0,1,27.31,10a3.84,3.84,0,0,0,0,2.09h-6.6"/><path class="cls-7" d="M27.34,12.11H20.72a3.8,3.8,0,0,0,0-2.08h0l.3-.2a4.74,4.74,0,0,1,3-1A4.43,4.43,0,0,1,27.32,10h0a3.86,3.86,0,0,0,0,2.08Zm-6.6,0h6.57a3.88,3.88,0,0,1,0-2.07A4.41,4.41,0,0,0,24,8.81a4.72,4.72,0,0,0-3,1l-.29.19A3.82,3.82,0,0,1,20.75,12.09Z"/><path class="cls-9" d="M21.46,10.82l-.07.8h0l-.28-.79.14.83h0l-.32-.42.19.5-.23-.16.14.26h0l-.17,0,.1.14a.55.55,0,0,0,0,.19H22A.55.55,0,0,0,22,12l.22-.21-.27.09h0c0-.05.45-.55.43-.55s-.51.43-.53.44h0l.39-.86-.54.78h0l.16-.82-.28.79-.07-.79Z"/><path class="cls-10" d="M20.7,12.1a6,6,0,0,1-.29.75A2.7,2.7,0,0,0,21,15.64c1.36,1.36,2.4.81,2.92,1.56h.11c.52-.74,1.56-.19,2.92-1.56a2.69,2.69,0,0,0,.62-2.78,6.26,6.26,0,0,1-.29-.75H20.7"/><path class="cls-7" d="M24.06,17.2h-.12a1.42,1.42,0,0,0-1-.5,3.65,3.65,0,0,1-2-1.06,2.7,2.7,0,0,1-.62-2.79,5.93,5.93,0,0,0,.29-.75h6.62a6.08,6.08,0,0,0,.28.73v0a2.44,2.44,0,0,1,.13,1.26A2.68,2.68,0,0,1,27,15.64a3.65,3.65,0,0,1-2,1.06,1.42,1.42,0,0,0-1,.5Zm-.11,0H24a1.44,1.44,0,0,1,1-.5,3.63,3.63,0,0,0,2-1.05,2.66,2.66,0,0,0,.74-1.52,2.41,2.41,0,0,0-.13-1.25v0a6.13,6.13,0,0,1-.28-.73H20.71a6,6,0,0,1-.29.75A2.68,2.68,0,0,0,21,15.63a3.63,3.63,0,0,0,2,1.05A1.44,1.44,0,0,1,24,17.18Z"/><path class="cls-11" d="M26,12.65c0-.21.22-.41.24-.58a.82.82,0,0,1,.13-.37,1,1,0,0,0,.14-.34c0-.14.13-.17.18,0a6.16,6.16,0,0,0,.19.59.58.58,0,0,1,.09.26c0,.06.06.08.1.12s0,.17.17.29a1.56,1.56,0,0,0,.37.25,2.23,2.23,0,0,1,.15,1H20.24c0-.1,0-.2,0-.3.67-.17.92-.61,1.2-.58a4.15,4.15,0,0,1,.47-.56,2.82,2.82,0,0,0,.53-1c.08-.34.19-.52.27-.5s.12,0,.22.34.24.47.34.77a2.35,2.35,0,0,0,.59,1,2.32,2.32,0,0,0,.47-.4,1,1,0,0,1,.25-.31,2.59,2.59,0,0,1,.16-.45.31.31,0,0,0,.07-.2,1.24,1.24,0,0,1,.18-.47c.1-.17.24-.22.3,0a7.93,7.93,0,0,0,.32,1,2.24,2.24,0,0,0,.36.61l0,0v0Z"/><path class="cls-7" d="M27.77,13.83H20.23c0-.09,0-.19,0-.3h0a2.23,2.23,0,0,0,.78-.39.7.7,0,0,1,.42-.19,4.19,4.19,0,0,1,.47-.56,2.82,2.82,0,0,0,.53-1c.08-.33.19-.53.29-.51s.13,0,.23.35a2.52,2.52,0,0,0,.2.46,2,2,0,0,1,.14.31,2.32,2.32,0,0,0,.58,1l0,0a2.13,2.13,0,0,0,.43-.38h0a1,1,0,0,1,.25-.31l0-.14a1.26,1.26,0,0,1,.11-.31.3.3,0,0,0,.07-.2,1.26,1.26,0,0,1,.18-.47c.06-.1.14-.16.2-.15s.09,0,.12.15a7.85,7.85,0,0,0,.32,1v0a2.2,2.2,0,0,0,.35.58h0a1.15,1.15,0,0,1,.13-.31.83.83,0,0,0,.11-.26.83.83,0,0,1,.14-.38,1,1,0,0,0,.14-.34c0-.08.05-.13.1-.13h0s.08,0,.1.1l.05.18a3,3,0,0,0,.13.41.59.59,0,0,1,.09.27s0,.05.06.08l0,0a.22.22,0,0,1,0,.08.51.51,0,0,0,.13.21,1.55,1.55,0,0,0,.36.25h0a2.25,2.25,0,0,1,.15,1Zm-7.51,0h7.49a2.23,2.23,0,0,0-.15-.94,1.56,1.56,0,0,1-.37-.25.53.53,0,0,1-.13-.21.21.21,0,0,0,0-.07l0,0s-.07-.05-.07-.1a.57.57,0,0,0-.09-.25,2.9,2.9,0,0,1-.14-.41l-.05-.18c0-.05,0-.09-.08-.09h0s-.07,0-.08.11a1,1,0,0,1-.14.34.8.8,0,0,0-.13.37.84.84,0,0,1-.11.27,1.13,1.13,0,0,0-.13.31h0v0l0,0a2.22,2.22,0,0,1-.35-.59v0a7.87,7.87,0,0,1-.32-1c0-.08-.06-.13-.1-.14s-.12,0-.17.14a1.24,1.24,0,0,0-.18.46.32.32,0,0,1-.07.21,1.3,1.3,0,0,0-.11.3l0,.14h0a1,1,0,0,0-.24.31h0a2.09,2.09,0,0,1-.44.38l0,0h0a2.32,2.32,0,0,1-.59-1,2,2,0,0,0-.14-.3,2.54,2.54,0,0,1-.2-.46c-.1-.31-.14-.31-.21-.33s-.18.13-.26.49a2.85,2.85,0,0,1-.53,1,4.19,4.19,0,0,0-.47.56h0c-.13,0-.25.08-.41.19a2.26,2.26,0,0,1-.78.39C20.26,13.62,20.25,13.72,20.26,13.8Z"/><path class="cls-11" d="M23.18,12.14a.42.42,0,0,1,0,.15.47.47,0,0,1,.07.19s.13,0,.15.1a1.07,1.07,0,0,1,0,.28s.12.09.13.15.05.05.1,0,.12.14.25.11.07.12.26.12a.39.39,0,0,1,.34.12c.08-.11.16-.07.24,0s.17,0,.09,0a.5.5,0,0,0-.34-.05.31.31,0,0,1-.27-.07.55.55,0,0,0-.29-.13c-.08,0-.1,0-.16-.1a.23.23,0,0,0-.21-.08s-.08-.06,0-.12,0-.1,0-.15,0-.12-.09-.13-.07,0-.05-.12-.21-.15-.19-.24"/><path class="cls-11" d="M27.48,13.12c0-.11-.07-.16-.09-.24s-.15-.09-.19-.06a.1.1,0,0,1,0,.09s0,0,0,0,.07,0,.07,0,0,0,0,0,.11,0,.12.11,0,.12.06,0"/><path class="cls-11" d="M27,13s.08.1.11.1a.1.1,0,0,1,.09.06s0,.08.07.08,0,0,0,0-.12,0-.12-.06,0,.1,0,0-.06-.11-.12-.12,0,0,0-.06,0-.15,0-.08"/><path class="cls-2" d="M24,9.46l-.07.24h-.25l.2.15-.08.24.2-.15.2.15-.08-.24.2-.14h-.25L24,9.46"/><path class="cls-2" d="M23,9.53l0,.25-.25,0,.22.11,0,.25.17-.18.22.11-.11-.22.18-.17-.25,0-.11-.22"/><path class="cls-2" d="M22.12,9.77V10l-.24.08.24.07v.25l.14-.2.24.07-.15-.2.14-.2-.24.08-.15-.2"/><path class="cls-2" d="M21.24,10.15l0,.25-.22.12.25,0,0,.25.11-.22.25,0-.18-.17.11-.22-.22.12-.18-.17"/><path class="cls-2" d="M25,9.53l0,.25.25,0L25,9.93l0,.25L24.87,10l-.22.11.11-.22-.17-.17.25,0L25,9.53"/><path class="cls-2" d="M25.88,9.77V10l.24.08-.24.07v.25l-.14-.2-.24.07.15-.2-.14-.2.23.08.15-.2"/><path class="cls-2" d="M26.76,10.15l0,.25.22.12-.25,0,0,.25-.11-.22-.25,0,.18-.17-.11-.22.22.12.18-.17"/><path class="cls-12" d="M23.26,15.76l0-2.5c0-.12,0-.14,0,0v2.54"/><path class="cls-13" d="M23.26,15.76l0-2.5c0-.12,0-.14,0,0v2.54"/><path d="M23.33,15.8h0V13.47l0,2.29h0v0l0-2.5c0-.11,0-.11,0-.11h0s0,0,0,.11v2.54h0Z"/><path class="cls-2" d="M23.33,13.25c.09-.07.28.09.41,0-.07.24-.37.05-.41.14v-.16"/><path d="M23.34,13.42h0v-.17h0s.12,0,.2,0a.28.28,0,0,0,.21,0l0,0v0c-.05.16-.19.15-.3.13S23.35,13.4,23.34,13.42Zm0,0h.07c.1,0,.2,0,.25-.08a.38.38,0,0,1-.2,0c-.07,0-.13,0-.17,0v.12Z"/><path d="M23.33,13.43h0v-.16h0s.12,0,.2,0a.28.28,0,0,0,.21,0h0a0,0,0,0,1,0,0c-.05.16-.19.15-.3.13s-.1,0-.11,0Zm.06-.06h.07c.1,0,.2,0,.25-.08a.38.38,0,0,1-.2,0c-.07,0-.13,0-.17,0v.12Z"/><path class="cls-12" d="M24.1,15.76l0-2.5c0-.12,0-.14,0,0v2.53"/><path class="cls-13" d="M24.1,15.76l0-2.5c0-.12,0-.14,0,0v2.53"/><path d="M24.17,15.81h0V13.48l0,2.28h0v0l0-2.5c0-.11,0-.11,0-.11h0s0,0,0,.11v2.53h0Z"/><path class="cls-2" d="M24.17,13.26c.09-.07.28.09.41,0-.08.24-.37.05-.41.14v-.16"/><path d="M24.17,13.44h0v-.16h0s.12,0,.2,0a.27.27,0,0,0,.21,0h0a0,0,0,0,1,0,0c-.05.16-.19.15-.3.13s-.1,0-.11,0Zm.06-.06h.07c.1,0,.2,0,.25-.08a.37.37,0,0,1-.2,0c-.07,0-.13,0-.17,0v.12Z"/><path class="cls-12" d="M24.9,15.9l0-2.5c0-.12,0-.14,0,0v2.53"/><path class="cls-13" d="M24.9,15.9l0-2.5c0-.12,0-.14,0,0v2.53"/><path d="M25,15.94h0V13.62l0,2.28h0v0l0-2.5c0-.11,0-.11,0-.11h0s0,0,0,.11v2.53h0Z"/><path class="cls-2" d="M25,13.4c.09-.07.28.09.41,0-.08.24-.37.05-.41.14V13.4"/><path d="M25,13.58h0V13.4h0s.12,0,.19,0a.27.27,0,0,0,.21,0h0a0,0,0,0,1,0,0c-.05.16-.2.15-.3.13s-.1,0-.11,0Zm.06-.06h.07c.09,0,.2,0,.25-.08a.38.38,0,0,1-.2,0c-.07,0-.13,0-.16,0v.12Z"/><path class="cls-13" d="M25.19,16.19a.26.26,0,0,1-.22-.11.44.44,0,0,1-.43,0,.43.43,0,0,1-.4,0,.54.54,0,0,1-.49,0,.6.6,0,0,1-.3.11,2.31,2.31,0,0,0-.67-.56l-1-.45c-.15-.06-.28-.17,0-.05l1.09.46a10.3,10.3,0,0,0,2.6.15,1.35,1.35,0,0,0,.51-.22c.11-.07.12,0,0,0a.85.85,0,0,0-.34.24c-.13.18-.3.25-.37.37"/><path class="cls-13" d="M25.19,16.19a.26.26,0,0,1-.22-.11.44.44,0,0,1-.43,0,.43.43,0,0,1-.4,0,.54.54,0,0,1-.49,0,.6.6,0,0,1-.3.11,2.31,2.31,0,0,0-.67-.56l-1-.45c-.15-.06-.28-.17,0-.05l1.09.46a10.3,10.3,0,0,0,2.6.15,1.35,1.35,0,0,0,.51-.22c.11-.07.12,0,0,0a.85.85,0,0,0-.34.24c-.13.18-.3.25-.37.37h0Z"/><path d="M23.33,16.23h0a2.31,2.31,0,0,0-.66-.56l-1-.45s-.19-.08-.17-.12,0,0,.18,0l.44.19.65.28a10.42,10.42,0,0,0,2.59.14,1.35,1.35,0,0,0,.51-.22c.08,0,.09,0,.1,0v0s-.05.06-.09.07l-.06,0a.69.69,0,0,0-.28.21,1.16,1.16,0,0,1-.22.22.64.64,0,0,0-.15.15h0a.29.29,0,0,1-.23-.1.48.48,0,0,1-.43,0,.46.46,0,0,1-.4,0,.56.56,0,0,1-.49,0,.64.64,0,0,1-.3.11Zm-1.74-1.11.13.07,1,.45a2.32,2.32,0,0,1,.67.56.58.58,0,0,0,.28-.11h0a.52.52,0,0,0,.48,0h0a.41.41,0,0,0,.39,0h0a.43.43,0,0,0,.41,0h0a.24.24,0,0,0,.21.1h0a.67.67,0,0,1,.16-.16,1.14,1.14,0,0,0,.21-.21.52.52,0,0,1,.11-.12.8.8,0,0,1-.28.09,10.22,10.22,0,0,1-2.61-.15l-.65-.28-.44-.19Zm4.34.42h0Z"/><path class="cls-2" d="M25.36,13.83l-.59-.06a.68.68,0,0,0-.06.55c.19-.18.53-.09.71,0-.06-.16-.14-.37,0-.49"/><path d="M25.41,14.33h0c-.18-.1-.51-.18-.69,0h0a.7.7,0,0,1,.06-.56h0l.59.06h0a0,0,0,0,1,0,0c-.09.11,0,.29,0,.44v0a0,0,0,0,1,0,0ZM25,14.2a.94.94,0,0,1,.39.09c-.05-.15-.12-.33,0-.45l-.57-.06a.67.67,0,0,0-.06.51A.44.44,0,0,1,25,14.2Z"/><path class="cls-2" d="M25.41,14.32h-.73a.65.65,0,0,0,0,.56c.16-.25.65-.12.84.06a.71.71,0,0,1-.09-.62"/><path d="M25.5,15h0a.84.84,0,0,0-.6-.19.29.29,0,0,0-.22.13h0a.6.6,0,0,1,0-.58h.75a0,0,0,0,1,0,0,.7.7,0,0,0,.08.61,0,0,0,0,1,0,0ZM25,14.72a.92.92,0,0,1,.49.16.68.68,0,0,1-.06-.55h-.7a.57.57,0,0,0,0,.52.33.33,0,0,1,.23-.11Z"/><path class="cls-2" d="M25.49,14.94c-.17,0-.73-.07-.84-.1a2.52,2.52,0,0,0-.2.66c.27-.3.89-.08,1,.21-.13-.25-.26-.62,0-.77"/><path d="M25.48,15.73h0l0,0a.76.76,0,0,0-.52-.3.52.52,0,0,0-.47.13h0v0a2.53,2.53,0,0,1,.2-.67h0l.43.05.4,0h0a0,0,0,0,1,0,0c-.27.15-.14.5,0,.72l0,0a0,0,0,0,1,0,0Zm-.66-.38h.12a.88.88,0,0,1,.46.22c-.09-.21-.15-.49.06-.63l-.37,0-.42,0a2.49,2.49,0,0,0-.19.6A.5.5,0,0,1,24.81,15.35Z"/><path class="cls-2" d="M24.75,13.65l-.79-.1a.94.94,0,0,0-.18.63.83.83,0,0,1,.92.13c-.05-.24-.12-.55.05-.66"/><path d="M24.69,14.31a.68.68,0,0,0-.47-.21.59.59,0,0,0-.43.08l0,0v0a1,1,0,0,1,.19-.64h0l.78.1h0v0c-.16.11-.1.4,0,.64h0Zm-.59-.24h.12a.82.82,0,0,1,.45.17c0-.22-.09-.47,0-.59l-.74-.1a.93.93,0,0,0-.18.58A.56.56,0,0,1,24.11,14.07Z"/><path d="M24.71,14.32h0a.68.68,0,0,0-.47-.21.59.59,0,0,0-.43.08h0a1,1,0,0,1,.19-.64h0l.78.1h0a0,0,0,0,1,0,0h0c-.15.11-.09.4,0,.64h0a0,0,0,0,1,0,0Zm-.6-.25h.12a.82.82,0,0,1,.45.17c0-.22-.09-.47,0-.59l-.74-.1a.93.93,0,0,0-.18.58A.56.56,0,0,1,24.11,14.07Z"/><path class="cls-2" d="M24.69,14.33l-.87-.12a.92.92,0,0,0-.1.69,1,1,0,0,1,1,.15c-.09-.32-.17-.51,0-.72"/><path d="M24.72,15.06h0a.74.74,0,0,0-.48-.21.7.7,0,0,0-.49.07h0a.92.92,0,0,1,.1-.7h0l.87.12h0a0,0,0,0,1,0,0c-.13.18-.08.35,0,.62l0,.09a0,0,0,0,1,0,0Zm-.66-.26h.17a.92.92,0,0,1,.46.17v0c-.08-.26-.13-.44,0-.63l-.84-.11a.88.88,0,0,0-.09.65A.62.62,0,0,1,24.06,14.8Z"/><path class="cls-2" d="M24.72,15,23.83,15a.76.76,0,0,0-.2.61c.14-.23.73-.06,1,.19a.48.48,0,0,1,.11-.71"/><path d="M24.61,15.77h0a1.09,1.09,0,0,0-.77-.29.23.23,0,0,0-.18.1h0a.78.78,0,0,1,.21-.62h0l.89.09h0a0,0,0,0,1,0,0,.47.47,0,0,0-.11.69,0,0,0,0,1,0,0Zm-.72-.33a1.17,1.17,0,0,1,.65.24.49.49,0,0,1,.14-.62L23.84,15a.76.76,0,0,0-.2.55.29.29,0,0,1,.18-.08Z"/><path class="cls-2" d="M23.28,13.65a1.31,1.31,0,0,0-.27.4.85.85,0,0,1,.73.07.55.55,0,0,1,0-.43,1.2,1.2,0,0,0-.43,0"/><path d="M23.74,14.14h0a.83.83,0,0,0-.71-.07h0a0,0,0,0,1,0,0,1.32,1.32,0,0,1,.27-.41h0a1.2,1.2,0,0,1,.43,0h0a0,0,0,0,1,0,0,.54.54,0,0,0,0,.41,0,0,0,0,1,0,0ZM23.3,14a.78.78,0,0,1,.4.1.58.58,0,0,1,0-.38,1.27,1.27,0,0,0-.4,0h0A1.33,1.33,0,0,0,23,14,.89.89,0,0,1,23.3,14Z"/><path class="cls-2" d="M22.91,14.17a4.4,4.4,0,0,1,.9.11.94.94,0,0,0-.06.68,1.19,1.19,0,0,0-1.13-.21c.06-.14.19-.43.28-.58"/><path d="M23.76,15h0a1.18,1.18,0,0,0-1.11-.2h0a0,0,0,0,1,0,0c.06-.15.2-.43.28-.58h0a4.5,4.5,0,0,1,.88.11h0a0,0,0,0,1,0,0,.93.93,0,0,0-.05.66,0,0,0,0,1,0,0Zm-.74-.3a1.13,1.13,0,0,1,.72.24,1,1,0,0,1,.06-.62,4.57,4.57,0,0,0-.85-.1h0c-.08.14-.2.39-.26.54A1.36,1.36,0,0,1,23,14.67Z"/><path class="cls-2" d="M23.82,15a3.06,3.06,0,0,1-1-.22,3.34,3.34,0,0,0-.14.79c.25-.34.86-.15,1.06.19,0-.18-.09-.63.12-.77"/><path d="M23.68,15.8a.8.8,0,0,0-.62-.36.46.46,0,0,0-.42.17l0,0v0a3.38,3.38,0,0,1,.14-.8v0h0a3.08,3.08,0,0,0,1,.22h0c-.18.13-.13.52-.11.71v0ZM23,15.41h0a.84.84,0,0,1,.61.32c0-.2-.05-.54.1-.69a3.19,3.19,0,0,1-1-.21,3.32,3.32,0,0,0-.13.73A.49.49,0,0,1,23,15.41Z"/><path d="M23.7,15.81h0a.8.8,0,0,0-.62-.36.46.46,0,0,0-.42.17h0a3.38,3.38,0,0,1,.14-.8h0a3.08,3.08,0,0,0,1,.22h0c-.18.13-.13.52-.11.71v.06Zm-.67-.4h0a.84.84,0,0,1,.61.32c0-.2-.05-.54.1-.69a3.19,3.19,0,0,1-1-.21,3.32,3.32,0,0,0-.13.73A.49.49,0,0,1,23,15.41Z"/><path class="cls-2" d="M23.28,13.65A3.33,3.33,0,0,0,22,15.3a.52.52,0,0,1,.47.21,4.82,4.82,0,0,1,.79-1.87"/><path d="M22.48,15.52h0a.49.49,0,0,0-.44-.2h0a0,0,0,0,1,0,0,3.35,3.35,0,0,1,1.26-1.66h0a4.75,4.75,0,0,0-.78,1.85h0ZM22,15.28a.55.55,0,0,1,.45.19,5,5,0,0,1,.72-1.76A3.36,3.36,0,0,0,22,15.28Z"/><path d="M21.8,15.22h0a0,0,0,0,1,0,0,10.77,10.77,0,0,1,1.49-1.93h0a0,0,0,0,1,0,0,10.74,10.74,0,0,0-1.49,1.92Z"/><path d="M25.48,15.75h0a0,0,0,0,1,0,0,6.94,6.94,0,0,0-.12-1.9,0,0,0,0,1,0,0h0a7,7,0,0,1,.12,1.92Z"/><path class="cls-14" d="M26.1,15c-.16.08-.46-.14-.6,0v-.09c.14-.1.44.12.6,0V15"/><path class="cls-15" d="M26.1,15c-.16.08-.46-.14-.6,0v-.09c.14-.1.44.12.6,0V15Z"/><path class="cls-2" d="M26.1,15.13c-.16.08-.46-.14-.6,0V15c.14-.1.44.12.6,0v.09"/><path class="cls-7" d="M26.1,15.13c-.16.08-.46-.14-.6,0V15c.14-.1.44.12.6,0v.09Z"/><path class="cls-16" d="M26.1,15.22c-.16.08-.46-.14-.6,0v-.09c.14-.1.44.12.6,0v.09"/><path class="cls-17" d="M26.1,15.22c-.16.08-.46-.14-.6,0v-.09c.14-.1.44.12.6,0v.09"/><path class="cls-2" d="M26.1,15.32c-.16.08-.46-.14-.6,0v-.09c.14-.09.44.12.6,0v.09"/><path class="cls-7" d="M26.1,15.32c-.16.08-.46-.14-.6,0v-.09c.14-.09.44.12.6,0v.09"/><path class="cls-14" d="M26.1,15.4c-.16.08-.46-.14-.6,0v-.09c.14-.1.44.12.6,0v.09"/><path class="cls-15" d="M26.1,15.4c-.16.08-.46-.14-.6,0v-.09c.14-.1.44.12.6,0v.09Z"/><path class="cls-12" d="M23.83,12.2v-.65s0,0,0,0v.66"/><path class="cls-13" d="M23.83,12.2v-.65s0,0,0,0v.66"/><path d="M23.84,12.22h0v-.65s0,0,0,0h0s0,0,0,0v.66h0Z"/><path class="cls-2" d="M23.84,11.55s.07,0,.11,0-.1,0-.11,0v0"/><path d="M23.84,11.6h0v0h0s0,0,.06,0H24s-.06,0-.08,0h0Zm0,0h0v0Z"/><path class="cls-12" d="M24,12.2v-.65s0,0,0,0v.66"/><path class="cls-13" d="M24,12.2v-.65s0,0,0,0v.66"/><path d="M24.06,12.22h0v-.65s0,0,0,0h0s0,0,0,0v.66h0Z"/><path class="cls-2" d="M24.06,11.55s.07,0,.11,0-.1,0-.11,0v0"/><path d="M24.06,11.61h0v0h0s0,0,.06,0h.06s-.06,0-.09,0h0Zm0,0h0v0Z"/><path class="cls-12" d="M24.25,12.24v-.65s0,0,0,0v.66"/><path class="cls-13" d="M24.25,12.24v-.65s0,0,0,0v.66"/><path d="M24.27,12.25h0v-.65s0,0,0,0h0s0,0,0,0v.66h0Z"/><path class="cls-2" d="M24.27,11.59s.07,0,.11,0-.1,0-.11,0v0"/><path d="M24.27,11.64h0v0h0a.07.07,0,0,1,.05,0h.07s-.06,0-.09,0h0Zm0,0h0v0Z"/><path class="cls-13" d="M24.33,12.31a.07.07,0,0,1-.06,0,.11.11,0,0,1-.11,0,.11.11,0,0,1-.1,0,.14.14,0,0,1-.13,0,.16.16,0,0,1-.08,0,.6.6,0,0,0-.17-.15l-.25-.12s-.07,0,0,0l.28.12a2.67,2.67,0,0,0,.67,0,.35.35,0,0,0,.13-.06s0,0,0,0a.22.22,0,0,0-.09.06s-.08.07-.1.1"/><path class="cls-13" d="M24.33,12.31a.07.07,0,0,1-.06,0,.11.11,0,0,1-.11,0,.11.11,0,0,1-.1,0,.14.14,0,0,1-.13,0,.16.16,0,0,1-.08,0,.6.6,0,0,0-.17-.15l-.25-.12s-.07,0,0,0l.28.12a2.67,2.67,0,0,0,.67,0,.35.35,0,0,0,.13-.06s0,0,0,0a.22.22,0,0,0-.09.06s-.08.07-.1.1h0Z"/><path d="M23.85,12.33h0a.59.59,0,0,0-.17-.14l-.25-.12c-.06,0-.05,0,0,0s0,0,.06,0l.11,0,.17.07a2.69,2.69,0,0,0,.67,0,.34.34,0,0,0,.13-.06h0s0,0,0,0h0a.17.17,0,0,0-.07.05l-.06.06,0,0h0a.09.09,0,0,1-.06,0,.13.13,0,0,1-.11,0,.13.13,0,0,1-.1,0,.16.16,0,0,1-.13,0l-.08,0Zm-.19-.18h0a.62.62,0,0,1,.17.14l.07,0h0a.13.13,0,0,0,.12,0h0a.1.1,0,0,0,.09,0h0a.11.11,0,0,0,.1,0h0l0,0,0,0,.05-.05h0a2.65,2.65,0,0,1-.68,0Z"/><path class="cls-2" d="M24.37,11.7l-.15,0a.18.18,0,0,0,0,.14s.14,0,.18,0,0-.1,0-.13"/><path d="M24.38,11.84h0s-.13,0-.17,0h0a.19.19,0,0,1,0-.15h0l.15,0h0a0,0,0,0,1,0,0s0,.07,0,.11h0a0,0,0,0,1,0,0Zm-.16-.14a.17.17,0,0,0,0,.11.18.18,0,0,1,.16,0,.15.15,0,0,1,0-.1Z"/><path class="cls-2" d="M24.38,11.82H24.2a.17.17,0,0,0,0,.15c0-.06.17,0,.22,0a.18.18,0,0,1,0-.16"/><path d="M24.41,12h0a.21.21,0,0,0-.15,0,.07.07,0,0,0-.05,0h0a.16.16,0,0,1,0-.16h.21a.17.17,0,0,0,0,.15,0,0,0,0,1,0,0Zm-.14-.07a.25.25,0,0,1,.11,0,.18.18,0,0,1,0-.12H24.2a.14.14,0,0,0,0,.11l.05,0Z"/><path class="cls-2" d="M24.41,12l-.22,0a.65.65,0,0,0-.05.17c.07-.08.23,0,.27.05s-.07-.16,0-.2"/><path d="M24.4,12.2h0a.19.19,0,0,0-.13-.07.13.13,0,0,0-.11,0h0a.66.66,0,0,1,.05-.17h.23c-.06,0,0,.12,0,.18h0a0,0,0,0,1,0,0Zm-.17-.11h0l.1,0a.13.13,0,0,1,0-.14h-.18a.63.63,0,0,0,0,.13Z"/><path class="cls-2" d="M24.21,11.65l-.2,0a.24.24,0,0,0,0,.16.21.21,0,0,1,.24,0c0-.06,0-.14,0-.17"/><path d="M24.2,11.83h0a.17.17,0,0,0-.12-.05.15.15,0,0,0-.11,0h0a.25.25,0,0,1,.05-.17h0l.2,0h0a0,0,0,0,1,0,0h0s0,.1,0,.16h0ZM24,11.75h0a.25.25,0,0,1,.11,0,.18.18,0,0,1,0-.13l-.18,0a.23.23,0,0,0,0,.13Z"/><path class="cls-2" d="M24.2,11.83l-.23,0a.24.24,0,0,0,0,.18.25.25,0,0,1,.26,0c0-.08,0-.13,0-.19"/><path d="M24.21,12h0a.19.19,0,0,0-.12-.05A.18.18,0,0,0,24,12h0a.25.25,0,0,1,0-.19h0l.23,0h0s0,.09,0,.15v0h0ZM24,11.94h0l.1,0a.18.18,0,0,1,0-.14l-.2,0A.22.22,0,0,0,24,12Z"/><path class="cls-2" d="M24.2,12,24,12a.2.2,0,0,0-.05.16c0-.06.19,0,.25,0a.13.13,0,0,1,0-.18"/><path d="M24.18,12.21h0a.28.28,0,0,0-.19-.07l0,0h0A.21.21,0,0,1,24,12h0l.23,0h0a.12.12,0,0,0,0,.17,0,0,0,0,1,0,0Zm-.19-.1a.31.31,0,0,1,.15,0,.13.13,0,0,1,0-.13L24,12a.19.19,0,0,0,0,.12H24Z"/><path class="cls-2" d="M23.83,11.65a.34.34,0,0,0-.07.1.22.22,0,0,1,.19,0,.14.14,0,0,1,0-.11h-.11"/><path d="M23.95,11.79h0a.21.21,0,0,0-.18,0h0a.35.35,0,0,1,.07-.11H24a.13.13,0,0,0,0,.1,0,0,0,0,1,0,0Zm-.11-.05.09,0a.16.16,0,0,1,0-.08h-.09l-.05.08Z"/><path class="cls-2" d="M23.74,11.79l.23,0A.24.24,0,0,0,24,12a.31.31,0,0,0-.29-.05l.07-.15"/><path d="M24,12h0a.3.3,0,0,0-.28-.05h0a0,0,0,0,1,0,0l.07-.15h0l.23,0h0A.23.23,0,0,0,24,12h0Zm-.19-.09a.3.3,0,0,1,.17.05.25.25,0,0,1,0-.14l-.21,0h0l-.06.12Z"/><path class="cls-2" d="M24,12A.79.79,0,0,1,23.7,12a.86.86,0,0,0,0,.21c.06-.09.22,0,.27.05s0-.16,0-.2"/><path d="M23.94,12.22h0a.2.2,0,0,0-.15-.09.11.11,0,0,0-.1,0h0a.88.88,0,0,1,0-.21h0A.79.79,0,0,0,24,12h0s0,.13,0,.18h0Zm-.17-.12h0a.23.23,0,0,1,.15.07.25.25,0,0,1,0-.15.87.87,0,0,1-.24-.05.84.84,0,0,0,0,.16A.14.14,0,0,1,23.77,12.1Z"/><path class="cls-2" d="M23.83,11.65a.86.86,0,0,0-.33.43.13.13,0,0,1,.12.05,1.25,1.25,0,0,1,.21-.48"/><path d="M23.63,12.15h0a.13.13,0,0,0-.11,0h0a.88.88,0,0,1,.33-.43h0a1.23,1.23,0,0,0-.2.48h0Zm-.11-.08a.16.16,0,0,1,.1,0,1.39,1.39,0,0,1,.16-.41A.89.89,0,0,0,23.52,12.07Z"/><path d="M23.45,12.07h0a0,0,0,0,1,0,0,2.76,2.76,0,0,1,.39-.5h0a0,0,0,0,1,0,0,2.78,2.78,0,0,0-.38.5Z"/><path d="M24.4,12.2h0a1.79,1.79,0,0,0,0-.49h0a1.82,1.82,0,0,1,0,.5Z"/><path class="cls-14" d="M24.56,12s-.12,0-.15,0v0s.11,0,.15,0v0"/><path class="cls-15" d="M24.56,12s-.12,0-.15,0v0s.11,0,.15,0v0Z"/><path class="cls-2" d="M24.56,12s-.12,0-.15,0v0s.11,0,.15,0v0"/><path class="cls-7" d="M24.56,12s-.12,0-.15,0v0s.11,0,.15,0v0Z"/><path class="cls-16" d="M24.56,12.06s-.12,0-.15,0v0s.11,0,.15,0v0"/><path class="cls-17" d="M24.56,12.06s-.12,0-.15,0v0s.11,0,.15,0v0"/><path class="cls-2" d="M24.56,12.08s-.12,0-.15,0v0s.11,0,.15,0v0"/><path class="cls-7" d="M24.56,12.08s-.12,0-.15,0v0s.11,0,.15,0v0"/><path class="cls-14" d="M24.56,12.11s-.12,0-.15,0v0s.11,0,.15,0v0"/><path class="cls-15" d="M24.56,12.11s-.12,0-.15,0v0s.11,0,.15,0v0Z"/><path class="cls-8" d="M24.16,6.57c0,.09,0,.33-.09.36.24.3.59.34,1.2.34h.92c0,.08,0,.16,0,.25s.1.13.23.1.44-.12.6,0,.77.28.9.44a1.09,1.09,0,0,0-.41-.53.86.86,0,0,1,.5.06c-.21-.23-.58-.23-.78-.34A2.39,2.39,0,0,0,26.69,7a.16.16,0,0,0-.06-.15,1.21,1.21,0,0,0-.55-.12.15.15,0,0,0,0-.12v-.3c0-.1,0-.13-.11-.2a3.54,3.54,0,0,0-2-.48,3.54,3.54,0,0,0-2,.48c-.12.07-.11.1-.11.2v.3a.14.14,0,0,0,0,.12,1.15,1.15,0,0,0-.55.12.16.16,0,0,0-.06.15,2.26,2.26,0,0,0-.52.24c-.19.11-.57.12-.78.34a.83.83,0,0,1,.5-.06,1.1,1.1,0,0,0-.41.53c.13-.15.63-.19.9-.44s.46-.06.6,0,.23,0,.23-.1,0-.18,0-.25h.92c.61,0,1,0,1.2-.34-.13,0-.11-.27-.09-.36a3.22,3.22,0,0,0-.66-.17c-.23,0-.27.12-.27.17v0c-.18,0-.43,0-.5-.16a4.76,4.76,0,0,1,3.16,0c-.06.12-.32.16-.5.16v0s0-.17-.27-.17a3,3,0,0,0-.66.17h0Z"/><path class="cls-7" d="M20.11,8.09h0a1.1,1.1,0,0,1,.39-.52.79.79,0,0,0-.47.06h0a0,0,0,0,1,0,0,1,1,0,0,1,.51-.25,1.21,1.21,0,0,0,.27-.09A2.38,2.38,0,0,1,21.3,7a.17.17,0,0,1,.07-.15,1.13,1.13,0,0,1,.53-.12.18.18,0,0,1,0-.11V6.31c0-.08,0-.11.11-.18a3.52,3.52,0,0,1,2-.48,3.53,3.53,0,0,1,2,.48c.11.07.11.1.11.19v.32a.19.19,0,0,1,0,.11,1.12,1.12,0,0,1,.53.12A.16.16,0,0,1,26.7,7a2.47,2.47,0,0,1,.51.24,1.21,1.21,0,0,0,.27.09A1,1,0,0,1,28,7.6a0,0,0,0,1,0,0h0a.82.82,0,0,0-.47-.06,1,1,0,0,1,.39.52h0a.91.91,0,0,0-.35-.17A1.59,1.59,0,0,1,27,7.65c-.14-.13-.4-.06-.55,0h0a.25.25,0,0,1-.21,0,.11.11,0,0,1,0-.09.94.94,0,0,1,0-.14.88.88,0,0,0,0-.1h-.91c-.64,0-1,0-1.2-.34h0c.12,0,.1-.26.08-.35a0,0,0,0,1,0,0h0l.28-.09a1,1,0,0,1,.37-.08c.22,0,.28.12.28.18v0a.64.64,0,0,0,.47-.15,4.76,4.76,0,0,0-3.13,0,.64.64,0,0,0,.47.15v0c0-.06.06-.18.28-.18a1,1,0,0,1,.37.08l.29.09h0c0,.09,0,.32.08.35h0c-.24.29-.58.34-1.2.34h-.91a.85.85,0,0,0,0,.1.94.94,0,0,1,0,.14.11.11,0,0,1,0,.09.25.25,0,0,1-.21,0h0c-.14,0-.41-.1-.56,0a1.61,1.61,0,0,1-.55.27.91.91,0,0,0-.35.17Zm6.63-.54a.38.38,0,0,1,.26.08,1.57,1.57,0,0,0,.54.26,1.19,1.19,0,0,1,.33.15,1.13,1.13,0,0,0-.4-.48h0a1.1,1.1,0,0,1,.44,0,1.19,1.19,0,0,0-.45-.19,1.22,1.22,0,0,1-.27-.1A2.4,2.4,0,0,0,26.69,7h0a.14.14,0,0,0-.06-.14,1.14,1.14,0,0,0-.54-.12h0a0,0,0,0,1,0,0,.14.14,0,0,0,0-.11V6.32c0-.08,0-.1-.1-.17a3.51,3.51,0,0,0-2-.48,3.5,3.5,0,0,0-2,.48c-.1.06-.1.09-.1.16v.33s0,.08,0,.11a0,0,0,0,1,0,0h0a1.16,1.16,0,0,0-.54.12.15.15,0,0,0-.06.14h0a2.3,2.3,0,0,0-.51.24,1.22,1.22,0,0,1-.27.1,1.2,1.2,0,0,0-.45.19,1,1,0,0,1,.44,0h0a1.15,1.15,0,0,0-.4.48,1.2,1.2,0,0,1,.33-.15A1.59,1.59,0,0,0,21,7.64c.15-.14.43-.07.58,0h0a.23.23,0,0,0,.19,0,.09.09,0,0,0,0-.07.92.92,0,0,0,0-.14.79.79,0,0,1,0-.11h.93c.62,0,.94,0,1.18-.32-.12,0-.1-.26-.08-.36l-.28-.09a1,1,0,0,0-.36-.08c-.2,0-.26.1-.26.15v0h0c-.15,0-.44,0-.51-.17h0a4.77,4.77,0,0,1,3.17,0h0c-.07.13-.35.17-.51.17h0v0c0-.05-.05-.15-.26-.15a1,1,0,0,0-.37.08l-.29.09c0,.11,0,.31-.08.36.23.28.55.32,1.18.32h.93a.78.78,0,0,1,0,.11.93.93,0,0,0,0,.14.09.09,0,0,0,0,.07.23.23,0,0,0,.19,0h0A1.36,1.36,0,0,1,26.74,7.56Z"/><path class="cls-7" d="M21.45,7.32c-.06,0-.09,0-.09.06s0,0,0,0a0,0,0,0,1,0,0h0s-.05,0-.05-.06,0-.06.1-.08a1.57,1.57,0,0,1,.37,0h0"/><path class="cls-7" d="M23.86,6.89h0a1.76,1.76,0,0,1-.31-.09,1.08,1.08,0,0,0-.36-.09c-.17,0-.21.06-.22.08a0,0,0,0,0,0,.05,0,0,0,0,1,0,0h0a.07.07,0,0,1,0-.07s.06-.09.24-.09a1.1,1.1,0,0,1,.37.09,1.74,1.74,0,0,0,.3.09h0Z"/><path class="cls-7" d="M22.24,6.92h0a1,1,0,0,1-.34-.15,0,0,0,0,1,0,0h0a1,1,0,0,0,.33.15,0,0,0,0,1,0,0Z"/><path class="cls-7" d="M26,6.81h0a0,0,0,0,1,0,0s.06,0,.06-.06-.12-.11-.31-.2l-.19-.09a0,0,0,0,1,0,0h0l.19.09c.24.12.32.17.32.22s0,.05-.07.08Z"/><path class="cls-7" d="M26.6,7.44h0a0,0,0,0,1,0,0s0,0,0,0,0,0-.09-.06a1.56,1.56,0,0,0-.37,0h0a1.58,1.58,0,0,1,.37,0c.06,0,.1,0,.1.08s0,0-.05.06Z"/><path class="cls-7" d="M24.14,6.89h0a1.75,1.75,0,0,0,.3-.09,1.1,1.1,0,0,1,.37-.09c.12,0,.22,0,.24.09a.07.07,0,0,1,0,.07h0a0,0,0,0,1,0,0,0,0,0,0,0,0-.05s0-.08-.22-.08a1.08,1.08,0,0,0-.36.09,1.77,1.77,0,0,1-.31.09Z"/><path class="cls-7" d="M26.16,7.53h0a.08.08,0,0,1,0-.06.34.34,0,0,1,.27,0,.23.23,0,0,0,.19,0,.13.13,0,0,0,0-.1V7h0V7.3a.15.15,0,0,1-.05.12.25.25,0,0,1-.21,0,.33.33,0,0,0-.25,0,.06.06,0,0,0,0,0Z"/><path class="cls-7" d="M24.85,7.05A2.2,2.2,0,0,1,24,6.9a0,0,0,0,1,0,0h0a2.78,2.78,0,0,0,1.74,0,1,1,0,0,0,.33-.15h0a0,0,0,0,1,0,0,1,1,0,0,1-.33.15A2.85,2.85,0,0,1,24.85,7.05Z"/><path class="cls-8" d="M24,6.94c.17,0,.17-.13.17-.24s0-.24-.17-.24-.17.13-.17.24S23.83,6.94,24,6.94Z"/><path class="cls-7" d="M24,7c-.18,0-.18-.15-.18-.25s0-.25.18-.25.18.15.18.25S24.18,7,24,7Zm0-.48c-.15,0-.16.1-.16.23s0,.23.16.23.16-.1.16-.23S24.15,6.47,24,6.47Z"/><path class="cls-7" d="M22,6.81h0s-.07,0-.07-.07.08-.1.32-.22l.2-.09h0a0,0,0,0,1,0,0l-.2.09c-.19.09-.31.16-.31.2s0,0,.06.06a0,0,0,0,1,0,0Z"/><g id="l"><path class="cls-18" d="M23.6,8.72a2.4,2.4,0,0,0,.62-.56c.14-.23.16-.12.27-.14a5.7,5.7,0,0,1-.8.74l-.08,0"/><path d="M23.68,8.77l-.11-.06h0a2.38,2.38,0,0,0,.61-.56c.1-.16.14-.16.2-.15h.1l0,0a5.67,5.67,0,0,1-.8.74Zm-.06-.06.06,0A5.63,5.63,0,0,0,24.46,8h-.05s-.08,0-.18.14A2.39,2.39,0,0,1,23.62,8.72Z"/><path class="cls-18" d="M21.68,9.27a.79.79,0,0,0-.93,0C20.91,9.34,21,9.59,21.68,9.27Z"/><path d="M21.15,9.44a.56.56,0,0,1-.3-.09l-.1,0v0a.33.33,0,0,0,.11-.05.71.71,0,0,1,.82,0h0A1.22,1.22,0,0,1,21.15,9.44Zm-.36-.14.07,0c.13.07.31.17.79-.07a.67.67,0,0,0-.78,0Z"/><path class="cls-18" d="M21.94,9.08A.78.78,0,0,0,21,9C21.17,9.09,21.28,9.36,21.94,9.08Z"/><path d="M21.44,9.22a.56.56,0,0,1-.34-.11L21,9.05V9l.11,0a.7.7,0,0,1,.82.08h0A1.32,1.32,0,0,1,21.44,9.22ZM21,9l.07,0c.13.08.3.2.8,0A.67.67,0,0,0,21.13,9Z"/><path class="cls-18" d="M22.65,8.67c-.49-.44-.78-.15-.91-.16C21.88,8.58,22,8.85,22.65,8.67Z"/><path d="M22.24,8.74a.57.57,0,0,1-.42-.16l-.09-.06v0l.12,0a.7.7,0,0,1,.8.19h0A1.59,1.59,0,0,1,22.24,8.74Zm-.47-.22.06,0c.12.1.27.23.79.1a.67.67,0,0,0-.76-.17Z"/><path class="cls-18" d="M23.06,8.53c-.47-.46-.77-.19-.9-.2C22.3,8.4,22.37,8.68,23.06,8.53Z"/><path d="M22.7,8.58a.58.58,0,0,1-.46-.18l-.09-.07v0l.12,0a.7.7,0,0,1,.79.23h0A1.7,1.7,0,0,1,22.7,8.58Zm-.51-.25.06.05c.11.1.26.25.78.14a.67.67,0,0,0-.75-.21Z"/><path class="cls-18" d="M23.49,8.48c-.39-.53-.73-.31-.86-.35C22.76,8.23,22.78,8.52,23.49,8.48Z"/><path d="M23.37,8.49c-.46,0-.58-.16-.67-.27l-.07-.08v0h.12a.7.7,0,0,1,.75.35v0h-.15Zm-.7-.35,0,.06c.09.12.22.29.76.26a.67.67,0,0,0-.71-.33Z"/><path class="cls-18" d="M23.56,8.5c0-.12-.24-.27-.26-.33a.06.06,0,0,0,0-.1s-.07,0-.09,0a.11.11,0,0,0,0,.16.73.73,0,0,1,.22.25"/><path d="M23.49,8.51a.72.72,0,0,0-.21-.25.13.13,0,0,1-.06-.09.12.12,0,0,1,0-.09.1.1,0,0,1,.07,0h0a.07.07,0,0,1,0,.07.07.07,0,0,1,0,0l.08.08a.55.55,0,0,1,.18.24h0c0-.07-.1-.15-.17-.22a.4.4,0,0,1-.09-.11h0a0,0,0,0,0,0,0,0,0,0,0,0,0,0h0l-.05,0a.1.1,0,0,0,0,.07.11.11,0,0,0,0,.08.74.74,0,0,1,.22.26Z"/><path class="cls-18" d="M21.16,9.31a2.57,2.57,0,0,1,.49,0"/><path d="M21.16,9.32h0a1.23,1.23,0,0,1,.33,0h0a1.21,1.21,0,0,0-.33,0Z"/><path class="cls-18" d="M21.41,9.08a2.26,2.26,0,0,1,.49,0"/><path d="M21.41,9.09h0a1.26,1.26,0,0,1,.35,0h0a1.24,1.24,0,0,0-.34,0Z"/><path class="cls-18" d="M21.8,8.85a2.71,2.71,0,0,1,.49,0"/><path d="M22.29,8.87h-.16a1.33,1.33,0,0,0-.33,0h0a1.33,1.33,0,0,1,.34,0h.16Z"/><path class="cls-18" d="M22.13,8.6a2.46,2.46,0,0,1,.49.06"/><path d="M22.62,8.67h0l-.15,0a1.26,1.26,0,0,0-.33,0h0a1.27,1.27,0,0,1,.34,0l.15,0h0Z"/><path class="cls-18" d="M22.55,8.43a2.34,2.34,0,0,1,.48.09"/><path d="M23,8.53h0l-.14,0a1.25,1.25,0,0,0-.34-.05h0a1.28,1.28,0,0,1,.34.05l.14,0h0Z"/><path class="cls-18" d="M23,8.3a2.29,2.29,0,0,1,.46.16"/><path d="M23.46,8.47h0l-.15-.06a1.1,1.1,0,0,0-.31-.1h0a1.12,1.12,0,0,1,.32.1l.14.06h0Z"/></g><g id="l-2" data-name="l"><path class="cls-18" d="M24.4,8.72a2.4,2.4,0,0,1-.62-.56c-.14-.23-.16-.12-.27-.14a5.7,5.7,0,0,0,.8.74l.08,0"/><path d="M24.31,8.77h0A5.68,5.68,0,0,1,23.5,8l0,0h.1c.06,0,.1,0,.2.15a2.38,2.38,0,0,0,.61.56h0ZM23.54,8a5.63,5.63,0,0,0,.78.71l.06,0a2.39,2.39,0,0,1-.6-.55C23.68,8,23.64,8,23.59,8Z"/><path class="cls-18" d="M26.32,9.27a.79.79,0,0,1,.93,0C27.09,9.34,27,9.59,26.32,9.27Z"/><path d="M26.85,9.44a1.22,1.22,0,0,1-.54-.16h0a.71.71,0,0,1,.82,0,.33.33,0,0,0,.11.05v0l-.1,0A.56.56,0,0,1,26.85,9.44Zm-.51-.17c.48.24.66.14.79.07l.07,0-.08,0A.67.67,0,0,0,26.34,9.27Z"/><path class="cls-18" d="M26.06,9.08A.78.78,0,0,1,27,9C26.83,9.09,26.72,9.36,26.06,9.08Z"/><path d="M26.56,9.22a1.32,1.32,0,0,1-.5-.12h0A.7.7,0,0,1,26.88,9L27,9v0l-.1.05A.56.56,0,0,1,26.56,9.22Zm-.47-.14c.5.2.67.09.8,0L27,9l-.08,0A.67.67,0,0,0,26.08,9.08Z"/><path class="cls-18" d="M25.67,8.86a.79.79,0,0,1,.93-.06C26.44,8.86,26.33,9.12,25.67,8.86Z"/><path d="M26.16,9a1.38,1.38,0,0,1-.49-.11h0a.7.7,0,0,1,.82-.1l.11,0v0l-.1.05A.56.56,0,0,1,26.16,9Zm-.46-.13c.5.19.67.08.8,0l.07,0-.09,0A.67.67,0,0,0,25.69,8.86Z"/><path class="cls-18" d="M25.35,8.67c.49-.44.78-.15.91-.16C26.11,8.58,26,8.85,25.35,8.67Z"/><path d="M25.76,8.74a1.59,1.59,0,0,1-.41-.06h0a.7.7,0,0,1,.8-.19l.12,0v0l-.09.06A.57.57,0,0,1,25.76,8.74Zm-.38-.08c.52.14.68,0,.79-.1l.06,0-.09,0A.67.67,0,0,0,25.37,8.66Z"/><path class="cls-18" d="M24.94,8.53c.47-.46.77-.19.9-.2C25.7,8.4,25.63,8.68,24.94,8.53Z"/><path d="M25.3,8.58a1.7,1.7,0,0,1-.36,0h0a.7.7,0,0,1,.79-.23l.12,0v0l-.09.07A.58.58,0,0,1,25.3,8.58ZM25,8.52c.52.11.67,0,.78-.14l.06-.05-.09,0A.67.67,0,0,0,25,8.52Z"/><path class="cls-18" d="M24.51,8.48c.39-.53.73-.31.86-.35C25.24,8.23,25.22,8.52,24.51,8.48Z"/><path d="M24.63,8.49h-.15v0a.7.7,0,0,1,.74-.35h.12v0l-.07.08C25.21,8.34,25.09,8.49,24.63,8.49Zm-.11,0c.54,0,.67-.14.76-.26l0-.06h-.09A.67.67,0,0,0,24.53,8.47Z"/><path class="cls-18" d="M24.43,8.5c0-.12.24-.27.26-.33a.06.06,0,0,1,0-.1s.07,0,.09,0a.11.11,0,0,1,0,.16.73.73,0,0,0-.22.25"/><path d="M24.51,8.51h0a.74.74,0,0,1,.22-.26.11.11,0,0,0,0-.07.1.1,0,0,0,0-.07l-.05,0h0a0,0,0,0,0,0,0,0,0,0,0,0,0,0h0a.4.4,0,0,1-.09.11c-.07.07-.16.15-.17.22h0a.55.55,0,0,1,.18-.24l.08-.08a.07.07,0,0,1,0,0,.07.07,0,0,1,0-.07h0a.1.1,0,0,1,.07,0,.12.12,0,0,1,0,.09.13.13,0,0,1-.06.09A.72.72,0,0,0,24.51,8.51Z"/><path class="cls-18" d="M26.84,9.31a2.57,2.57,0,0,0-.49,0"/><path d="M26.84,9.32h0a1.21,1.21,0,0,0-.33,0h0a1.23,1.23,0,0,1,.33,0h0Z"/><path class="cls-18" d="M26.59,9.08a2.26,2.26,0,0,0-.49,0"/><path d="M26.59,9.09h0a1.24,1.24,0,0,0-.34,0h0a1.25,1.25,0,0,1,.35,0h0Z"/><path class="cls-18" d="M26.2,8.85a2.71,2.71,0,0,0-.49,0"/><path d="M25.7,8.87h.16a1.33,1.33,0,0,1,.34,0h0a1.32,1.32,0,0,0-.33,0Z"/><path class="cls-18" d="M25.87,8.6a2.46,2.46,0,0,0-.49.06"/><path d="M25.38,8.67h0l.15,0a1.27,1.27,0,0,1,.34,0h0a1.26,1.26,0,0,0-.33,0l-.15,0Z"/><path class="cls-18" d="M25.45,8.43a2.34,2.34,0,0,0-.48.09"/><path d="M25,8.53h0l.14,0a1.3,1.3,0,0,1,.34-.05h0a1.26,1.26,0,0,0-.34.05l-.14,0Z"/><path class="cls-18" d="M25,8.3a2.29,2.29,0,0,0-.46.16"/><path d="M24.54,8.47h0l.14-.06a1.12,1.12,0,0,1,.32-.1h0a1.1,1.1,0,0,0-.31.1l-.15.06Z"/></g><path class="cls-2" d="M24,8.69h.32V8.49c0-.06.21-.13.54-.07,1.26.25,1.43.82,2.39,1.14l.09,0,.08-.19c0-.05.16,0,.28,0s.2.15.18.19l-.07.16c.22.08.63.2.5.74a.92.92,0,0,0-.51-.21c-.18,0-.37-.07-.31-.26L27.36,10l0,0c0,.1-.22.14-.4.08-1-.34-1.31-1.1-2.49-1.11V9c0,.1-.12.18-.45.18s-.45-.09-.45-.18V9c-1.18,0-1.49.76-2.49,1.11-.17.06-.35,0-.4-.08l0,0-.12.05c.06.19-.13.26-.31.26a.93.93,0,0,0-.51.21c-.13-.53.27-.65.5-.74l-.07-.16s0-.12.18-.19.26-.06.28,0l.08.19.09,0c1-.33,1.13-.9,2.39-1.14.32-.06.54,0,.54.07v.18H24Z"/><path d="M19.7,10.51h0c-.13-.52.25-.66.48-.74h0l-.06-.14a.06.06,0,0,1,0,0,.46.46,0,0,1,.44-.2.06.06,0,0,1,0,0l0,.07,0,.11h.08a3.61,3.61,0,0,0,.93-.5,3.46,3.46,0,0,1,1.46-.65.75.75,0,0,1,.52,0,.05.05,0,0,1,0,0v.17h.61V8.49a.05.05,0,0,1,0,0,.75.75,0,0,1,.52,0,3.45,3.45,0,0,1,1.46.64,3.6,3.6,0,0,0,.93.5h0l.07,0,0-.07,0-.11,0,0a.37.37,0,0,1,.26,0,.35.35,0,0,1,.19.16.05.05,0,0,1,0,0l0,.11,0,0h0c.23.08.61.21.48.74h0a.91.91,0,0,0-.5-.21.39.39,0,0,1-.3-.11.18.18,0,0,1,0-.16h0l-.09,0,0,0c0,.11-.23.14-.41.08a3.73,3.73,0,0,1-1-.53A2.44,2.44,0,0,0,24.46,9V9c0,.06,0,.19-.46.19s-.46-.07-.46-.19V9A2.43,2.43,0,0,0,22,9.58a3.76,3.76,0,0,1-1,.53c-.18.06-.36,0-.41-.08l0,0-.09,0h0a.18.18,0,0,1,0,.16.37.37,0,0,1-.3.11.93.93,0,0,0-.5.21Zm.79-1.13a.43.43,0,0,0-.18,0c-.11.05-.16.11-.18.15a0,0,0,0,0,0,0l.06.14v0h0c-.23.08-.58.21-.47.7a1,1,0,0,1,.5-.2.35.35,0,0,0,.28-.1.16.16,0,0,0,0-.15h0l.11,0h0l0,0c0,.09.22.13.38.07a3.74,3.74,0,0,0,1-.53A2.44,2.44,0,0,1,23.55,9h0V9s0,.17.44.17.44-.06.44-.17V9h0A2.45,2.45,0,0,1,26,9.56a3.71,3.71,0,0,0,1,.53c.17.06.34,0,.38-.07l0,0h0l.11,0h0a.16.16,0,0,0,0,.15.35.35,0,0,0,.28.1,1,1,0,0,1,.5.2c.11-.49-.24-.62-.47-.7h0l0-.05,0-.11a0,0,0,0,0,0,0s-.06-.09-.18-.15a.35.35,0,0,0-.24,0l0,0,0,.11,0,.08h0l-.08,0h0a3.62,3.62,0,0,1-.94-.5,3.43,3.43,0,0,0-1.45-.64.73.73,0,0,0-.51,0l0,0v.18h-.66V8.49l0,0a.72.72,0,0,0-.51,0,3.44,3.44,0,0,0-1.46.64,3.63,3.63,0,0,1-.93.5h0l-.07,0h0l-.05-.11,0-.07,0,0ZM24,8.68h0Z"/><path class="cls-2" d="M23.68,8.68c-.08,0-.13,0-.13-.06s.13-.05.13-.12"/><path d="M23.68,8.69h0c-.1,0-.14,0-.14-.07s0-.07.08-.08.06,0,.06,0h0s0,.05-.07.07-.06,0-.06.06,0,0,.12,0h0Z"/><path class="cls-2" d="M20.47,9.58l.17.4"/><path d="M20.64,10h0l-.17-.39h0a0,0,0,0,1,0,0h0l.17.39a0,0,0,0,1,0,0Z"/><path class="cls-2" d="M20.35,9.64c0,.11.14.31.17.39"/><path d="M20.52,10h0c0-.05-.06-.16-.11-.26l-.06-.13a0,0,0,0,1,0,0h0l.06.13c0,.1.09.2.11.26h0Z"/><path d="M20.19,9.77h0a0,0,0,0,1,0,0c.13,0,.16-.07.15-.12s-.05,0-.09,0-.11,0-.13,0a0,0,0,0,1,0,0h0s.06,0,.11,0,.1,0,.12,0-.05.11-.16.15Z"/><path d="M20.55,9.62s-.07,0-.09,0,0-.07.06-.1.07,0,.06-.07h0s0,.07-.06.1-.06,0,0,.07,0,0,.18,0h0Z"/><path d="M23.54,9h0V8.61h0V9Z"/><path class="cls-2" d="M24.32,8.68c.08,0,.13,0,.13-.06s-.13-.05-.13-.12"/><path d="M24.32,8.69h0c.08,0,.12,0,.12,0s0,0-.06-.06-.07,0-.07-.07h0s0,0,.06,0,.08,0,.08.08,0,.06-.14.07Z"/><path class="cls-2" d="M27.53,9.58l-.17.4"/><path d="M27.36,10h0a0,0,0,0,1,0,0l.17-.39h0l-.17.39Z"/><path class="cls-2" d="M27.65,9.64c0,.11-.14.31-.17.39"/><path d="M27.48,10h0c0-.06.07-.16.11-.26l.06-.13h0a0,0,0,0,1,0,0l-.06.13c0,.1-.09.21-.11.26Z"/><path d="M24.46,9h0V8.61h0V9Z"/><path d="M21,10l-.11-.38.13,0h.08l0,0a.13.13,0,0,1,0,.06.12.12,0,0,1,0,.08.1.1,0,0,1-.05.05l0,0,.05.05.06.06-.07,0-.07-.07,0,0H21l0,.16Zm0-.24h0l.05,0v0a.06.06,0,0,0,0,0l0,0H21Z"/><path d="M21.36,9.87l-.17-.35.21-.11,0,.06-.16.08,0,.08.14-.07,0,.06-.14.07,0,.1.16-.08,0,.06Z"/><path d="M21.64,9.72l-.21-.33.09-.06.07,0h.06a.14.14,0,0,1,.06.05.14.14,0,0,1,0,.07.09.09,0,0,1,0,.06l-.06.05,0,0,.08.12Zm-.12-.31.06.09,0,0,0,0a0,0,0,0,0,0,0,.06.06,0,0,0,0,0l0,0h0l0,0Z"/><path d="M21.67,9.24l.05,0,.12.17,0,.05,0,0h0l0,0a.05.05,0,0,0,0,0l0-.07-.12-.18.05,0,.12.17.06.1a.1.1,0,0,1,0,.07.13.13,0,0,1-.05.06l-.07,0-.06,0-.08-.09Z"/><path d="M21.94,9,22,9l.07,0h0l0,0a.1.1,0,0,1,0,0,.08.08,0,0,1,0,0h.06l0,0a.12.12,0,0,1,0,.07.08.08,0,0,1,0,.06l-.07.05-.09.06Zm.09,0,0,.08,0,0,0,0v0a0,0,0,0,0,0,0l0,0h0l-.05,0Zm.08.13.06.09.05,0,0,0V9.17l0,0h0l0,0Z"/><path d="M22.4,9.2l-.18-.35.06,0,.15.29L22.57,9l0,.06Z"/><path d="M22.64,9.07l-.15-.36.06,0L22.7,9Z"/><path d="M22.9,8.84H23a.18.18,0,0,1,0,.11.12.12,0,0,1-.07.05.12.12,0,0,1-.11,0,.23.23,0,0,1-.09-.13.25.25,0,0,1,0-.16.13.13,0,0,1,.09-.08.12.12,0,0,1,.1,0,.16.16,0,0,1,.06.06l-.06,0,0,0h0a.07.07,0,0,0,0,0,.18.18,0,0,0,0,.1.19.19,0,0,0,.05.09.07.07,0,0,0,.06,0l0,0a.13.13,0,0,0,0-.07Z"/><path d="M23.33,8.89h-.07l0-.08-.13,0v.09H23l.05-.41h.07Zm-.15-.13-.07-.14,0,.15Z"/><path d="M23.73,8.74h.18l0,0a.17.17,0,0,1,0,.06A.34.34,0,0,1,24,9,.3.3,0,0,1,24,9l0,.06,0,0H23.7Zm.06.07,0,.25h.09l0,0,0,0a.31.31,0,0,0,0-.07.3.3,0,0,0,0-.07l0,0,0,0h-.08Z"/><path d="M24.06,9.14l0-.38h.23v.06H24.1V8.9h.16V9h-.16v.1h.18v.06Z"/><path d="M24.77,8.77l.06,0a.18.18,0,0,1-.05.09.12.12,0,0,1-.09,0,.12.12,0,0,1-.1-.05.23.23,0,0,1,0-.15.25.25,0,0,1,.05-.15.13.13,0,0,1,.11,0,.12.12,0,0,1,.09,0,.16.16,0,0,1,0,.08l-.07,0a.09.09,0,0,0,0-.05l0,0a.07.07,0,0,0-.06,0,.18.18,0,0,0,0,.1.19.19,0,0,0,0,.11.07.07,0,0,0,.06,0l0,0a.13.13,0,0,0,0-.06Z"/><path d="M24.91,8.74a.28.28,0,0,1,0-.11A.16.16,0,0,1,25,8.58h.08a.14.14,0,0,1,.1.08.23.23,0,0,1,0,.16.23.23,0,0,1-.08.14.15.15,0,0,1-.21-.05.23.23,0,0,1,0-.16Zm.07,0a.17.17,0,0,0,0,.1.08.08,0,0,0,.05,0,.08.08,0,0,0,.07,0,.17.17,0,0,0,0-.09.17.17,0,0,0,0-.1.08.08,0,0,0-.05,0,.08.08,0,0,0-.07,0A.17.17,0,0,0,25,8.75Z"/><path d="M25.25,8.9l.06,0s0,.08,0,.1h0l0,0a0,0,0,0,0,0,0v0l0,0,0,0a.1.1,0,0,1,0,0,.12.12,0,0,1,0-.05l0,0,.05,0h.06a.11.11,0,0,1,.07.16l-.06,0a.07.07,0,0,0,0,0l0,0h0l0,0a0,0,0,0,0,0,0l0,0,.05.06a.1.1,0,0,1,0,.05.14.14,0,0,1,0,.06.12.12,0,0,1-.06.07.14.14,0,0,1-.17-.18Z"/><path d="M25.56,9.18l.16-.28-.08,0,0-.06.22.12,0,.06-.08,0-.16.28Z"/><path d="M26,9.44l-.06,0,0-.09-.11-.07-.07.06-.06,0L26,9l.06,0Zm0-.2,0-.15-.12.1Z"/><path d="M26.1,9.53l.22-.32.11.08.06.05a.08.08,0,0,1,0,.05.13.13,0,0,1,0,.06.12.12,0,0,1-.06,0h-.07a.16.16,0,0,1,0,0,.46.46,0,0,1,0,.07V9.7l-.06,0v-.1a.56.56,0,0,0,0-.07v0l0,0h0l-.09.13Zm.18-.15,0,0,0,0h0l0,0V9.36l0,0,0,0Z"/><path d="M26.37,9.71l.22-.33.05,0-.22.33Z"/><path d="M26.72,9.76l0,.05a.18.18,0,0,1-.09.06.12.12,0,0,1-.09,0,.12.12,0,0,1-.06-.09.23.23,0,0,1,0-.15.25.25,0,0,1,.12-.11.13.13,0,0,1,.12,0,.12.12,0,0,1,.06.08.16.16,0,0,1,0,.09l-.07,0a.09.09,0,0,0,0-.05l0,0a.07.07,0,0,0-.07,0,.18.18,0,0,0-.07.08.19.19,0,0,0,0,.1.07.07,0,0,0,0,.06h0l.05,0Z"/><path d="M27,10,27,10V9.93l-.12,0-.06.07-.06,0L27,9.61l.06,0ZM27,9.86V9.71l-.09.12Z"/><path d="M22.47,6.34l-.05,0-.05-.06-.1,0v.08l-.05,0,0-.35.05,0Zm-.15-.08-.08-.1,0,.13Z"/><path d="M22.49,6.33,22.39,6l.08,0,.12.2,0-.23.08,0,.1.32,0,0L22.61,6l0,.27-.05,0-.13-.23.08.25Z"/><path d="M22.8,6.23l-.08-.32.2,0v.05l-.14,0,0,.07.13,0V6l-.13,0,0,.09.15,0v.05Z"/><path d="M23,6.18,23,5.85l.11,0h.06l0,0a.11.11,0,0,1,0,0,.1.1,0,0,1,0,.07.08.08,0,0,1,0,0l0,0,0,0,0,.06h-.06l-.05-.06,0,0h-.06l0,.14Zm0-.2h.09v0a0,0,0,0,0,0,0v0H23Z"/><path d="M23.31,6.13l0-.33h.05l0,.33Z"/><path d="M23.58,6l.05,0a.15.15,0,0,1,0,.09.1.1,0,0,1-.07,0,.11.11,0,0,1-.09,0A.2.2,0,0,1,23.39,6a.21.21,0,0,1,0-.14.11.11,0,0,1,.09-.05.1.1,0,0,1,.08,0,.14.14,0,0,1,0,.06l-.05,0,0,0h0a.06.06,0,0,0,0,0,.15.15,0,0,0,0,.09.16.16,0,0,0,0,.09.06.06,0,0,0,.05,0l0,0A.11.11,0,0,0,23.58,6Z"/><path d="M23.94,6.08h-.06l0-.07h-.11l0,.08h-.06l.09-.34h.06ZM23.83,6l0-.12,0,.12Z"/><path d="M24.25,6l.05,0a.15.15,0,0,1,0,.08.1.1,0,0,1-.07,0,.11.11,0,0,1-.08,0,.2.2,0,0,1,0-.13.21.21,0,0,1,0-.13.11.11,0,0,1,.09,0,.1.1,0,0,1,.08,0,.14.14,0,0,1,0,.07h-.05a.07.07,0,0,0,0,0l0,0a.06.06,0,0,0-.05,0,.15.15,0,0,0,0,.09.16.16,0,0,0,0,.09.06.06,0,0,0,0,0l0,0a.11.11,0,0,0,0-.05Z"/><path d="M24.35,6.09l0-.33.2,0v.06h-.15V5.9h.14V6h-.14V6h.15v.06Z"/><path d="M24.6,6.12l0-.33h.05l.08.24,0-.22h.05l0,.33h-.05l-.08-.23,0,.21Z"/><path d="M24.93,6.17,25,5.9l-.08,0V5.83l.21,0v.06l-.08,0L25,6.18Z"/><path d="M25.1,6.2l.08-.32.11,0,.06,0,0,0a.11.11,0,0,1,0,.05.1.1,0,0,1,0,.06l-.06,0,0,0,0,.06,0,.07-.06,0,0-.08,0-.05v0h0l0,.13ZM25.2,6h.11V6a0,0,0,0,0,0,0V6h-.08Z"/><path d="M25.6,6.35l-.06,0V6.26l-.1,0,0,.06-.06,0L25.55,6l.06,0Zm-.05-.16V6.07l-.07.1Z"/><path d="M25.63,6.37l.13-.3.05,0-.11.25.13.05,0,.05Z"/></svg>