<svg id="Layer_1" data-name="Layer 1" xmlns="http://www.w3.org/2000/svg" width="48" height="24" viewBox="0 0 48 24"><defs><style>.cls-1{fill:#1f3c89;}.cls-2{fill:#fff;}.cls-3{fill:#e42427;}.cls-4{fill:#ededed;}.cls-5{fill:#2b7ec1;}</style></defs><title>Mobile_Flags_</title><rect class="cls-1" x="20" y="-4" width="8" height="48" transform="translate(4 44) rotate(-90)"/><rect class="cls-2" y="8" width="48" height="8"/><rect class="cls-3" x="20" y="-20" width="8" height="48" transform="translate(20 28) rotate(-90)"/><path class="cls-3" d="M24,20h0a5,5,0,0,0,5-5V9H19v6a5,5,0,0,0,5,5Z"/><path class="cls-4" d="M24,19.92h0A4.93,4.93,0,0,0,28.92,15V9.12H19.08V15A4.93,4.93,0,0,0,24,19.92Z"/><path class="cls-3" d="M21.16,9.3H19.26v2.08h1.89Z"/><path class="cls-3" d="M21.16,13.47h1.89V11.39H21.16Z"/><path class="cls-3" d="M19.26,15a4.73,4.73,0,0,0,0,.56h1.86V13.47H19.26Z"/><path class="cls-3" d="M24.95,13.47H23.05v2.08h1.89Z"/><path class="cls-3" d="M24.95,17.63h1.89V15.55H24.95Z"/><path class="cls-3" d="M26.84,18.76a4.79,4.79,0,0,0,1.08-1.14H26.84Z"/><path class="cls-3" d="M21.16,17.63h1.89V15.55H21.16Z"/><path class="cls-3" d="M20.08,17.63a4.79,4.79,0,0,0,1.08,1.14V17.63Z"/><path class="cls-3" d="M24.33,19.71a4.71,4.71,0,0,0,.62-.08v-2H23.05v2a4.68,4.68,0,0,0,.62.08,5.51,5.51,0,0,0,.66,0Z"/><path class="cls-3" d="M28.7,15.55a4.74,4.74,0,0,0,0-.56V13.47H26.84v2.08H28.7Z"/><path class="cls-3" d="M24.95,13.47h1.89V11.39H24.95Z"/><path class="cls-3" d="M24.95,9.3H23.05v2.08h1.89Z"/><path class="cls-3" d="M28.73,11.39V9.3H26.84v2.08Z"/><path class="cls-2" d="M28.84,9,30,6.3l-.89-1.44-1.48.55-1-1.19L25.22,5,24,4,22.78,5l-1.37-.79-1,1.19-1.48-.55L18,6.3,19.16,9a11.76,11.76,0,0,1,9.68,0Z"/><path class="cls-5" d="M20.4,5.52h0L18.93,5,18.1,6.31l.32.72.8,1.81a11.81,11.81,0,0,1,1.86-.64L20.4,5.52Z"/><path class="cls-1" d="M22.79,5.12h0l-1.36-.78-1,1.18.68,2.67A11.82,11.82,0,0,1,23,7.87l-.23-2.75Z"/><path class="cls-3" d="M20.91,7.53A12.49,12.49,0,0,1,23,7.19l-.06-.69a13.2,13.2,0,0,0-2.17.36l.17.68Z"/><path class="cls-3" d="M20.57,6.19a13.87,13.87,0,0,1,2.28-.38l-.06-.68a14.55,14.55,0,0,0-2.39.4Z"/><path class="cls-5" d="M25.22,5.12h0L24,4.13l-1.21,1L23,7.87c.32,0,.65,0,1,0s.66,0,1,0l.23-2.75Z"/><path class="cls-1" d="M27.61,5.52h0l-1-1.18-1.36.78L25,7.87a11.81,11.81,0,0,1,1.94.32l.68-2.67Z"/><path class="cls-5" d="M28.78,8.84,29.9,6.31,29.07,5l-1.47.54-.68,2.67a11.79,11.79,0,0,1,1.85.64Z"/><path class="cls-2" d="M27.36,6.5a13.53,13.53,0,0,1,2.13.74l-.43,1a12.47,12.47,0,0,0-2-.68Z"/><path class="cls-3" d="M29.13,8.05l.29-.65a13.36,13.36,0,0,0-2.1-.73l-.17.67a12.68,12.68,0,0,1,2,.69Z"/></svg>