<svg id="Layer_1" data-name="Layer 1" xmlns="http://www.w3.org/2000/svg" xmlns:xlink="http://www.w3.org/1999/xlink" width="48" height="24" viewBox="0 0 48 24"><defs><style>.cls-1{fill:#fff;}.cls-2,.cls-4{fill:#c09300;}.cls-2{clip-path:url(#clip-path);}.cls-3{fill:#e42427;}.cls-5{clip-path:url(#clip-path-2);}</style><clipPath id="clip-path"><path class="cls-1" d="M24,15.11a4.48,4.48,0,0,1-.48-.39,5.31,5.31,0,0,1-.79-.91,4.71,4.71,0,0,1-.62-1.41,11.24,11.24,0,0,1-.4-2.06A2.81,2.81,0,0,0,24,9.42h0a2.81,2.81,0,0,0,2.28.92,11.24,11.24,0,0,1-.4,2.06,4.71,4.71,0,0,1-.62,1.41,5.31,5.31,0,0,1-.79.91,4.48,4.48,0,0,1-.48.39Z"/></clipPath><clipPath id="clip-path-2"><path class="cls-2" d="M24.06,15.15h0a4.48,4.48,0,0,1-.48-.39,5.35,5.35,0,0,1-.8-.92,4.81,4.81,0,0,1-.62-1.42,11.2,11.2,0,0,1-.4-2.07v0h0A2.76,2.76,0,0,0,24,9.4h.06a2.76,2.76,0,0,0,2.26.9h0v0a11.19,11.19,0,0,1-.4,2.07,4.81,4.81,0,0,1-.62,1.42,5.35,5.35,0,0,1-.8.92,4.48,4.48,0,0,1-.48.39Zm-2.27-4.78a11.21,11.21,0,0,0,.39,2,4.75,4.75,0,0,0,.61,1.4,5.28,5.28,0,0,0,.79.9,4.47,4.47,0,0,0,.46.38,4.47,4.47,0,0,0,.46-.38,5.28,5.28,0,0,0,.79-.9,4.75,4.75,0,0,0,.61-1.4,11.2,11.2,0,0,0,.39-2A2.84,2.84,0,0,1,24,9.46,2.83,2.83,0,0,1,21.79,10.37Z"/></clipPath></defs><title>Mobile_Flags_</title><rect x="20" y="-4" width="8" height="48" transform="translate(4 44) rotate(-90)"/><rect class="cls-1" x="20" y="-12" width="8" height="48" transform="translate(12 36) rotate(-90)"/><rect class="cls-3" x="20" y="-20" width="8" height="48" transform="translate(20 28) rotate(-90)"/><polygon class="cls-4" points="24.17 18.34 24.02 18.47 23.88 18.34 23.88 14.7 24.17 14.7 24.17 18.34"/><polygon class="cls-4" points="24.71 18.32 24.56 18.46 24.41 18.35 24.09 14.72 24.39 14.7 24.71 18.32"/><polygon class="cls-4" points="23.33 18.32 23.47 18.46 23.62 18.35 23.94 14.72 23.64 14.7 23.33 18.32"/><rect class="cls-1" x="21.61" y="12.38" width="1.88" height="6.19" transform="translate(3.43 -4.08) rotate(11.18)"/><path class="cls-4" d="M22.9,18.73,21,18.35v0l1.21-6.1,1.9.38v0Zm-1.83-.43,1.78.35,1.19-6-1.78-.35Z"/><polyline class="cls-1" points="22.04 13.23 22.57 12.82 23.02 13.42 23.57 13.02 23.89 13.6"/><polygon class="cls-4" points="23.87 13.61 23.55 13.06 23.02 13.47 22.56 12.87 22.06 13.26 22.02 13.2 22.58 12.77 23.03 13.38 23.57 12.97 23.92 13.58 23.87 13.61"/><polyline class="cls-1" points="21.81 14.39 22.34 13.98 22.79 14.58 23.34 14.18 23.67 14.76"/><polygon class="cls-4" points="23.64 14.77 23.33 14.22 22.79 14.63 22.33 14.03 21.83 14.41 21.79 14.36 22.35 13.93 22.8 14.54 23.35 14.13 23.7 14.74 23.64 14.77"/><polyline class="cls-1" points="21.58 15.55 22.11 15.14 22.57 15.74 23.11 15.33 23.44 15.91"/><polygon class="cls-4" points="23.41 15.93 23.1 15.38 22.56 15.79 22.11 15.18 21.6 15.57 21.56 15.52 22.12 15.09 22.57 15.7 23.12 15.28 23.47 15.9 23.41 15.93"/><polyline class="cls-1" points="21.35 16.71 21.88 16.3 22.34 16.9 22.88 16.49 23.21 17.07"/><polygon class="cls-4" points="23.18 17.09 22.87 16.54 22.33 16.95 21.88 16.34 21.37 16.73 21.33 16.68 21.89 16.25 22.34 16.86 22.89 16.44 23.24 17.06 23.18 17.09"/><polyline class="cls-1" points="21.12 17.87 21.65 17.45 22.11 18.06 22.65 17.65 22.98 18.23"/><polygon class="cls-4" points="22.95 18.25 22.64 17.7 22.1 18.11 21.65 17.5 21.14 17.89 21.1 17.84 21.66 17.41 22.11 18.01 22.66 17.6 23.01 18.22 22.95 18.25"/><rect class="cls-1" x="20.57" y="18.44" width="2.71" height="0.48" rx="0.24" ry="0.24" transform="translate(4.04 -3.9) rotate(11.18)"/><path class="cls-4" d="M23,19.17H23l-2.18-.43a.27.27,0,0,1,.11-.54l2.18.43a.27.27,0,0,1-.05.54Zm-2.18-.92a.21.21,0,0,0,0,.42l2.18.43a.21.21,0,0,0,.08-.41l-2.18-.43Z"/><path class="cls-1" d="M21.87,19.21l.3-.34a.05.05,0,0,0,0-.09l-.45-.09a.05.05,0,0,0-.06.07l.15.43A.05.05,0,0,0,21.87,19.21Z"/><path class="cls-4" d="M21.83,19.26h0a.08.08,0,0,1-.06-.06l-.15-.43a.09.09,0,0,1,.1-.11l.45.09a.09.09,0,0,1,0,.14l-.3.34A.08.08,0,0,1,21.83,19.26Zm-.15-.54h0a0,0,0,0,0,0,0l.15.43h0l.3-.34a0,0,0,0,0,0,0h0l-.45-.09Z"/><path class="cls-1" d="M23.39,19.41l0-.45a.05.05,0,0,0-.08,0l-.38.25a.05.05,0,0,0,0,.09l.41.2A.05.05,0,0,0,23.39,19.41Z"/><path class="cls-4" d="M23.33,19.5h0l-.41-.2a.09.09,0,0,1,0-.15l.38-.25a.09.09,0,0,1,.13.07l0,.45a.08.08,0,0,1,0,.08Zm0-.56h0l-.38.25a0,0,0,0,0,0,0,0,0,0,0,0,0,0l.41.2h0a0,0,0,0,0,0,0h0l0-.45a0,0,0,0,0,0,0Z"/><path class="cls-1" d="M20.38,18.88l.45,0a.05.05,0,0,0,0-.08l-.25-.38a.05.05,0,0,0-.09,0l-.2.41A.05.05,0,0,0,20.38,18.88Z"/><path class="cls-4" d="M20.38,18.92a.09.09,0,0,1-.08-.12l.2-.41a.09.09,0,0,1,.15,0l.25.38a.09.09,0,0,1-.07.13l-.45,0Zm.2-.52h0l-.2.41a0,0,0,0,0,0,0h0l.45,0h0a0,0,0,0,0,0,0l-.25-.38Z"/><rect class="cls-1" x="24.61" y="12.38" width="1.88" height="6.19" transform="translate(53.62 25.7) rotate(168.82)"/><path class="cls-4" d="M25.21,18.73v0L24,12.6l1.9-.38v0l1.21,6.1Zm-1.14-6.08,1.19,6L27,18.3l-1.19-6Z"/><polyline class="cls-1" points="26.07 13.23 25.54 12.82 25.08 13.42 24.54 13.02 24.21 13.6"/><polygon class="cls-4" points="24.24 13.61 24.18 13.58 24.53 12.97 25.08 13.38 25.53 12.77 26.09 13.2 26.05 13.26 25.54 12.87 25.09 13.47 24.55 13.06 24.24 13.61"/><polyline class="cls-1" points="26.3 14.39 25.77 13.98 25.31 14.58 24.77 14.18 24.44 14.76"/><polygon class="cls-4" points="24.47 14.77 24.41 14.74 24.76 14.13 25.31 14.54 25.76 13.93 26.32 14.36 26.28 14.41 25.77 14.03 25.32 14.63 24.78 14.22 24.47 14.77"/><polyline class="cls-1" points="26.53 15.55 26 15.14 25.54 15.74 25 15.33 24.67 15.91"/><polygon class="cls-4" points="24.7 15.93 24.64 15.9 24.99 15.28 25.54 15.7 25.99 15.09 26.55 15.52 26.51 15.57 26 15.18 25.55 15.79 25.01 15.38 24.7 15.93"/><polyline class="cls-1" points="26.76 16.71 26.22 16.3 25.77 16.9 25.23 16.49 24.9 17.07"/><polygon class="cls-4" points="24.93 17.09 24.87 17.06 25.22 16.44 25.76 16.86 26.22 16.25 26.78 16.68 26.73 16.73 26.23 16.34 25.78 16.95 25.24 16.54 24.93 17.09"/><polyline class="cls-1" points="26.98 17.87 26.45 17.45 26 18.06 25.46 17.65 25.13 18.23"/><polygon class="cls-4" points="25.16 18.25 25.1 18.22 25.45 17.6 25.99 18.01 26.45 17.41 27 17.84 26.96 17.89 26.46 17.5 26.01 18.11 25.47 17.7 25.16 18.25"/><rect class="cls-1" x="24.83" y="18.44" width="2.71" height="0.48" rx="0.24" ry="0.24" transform="translate(55.49 31.94) rotate(168.82)"/><path class="cls-4" d="M25.09,19.17a.27.27,0,0,1-.05-.54l2.18-.43a.27.27,0,0,1,.11.54l-2.18.43Zm2.18-.92h0L25,18.69a.21.21,0,1,0,.08.41l2.18-.43a.21.21,0,0,0,0-.42Z"/><path class="cls-1" d="M26.24,19.21l-.3-.34a.05.05,0,0,1,0-.09l.45-.09a.05.05,0,0,1,.06.07l-.15.43A.05.05,0,0,1,26.24,19.21Z"/><path class="cls-4" d="M26.28,19.26a.08.08,0,0,1-.06,0l-.3-.34a.09.09,0,0,1,0-.14l.45-.09a.09.09,0,0,1,.1.11l-.15.43a.08.08,0,0,1-.06.06Zm0-.07h0l.15-.43a0,0,0,0,0,0,0h0l-.45.09h0a0,0,0,0,0,0,0Z"/><path class="cls-1" d="M24.72,19.41l0-.45a.05.05,0,0,1,.08,0l.38.25a.05.05,0,0,1,0,.09l-.41.2A.05.05,0,0,1,24.72,19.41Z"/><path class="cls-4" d="M24.77,19.5h0a.08.08,0,0,1,0-.08l0-.45a.09.09,0,0,1,.13-.07l.38.25a.09.09,0,0,1,0,.15l-.41.2Zm0-.56h0a0,0,0,0,0,0,0l0,.45a0,0,0,0,0,0,0h0l.41-.2a0,0,0,0,0,0,0,0,0,0,0,0,0,0l-.38-.25Z"/><path class="cls-1" d="M27.73,18.88l-.45,0a.05.05,0,0,1,0-.08l.25-.38a.05.05,0,0,1,.09,0l.2.41A.05.05,0,0,1,27.73,18.88Z"/><path class="cls-4" d="M27.73,18.92h0l-.45,0a.09.09,0,0,1-.07-.13l.25-.38a.09.09,0,0,1,.15,0l.2.41a.09.09,0,0,1-.08.12Zm-.2-.52h0l-.25.38a0,0,0,0,0,0,0h0l.45,0h0a0,0,0,0,0,0,0l-.2-.41h0Z"/><path class="cls-1" d="M24,9.54a3.44,3.44,0,0,0,2.27.88c1.16,0,2-1.83,2.64-1.86a1.08,1.08,0,0,1,.71.34,1,1,0,0,0-.47-1.09A1,1,0,0,0,28,7.87a5.79,5.79,0,0,1-1.49.79c-.84.29-.91.13-.91.13H24Z"/><path class="cls-4" d="M26.21,10.45a3.51,3.51,0,0,1-2.27-.89h0l0-.79h1.66v0h0s.11.11.87-.15A5.8,5.8,0,0,0,28,7.84a1,1,0,0,1,1.15-.06,1.07,1.07,0,0,1,.48,1.13V9l0,0a1,1,0,0,0-.68-.33c-.25,0-.55.33-.89.71-.5.54-1.06,1.15-1.75,1.15ZM24,9.53a3.44,3.44,0,0,0,2.21.86h0c.66,0,1.21-.6,1.7-1.13s.66-.71.94-.73a1,1,0,0,1,.69.31A1,1,0,0,0,28,7.9a5.87,5.87,0,0,1-1.5.8c-.7.24-.89.18-.94.14H24Z"/><path class="cls-1" d="M24,9.54a3.44,3.44,0,0,1-2.27.88c-1.16,0-2-1.83-2.64-1.86a1.08,1.08,0,0,0-.71.34,1,1,0,0,1,.47-1.09A1,1,0,0,1,20,7.87a5.79,5.79,0,0,0,1.49.79c.84.29.91.13.91.13H24Z"/><path class="cls-4" d="M21.79,10.45h0c-.69,0-1.25-.62-1.75-1.15-.35-.37-.64-.69-.89-.71a1,1,0,0,0-.68.33l0,0V8.91a1.07,1.07,0,0,1,.48-1.13A1,1,0,0,1,20,7.85a5.81,5.81,0,0,0,1.48.79c.77.27.87.15.87.15v0H24l0,.79h0A3.51,3.51,0,0,1,21.79,10.45Zm-2.7-1.93h0c.28,0,.58.35.94.73s1,1.13,1.7,1.13A3.42,3.42,0,0,0,24,9.53l0-.7H22.42s-.24.11-.94-.14A5.88,5.88,0,0,1,20,7.9a.94.94,0,0,0-1.08-.06,1,1,0,0,0-.46,1A1.06,1.06,0,0,1,19.09,8.53Z"/><path class="cls-1" d="M25.15,8.8l.91.2a2.9,2.9,0,0,1-.88-2.56,2.16,2.16,0,0,0-.35-1.58,1.05,1.05,0,0,0-1.52,0,1.63,1.63,0,0,0-.59-.2c-.49-.06-.63.51-.63.51a.48.48,0,0,1,.61-.09,1.87,1.87,0,0,1,.7.54l-.34.09a3.57,3.57,0,0,1,0,1.73,5.43,5.43,0,0,1-1,1.52L23,8.81Z"/><path class="cls-4" d="M26.2,9.07l-1.06-.23H23L22,9l.06-.07a5.43,5.43,0,0,0,1-1.51,3.56,3.56,0,0,0,0-1.71v0l.32-.09a1.84,1.84,0,0,0-.66-.49c-.4-.16-.57.08-.57.08l-.1.15,0-.17s.15-.6.66-.54a1.66,1.66,0,0,1,.58.19.82.82,0,0,1,.61-.3,1.24,1.24,0,0,1,.94.34A2.12,2.12,0,0,1,25.2,6.4v0A2.88,2.88,0,0,0,26.07,9Zm-1.05-.3.77.17a3.07,3.07,0,0,1-.78-2.5v0a2.08,2.08,0,0,0-.34-1.51,1.17,1.17,0,0,0-.89-.32.75.75,0,0,0-.58.3l0,0,0,0a1.61,1.61,0,0,0-.58-.2.54.54,0,0,0-.55.38.56.56,0,0,1,.55,0,1.89,1.89,0,0,1,.71.55l0,0-.35.1a3.48,3.48,0,0,1,0,1.72,5.22,5.22,0,0,1-.94,1.46l.77-.13Z"/><polygon class="cls-1" points="25.89 14.46 26.77 15.79 27.58 16.56 28.61 17.57 29.54 18.46 29.25 9.51 29.2 8.65 28.89 8.58 28.32 8.91 28.02 9.21 27.52 9.76 27.22 10 26.77 10.32 26.54 10.39 25.89 14.46"/><path class="cls-4" d="M29.58,18.54l-1-1-1-1-.81-.77-.89-1.34h0l.65-4.09.24-.07L27.2,10l.31-.24L28,9.19l.31-.31.58-.34.34.08,0,.89ZM26.8,15.77l.8.76,1,1,.87.84-.3-8.86,0-.84-.27-.06-.55.33-.3.3-.49.54-.31.25-.46.33-.21.06-.64,4Z"/><path class="cls-4" d="M28.89,8.58l.39,9.54.23.26-.39-9.79.47.3.49,10-.13,0-4.77-4.65,1.36-4.11.24,5.51.23.26-.22-5.67a2.84,2.84,0,0,0,.51-.3l.27,6.49.23.26-.27-7c.18-.13.36-.37.53-.51l.32,8.14.23.26-.32-8.66.29-.26Z"/><polygon class="cls-1" points="22.11 14.46 21.23 15.79 20.42 16.56 19.39 17.57 18.46 18.46 18.75 9.51 18.8 8.65 19.11 8.58 19.68 8.91 19.98 9.21 20.48 9.76 20.78 10 21.23 10.32 21.46 10.39 22.11 14.46"/><path class="cls-4" d="M18.42,18.54l.3-9,0-.89.34-.08.59.35.3.3.49.54.3.24.45.32.24.07.65,4.1-.89,1.35-.81.77-1,1Zm.42-9.87,0,.84-.3,8.86.87-.84,1-1,.81-.76.87-1.32-.64-4-.22-.06L20.76,10l-.31-.24L20,9.24l-.3-.3-.55-.33Z"/><path class="cls-4" d="M19.11,8.58l-.39,9.54-.23.26.39-9.79-.47.3-.49,10,.13,0,4.77-4.65-1.36-4.11-.24,5.51-.23.26.22-5.67a2.84,2.84,0,0,1-.51-.3l-.27,6.49-.23.26.27-7c-.18-.13-.36-.37-.53-.51l-.32,8.14-.23.26.32-8.66-.29-.26Z"/><path class="cls-4" d="M24.85,4.89c-.37-.39-1.21-.54-1.53,0,0,0,.25.37.44.37s.54-.5.73-.51S24.85,4.93,24.85,4.89Z"/><circle class="cls-1" cx="23.71" cy="4.9" r="0.15"/><path class="cls-4" d="M22.1,5.19a1.09,1.09,0,0,1,.69.24A1.17,1.17,0,0,1,23,5.6l.07.1s0,0,0,0,.37-.1.37-.11a1.74,1.74,0,0,0-.33-.37A1.07,1.07,0,0,0,22.61,5,.5.5,0,0,0,22.1,5.19Z"/><path class="cls-1" d="M24,15.36a4.87,4.87,0,0,1-.52-.43,5.77,5.77,0,0,1-.86-1A5.12,5.12,0,0,1,22,12.41a12.21,12.21,0,0,1-.43-2.24,3.05,3.05,0,0,0,2.48-1h0a3.05,3.05,0,0,0,2.48,1,12.21,12.21,0,0,1-.43,2.24,5.12,5.12,0,0,1-.67,1.53,5.77,5.77,0,0,1-.86,1,4.87,4.87,0,0,1-.52.43Z"/><path class="cls-4" d="M24.06,15.39h0a4.87,4.87,0,0,1-.52-.43,5.81,5.81,0,0,1-.86-1A5.23,5.23,0,0,1,22,12.42a12.17,12.17,0,0,1-.43-2.25v0h0a3,3,0,0,0,2.45-1h.06a3,3,0,0,0,2.45,1h0v0a12.16,12.16,0,0,1-.43,2.25A5.23,5.23,0,0,1,25.45,14a5.81,5.81,0,0,1-.86,1,4.87,4.87,0,0,1-.52.43ZM21.59,10.2A12.17,12.17,0,0,0,22,12.4a5.16,5.16,0,0,0,.66,1.52,5.74,5.74,0,0,0,.85,1,4.85,4.85,0,0,0,.5.42,4.85,4.85,0,0,0,.5-.42,5.74,5.74,0,0,0,.85-1,5.16,5.16,0,0,0,.66-1.52,12.17,12.17,0,0,0,.43-2.2,3.08,3.08,0,0,1-2.45-1A3.08,3.08,0,0,1,21.59,10.2Z"/><path class="cls-1" d="M24,15.11a4.48,4.48,0,0,1-.48-.39,5.31,5.31,0,0,1-.79-.91,4.71,4.71,0,0,1-.62-1.41,11.24,11.24,0,0,1-.4-2.06A2.81,2.81,0,0,0,24,9.42h0a2.81,2.81,0,0,0,2.28.92,11.24,11.24,0,0,1-.4,2.06,4.71,4.71,0,0,1-.62,1.41,5.31,5.31,0,0,1-.79.91,4.48,4.48,0,0,1-.48.39Z"/><path class="cls-4" d="M24.06,15.15h0a4.48,4.48,0,0,1-.48-.39,5.35,5.35,0,0,1-.8-.92,4.81,4.81,0,0,1-.62-1.42,11.2,11.2,0,0,1-.4-2.07v0h0A2.76,2.76,0,0,0,24,9.4h.06a2.76,2.76,0,0,0,2.26.9h0v0a11.19,11.19,0,0,1-.4,2.07,4.81,4.81,0,0,1-.62,1.42,5.35,5.35,0,0,1-.8.92,4.48,4.48,0,0,1-.48.39Zm-2.27-4.78a11.21,11.21,0,0,0,.39,2,4.75,4.75,0,0,0,.61,1.4,5.28,5.28,0,0,0,.79.9,4.47,4.47,0,0,0,.46.38,4.47,4.47,0,0,0,.46-.38,5.28,5.28,0,0,0,.79-.9,4.75,4.75,0,0,0,.61-1.4,11.2,11.2,0,0,0,.39-2A2.84,2.84,0,0,1,24,9.46,2.83,2.83,0,0,1,21.79,10.37Z"/><g class="cls-5"><rect class="cls-4" x="24.97" y="9.02" width="1.86" height="6.47"/><rect class="cls-4" x="21.25" y="9.02" width="1.86" height="6.47"/></g><polyline class="cls-1" points="23.68 8.76 24.06 9.14 24.41 8.76"/><polygon class="cls-4" points="24.06 9.18 23.66 8.78 23.7 8.73 24.06 9.09 24.39 8.74 24.43 8.79 24.06 9.18"/><path class="cls-1" d="M24.66,7.52a2,2,0,0,0,.17,1,7.89,7.89,0,0,0,.6.76,1.42,1.42,0,0,1-1-.55,2.47,2.47,0,0,1-.22-1.26"/><path class="cls-4" d="M25.5,9.33h-.08a1.43,1.43,0,0,1-1-.57,2.46,2.46,0,0,1-.22-1.28h.06a2.45,2.45,0,0,0,.21,1.24,1.32,1.32,0,0,0,.91.53,7.45,7.45,0,0,1-.54-.7,2,2,0,0,1-.18-1h.06a2,2,0,0,0,.17,1,7.9,7.9,0,0,0,.59.76Z"/><path class="cls-1" d="M23.42,7.52a2,2,0,0,1-.17,1,7.89,7.89,0,0,1-.6.76,1.42,1.42,0,0,0,1-.55,2.47,2.47,0,0,0,.22-1.26"/><path class="cls-4" d="M22.58,9.33l.05-.06a7.91,7.91,0,0,0,.59-.76,2,2,0,0,0,.17-1h.06a2,2,0,0,1-.18,1,7.46,7.46,0,0,1-.54.7,1.32,1.32,0,0,0,.91-.53,2.45,2.45,0,0,0,.21-1.24h.06a2.46,2.46,0,0,1-.22,1.28,1.43,1.43,0,0,1-1,.57Z"/></svg>