<svg id="Layer_1" data-name="Layer 1" xmlns="http://www.w3.org/2000/svg" width="48" height="24" viewBox="0 0 48 24"><defs><style>.cls-1{fill:#1f3c89;}.cls-2{fill:#e42427;}.cls-3{fill:#fff;}</style></defs><title>Mobile_Flags_</title><rect class="cls-1" x="12" y="-12" width="24" height="48" transform="translate(12 36) rotate(-90)"/><rect class="cls-2" x="23" y="-12" width="2" height="48" transform="translate(12 36) rotate(-90)"/><rect class="cls-2" x="12" width="2" height="24"/><rect class="cls-3" x="14" width="2" height="11"/><rect class="cls-3" x="30.99" y="-5.99" width="2" height="31.98" transform="translate(41.99 -21.99) rotate(90)"/><rect class="cls-3" x="30.99" y="-1.99" width="2" height="31.98" transform="translate(45.99 -17.99) rotate(90)"/><rect class="cls-3" x="4.02" y="4.99" width="2" height="10.03" transform="translate(15.02 4.99) rotate(90)"/><rect class="cls-3" x="4.02" y="8.99" width="2" height="10.03" transform="translate(19.02 8.99) rotate(90)"/><rect class="cls-3" x="10" width="2" height="11"/><rect class="cls-3" x="14" y="13" width="2" height="11"/><rect class="cls-3" x="10" y="13" width="2" height="11"/></svg>