<svg id="Layer_1" data-name="Layer 1" xmlns="http://www.w3.org/2000/svg" width="48" height="24" viewBox="0 0 48 24"><defs><style>.cls-1{fill:#1f3c89;}.cls-2{fill:#fff;}.cls-3{fill:#e42427;}.cls-4{fill:#039;}</style></defs><title>Mobile_Flags_</title><rect class="cls-1" x="5.96" y="5.94" width="12.08" height="24" transform="translate(-5.94 29.94) rotate(-90)"/><rect class="cls-2" x="5.96" y="-5.97" width="12.08" height="24" transform="translate(5.98 18.03) rotate(-90)"/><rect class="cls-2" x="29.96" y="5.94" width="12.08" height="24" transform="translate(18.06 53.94) rotate(-90)"/><rect class="cls-3" x="29.96" y="-5.98" width="12.08" height="24" transform="translate(29.98 42.02) rotate(-90)"/><polyline class="cls-3" points="34.48 17.11 31.25 17.11 30.27 14.03 29.28 17.11 26.06 17.11 28.67 18.98 27.69 22.02 30.27 20.14 32.84 22.02 31.86 18.98 34.48 17.11"/><polyline class="cls-4" points="21.93 5.16 18.7 5.16 17.71 2.08 16.73 5.16 13.5 5.16 16.12 7.04 15.14 10.08 17.71 8.2 20.29 10.08 19.31 7.04 21.93 5.16"/></svg>