<svg id="Layer_1" data-name="Layer 1" xmlns="http://www.w3.org/2000/svg" width="48" height="24" viewBox="0 0 48 24"><defs><style>.cls-1{fill:#fff;}.cls-2{fill:#1f3c89;}.cls-3{fill:#e42427;}.cls-4{fill:#333;}</style></defs><title>Mobile_Flags_</title><rect class="cls-1" width="48" height="24"/><path class="cls-2" d="M26.27,10.91a2.33,2.33,0,0,0-1.06.25c-.89.46-1,1.24-1.87,1.77a2.86,2.86,0,0,1-4.14-1.48c0,.13,0,.25,0,.38a4.91,4.91,0,0,0,4.91,4.91c1.71,0,4.17-1.25,4.48-3.12a2.34,2.34,0,0,0-2.31-2.73Z"/><path class="cls-3" d="M21.89,12.91a2.42,2.42,0,0,0,1.24-.34c.87-.51.85-1.25,1.89-1.78a2.76,2.76,0,0,1,3.91,1.71,5,5,0,0,0,0-.64A5,5,0,0,0,21.85,7.4a5.06,5.06,0,0,0-2.23,2.18h0a2.44,2.44,0,0,0,2.27,3.34Z"/><rect class="cls-4" x="15.01" y="7.27" width="4.93" height="0.63" transform="translate(1.5 17.96) rotate(-56.49)"/><rect class="cls-4" x="12.9" y="5.91" width="4.93" height="0.63" transform="translate(1.69 15.6) rotate(-56.48)"/><rect class="cls-4" x="13.94" y="6.66" width="4.93" height="0.63" transform="translate(1.53 16.8) rotate(-56.48)"/><rect class="cls-4" x="15.38" y="14.95" width="0.63" height="1.97" transform="translate(-6.2 11.34) rotate(-33.59)"/><rect class="cls-4" x="15.12" y="15.31" width="0.63" height="4.93" transform="matrix(0.83, -0.55, 0.55, 0.83, -7.25, 11.48)"/><rect class="cls-4" x="17.23" y="13.95" width="0.63" height="4.93" transform="translate(-6.15 12.41) rotate(-33.51)"/><rect class="cls-4" x="16.93" y="17.14" width="0.63" height="1.97" transform="matrix(0.83, -0.55, 0.55, 0.83, -7.14, 12.54)"/><rect class="cls-4" x="31.21" y="15.66" width="2.15" height="0.63" transform="translate(1.14 34.07) rotate(-56.48)"/><rect class="cls-4" x="32.21" y="16.31" width="2.23" height="0.63" transform="translate(1.04 35.2) rotate(-56.43)"/><rect class="cls-4" x="30.13" y="14.95" width="2.2" height="0.63" transform="matrix(0.55, -0.83, 0.83, 0.55, 1.26, 32.87)"/><rect class="cls-4" x="30.76" y="18.63" width="2.06" height="0.63" transform="translate(-1.54 35.04) rotate(-56.58)"/><rect class="cls-4" x="29.68" y="17.98" width="2.15" height="0.63" transform="translate(-1.48 33.83) rotate(-56.49)"/><rect class="cls-4" x="28.64" y="17.26" width="2.09" height="0.63" transform="translate(-1.36 32.62) rotate(-56.48)"/><rect class="cls-4" x="31.33" y="4.56" width="0.63" height="4.93" transform="translate(1.55 19.07) rotate(-34.32)"/><rect class="cls-4" x="31.52" y="4.04" width="0.63" height="2.18" transform="translate(2.65 18.84) rotate(-34.32)"/><rect class="cls-4" x="33.09" y="6.37" width="0.63" height="2.12" transform="translate(1.62 20.1) rotate(-34.27)"/><rect class="cls-4" x="29.46" y="5.48" width="0.63" height="2.15" transform="translate(1.49 17.93) rotate(-34.32)"/><rect class="cls-4" x="31.03" y="7.78" width="0.63" height="2.15" transform="translate(0.48 19.24) rotate(-34.37)"/></svg>