<svg id="Layer_1" data-name="Layer 1" xmlns="http://www.w3.org/2000/svg" width="48" height="24" viewBox="0 0 48 24"><defs><style>.cls-1{fill:#36a93c;}.cls-2{fill:#ffdf06;}.cls-3{fill:#1f3c89;}.cls-4{fill:#fff;}</style></defs><title>Mobile_Flags_</title><rect class="cls-1" x="20" y="-4" width="8" height="48" transform="translate(4 44) rotate(-90)"/><rect class="cls-1" x="20" y="-12" width="8" height="48" transform="translate(12 36) rotate(-90)"/><rect class="cls-1" x="20" y="-20" width="8" height="48" transform="translate(20 28) rotate(-90)"/><polygon class="cls-2" points="36 12 24 20 12 12 24 4 36 12"/><circle class="cls-3" cx="24" cy="12" r="5.14"/><path class="cls-4" d="M29,13.27a26.62,26.62,0,0,0-7.56-1.08c-.81,0-1.76,0-2.55.11v-.5c.81-.07,1.73-.11,2.56-.11a26.77,26.77,0,0,1,7.65,1.11Z"/></svg>