<svg id="Layer_1" data-name="Layer 1" xmlns="http://www.w3.org/2000/svg" width="48" height="24" viewBox="0 0 48 24"><defs><style>.cls-1{fill:#e42427;}.cls-2{fill:#fff;}.cls-3{fill:#36a93c;}</style></defs><title>Mobile_Flags_</title><rect class="cls-1" x="20" y="-4" width="8" height="48" transform="translate(4 44) rotate(-90)"/><rect class="cls-2" x="20" y="-12" width="8" height="48" transform="translate(12 36) rotate(-90)"/><rect class="cls-3" x="20" y="-20" width="8" height="48" transform="translate(20 28) rotate(-90)"/><circle class="cls-2" cx="24" cy="12" r="8"/><path class="cls-1" d="M28.89,13.91A7.42,7.42,0,0,0,26.67,6a8.12,8.12,0,0,1-2,11.1l.24-6V6.27a2.52,2.52,0,0,1-1-.81,2.52,2.52,0,0,1-1,.81v4.78l.24,6a8.12,8.12,0,0,1-2-11.1,7.4,7.4,0,0,0,1.38,12.17,8.1,8.1,0,0,1-3.16.5,7.34,7.34,0,0,0,3.81.17v.29L24,20l.63-.87v-.29a7.34,7.34,0,0,0,3.81-.17,8.1,8.1,0,0,1-3.16-.5A7.38,7.38,0,0,0,28.89,13.91Z"/><path class="cls-1" d="M31.3,8.76a6.21,6.21,0,0,0-3.87-2.92A8.13,8.13,0,0,1,29,17.23v0A6.21,6.21,0,0,0,31.3,8.76Z"/><path class="cls-1" d="M20.57,5.84A6.21,6.21,0,0,0,19,17.25v0A8.13,8.13,0,0,1,20.57,5.84Z"/><path class="cls-1" d="M22.37,5.39A1.17,1.17,0,0,0,24,5.11,1.17,1.17,0,0,0,26,4a1.11,1.11,0,0,1-2,.35A1.11,1.11,0,0,1,22,4,1.17,1.17,0,0,0,22.37,5.39Z"/></svg>