<svg id="Layer_1" data-name="Layer 1" xmlns="http://www.w3.org/2000/svg" width="48" height="24" viewBox="0 0 48 24"><defs><style>.cls-1{fill:#026847;}.cls-2{fill:#e42427;}.cls-3{fill:#f1c100;}.cls-4,.cls-8{fill:none;}.cls-4{stroke:#1d1e1c;stroke-linecap:round;stroke-linejoin:round;stroke-width:0.26px;}.cls-5{fill:#ffda05;}.cls-6{fill:#fff;}.cls-7{fill:#1f3c89;}</style></defs><title>Mobile_Flags_</title><rect class="cls-1" width="16.02" height="24"/><rect class="cls-2" x="16.02" width="16.02" height="24"/><rect class="cls-2" x="31.98" width="16.02" height="24"/><path class="cls-3" d="M20.89,8.89l.93-.41h0a6.64,6.64,0,0,0-5.64-3.13V4.21a7.82,7.82,0,0,1,7.57,5.86l-1,.82a7,7,0,0,0-.36-1.28h0l-1.48.64m0-1.34"/><path class="cls-3" d="M20.78,14l1.92-.6h0a6.6,6.6,0,0,1-.63,1.72l1,.62a7.84,7.84,0,0,0,.69-5.67l-1,.82a6.63,6.63,0,0,1,.11,1.17s0,0,0,0l-2,.56M20.78,14"/><path class="cls-3" d="M18.07,17.27h2.17a6.62,6.62,0,0,1-3.7,1.37l-.26,1.2a7.81,7.81,0,0,0,6.79-4.1l-1-.62a6.65,6.65,0,0,1-.58.91H19.73m-1.66,1.25"/><path class="cls-3" d="M12.63,16H10.88a6.65,6.65,0,0,1-.54-.83l-1,.65a7.81,7.81,0,0,0,6.82,4h.09l.26-1.2h-.36a6.62,6.62,0,0,1-4.08-1.4h2.19M12.63,16"/><path class="cls-3" d="M11.47,12.79l-1.94-.93v0a6.69,6.69,0,0,1,.08-.9v0l1.49-.56L10,9.48v0a6.65,6.65,0,0,1,6.16-4.15V4.21A7.82,7.82,0,0,0,9.36,15.84l1-.65a6.6,6.6,0,0,1-.71-2h0l2,1m-.17-1.35"/><path class="cls-4" d="M22.21,9.21l-1.33.57m1.33-.57"/><path class="cls-4" d="M10,9.47l1,.91m-1-.91"/><path class="cls-4" d="M22,8.8l-1.13.48M22,8.8"/><path class="cls-4" d="M9.53,12.3l2,.92m-2-.92"/><path class="cls-4" d="M9.57,12.7l2,.92m-2-.92"/><path class="cls-4" d="M22.79,12.45,20.88,13m1.91-.58"/><path class="cls-4" d="M22.76,13l-1.63.5m1.63-.5"/><path class="cls-4" d="M11.21,16.39H13m-1.77,0"/><path class="cls-4" d="M11.65,16.86h1.91m-1.91,0"/><path class="cls-4" d="M21.14,16.39H19.36m1.77,0"/><path class="cls-4" d="M20.7,16.86H18.78m1.91,0"/><path class="cls-4" d="M16.18,18.64A6.65,6.65,0,1,0,9.53,12a6.65,6.65,0,0,0,6.65,6.65Z"/><path class="cls-4" d="M15.41,4.24A7.8,7.8,0,0,0,9.75,7.58m5.66-3.34"/><path class="cls-4" d="M9.18,8.56a7.77,7.77,0,0,0-.8,3.21m.8-3.21"/><path class="cls-4" d="M8.38,12.32a7.81,7.81,0,1,0,8.41-8.09M8.38,12.32"/><path class="cls-4" d="M11.51,9.82,10.1,9.31m1.41.51"/><path class="cls-4" d="M11.07,10.38l-1-.9m1,.9"/><path class="cls-5" d="M15.41,6.67V4.2a.19.19,0,1,1,.38,0h.61a.19.19,0,1,1,.38,0V6.67m-1.37,0"/><path class="cls-4" d="M15.8,4.2V6.67m0-2.47"/><path class="cls-4" d="M16.4,4.2V6.67m0-2.47"/><path class="cls-3" d="M11.49,9.82,9,8.9H9a.19.19,0,0,1,.07-.37l.09,0,.57-1a.19.19,0,0,1,.11-.35H9.9l1.59.59m0,2"/><path class="cls-4" d="M9.73,7.58l1.76.65M9.73,7.58"/><path class="cls-4" d="M9.17,8.57l2.31.85M9.17,8.57"/><path class="cls-3" d="M11.49,10.25,8.33,11.4h0a.19.19,0,0,0,.06.37v.54H8.32a.19.19,0,0,0,.07.37h.07l3-1.11m0-1.35"/><path class="cls-4" d="M11.49,10.65,8.44,11.77H8.38m3.11-1.13"/><path class="cls-4" d="M11.49,11.16,8.38,12.31m3.11-1.15"/><path class="cls-3" d="M12.21,15.46l-2.48,1,0,0a.19.19,0,0,1-.21-.32l-.26-.44-.08,0A.19.19,0,0,1,9,15.51a.21.21,0,0,1,.11-.17h0l2.57-1m.52,1.16"/><path class="cls-4" d="M11.81,14.66l-2.52,1m2.52-1"/><path class="cls-4" d="M9.56,16.12l2.46-1m-2.46,1"/><path class="cls-3" d="M15.41,17.59V19.8a.19.19,0,1,0,.38,0h.61a.19.19,0,1,0,.38,0V17.61m-1.37,0"/><path class="cls-4" d="M15.41,17.59V19.8a.19.19,0,1,0,.38,0h.61a.19.19,0,1,0,.38,0V17.61m-1.37,0"/><path class="cls-4" d="M15.8,19.8V17.63m0,2.17"/><path class="cls-4" d="M16.4,19.8V17.65m0,2.15"/><path class="cls-3" d="M20.89,7l1.89.53h0a.19.19,0,0,1,0,.35l.33.6.13,0h0a.19.19,0,0,1-.06.37h-.06l-2.32-.64m0-1.25"/><path class="cls-4" d="M20.88,7.86l2.28.64m-2.28-.64"/><path class="cls-4" d="M22.83,7.9l-.09,0h-.07l-1.78-.5m1.95.48"/><path class="cls-3" d="M20.88,11.8l3,1H24a.19.19,0,0,0,.07-.37h0l-.05,0v-.52a.19.19,0,0,0,.09-.36h0l-3.19-1.07m0,1.33"/><path class="cls-4" d="M24,11.92l-3.09-1m3.09,1"/><path class="cls-4" d="M24,12.44l-3.09-1m3.09,1"/><path class="cls-3" d="M20.31,15.22l1.91,1.72h0a.19.19,0,1,0,.23-.31h0l.59-.93.09,0a.19.19,0,0,0,.14-.33h0l-2.4-2.16m-.57,2"/><path class="cls-4" d="M23,15.71l-2.22-2m2.22,2"/><path class="cls-4" d="M22.46,16.63l-2-1.78m2,1.78"/><path class="cls-3" d="M20.88,13s0,0,0,0a4.7,4.7,0,0,1-9.39,0V6.67h9.39V13Z"/><path class="cls-4" d="M20.88,13s0,0,0,0a4.7,4.7,0,0,1-9.39,0V6.67h9.39V13Z"/><path class="cls-2" d="M11.92,13V7.1h8.54V13a4.27,4.27,0,0,1-8.54,0Z"/><path class="cls-6" d="M13.66,12.78V8.94h5v3.85a2.52,2.52,0,0,1-5,0Z"/><path class="cls-7" d="M17.19,12.28v-1h1.26v1a.63.63,0,1,1-1.26,0Z"/><path class="cls-7" d="M15.53,10.2v-1h1.26v1a.63.63,0,0,1-1.26,0Z"/><path class="cls-7" d="M13.86,12.28v-1h1.26v1a.63.63,0,1,1-1.26,0Z"/><path class="cls-7" d="M15.53,12.28v-1h1.26v1a.63.63,0,0,1-1.26,0Z"/><path class="cls-7" d="M15.53,14.35v-1h1.26v1a.63.63,0,0,1-1.26,0Z"/><path class="cls-6" d="M15.86,9.76a.17.17,0,1,0-.17-.17.17.17,0,0,0,.17.17Z"/><path class="cls-6" d="M16.46,9.76a.17.17,0,1,0-.17-.17.17.17,0,0,0,.17.17Z"/><path class="cls-6" d="M16.17,10.15A.17.17,0,1,0,16,10a.17.17,0,0,0,.17.17Z"/><path class="cls-6" d="M15.86,10.54a.17.17,0,1,0-.17-.17.17.17,0,0,0,.17.17Z"/><path class="cls-6" d="M16.46,10.54a.17.17,0,1,0-.17-.17.17.17,0,0,0,.17.17Z"/><path class="cls-6" d="M14.19,11.82a.17.17,0,1,0-.17-.17.17.17,0,0,0,.17.17Z"/><path class="cls-6" d="M14.78,11.82a.17.17,0,1,0-.17-.17.17.17,0,0,0,.17.17Z"/><path class="cls-6" d="M14.49,12.21a.17.17,0,1,0-.17-.17.17.17,0,0,0,.17.17Z"/><path class="cls-6" d="M14.19,12.6a.17.17,0,1,0-.17-.17.17.17,0,0,0,.17.17Z"/><path class="cls-6" d="M14.78,12.6a.17.17,0,1,0-.17-.17.17.17,0,0,0,.17.17Z"/><path class="cls-6" d="M17.51,11.83a.17.17,0,1,0-.17-.17.17.17,0,0,0,.17.17Z"/><path class="cls-6" d="M18.11,11.83a.17.17,0,1,0-.17-.17.17.17,0,0,0,.17.17Z"/><path class="cls-6" d="M17.82,12.22a.17.17,0,1,0-.17-.17.17.17,0,0,0,.17.17Z"/><path class="cls-6" d="M17.51,12.61a.17.17,0,1,0-.17-.17.17.17,0,0,0,.17.17Z"/><path class="cls-6" d="M18.11,12.61a.17.17,0,1,0-.17-.17.17.17,0,0,0,.17.17Z"/><path class="cls-6" d="M15.86,11.83a.17.17,0,1,0-.17-.17.17.17,0,0,0,.17.17Z"/><path class="cls-6" d="M16.46,11.83a.17.17,0,1,0-.17-.17.17.17,0,0,0,.17.17Z"/><path class="cls-6" d="M16.17,12.22a.17.17,0,1,0-.17-.17.17.17,0,0,0,.17.17Z"/><path class="cls-6" d="M15.86,12.61a.17.17,0,1,0-.17-.17.17.17,0,0,0,.17.17Z"/><path class="cls-6" d="M16.46,12.61a.17.17,0,1,0-.17-.17.17.17,0,0,0,.17.17Z"/><path class="cls-6" d="M15.86,13.9a.17.17,0,1,0-.17-.17.17.17,0,0,0,.17.17Z"/><path class="cls-6" d="M16.46,13.9a.17.17,0,1,0-.17-.17.17.17,0,0,0,.17.17Z"/><path class="cls-6" d="M16.17,14.29a.17.17,0,1,0-.17-.17.17.17,0,0,0,.17.17Z"/><path class="cls-6" d="M15.86,14.69a.17.17,0,1,0-.17-.17.17.17,0,0,0,.17.17Z"/><path class="cls-6" d="M16.46,14.69a.17.17,0,1,0-.17-.17.17.17,0,0,0,.17.17Z"/><polygon class="cls-3" points="13.57 8.77 13.57 8.49 12.12 8.49 12.12 8.77 13.57 8.77 13.57 8.77"/><polygon class="cls-4" points="13.57 8.77 13.57 8.49 12.12 8.49 12.12 8.77 13.57 8.77 13.57 8.77"/><polygon class="cls-3" points="13.48 8.07 13.48 7.86 12.21 7.86 12.21 8.07 13.48 8.07 13.48 8.07"/><polygon class="cls-4" points="13.48 8.07 13.48 7.86 12.21 7.86 12.21 8.07 13.48 8.07 13.48 8.07"/><polygon class="cls-3" points="12.85 8.49 13.47 8.49 13.39 8.07 12.86 8.07 12.84 8.07 12.31 8.07 12.22 8.49 12.85 8.49 12.85 8.49"/><polygon class="cls-3" points="12.62 7.33 13.06 7.33 13.06 7.53 12.93 7.53 12.93 7.86 12.76 7.86 12.76 7.54 12.62 7.54 12.62 7.33 12.62 7.33"/><polygon class="cls-3" points="12.16 7.42 12.59 7.42 12.59 7.62 12.46 7.62 12.46 7.86 12.29 7.86 12.29 7.62 12.16 7.62 12.16 7.42 12.16 7.42"/><polygon class="cls-3" points="13.09 7.42 13.52 7.42 13.52 7.62 13.39 7.62 13.39 7.86 13.22 7.86 13.22 7.62 13.09 7.62 13.09 7.42 13.09 7.42"/><path class="cls-4" d="M13.07,8.49a.23.23,0,0,0-.44,0m.44,0"/><polygon class="cls-3" points="16.91 8.77 16.91 8.49 15.46 8.49 15.46 8.77 16.91 8.77 16.91 8.77"/><polygon class="cls-4" points="16.91 8.77 16.91 8.49 15.46 8.49 15.46 8.77 16.91 8.77 16.91 8.77"/><polygon class="cls-3" points="16.82 8.07 16.82 7.86 15.54 7.86 15.54 8.07 16.82 8.07 16.82 8.07"/><polygon class="cls-4" points="16.82 8.07 16.82 7.86 15.54 7.86 15.54 8.07 16.82 8.07 16.82 8.07"/><polygon class="cls-3" points="16.18 8.49 16.8 8.49 16.72 8.07 16.19 8.07 16.17 8.07 15.64 8.07 15.56 8.49 16.18 8.49 16.18 8.49"/><polygon class="cls-3" points="15.96 7.33 16.39 7.33 16.39 7.53 16.26 7.53 16.26 7.86 16.09 7.86 16.09 7.54 15.96 7.54 15.96 7.33 15.96 7.33"/><polygon class="cls-3" points="15.49 7.42 15.93 7.42 15.93 7.62 15.8 7.62 15.8 7.86 15.62 7.86 15.62 7.62 15.49 7.62 15.49 7.42 15.49 7.42"/><polygon class="cls-3" points="16.42 7.42 16.86 7.42 16.86 7.62 16.73 7.62 16.73 7.86 16.56 7.86 16.56 7.62 16.42 7.62 16.42 7.42 16.42 7.42"/><path class="cls-4" d="M16.4,8.49a.23.23,0,0,0-.44,0m.44,0"/><polygon class="cls-3" points="20.24 8.77 20.24 8.49 18.79 8.49 18.79 8.77 20.24 8.77 20.24 8.77"/><polygon class="cls-4" points="20.24 8.77 20.24 8.49 18.79 8.49 18.79 8.77 20.24 8.77 20.24 8.77"/><polygon class="cls-3" points="20.15 8.07 20.15 7.86 18.88 7.86 18.88 8.07 20.15 8.07 20.15 8.07"/><polygon class="cls-4" points="20.15 8.07 20.15 7.86 18.88 7.86 18.88 8.07 20.15 8.07 20.15 8.07"/><polygon class="cls-3" points="19.52 8.49 20.14 8.49 20.05 8.07 19.52 8.07 19.51 8.07 18.98 8.07 18.89 8.49 19.52 8.49 19.52 8.49"/><polygon class="cls-3" points="19.29 7.33 19.73 7.33 19.73 7.53 19.6 7.53 19.6 7.86 19.43 7.86 19.43 7.54 19.29 7.54 19.29 7.33 19.29 7.33"/><polygon class="cls-3" points="18.83 7.42 19.26 7.42 19.26 7.62 19.13 7.62 19.13 7.86 18.96 7.86 18.96 7.62 18.83 7.62 18.83 7.42 18.83 7.42"/><polygon class="cls-3" points="19.76 7.42 20.19 7.42 20.19 7.62 20.06 7.62 20.06 7.86 19.89 7.86 19.89 7.62 19.76 7.62 19.76 7.42 19.76 7.42"/><path class="cls-4" d="M19.73,8.49a.23.23,0,0,0-.44,0m.44,0"/><polygon class="cls-3" points="13.57 12.15 13.57 11.88 12.12 11.88 12.12 12.15 13.57 12.15 13.57 12.15"/><polygon class="cls-4" points="13.57 12.15 13.57 11.88 12.12 11.88 12.12 12.15 13.57 12.15 13.57 12.15"/><polygon class="cls-3" points="13.48 11.45 13.48 11.24 12.21 11.24 12.21 11.45 13.48 11.45 13.48 11.45"/><polygon class="cls-4" points="13.48 11.45 13.48 11.24 12.21 11.24 12.21 11.45 13.48 11.45 13.48 11.45"/><polygon class="cls-3" points="12.85 11.88 13.47 11.88 13.39 11.45 12.86 11.45 12.84 11.45 12.31 11.45 12.22 11.88 12.85 11.88 12.85 11.88"/><polygon class="cls-8" points="12.85 11.88 13.47 11.88 13.39 11.45 12.86 11.45 12.84 11.45 12.31 11.45 12.22 11.88 12.85 11.88 12.85 11.88"/><polygon class="cls-3" points="12.62 10.71 13.06 10.71 13.06 10.91 12.93 10.91 12.93 11.24 12.76 11.24 12.76 10.92 12.62 10.92 12.62 10.71 12.62 10.71"/><polygon class="cls-8" points="12.62 10.71 13.06 10.71 13.06 10.91 12.93 10.91 12.93 11.24 12.76 11.24 12.76 10.92 12.62 10.92 12.62 10.71 12.62 10.71"/><polygon class="cls-3" points="12.16 10.8 12.59 10.8 12.59 11 12.46 11 12.46 11.24 12.29 11.24 12.29 11.01 12.16 11.01 12.16 10.8 12.16 10.8"/><polygon class="cls-8" points="12.16 10.8 12.59 10.8 12.59 11 12.46 11 12.46 11.24 12.29 11.24 12.29 11.01 12.16 11.01 12.16 10.8 12.16 10.8"/><polygon class="cls-3" points="13.09 10.8 13.52 10.8 13.52 11 13.39 11 13.39 11.24 13.22 11.24 13.22 11.01 13.09 11.01 13.09 10.8 13.09 10.8"/><path class="cls-8" d="M13.07,11.88a.23.23,0,0,0-.44,0m.44,0"/><polygon class="cls-3" points="20.24 12.15 20.24 11.88 18.79 11.88 18.79 12.15 20.24 12.15 20.24 12.15"/><polygon class="cls-4" points="20.24 12.15 20.24 11.88 18.79 11.88 18.79 12.15 20.24 12.15 20.24 12.15"/><polygon class="cls-3" points="20.15 11.45 20.15 11.24 18.88 11.24 18.88 11.45 20.15 11.45 20.15 11.45"/><polygon class="cls-4" points="20.15 11.45 20.15 11.24 18.88 11.24 18.88 11.45 20.15 11.45 20.15 11.45"/><polygon class="cls-3" points="19.52 11.88 20.14 11.88 20.05 11.45 19.52 11.45 19.51 11.45 18.98 11.45 18.89 11.88 19.52 11.88 19.52 11.88"/><polygon class="cls-3" points="19.29 10.71 19.73 10.71 19.73 10.91 19.6 10.91 19.6 11.24 19.43 11.24 19.43 10.92 19.29 10.92 19.29 10.71 19.29 10.71"/><polygon class="cls-3" points="18.83 10.8 19.26 10.8 19.26 11 19.13 11 19.13 11.24 18.96 11.24 18.96 11.01 18.83 11.01 18.83 10.8 18.83 10.8"/><polygon class="cls-3" points="19.76 10.8 20.19 10.8 20.19 11 20.06 11 20.06 11.24 19.89 11.24 19.89 11.01 19.76 11.01 19.76 10.8 19.76 10.8"/><path class="cls-4" d="M19.73,11.88a.23.23,0,0,0-.44,0m.44,0"/><polygon class="cls-3" points="19.34 15.53 19.49 15.3 18.25 14.55 18.1 14.78 19.34 15.53 19.34 15.53"/><polygon class="cls-4" points="19.34 15.53 19.49 15.3 18.25 14.55 18.1 14.78 19.34 15.53 19.34 15.53"/><polygon class="cls-3" points="19.63 14.89 19.74 14.71 18.65 14.05 18.54 14.23 19.63 14.89 19.63 14.89"/><polygon class="cls-4" points="19.63 14.89 19.74 14.71 18.65 14.05 18.54 14.23 19.63 14.89 19.63 14.89"/><polygon class="cls-3" points="18.87 14.92 19.4 15.24 19.55 14.84 19.09 14.56 19.08 14.56 18.62 14.28 18.33 14.6 18.87 14.92 18.87 14.92"/><polygon class="cls-3" points="19.28 13.81 19.65 14.04 19.55 14.21 19.44 14.14 19.27 14.42 19.12 14.33 19.29 14.05 19.17 13.98 19.28 13.81 19.28 13.81"/><polygon class="cls-3" points="18.84 13.64 19.21 13.87 19.1 14.04 18.99 13.97 18.87 14.18 18.72 14.09 18.84 13.89 18.73 13.82 18.84 13.64 18.84 13.64"/><polygon class="cls-3" points="19.63 14.13 20 14.35 19.9 14.52 19.79 14.46 19.66 14.66 19.52 14.57 19.64 14.37 19.52 14.3 19.63 14.13 19.63 14.13"/><path class="cls-4" d="M19.05,15a.23.23,0,0,0-.38-.23m.38.23"/><polygon class="cls-3" points="13.05 15.53 12.91 15.3 14.15 14.55 14.29 14.78 13.05 15.53 13.05 15.53"/><polygon class="cls-4" points="13.05 15.53 12.91 15.3 14.15 14.55 14.29 14.78 13.05 15.53 13.05 15.53"/><polygon class="cls-3" points="12.77 14.89 12.66 14.71 13.75 14.05 13.86 14.23 12.77 14.89 12.77 14.89"/><polygon class="cls-4" points="12.77 14.89 12.66 14.71 13.75 14.05 13.86 14.23 12.77 14.89 12.77 14.89"/><polygon class="cls-3" points="13.53 14.92 13 15.24 12.85 14.84 13.3 14.56 13.32 14.56 13.77 14.28 14.06 14.6 13.53 14.92 13.53 14.92"/><polygon class="cls-3" points="13.12 13.81 12.75 14.04 12.85 14.21 12.96 14.14 13.13 14.42 13.28 14.33 13.11 14.05 13.22 13.98 13.12 13.81 13.12 13.81"/><polygon class="cls-3" points="13.56 13.64 13.19 13.87 13.29 14.04 13.4 13.97 13.53 14.18 13.68 14.09 13.55 13.89 13.67 13.82 13.56 13.64 13.56 13.64"/><polygon class="cls-3" points="12.77 14.13 12.39 14.35 12.5 14.52 12.61 14.46 12.73 14.66 12.88 14.57 12.76 14.37 12.87 14.3 12.77 14.13 12.77 14.13"/><path class="cls-4" d="M13.34,15a.23.23,0,0,1,.38-.23m-.38.23"/></svg>