<svg id="Layer_1" data-name="Layer 1" xmlns="http://www.w3.org/2000/svg" width="48" height="24" viewBox="0 0 48 24"><defs><style>.cls-1{fill:#36a93c;}.cls-2{fill:#fff;}</style></defs><title>Mobile_Flags_</title><rect class="cls-1" x="20" y="-4" width="8" height="48" transform="translate(4 44) rotate(-90)"/><rect class="cls-1" x="20" y="-12" width="8" height="48" transform="translate(12 36) rotate(-90)"/><rect class="cls-1" x="20" y="-20" width="8" height="48" transform="translate(20 28) rotate(-90)"/><path class="cls-2" d="M37.85,10.74H33.3a1,1,0,0,0-.15,0V9H31.64v1.74H9.12s-.1.58.8,1.48S15,13,15,13H31.64v2h1.51V13.47a1,1,0,0,0,.15,0h4.55a1,1,0,0,0,1-1v-.71A1,1,0,0,0,37.85,10.74Z"/></svg>