<svg id="Layer_1" data-name="Layer 1" xmlns="http://www.w3.org/2000/svg" width="48" height="24" viewBox="0 0 48 24"><defs><style>.cls-1{fill:#1f3c89;}.cls-2{fill:#fff;}.cls-3{fill:#f1c100;}</style></defs><title>Mobile_Flags_</title><rect class="cls-1" x="21.98" y="-2.02" width="4.04" height="48" transform="translate(2.02 45.98) rotate(-90)"/><rect class="cls-2" x="21.98" y="-6.06" width="4.04" height="48" transform="translate(6.06 41.94) rotate(-90)"/><rect class="cls-1" x="30" y="-2.08" width="4.04" height="31.96" transform="translate(18.12 45.92) rotate(-90)"/><rect class="cls-2" x="30" y="-6" width="4.04" height="31.96" transform="translate(22.04 42) rotate(-90)"/><rect class="cls-1" x="30" y="-9.93" width="4.04" height="31.96" transform="translate(25.97 38.07) rotate(-90)"/><rect class="cls-2" x="30" y="-13.96" width="4.04" height="31.96" transform="translate(30 34.04) rotate(-90)"/><polygon class="cls-3" points="8 3.95 9.27 0 9.25 4.15 11.68 0.78 10.38 4.72 13.73 2.27 11.28 5.62 15.22 4.32 11.85 6.75 16 6.73 12.05 8 16 9.27 11.85 9.25 15.22 11.68 11.28 10.38 13.73 13.73 10.38 11.28 11.68 15.22 9.25 11.85 9.27 16 8 12.05 6.73 16 6.75 11.85 4.32 15.22 5.62 11.28 2.27 13.73 4.72 10.38 0.78 11.68 4.15 9.25 0 9.27 3.95 8 0 6.73 4.15 6.75 0.78 4.32 4.72 5.62 2.27 2.27 5.62 4.72 4.32 0.78 6.75 4.15 6.73 0 8 3.95"/></svg>