<?xml version="1.0" standalone="no"?>
<!DOCTYPE svg PUBLIC "-//W3C//DTD SVG 1.1//EN" "http://www.w3.org/Graphics/SVG/1.1/DTD/svg11.dtd" >
<svg>
<metadata>
Created by FontForge 20090622 at Wed Apr  4 11:13:34 2018
 By deploy user
Copyright (C)2015 Commercial Type.
</metadata>
<defs>
<font id="AustinNewsDeck-Bold" horiz-adv-x="566" >
  <font-face 
    font-family="Austin News Deck Bold"
    font-weight="700"
    font-stretch="normal"
    units-per-em="1000"
    panose-1="0 0 0 0 0 0 0 0 0 0"
    ascent="796"
    descent="-204"
    x-height="479"
    cap-height="673"
    bbox="-179 -327 1265 1067"
    underline-thickness="34"
    underline-position="-164"
    unicode-range="U+0020-U+FB04"
  />
<missing-glyph horiz-adv-x="500" 
 />
    <glyph glyph-name="f_b" unicode="fb" horiz-adv-x="933" 
d="M654 -9q-47 0 -87.5 19t-63.5 53h-9l-76 -64h-18q3 48 3 95v463q-8 5 -15 16q-9 13 -18 45l-10 48q-7 24 -44 24t-53 -28q-18 -27 -18 -90v-93h119v-32h-119v-319q0 -39 5 -69q6 -24 26 -32q17 -6 39 -8v-19h-294v19q20 2 31 7q22 10 26 34q4 20 4 68v319h-68v32h68v37
q1 96 72 153q63 48 163 48q38 0 71 -5h174q7 0 7 -7q0 -10 -1.5 -51.5t-1.5 -71.5v-162h6q39 71 137 71q88 0 143.5 -63.5t55.5 -187.5q0 -121 -71.5 -185t-182.5 -64zM660 448q-42 0 -66 -37q-28 -43 -28 -114v-122q0 -80 19 -113q21 -43 65 -43q46 0 67.5 51t21.5 169
q0 119 -20 164t-59 45z" />
    <glyph glyph-name="f_f_b" unicode="ffb" horiz-adv-x="1255" 
d="M977 -9q-47 0 -88 19t-64 53h-8l-78 -64h-16q3 48 3 95v462q-7 5 -16 17t-17 45l-11 48q-7 24 -44 24t-54 -28t-17 -90v-93h117v-32h-117v-314q0 -47 5 -72q7 -29 25 -35q12 -5 34 -7v-19h-289v19q21 2 32 6q22 10 26 35q3 22 3 68v319h-159v-314q0 -46 5 -73
q4 -25 25 -34q8 -5 32 -7v-19h-286v19q23 2 31 6q22 10 27 35q3 15 3 68v319h-68v32h68v35q3 99 69 152q55 44 149 44q81 0 120 -22q26 -13 40 -35q5 6 17 16q63 48 163 48q36 0 71 -5h174q7 0 7 -7q0 -10 -1.5 -51.5t-1.5 -71.5v-162h6q41 71 138 71q87 0 143 -63.5
t56 -187.5q0 -121 -72 -185t-182 -64zM983 448q-42 0 -67 -37q-28 -50 -28 -114v-122q0 -78 19 -113q21 -43 65 -43q45 0 67 51t22 169q0 119 -20 164t-58 45zM403 479v37q0 11 2 27q-37 0 -57 31q-8 11 -18 43q-2 8 -4.5 22t-5.5 25q-6 20 -28 20q-26 0 -36 -22
q-12 -28 -12 -96v-87h159z" />
    <glyph glyph-name="f_f_h" unicode="ffh" horiz-adv-x="1273" 
d="M306 0h-286v19q16 1 31 7q22 11 27 34q3 15 3 68v319h-68v32h68v35q3 99 69 152q55 44 149 44q81 0 120 -22q26 -13 40 -35q5 6 17 16q63 48 163 48q36 0 71 -5h173q6 0 6 -7q0 -2 -1 -34.5t-1 -48.5v-226h7q20 39 45 59q39 35 113 35q70 0 109 -39q39 -36 39 -109v-214
q0 -38 4 -68q6 -26 27 -35q10 -4 31 -6v-19h-274v19q16 2 27 8q16 9 20 38q2 15 2 64v249q0 33 -13 46q-11 14 -38 14q-55 0 -80 -68q-17 -37 -17 -97v-144q0 -48 2 -63q4 -30 22 -39q14 -7 25 -8v-19h-275v19q22 2 33 7q22 12 26 35q4 19 4 68v427q-7 5 -16 17
q-12 16 -17 45l-11 48q-7 24 -44 24t-54 -28t-17 -90v-93h117v-32h-117v-314q0 -47 5 -72q6 -27 25 -35q9 -5 32 -7v-19h-287v19q21 2 32 6q23 11 26 35q3 15 3 68v319h-159v-314q0 -48 5 -73q5 -26 25 -34q10 -5 32 -7v-19zM403 479v37q0 11 2 27q-37 0 -57 31
q-9 12 -18 43l-10 47q-6 20 -28 20q-26 0 -36 -22q-12 -28 -12 -96v-87h159z" />
    <glyph glyph-name="f_f_j" unicode="ffj" horiz-adv-x="943" 
d="M664 -209q-57 0 -98 19q-55 28 -55 84q0 31 21 49.5t54 18.5q35 0 54 -18t19 -46q0 -22 -11 -44q-5 -13 -5 -18q0 -22 30 -22q27 0 41 29q14 25 14 88v419q0 36 -4 55q-4 20 -19 32q-18 10 -42 10h-95v-314q0 -53 5 -72q4 -27 25 -35q12 -5 33 -7v-19h-288v19q14 1 31 6
q23 11 28 35q3 22 3 68v319h-160v-314q0 -55 5 -74q6 -23 25 -33q13 -5 32 -7v-19h-286v19q23 2 31 6q22 10 26 35q4 20 4 68v319h-68v32h68v35q1 98 69 152q55 44 149 44q74 0 120 -21q29 -16 40 -37l18 16q62 49 170 49q93 0 145 -27q54 -29 54 -82q0 -30 -17 -47.5
t-49 -17.5q-45 0 -65 27q-14 20 -18 41q-3 10 -6 28t-5 26q-9 24 -42 24q-38 0 -60 -27q-17 -22 -17 -92v-91h318q6 0 6 -7q0 -11 -0.5 -42t-0.5 -58v-334q0 -82 -22.5 -127t-60.5 -74q-58 -46 -144 -46zM405 479v37q0 9 2 27q-38 0 -58 31q-8 11 -18 43q-2 8 -4.5 22
t-5.5 25q-5 20 -28 20q-26 0 -36 -22q-12 -28 -12 -96v-87h160z" />
    <glyph glyph-name="f_f_k" unicode="ffk" horiz-adv-x="1261" 
d="M307 0h-286v19q16 1 31 7q22 11 26 34q4 20 4 68v319h-68v32h68v35q1 98 69 152q55 44 149 44q78 0 120 -22q26 -13 40 -35l18 16q60 48 162 48q37 0 70 -5h175q6 0 6 -8q0 -10 -1 -44t-1 -58v-353l107 99q50 47 50 74q0 22 -21 30q-11 5 -38 9v18h225v-18
q-31 -8 -66 -26q-27 -15 -88 -67l-63 -55q135 -15 162 -107q3 -9 10.5 -37.5t10 -37t8.5 -26t11.5 -29t12.5 -22.5q17 -29 55 -36v-18h-207q-15 14 -25 46t-25 110q-10 44 -24.5 67.5t-45.5 33.5l-49 -42v-88q0 -49 5 -67q8 -26 26 -33q16 -7 32 -8v-19h-285v19q20 2 29 7
q21 11 27 33q3 18 3 68v430q-6 4 -16 16q-11 19 -16 45q-1 5 -5 20.5t-6 27.5q-8 24 -45 24q-36 0 -53 -28q-17 -31 -17 -90v-93h118v-32h-118v-314q0 -53 5 -72q4 -25 25 -35q13 -5 32 -7v-19h-287v19q22 2 31 6q22 11 28 35q3 15 3 68v319h-160v-314q0 -47 5 -72
q4 -25 25 -35q13 -5 32 -7v-19zM405 479v37q0 9 2 27q-38 0 -58 31q-8 11 -18 43q-2 8 -4.5 22t-5.5 25q-5 20 -28 20q-26 0 -36 -22q-12 -28 -12 -96v-87h160z" />
    <glyph glyph-name="f_h" unicode="fh" horiz-adv-x="952" 
d="M307 19v-19h-286v19q19 0 31 6q22 10 26 35q4 20 4 68v319h-68v32h68v37q1 96 72 153q63 48 163 48q38 0 71 -5h172q7 0 7 -7q0 -2 -0.5 -34.5t-0.5 -48.5v-226h6q19 37 44 59q42 35 114 35q71 0 109 -39q40 -37 40 -109v-214q0 -48 4 -68q4 -24 25 -35q11 -4 32 -6v-19
h-273v19q16 2 25 8q16 9 21 38q3 22 3 64v249q0 32 -13 45q-13 15 -38 15q-56 0 -81 -68q-18 -43 -18 -97v-144q0 -41 3 -63q6 -31 22 -39q14 -7 25 -8v-19h-273v19q19 1 29 7q22 10 28 35q3 14 3 68v428q-8 5 -15 16q-9 13 -18 45q-3 20 -10 48q-7 24 -42 24q-36 0 -55 -29
q-18 -27 -18 -89v-93h119v-32h-119v-314q0 -47 5 -72q4 -25 25 -35q13 -5 32 -7z" />
    <glyph glyph-name="f_j" unicode="fj" horiz-adv-x="620" 
d="M404 -69v419q0 34 -3 55q-5 23 -19 32q-17 10 -45 10h-92v-314q0 -47 5 -72q4 -25 25 -35q9 -5 32 -7v-19h-286v19q9 1 30 6q23 10 27 35q4 20 4 68v319h-68v32h68v37q1 97 74 152q60 49 169 49q93 0 145 -27q54 -28 54 -82q0 -30 -16.5 -47.5t-48.5 -17.5q-47 0 -67 26
q-13 21 -17 42q-3 10 -6 28.5t-5 25.5q-9 24 -42 24q-38 0 -60 -27q-17 -24 -17 -92v-91h319q6 0 6 -7q-2 -54 -2 -100v-334q0 -82 -22.5 -127t-60.5 -74q-58 -46 -144 -46q-58 0 -97 19q-55 27 -55 84q0 30 20.5 49t53.5 19q35 0 54 -18t19 -46q0 -20 -10 -44
q-6 -16 -6 -19q0 -21 30 -21q28 0 42 29q12 21 12 88z" />
    <glyph glyph-name="f_k" unicode="fk" horiz-adv-x="937" 
d="M307 19v-19h-286v19q16 1 31 7q22 10 26 34q4 20 4 68v319h-68v32h68v37q1 96 72 153q63 48 163 48q37 0 70 -5h174q7 0 7 -8q0 -10 -0.5 -44t-0.5 -58v-353l106 99q50 47 50 74q0 21 -20 30q-10 5 -38 9v18h223v-18q-31 -8 -64 -26q-32 -17 -88 -67l-64 -55
q136 -15 161 -107l14 -46.5l13 -43t11 -31t15 -31.5q19 -30 56 -36v-18h-206q-16 13 -26 44.5t-25 111.5q-9 43 -24 67t-47 34l-47 -42v-88q0 -53 4 -67q6 -25 26 -34q12 -5 32 -7v-19h-286v19q20 1 30 7q21 10 27 33q4 24 4 68v429q-10 8 -16 17q-10 15 -17 45l-11 48
q-4 14 -13.5 19t-30.5 5q-37 0 -53 -28q-18 -27 -18 -90v-93h119v-32h-119v-314q0 -47 5 -72q6 -26 25 -35q9 -5 32 -7z" />
    <glyph glyph-name="f_f" unicode="ff" horiz-adv-x="686" 
d="M307 0h-286v19q23 2 31 6q22 10 26 35q4 20 4 68v319h-68v32h68v35q1 98 69 152q55 44 149 44q78 0 120 -22q22 -11 37 -31l16 15q55 45 144 45q76 0 117 -22q50 -26 50 -82q0 -27 -17 -44.5t-45 -17.5q-38 0 -59 29q-10 15 -17 44l-13 49q-5 17 -24 17q-22 0 -33 -23
q-9 -23 -9 -94v-94h105v-32h-105v-319q0 -41 5 -69q4 -23 24 -32q11 -6 40 -8v-19h-293v19q19 1 31 6q20 10 26 36q4 16 4 72v314h-159v-314q0 -47 5 -72q4 -25 25 -35q9 -5 32 -7v-19zM404 479v35q0 11 2 29q-37 1 -57 31q-7 10 -18 42q-2 7 -4.5 21.5t-5.5 26.5
q-5 20 -26 20q-26 0 -37 -22q-13 -26 -13 -96v-87h159z" />
    <glyph glyph-name="f_i" unicode="fi" horiz-adv-x="639" 
d="M307 0h-286v19q17 1 31 6q22 10 26 35q4 20 4 68v319h-68v32h68v37q1 97 74 152q60 49 169 49q97 0 145 -27q54 -31 54 -82q0 -30 -16.5 -47.5t-48.5 -17.5q-46 0 -67 27q-13 21 -17 41q-3 10 -5.5 28.5t-4.5 25.5q-7 24 -43 24q-38 0 -60 -27q-17 -24 -17 -92v-91h318
q6 0 6 -7q-3 -81 -3 -100v-242q0 -50 4 -70q7 -25 27 -34q9 -5 31 -7v-19h-284v19q19 1 30 7q20 11 25 34q4 15 4 70v220q0 34 -3 55q-4 22 -19 32q-13 10 -42 10h-94v-314q0 -47 5 -72q4 -26 25 -35q10 -5 32 -7v-19z" />
    <glyph glyph-name="f_l" unicode="fl" horiz-adv-x="644" 
d="M307 19v-19h-286v19q23 2 31 6q22 10 26 35q4 20 4 68v319h-68v32h68v37q1 96 72 153q63 48 163 48q37 0 70 -5h175q6 0 6 -8q0 -10 -1 -44t-1 -59v-474q0 -48 5 -67q5 -24 25 -34q11 -5 33 -7v-19h-284v19q20 2 28 7q23 11 27 33q4 21 4 72v424q-8 6 -16 18
q-12 18 -17 45l-11 47q-7 25 -43 25q-37 0 -54 -28q-18 -27 -18 -90v-93h119v-32h-119v-314q0 -47 5 -72q4 -25 25 -35q10 -5 32 -7z" />
    <glyph glyph-name="f_f_i" unicode="ffi" horiz-adv-x="962" 
d="M307 0h-286v19q19 2 31 6q20 8 26 35q4 20 4 68v319h-68v32h68v35q1 98 69 152q55 44 149 44q74 0 120 -21q27 -15 40 -37l18 16q62 49 169 49q91 0 145 -27q55 -28 55 -82q0 -30 -17 -47.5t-49 -17.5q-43 0 -66 27q-14 16 -17 41q-1 4 -4.5 24.5t-6.5 29.5q-7 24 -43 24
q-37 0 -59 -27q-17 -22 -17 -92v-91h316q7 0 7 -7q0 -11 -1 -42t-1 -58v-242q0 -51 4 -70q5 -24 26 -34q9 -5 31 -7v-19h-284v19q19 1 30 7q22 9 26 33q4 23 4 71v220q0 34 -3 55q-5 23 -19 32q-17 10 -43 10h-93v-314q0 -55 5 -74q5 -24 24 -33q11 -5 33 -7v-19h-287v19
q24 2 31 6q21 10 28 35q3 15 3 68v319h-160v-314q0 -35 5 -72q6 -29 25 -35q10 -5 32 -7v-19zM405 479v37q0 9 2 27q-38 0 -58 31q-8 11 -18 43q-2 8 -4.5 22t-5.5 25q-6 20 -27 20q-25 0 -37 -24q-12 -27 -12 -94v-87h160z" />
    <glyph glyph-name="f_f_l" unicode="ffl" horiz-adv-x="966" 
d="M306 0h-286v19q19 2 31 6q20 10 26 35q4 20 4 68v319h-68v32h68v35q3 99 69 152q55 44 149 44q81 0 120 -22q26 -13 40 -35q5 6 17 16q63 48 163 48q36 0 71 -5h174q6 0 6 -8q0 -10 -1 -44t-1 -59v-474q0 -48 5 -67q6 -24 25 -34q10 -5 32 -7v-19h-283v19q18 1 29 7
q19 10 26 34q4 30 4 71v425q-7 5 -16 17t-17 45l-11 48q-7 24 -44 24t-54 -28t-17 -90v-93h117v-32h-117v-314q0 -53 5 -72q5 -27 25 -35q15 -6 32 -7v-19h-287v19q21 2 32 6q23 12 26 35q3 15 3 68v319h-159v-314q0 -47 5 -72q6 -28 25 -35q17 -6 32 -7v-19zM403 479v37
q0 11 2 27q-37 0 -57 31q-8 11 -18 43q-2 8 -4.5 22t-5.5 25q-5 20 -28 20q-26 0 -36 -22q-12 -28 -12 -96v-87h159z" />
    <glyph glyph-name=".notdef" horiz-adv-x="500" 
 />
    <glyph glyph-name=".null" horiz-adv-x="0" 
 />
    <glyph glyph-name="nonmarkingreturn" horiz-adv-x="333" 
 />
    <glyph glyph-name="space" unicode=" " horiz-adv-x="178" 
 />
    <glyph glyph-name="exclam" unicode="!" horiz-adv-x="285" 
d="M143 687q49 0 73 -25.5t24 -67.5q0 -11 -0.5 -21.5t-3 -24t-4 -22.5t-6 -27t-7 -27t-9 -34.5l-9.5 -37.5q-18 -67 -45 -199h-27q-15 85 -45 200q-4 16 -13 49.5t-11.5 45l-7 33t-6 36t-1.5 29.5q0 41 24.5 67t73.5 26zM233 74q0 -37 -24.5 -62t-66.5 -25t-66.5 25
t-24.5 62t24.5 62t66.5 25t66.5 -25t24.5 -62z" />
    <glyph glyph-name="quotedbl" unicode="&#x22;" horiz-adv-x="394" 
d="M105 691q33 0 52 -19t19 -50q0 -20 -27 -111q-7 -20 -20 -67t-14 -51h-21q-24 91 -32 117q-27 81 -27 112t18.5 50t51.5 19zM218 622q0 31 19 50t52 19t52 -19t19 -50q0 -20 -27 -111q-7 -21 -19 -66t-14 -52h-22q-4 13 -32 117q-28 84 -28 112z" />
    <glyph glyph-name="numbersign" unicode="#" horiz-adv-x="603" 
d="M374 242l32 186h-172l-33 -186h173zM332 0l37 214h-173l-37 -214h-31l37 214h-144v28h149l32 186h-144v27h149l36 210h32l-37 -210h173l36 210h31l-36 -210h140v-27h-145l-32 -186h140v-28h-145l-37 -214h-31z" />
    <glyph glyph-name="dollar" unicode="$" horiz-adv-x="543" 
d="M286 -112h-28v99q-110 1 -172 42.5t-62 97.5q0 36 20 56t52 20q33 0 53.5 -21t20.5 -57q0 -7 -3.5 -24.5t-3.5 -26.5q0 -27 27.5 -43.5t67.5 -16.5v229q-3 2 -10.5 6t-9.5 5q-51 25 -80.5 42.5t-60.5 45t-45 61t-14 76.5q0 86 63 141t157 59v89h28v-89q105 -3 157 -38.5
t52 -88.5q0 -35 -18 -52t-47 -17q-33 0 -51 20t-18 54q0 7 1.5 19t1.5 15q0 28 -22 43.5t-56 17.5v-215l15 -9q111 -60 137 -80q67 -51 73 -127q1 -10 1 -21q0 -92 -64 -149.5t-162 -62.5v-100zM381 105q0 42 -21.5 67.5t-73.5 55.5v-213q43 5 69 30t26 60zM170 565
q0 -36 21 -60t67 -52v200q-42 -4 -65 -28t-23 -60z" />
    <glyph glyph-name="percent" unicode="%" horiz-adv-x="778" 
d="M591 672l-379 -687l-24 13l379 688zM376 507q0 -77 -53 -128t-125 -51q-77 0 -126 49.5t-49 128.5q0 78 52 128t124 50q77 0 127 -49.5t50 -127.5zM199 661q-30 0 -42.5 -36.5t-12.5 -118.5q0 -81 12.5 -118t42.5 -37t43 37t13 119t-13 118t-43 36zM403 165q0 79 52 129
t124 50q77 0 126 -50t49 -128q0 -77 -52 -127.5t-124 -50.5q-77 0 -126 49.5t-49 127.5zM579 11q30 0 42.5 37t12.5 118q0 82 -12.5 118t-42.5 36t-42.5 -36t-12.5 -119t12 -118.5t43 -35.5z" />
    <glyph glyph-name="ampersand" unicode="&#x26;" horiz-adv-x="746" 
d="M568 -13q-58 0 -90 18t-57 55q-75 -73 -184 -73q-95 0 -156.5 47.5t-61.5 125.5q0 38 16 71.5t45 59.5t57 43.5t64 35.5l-10 15q-17 25 -24.5 38t-15.5 40.5t-8 59.5q0 70 58 117t148 47q156 0 156 -110q-1 -72 -131 -151l33 -45t34 -45l96 -140q20 36 33 79q13 37 13 68
q0 45 -36 66q-17 9 -39 11v20h221v-20q-17 -3 -37 -12q-21 -12 -40 -37q-21 -27 -46 -96q-18 -53 -50 -107l39 -54q36 -52 79 -52q37 0 64 23l14 -15q-18 -33 -66.5 -58t-117.5 -25zM320 55q48 0 84 28l-115 162q-63 87 -72 101q-53 -52 -53 -132q0 -76 43.5 -117.5
t112.5 -41.5zM291 585q0 -30 15.5 -60t49.5 -76q36 22 52.5 52t16.5 79q0 77 -64 77q-34 0 -52 -19t-18 -53z" />
    <glyph glyph-name="quotesingle" unicode="'" horiz-adv-x="211" 
d="M105 691q33 0 52 -19t19 -50q0 -20 -27 -111q-6 -18 -18 -61l-16 -57h-21q-24 91 -32 117q-27 81 -27 112t18.5 50t51.5 19z" />
    <glyph glyph-name="parenleft" unicode="(" horiz-adv-x="313" 
d="M305 -97l-21 -16q-52 37 -89 71t-74 83.5t-56 113.5t-19 141q0 74 19.5 137.5t56 113.5t74.5 86t88 72l21 -15q-96 -157 -96 -394q0 -234 96 -393z" />
    <glyph glyph-name="parenright" unicode=")" horiz-adv-x="313" 
d="M7 -97q96 157 96 392q0 238 -96 395l21 15q238 -165 238 -410q0 -76 -19.5 -141t-55.5 -114t-74 -84t-89 -69z" />
    <glyph glyph-name="asterisk" unicode="*" horiz-adv-x="439" 
d="M342 328q-35 -24 -61 9q-9 13 -26.5 58t-34.5 76q-17 -31 -34.5 -76t-27.5 -58q-10 -15 -26.5 -17.5t-34.5 8.5q-16 12 -18.5 30t8.5 32q10 12 46.5 40t60.5 52q-29 4 -73.5 6t-59.5 7q-18 6 -26.5 20.5t-2.5 33.5q6 20 22 27.5t34 2.5q14 -5 51.5 -30t65.5 -40
q-5 29 -17 72t-12 59q0 19 11.5 31.5t31.5 12.5q22 0 33.5 -12t11.5 -32q0 -15 -12.5 -58t-17.5 -74q29 15 66 40.5t51 30.5q41 11 56 -30q6 -19 -2 -33.5t-26 -20.5q-15 -5 -60 -7t-74 -6q24 -23 60.5 -51.5t46.5 -40.5q11 -14 8.5 -32t-18.5 -30z" />
    <glyph glyph-name="plus" unicode="+" horiz-adv-x="464" 
d="M428 258h-174v-175h-43v175h-174v39h174v177h43v-177h174v-39z" />
    <glyph glyph-name="comma" unicode="," horiz-adv-x="268" 
d="M230 59q0 -72 -50 -129.5t-122 -80.5l-8 21q52 21 77.5 48t25.5 50q0 17 -17 21q-89 15 -89 87q0 38 27.5 61t63.5 23q39 0 65.5 -28.5t26.5 -72.5z" />
    <glyph glyph-name="hyphen" unicode="-" horiz-adv-x="341" 
d="M281 234h-221v91h221v-91z" />
    <glyph glyph-name="period" unicode="." horiz-adv-x="257" 
d="M129 -13q-42 0 -66.5 25t-24.5 62t24.5 62t66.5 25t66.5 -25t24.5 -62t-24.5 -62t-66.5 -25z" />
    <glyph glyph-name="slash" unicode="/" horiz-adv-x="384" 
d="M393 702l-373 -837l-43 18l373 838z" />
    <glyph glyph-name="zero" unicode="0" horiz-adv-x="686" 
d="M39 333q0 155 87.5 250.5t216.5 95.5q130 0 217.5 -95.5t87.5 -250.5t-87.5 -250.5t-217.5 -95.5t-217 95t-87 251zM455 333q0 173 -27.5 245.5t-84.5 72.5t-84 -72t-27 -246t27 -246t84 -72t84.5 72t27.5 246z" />
    <glyph glyph-name="one" unicode="1" horiz-adv-x="387" 
d="M364 0h-336v20q38 6 47 11q22 12 28 31q6 22 6 78v380q0 41 -3 65q-4 26 -22 35q-15 6 -63 14v19l165 11q79 9 92 9q7 0 7 -8q0 -6 -1 -43.5t-1 -50.5v-431q0 -53 6 -75t28 -33q18 -9 47 -12v-20z" />
    <glyph glyph-name="two" unicode="2" horiz-adv-x="572" 
d="M238 648q-60 0 -74 -31q-9 -15 10 -51q15 -26 15 -62q0 -33 -21 -54.5t-56 -21.5q-38 0 -60.5 23.5t-22.5 63.5q0 64 62.5 114t166.5 50q129 0 198.5 -47.5t69.5 -131.5q0 -57 -33 -113t-74 -93t-92 -70q-52 -34 -163 -84v-6h187q46 0 73 10t53 33q30 27 53 63h22
l-69 -240h-473l-3 17q58 53 104 106l34 34t40.5 41l37 41t40 49.5l31.5 50t29.5 58.5t16 58.5t7.5 65.5q0 69 -27.5 98t-81.5 29z" />
    <glyph glyph-name="three" unicode="3" horiz-adv-x="586" 
d="M286 679q104 0 165.5 -35t61.5 -102t-54.5 -106t-159.5 -69v-4q113 12 187.5 -32.5t74.5 -130.5q0 -94 -82 -154t-221 -60q-113 0 -176 43.5t-63 103.5q0 38 23 61t59 23t56 -23.5t20 -59.5q0 -34 -7 -59q-3 -20 4 -36q13 -22 59 -22q64 0 100.5 52.5t36.5 149.5
q0 65 -20 89.5t-67 24.5q-30 0 -63 -19l-45 -27l-13 23l61 36q65 39 92 87t27 116q0 51 -20 75t-66 24q-36 0 -57 -10.5t-21 -28.5q0 -13 9 -32q11 -26 11 -52q0 -32 -19.5 -52.5t-50.5 -20.5q-35 0 -56.5 23t-21.5 61q0 56 61.5 99.5t174.5 43.5z" />
    <glyph glyph-name="four" unicode="4" horiz-adv-x="621" 
d="M43 244h230v298h-5zM528 21v-21h-335v21q34 4 47 10q20 9 28 35q5 24 5 74v78h-265v24l319 422h120q3 0 3 -4q0 -6 -1 -27t-1 -36v-353h23q55 0 76 30q20 29 27 77h20v-241h-20q-8 50 -28 77q-22 30 -75 30h-23v-78q0 -48 6 -73q6 -24 27 -33q17 -8 47 -12z" />
    <glyph glyph-name="five" unicode="5" horiz-adv-x="564" 
d="M211 13q58 0 94 53.5t37 145.5q-1 148 -120 148q-72 0 -110 -75l-28 7l84 371h22q72 -33 168 -33q63 0 100.5 26.5t47.5 57.5l18 -6q-19 -104 -72.5 -158.5t-156.5 -54.5q-66 0 -132 20l-36 -166l5 -1q46 55 162 55q112 0 173.5 -52.5t61.5 -140.5q0 -109 -84.5 -167
t-215.5 -58q-106 0 -164.5 43.5t-58.5 102.5q0 37 21.5 59.5t56.5 22.5q34 0 53.5 -22.5t19.5 -55.5q0 -32 -8 -64q-3 -28 10 -41q11 -17 52 -17z" />
    <glyph glyph-name="six" unicode="6" horiz-adv-x="616" 
d="M586 557q0 -35 -21.5 -57t-55.5 -22q-37 0 -57 19.5t-20 49.5q0 26 9 46q11 23 11 36q0 9 -13.5 16t-35.5 7q-74 0 -122.5 -84.5t-53.5 -198.5h6q38 58 127 58q100 0 162.5 -53.5t62.5 -156.5q0 -104 -75.5 -168t-188.5 -64q-132 0 -206.5 82.5t-74.5 217.5
q0 93 32 169.5t84.5 124.5t116.5 74t131 26q95 0 138.5 -34t43.5 -88zM320 393q-96 0 -96 -190q0 -109 24.5 -149t70.5 -40q49 0 71 40t22 153q0 109 -23 147.5t-69 38.5z" />
    <glyph glyph-name="seven" unicode="7" horiz-adv-x="513" 
d="M519 653q-103 -163 -149.5 -293.5t-67.5 -263.5q-13 -59 -34.5 -85t-64.5 -26t-66.5 24t-23.5 60q0 100 103 214l64.5 73.5l78.5 90.5t56 71v3h-231q-57 0 -87 -15q-37 -21 -57 -76h-19l57 270h18q15 -36 65 -36h358v-11z" />
    <glyph glyph-name="eight" unicode="8" horiz-adv-x="578" 
d="M287 -15q-113 0 -183 43t-70 118q0 104 136 152q-113 61 -113 179q0 89 66 145.5t173 56.5q98 0 155.5 -33t57.5 -103q0 -44 -33.5 -78.5t-84.5 -56.5q77 -37 118 -80t41 -113q0 -102 -72.5 -166t-190.5 -64zM182 565q0 -21 10.5 -39t23.5 -30.5t41.5 -27.5t46.5 -23
t57 -24q62 43 62 116q0 59 -31 86.5t-97 27.5q-55 -1 -84 -23.5t-29 -62.5zM287 13q137 0 137 101q0 20 -9 37.5t-21.5 30t-41 29t-51 27l-69.5 31.5q-19 8 -29 13q-71 -42 -71 -127q0 -72 44.5 -107t110.5 -35z" />
    <glyph glyph-name="nine" unicode="9" horiz-adv-x="616" 
d="M299 266q43 0 68.5 41.5t25.5 152.5q0 109 -23.5 149.5t-71.5 40.5q-47 0 -68.5 -41t-21.5 -155q0 -113 22 -150.5t69 -37.5zM46 107q0 35 22 57.5t56 22.5q37 0 57 -20t20 -49q0 -21 -10 -47q-12 -26 -12 -35q0 -23 51 -23q76 0 117.5 74.5t44.5 200.5h-6
q-36 -58 -123 -58q-101 0 -164.5 55.5t-63.5 160.5q0 104 73.5 168.5t188.5 64.5q135 0 208.5 -83.5t73.5 -218.5q0 -98 -29 -175.5t-77.5 -123.5t-108 -69.5t-125.5 -23.5q-100 0 -146.5 34.5t-46.5 87.5z" />
    <glyph glyph-name="colon" unicode=":" horiz-adv-x="257" 
d="M129 315q-42 0 -66.5 25t-24.5 62t24.5 62t66.5 25t66.5 -25t24.5 -62t-24.5 -62t-66.5 -25zM129 -13q-42 0 -66.5 25t-24.5 62t24.5 62t66.5 25t66.5 -25t24.5 -62t-24.5 -62t-66.5 -25z" />
    <glyph glyph-name="semicolon" unicode=";" horiz-adv-x="267" 
d="M135 315q-42 0 -66.5 25t-24.5 62t24.5 62t66.5 25t66.5 -25t24.5 -62t-24.5 -62t-66.5 -25zM230 59q0 -71 -49 -127.5t-123 -82.5l-8 21q52 21 77.5 48t25.5 50q0 17 -17 21q-89 15 -89 87q0 39 26 61.5t62 22.5q43 0 69 -28t26 -73z" />
    <glyph glyph-name="less" unicode="&#x3c;" horiz-adv-x="423" 
d="M359 110l-320 152v33l320 152v-43l-267 -125l267 -126v-43z" />
    <glyph glyph-name="equal" unicode="=" horiz-adv-x="447" 
d="M407 342h-366v40h366v-40zM407 171h-366v39h366v-39z" />
    <glyph glyph-name="greater" unicode="&#x3e;" horiz-adv-x="423" 
d="M384 262l-320 -152v44l267 125l-267 124v44l320 -152v-33z" />
    <glyph glyph-name="question" unicode="?" horiz-adv-x="492" 
d="M473 491q0 -61 -46.5 -105t-104.5 -61t-114 -17h-35v-107h-27v132h38q114 0 114 202q0 63 -22.5 94t-60.5 31q-18 0 -26 -14.5t-13 -53.5q-12 -96 -84 -96q-36 0 -55.5 20t-19.5 55q0 50 56 83t146 33q73 0 138 -29q116 -50 116 -167zM252 74q0 -37 -24.5 -62t-66.5 -25
t-66.5 25t-24.5 62t24.5 62t66.5 25t66.5 -25t24.5 -62z" />
    <glyph glyph-name="at" unicode="@" horiz-adv-x="873" 
d="M853 306q0 -130 -80.5 -217t-202.5 -87q-46 0 -71 20.5t-25 52.5q0 18 6 42h-5q-21 -41 -44 -65q-49 -50 -114 -50q-47 0 -77 32t-30 93q0 111 88 214.5t192 103.5q34 0 53 -15t22 -38h6q7 16 24 45h120l-16.5 -50.5l-22.5 -69l-22 -67.5q-47 -136 -47 -170q0 -37 32 -37
q74 0 132 79t58 184q0 134 -90.5 208.5t-239.5 74.5q-166 0 -285 -119t-119 -292q0 -164 91 -253.5t261 -89.5q95 0 179 28t141 68l10 -18q-52 -39 -141 -68.5t-188 -29.5q-190 0 -306.5 91.5t-116.5 266.5q0 124 66.5 225.5t174.5 156.5t233 55q161 0 257.5 -82t96.5 -222z
M542 373q0 47 -33 47q-41 0 -74 -60q-31 -53 -59.5 -142t-28.5 -126q0 -45 30 -45q25 0 49 31q27 34 56 103q4 8 33 84q27 76 27 108z" />
    <glyph glyph-name="A" unicode="A" horiz-adv-x="672" 
d="M251 446l-80 -216h163l-77 216h-6zM200 21v-21h-211v21q25 3 42 14q16 9 36 37q21 36 41 90l199 516h57l181 -487q32 -81 51 -112q21 -31 46 -46q21 -10 36 -12v-21h-374v21q21 2 40 10q34 13 34 46q0 28 -18 80l-15 42h-185l-19 -51q-15 -39 -15 -66q0 -40 30 -51
q18 -8 44 -10z" />
    <glyph glyph-name="B" unicode="B" horiz-adv-x="698" 
d="M26 0v21q22 1 38 8q23 11 35 34q11 25 11 83v378q0 61 -11 87q-12 23 -35 34q-14 5 -38 7v21h374q239 0 239 -156q0 -101 -110 -135q-31 -13 -76 -19v-5q221 -19 221 -169q0 -90 -68 -139.5t-169 -49.5h-411zM290 372h69q62 0 85 33q25 36 25 117q0 70 -27 97.5t-78 27.5
h-45q-17 0 -23 -9q-6 -7 -6 -26v-240zM360 27h23q54 0 80 34q26 40 26 133q0 87 -38 124q-27 26 -95 26h-66v-224q0 -59 16 -77q14 -16 54 -16z" />
    <glyph glyph-name="C" unicode="C" horiz-adv-x="673" 
d="M402 658q-58 0 -95 -33q-83 -70 -83 -280q0 -196 84 -267q45 -37 119 -37q64 0 116.5 39.5t81.5 109.5l25 -12q-37 -90 -103.5 -140.5t-177.5 -50.5q-67 0 -127 22t-107 64t-74.5 110t-27.5 154q0 157 104.5 253.5t252.5 96.5q125 0 182 -64h5l36 52h14v-231h-22
q-25 96 -66 149q-28 34 -58 49.5t-79 15.5z" />
    <glyph glyph-name="D" unicode="D" horiz-adv-x="759" 
d="M26 673h353q119 0 191 -42q72 -41 115 -117t43 -175t-40.5 -176.5t-112.5 -120.5q-77 -42 -159 -42h-390v21q27 4 37 8q25 11 36 33q11 24 11 84v381q0 59 -10 86q-10 22 -35 33q-14 5 -39 7v20zM535 338q0 176 -61 257q-36 51 -115 51h-30q-21 0 -31 -10q-7 -7 -7 -35
v-477q0 -62 12 -77q13 -20 52 -20h20q66 0 102 50q58 84 58 261z" />
    <glyph glyph-name="E" unicode="E" horiz-adv-x="666" 
d="M626 244l-19 -244h-581v21q20 1 37 8q25 12 36 33q11 23 11 86v380q0 60 -10 84q-12 20 -36 33q-14 7 -38 8v20h561l24 -209h-20q-58 96 -104 138q-44 44 -110 44h-38q-24 0 -35 -12q-15 -15 -15 -54v-217h45q53 0 82 29q29 28 46 90h20v-267h-20q-17 61 -48 93
q-26 27 -80 27h-45v-207q0 -62 16 -80q15 -21 59 -21h28q36 0 57 12t50 44q49 49 109 161h18z" />
    <glyph glyph-name="F" unicode="F" horiz-adv-x="633" 
d="M379 21v-21h-353v21q22 1 38 8q25 11 35 33q11 22 11 84v382q0 63 -11 86q-10 22 -34 32q-10 4 -39 6v21h564l26 -228h-19q-57 97 -104 146q-26 29 -51 42t-65 13h-37q-27 0 -39 -12q-11 -11 -11 -53v-222h34q54 0 82 29q28 28 47 90h20v-266h-20q-19 61 -48 92
q-28 28 -81 28h-34v-183q0 -66 11 -89q12 -21 37 -31q18 -7 41 -8z" />
    <glyph glyph-name="G" unicode="G" horiz-adv-x="746" 
d="M483 201q0 39 -13 66q-11 21 -35 31q-14 6 -36 8v21h328v-21q-25 -2 -37 -7q-24 -11 -36 -34q-10 -21 -10 -88v-130q-31 -16 -100 -36q-96 -24 -168 -24q-155 0 -248.5 97t-93.5 253q0 150 101.5 250t244.5 100q124 0 188 -72h7l31 51h16v-229h-21q-29 103 -65 150
q-29 38 -59.5 54.5t-82.5 16.5q-53 0 -91 -38q-32 -31 -54.5 -105.5t-22.5 -177.5q0 -229 68 -288q34 -34 83 -34q61 0 87 23q19 21 19 90v73z" />
    <glyph glyph-name="H" unicode="H" horiz-adv-x="812" 
d="M365 21v-21h-339v21q22 1 37 8q24 10 36 34q11 23 11 83v379q0 64 -11 87q-11 22 -36 32q-14 6 -37 8v21h339v-21q-15 -1 -28 -6q-27 -11 -37 -33q-10 -24 -10 -85v-170h232v170q0 59 -10 84q-8 18 -36 33q-16 6 -28 7v21h339v-21q-24 -2 -39 -8q-23 -9 -34 -32
q-12 -25 -12 -88v-378q0 -63 11 -85q12 -21 35 -32q16 -7 39 -8v-21h-339v21q17 1 30 8q26 12 34 34q10 25 10 83v181h-232v-181q0 -59 10 -83q12 -25 35 -34q13 -7 30 -8z" />
    <glyph glyph-name="I" unicode="I" horiz-adv-x="401" 
d="M290 527v-381q0 -65 10 -85q14 -23 37 -32q17 -7 38 -8v-21h-349v21q20 1 38 8q25 12 35 34q11 23 11 83v381q0 60 -11 86q-11 24 -34 31q-16 6 -39 8v21h349v-21q-23 -1 -39 -8q-25 -9 -36 -31q-10 -24 -10 -86z" />
    <glyph glyph-name="J" unicode="J" horiz-adv-x="530" 
d="M252 521q0 68 -11 91q-10 22 -35 33q-15 6 -38 7v21h348v-21q-24 -2 -37 -8q-25 -10 -36 -33q-12 -24 -12 -89v-278q0 -141 -69 -203q-60 -54 -173 -54q-91 0 -137 34q-50 35 -50 92q0 38 23.5 62t60.5 24q31 0 51 -16.5t25 -45.5q6 -31 -2 -64q-5 -23 -4 -34
q1 -9 12.5 -15t25.5 -6q31 0 47 29q11 25 11 91v383z" />
    <glyph glyph-name="K" unicode="K" horiz-adv-x="738" 
d="M373 21v-21h-349v21q25 2 37 8q25 10 36 33q11 26 11 87v379q0 61 -11 84q-12 22 -35 33q-12 5 -38 7v21h349v-21q-28 -2 -39 -8q-26 -12 -35 -32q-11 -26 -11 -84v-190l165 179q58 65 58 93q0 26 -27 36q-18 5 -38 6v21h245v-21q-39 -5 -79 -29q-46 -28 -104 -91
l-121 -129v-5q116 -5 169 -57q61 -55 80 -170q7 -43 16 -70.5t16.5 -38t20.5 -20.5q24 -19 58 -21v-21h-245q-17 17 -31.5 57.5t-19.5 93.5q-1 7 -2 23t-1.5 22.5t-2 19t-2 19t-2 16t-3 15.5t-3.5 13t-4.5 12.5t-5.5 10.5q-14 23 -27.5 32.5t-36.5 9.5q-30 0 -52 -25
l-21 -24v-149q0 -61 11 -83q13 -24 36 -34q14 -6 38 -8z" />
    <glyph glyph-name="L" unicode="L" horiz-adv-x="637" 
d="M26 0v21q23 2 39 8q26 11 35 34q11 23 11 80v387q0 57 -12 82q-10 23 -36 33q-10 5 -37 7v21h347v-21q-22 -1 -37 -7q-26 -12 -35 -33q-12 -25 -12 -82v-390q0 -69 18 -93q16 -20 53 -20h28q31 0 50 10.5t41 35.5q53 60 117 180h21l-23 -253h-568z" />
    <glyph glyph-name="M" unicode="M" horiz-adv-x="890" 
d="M865 673v-21q-26 -2 -38 -7q-23 -10 -36 -34q-10 -24 -10 -84v-382q0 -65 10 -85q9 -21 37 -32q15 -6 37 -7v-21h-350v21q26 2 39 7q27 12 36 34q11 24 11 85v410h-7l-182 -560h-59l-193 550h-8v-388q0 -65 17 -97q17 -27 42 -34q17 -5 35 -7v-21h-223v21q19 2 32 6
q28 10 42 34q22 34 22 98v343q0 71 -15 105q-12 26 -41 38q-11 5 -39 7v21h287l140 -415h6l140 415h268z" />
    <glyph glyph-name="N" unicode="N" horiz-adv-x="739" 
d="M635 -4h-68l-398 543h-7v-380q0 -68 17 -97q14 -25 41 -35q17 -5 36 -6v-21h-224v21q17 2 32 6q26 7 43 34q21 32 21 98v305q0 90 -21 132q-16 32 -50 48q-12 6 -34 9v20h273l300 -414h5v250q0 74 -20 105q-15 22 -44 32q-12 5 -39 7v20h235v-20q-27 -4 -40 -8
q-26 -8 -40 -34q-18 -33 -18 -102v-513z" />
    <glyph glyph-name="O" unicode="O" horiz-adv-x="751" 
d="M375 687q147 0 245 -97t98 -253t-98 -253t-245 -97t-244.5 97t-97.5 253t97.5 253t244.5 97zM375 15q51 0 85 33q66 58 66 289q0 227 -66 289q-35 32 -85 32q-52 0 -86 -33q-66 -62 -66 -288q0 -228 67 -289q34 -33 85 -33z" />
    <glyph glyph-name="P" unicode="P" horiz-adv-x="660" 
d="M290 598v-270q23 -5 54 -5q78 0 106 53q19 33 19 118q0 80 -27 116t-81 36h-32q-20 0 -30 -10q-9 -10 -9 -38zM377 21v-21h-350v21q18 1 37 8q25 11 35 32q12 24 12 83v386q0 52 -12 82q-11 22 -35 33q-14 5 -38 7v21h357q126 0 196 -44.5t70 -132.5q0 -101 -86 -154
q-76 -47 -217 -47q-20 0 -56 4v-155q0 -56 11 -82q12 -22 36 -33q14 -6 40 -8z" />
    <glyph glyph-name="Q" unicode="Q" horiz-adv-x="749" 
d="M590 -150q-118 0 -170 140q-22 -3 -45 -3q-147 0 -244.5 97t-97.5 253t97.5 253t244.5 97t245 -97t98 -253q0 -105 -46.5 -185t-125.5 -123q53 -72 117 -72q42 0 69 42l15 -9q-16 -61 -56.5 -100.5t-100.5 -39.5zM223 337q0 -172 35 -244q32 63 114 63q61 0 121 -60
q33 75 33 241q0 227 -66 289q-35 32 -85 32q-52 0 -86 -33q-66 -62 -66 -288zM375 15q21 0 34 4q-16 49 -33.5 69.5t-45.5 20.5q-41 0 -56 -44l16 -17q34 -33 85 -33z" />
    <glyph glyph-name="R" unicode="R" horiz-adv-x="749" 
d="M366 646h-44q-16 0 -24 -9q-8 -8 -8 -32v-251h57q42 0 63 8.5t34 29.5q23 40 23 120q0 76 -24.5 105t-76.5 29zM375 21v-21h-350v21q22 1 38 8q25 9 36 33t11 84v379q0 64 -10 90q-11 21 -37 32q-12 4 -38 6v20h368q253 0 253 -167q0 -93 -96 -137q-41 -21 -92 -29v-4
q66 -7 106 -28q61 -31 81 -126q21 -109 49 -139q21 -19 54 -22v-21h-239q-31 42 -43 142q-1 10 -4.5 39.5l-4.5 38t-5 26.5t-9.5 28.5t-13.5 20.5q-24 31 -85 31h-54v-180q0 -59 10 -84q11 -22 37 -33q14 -6 38 -8z" />
    <glyph glyph-name="S" unicode="S" horiz-adv-x="573" 
d="M541 209q0 -104 -74 -163t-185 -59q-108 0 -179 69h-6l-36 -55h-17l-8 244h22q31 -93 90.5 -161.5t133.5 -68.5q56 0 87 27t31 72q0 27 -7.5 46t-31 36t-42 26.5t-64.5 29.5q-48 21 -80 39t-64.5 45t-48.5 63.5t-16 82.5q0 94 66 149.5t163 55.5q54 0 85 -13t62 -39h6
l34 39h20l12 -209h-22q-23 62 -60 114q-54 78 -131 78q-44 0 -70.5 -21.5t-26.5 -62.5q0 -12 2.5 -22.5l4.5 -19t9.5 -17.5t11 -14t15 -13t16 -11.5t19.5 -11t19.5 -9.5l23 -10.5t22.5 -10.5q41 -19 60 -28.5t49.5 -26.5t45 -31.5t30.5 -35.5t22.5 -46.5t6.5 -56.5z" />
    <glyph glyph-name="T" unicode="T" horiz-adv-x="699" 
d="M439 148q0 -64 12 -87q10 -20 35 -32q15 -5 37 -8v-21h-348v21q20 1 37 8q24 11 36 34q11 25 11 83v499h-24q-52 0 -101 -52q-45 -50 -99 -151h-20l20 231h629l20 -231h-20q-54 101 -99 152q-27 28 -49.5 39.5t-52.5 11.5h-24v-497z" />
    <glyph glyph-name="U" unicode="U" horiz-adv-x="727" 
d="M626 227q0 -106 -30 -154q-53 -86 -220 -86q-186 0 -248 106q-31 56 -31 157v277q0 64 -10 86q-9 21 -34 32q-13 5 -39 7v21h348v-21q-24 -2 -37 -8q-25 -11 -36 -31q-12 -23 -12 -85v-321q0 -60 16 -102q27 -77 136 -77q102 0 142 67q21 36 21 131v288q0 70 -19 99
q-14 23 -43 33q-17 6 -36 7v20h225v-20q-23 -3 -32 -7q-25 -8 -43 -35q-18 -29 -18 -97v-287z" />
    <glyph glyph-name="V" unicode="V" horiz-adv-x="668" 
d="M317 516l98 -286h6l105 294q16 46 16 69q0 37 -30 50q-21 8 -44 9v21h210v-21q-26 -3 -43 -14q-22 -15 -37 -36t-41 -91l-187 -514h-63l-178 487q-30 83 -50 112q-19 29 -47 44q-21 9 -37 12v21h381v-21q-29 -3 -44 -10q-34 -13 -34 -46q0 -23 19 -80z" />
    <glyph glyph-name="W" unicode="W" horiz-adv-x="1059" 
d="M699 -4l-162 487h-4l-157 -487h-80l-181 535q-18 50 -28 65q-19 29 -33 38q-21 15 -48 19v20h365v-20q-28 -3 -43 -9q-26 -9 -26 -40q0 -22 23 -95l86 -281h5l102 313q-15 36 -17 40q-25 48 -43 59q-14 10 -39 13v20h363v-20q-30 -3 -44 -10q-28 -12 -28 -41
q0 -26 21 -93l84 -281h6l91 291q16 53 16 73q0 33 -26 49q-12 8 -44 12v20h203v-20q-27 -5 -40 -12q-19 -11 -38 -39q-16 -22 -37 -89l-166 -517h-81z" />
    <glyph glyph-name="X" unicode="X" horiz-adv-x="693" 
d="M222 0h-225v21q18 3 40 16q18 10 43 33q28 27 73 87l109 146l-131 219q-47 76 -70 99.5t-68 31.5v20h383v-20q-73 -7 -73 -48q0 -28 26 -70l74 -123h5l76 106q38 52 38 82q0 32 -26 43q-17 9 -40 10v20h221v-20q-25 -6 -43 -17q-18 -9 -44 -34q-20 -20 -66 -84l-101 -138
l138 -229q38 -64 68 -93.5t69 -36.5v-21h-380v21q32 3 53 15t21 31q0 18 -29 67l-81 135h-5l-84 -115q-22 -30 -30 -46.5t-8 -35.5q0 -28 31 -43q11 -4 36 -8v-21z" />
    <glyph glyph-name="Y" unicode="Y" horiz-adv-x="654" 
d="M235 298l-141 260q-27 51 -46.5 69.5t-53.5 24.5v21h356v-21q-30 -1 -46 -8q-46 -19 -6 -99l99 -198h5l86 170q30 59 30 90q0 30 -28 40q-16 5 -35 5v21h200v-21q-42 -7 -68 -35t-63 -100l-110 -214v-161q0 -59 11 -82q11 -20 35 -31q16 -7 39 -8v-21h-349v21q21 1 38 9
q25 12 35 32q12 22 12 80v156z" />
    <glyph glyph-name="Z" unicode="Z" horiz-adv-x="654" 
d="M620 673v-19l-374 -625h70q61 0 97 13.5t71 42.5q16 13 31.5 29t25.5 27.5t23.5 30.5l18.5 26.5t17 27t13 21.5h23l-46 -247h-558v19l383 626h-72q-52 0 -84.5 -10.5t-65.5 -36.5q-57 -43 -113 -140h-22l31 215h531z" />
    <glyph glyph-name="bracketleft" unicode="[" horiz-adv-x="339" 
d="M329 -111h-251v814h251v-23h-99v-768h99v-23z" />
    <glyph glyph-name="backslash" unicode="\" horiz-adv-x="380" 
d="M-14 701l44 20l373 -838l-44 -18z" />
    <glyph glyph-name="bracketright" unicode="]" horiz-adv-x="339" 
d="M262 703v-814h-251v23h99v768h-99v23h251z" />
    <glyph glyph-name="asciicircum" unicode="^" horiz-adv-x="397" 
d="M198 618l-99 -193h-48l132 252h32l131 -252h-48z" />
    <glyph glyph-name="underscore" unicode="_" horiz-adv-x="295" 
d="M300 -170h-305v47h305v-47z" />
    <glyph glyph-name="grave" unicode="`" horiz-adv-x="402" 
d="M304 549l-11 -18q-37 17 -90 35t-64 23q-68 23 -68 71q0 26 16 43t41 17q18 0 35 -10t26.5 -20t26.5 -31z" />
    <glyph glyph-name="a" unicode="a" horiz-adv-x="537" 
d="M540 23q-12 -11 -46.5 -21.5t-80.5 -10.5q-56 0 -79 20q-18 14 -24 54h-7q-11 -32 -44.5 -53t-87.5 -21q-68 0 -107 32.5t-39 92.5q0 56 35 88q31 28 107 47q125 24 131 70v80q0 36 -11.5 50.5t-37.5 14.5q-33 0 -44 -15q-4 -8 -8 -65q-4 -70 -73 -70q-31 0 -50.5 15.5
t-19.5 42.5q0 40 31 65q25 23 69.5 37.5t95.5 14.5q111 0 161 -32t50 -94v-242q0 -56 9 -74q7 -16 31 -16q18 0 34 7zM298 277q-8 -9 -52 -30q-35 -17 -48 -37q-16 -27 -16 -77q0 -93 53 -93q24 0 41.5 15.5t21.5 41.5v180z" />
    <glyph glyph-name="b" unicode="b" horiz-adv-x="593" 
d="M222 712q7 0 7 -7q0 -10 -1.5 -51.5t-1.5 -71.5v-162h6q41 71 138 71q87 0 143 -63.5t56 -187.5q0 -121 -72 -185t-182 -64q-47 0 -88 19t-64 53h-8l-78 -64h-17q3 48 3 95v501q0 48 -4 63q-6 18 -17 26q-13 7 -39 9v19h219zM321 448q-41 0 -67 -37q-28 -50 -28 -114
v-122q0 -78 19 -113q20 -43 65 -43q46 0 67.5 51t21.5 169q0 119 -20 164t-58 45z" />
    <glyph glyph-name="c" unicode="c" horiz-adv-x="508" 
d="M286 465q-31 0 -52 -21q-42 -44 -42 -199q0 -84 13 -125.5t37 -66.5q24 -26 70 -26q67 0 106 35.5t55 87.5l23 -8q-19 -67 -71 -109t-142 -42q-101 0 -167 49q-92 64 -92 197q0 115 75 184.5t186 69.5q102 0 159 -43q43 -29 43 -70q0 -34 -20 -51t-51 -17q-67 0 -76 80
q-6 40 -17 57.5t-37 17.5z" />
    <glyph glyph-name="d" unicode="d" horiz-adv-x="600" 
d="M364 165v166q0 49 -21 81q-24 39 -59 39q-91 0 -91 -212q0 -208 89 -208q35 0 58.5 40.5t23.5 93.5zM592 0q-6 0 -108.5 -1t-103.5 -1q-6 0 -8 5q-1 8 -1 25v50h-6q-29 -87 -129 -87q-88 0 -150 66t-62 183q0 113 64.5 182t154.5 69q85 0 116 -57h5v165q0 43 -4 58
q-3 16 -15 24q-14 9 -48 12v19h225q7 0 7 -7q-4 -124 -4 -160v-424q0 -40 3 -55q6 -28 27 -37q13 -8 37 -10v-19z" />
    <glyph glyph-name="e" unicode="e" horiz-adv-x="522" 
d="M229 440q-30 -40 -33 -157h128q15 0 21 8t6 30q0 87 -19 120q-18 24 -52 24q-30 0 -51 -25zM500 146q-52 -155 -215 -155q-109 0 -179 57q-82 66 -82 191q0 112 75 182t180 70q106 0 163 -58.5t57 -134.5q0 -26 -3 -41h-301v-8q0 -149 37 -189q30 -33 84 -33
q65 0 105.5 36.5t57.5 90.5z" />
    <glyph glyph-name="f" unicode="f" horiz-adv-x="357" 
d="M314 0h-293v19q16 1 31 7q22 9 26 34q4 20 4 68v319h-68v32h68v35q1 102 69 158q55 45 145 45q75 0 116 -22q50 -26 50 -82q0 -27 -17 -44.5t-45 -17.5q-38 0 -59 29q-10 15 -17 44q-3 10 -7 26.5t-5 22.5q-5 17 -24 17q-22 0 -33 -23q-10 -23 -10 -94v-94h106v-32h-106
v-319q0 -48 5 -69q6 -25 26 -32q17 -6 38 -8v-19z" />
    <glyph glyph-name="g" unicode="g" 
d="M180 331q0 -76 17 -106.5t48 -30.5q72 0 72 137t-70 137q-67 0 -67 -137zM528 -15q0 -88 -90 -141t-213 -53q-218 0 -218 95q0 72 132 90v6q-42 6 -69.5 32.5t-27.5 68.5q0 43 28 68.5t68 36.5v5q-100 40 -100 138q0 75 61 117.5t149 42.5q105 0 161 -57h7q9 28 33.5 45
t58.5 17q36 0 53.5 -17.5t17.5 -46.5q0 -24 -13.5 -38t-37.5 -14q-36 0 -50 39q-4 9 -5.5 12t-4.5 7.5t-6 5.5t-7 1q-10 0 -16.5 -10t-6.5 -24q0 -5 13 -34q11 -20 11 -45q0 -78 -59.5 -119.5t-150.5 -41.5q-36 0 -76 6q-42 -2 -42 -29q0 -34 56 -34q11 0 86.5 3.5t94.5 3.5
q82 0 122.5 -33t40.5 -103zM431 -82q0 33 -20.5 45.5t-63.5 12.5q-38 1 -153 -6q-106 -10 -106 -79q0 -75 142 -75q88 0 144.5 27t56.5 75z" />
    <glyph glyph-name="h" unicode="h" horiz-adv-x="627" 
d="M554 128q0 -38 4 -68q4 -25 27 -35q10 -4 31 -6v-19h-275v19q18 2 27 8q16 8 20 38q3 15 3 64v249q0 31 -12 46q-14 15 -39 15q-52 0 -81 -68q-17 -39 -17 -97v-145q0 -41 3 -63q4 -31 21 -39q14 -7 26 -8v-19h-275v19q22 2 31 7q21 10 27 35q4 19 4 68v469q0 37 -4 56
q-3 20 -17 29q-15 9 -40 10v19h219q6 0 6 -7q0 -2 -0.5 -34.5t-0.5 -48.5v-225h6q18 38 45 58q39 36 114 36q69 0 107 -39q40 -37 40 -110v-214z" />
    <glyph glyph-name="i" unicode="i" horiz-adv-x="318" 
d="M160 531q-42 0 -66.5 25t-24.5 62t24.5 62t66.5 25t66.5 -25t24.5 -62t-24.5 -62t-66.5 -25zM242 378v-248q0 -47 5 -72q5 -22 26 -32q9 -5 31 -7v-19h-286v19q22 2 31 7q22 11 26 34q4 20 4 70v234q0 36 -3 55q-6 22 -19 30q-15 9 -40 12v18h220q7 0 7 -7q0 -11 -1 -39
t-1 -55z" />
    <glyph glyph-name="j" unicode="j" horiz-adv-x="292" 
d="M150 531q-42 0 -66.5 25t-24.5 62t24.5 62t66.5 25t66.5 -25t24.5 -62t-24.5 -62t-66.5 -25zM71 -69v434q0 36 -4 55q-3 21 -18 30q-17 8 -40 11v18h219q7 0 7 -7q0 -11 -0.5 -42t-0.5 -58v-333q0 -82 -22.5 -127.5t-59.5 -74.5q-62 -46 -145 -46q-56 0 -97 20
q-55 25 -55 83q0 30 20.5 49t53.5 19q36 0 55 -17.5t19 -46.5q0 -20 -12 -44l-5 -18q0 -21 30 -21t42 29q13 26 13 87z" />
    <glyph glyph-name="k" unicode="k" horiz-adv-x="613" 
d="M304 19v-19h-284v19q18 2 28 7q21 10 27 33q4 18 4 68v473q0 36 -3 53q-4 21 -19 31q-13 7 -40 9v19h220q7 0 7 -8q-2 -50 -2 -102v-353l106 99q51 46 51 74q0 21 -22 30q-10 5 -37 9v18h224v-18q-30 -8 -65 -26q-31 -17 -88 -67l-63 -55q136 -15 161 -107
q5 -15 13.5 -46.5t12.5 -43.5t11 -30t16 -32q19 -30 55 -36v-18h-205q-16 14 -26.5 46.5t-25.5 109.5q-9 44 -23.5 67.5t-46.5 33.5l-48 -42v-88q0 -48 4 -67q7 -25 26 -34q12 -5 32 -7z" />
    <glyph glyph-name="l" unicode="l" horiz-adv-x="318" 
d="M241 601v-474q0 -47 4 -67q7 -26 26 -34q11 -5 32 -7v-19h-285v19q19 1 29 7q21 11 27 33q4 17 4 68v473q0 41 -4 53q-4 22 -19 31q-10 7 -39 9v19h219q8 0 8 -8q0 -11 -1 -44.5t-1 -58.5z" />
    <glyph glyph-name="m" unicode="m" horiz-adv-x="916" 
d="M291 19v-19h-274v19q21 2 32 7q21 9 27 35q3 14 3 68v235q0 42 -3 55q-5 22 -19 29q-17 10 -38 13v18h218q6 0 6 -7q0 -6 -3 -78h7q18 41 41 60q43 37 114 37q76 0 106 -39q23 -26 29 -59h5q19 42 46 62q41 36 113 36q73 0 107 -38t34 -111v-214q0 -49 5 -68
q8 -27 26 -35q12 -4 31 -6v-19h-273v19q16 1 26 8q15 8 20 33q2 13 2 69v251q0 30 -10 44q-12 15 -35 15q-45 0 -72 -58q-19 -43 -19 -110v-142q0 -57 3 -69q4 -25 20 -34q10 -5 25 -7v-19h-259v19q14 0 26 8q15 9 19 33q3 14 3 69v252q0 28 -10 42q-12 16 -36 16
q-48 0 -72 -64q-20 -40 -20 -111v-135q0 -46 4 -69q5 -25 20 -34q10 -7 25 -7z" />
    <glyph glyph-name="n" unicode="n" horiz-adv-x="627" 
d="M555 128q0 -48 4 -67q5 -25 26 -34q16 -7 31 -8v-19h-274v19q16 2 27 8q14 6 19 32q3 14 3 70v249q0 34 -14 49q-12 12 -36 12q-56 0 -81 -68q-17 -42 -17 -104v-138q0 -51 3 -69q5 -24 21 -33q13 -7 25 -8v-19h-275v19q22 2 31 7q22 9 28 35q4 17 4 70v233q0 41 -3 55
q-4 20 -19 29q-19 11 -39 13v18h216q7 0 7 -7q0 -18 -2 -78h6q20 39 49 62q42 35 117 35q65 0 103 -39q40 -40 40 -109v-215z" />
    <glyph glyph-name="o" unicode="o" 
d="M24 241q0 113 73 181.5t186 68.5t185.5 -68.5t72.5 -181.5t-72.5 -181.5t-185.5 -68.5t-186 68.5t-73 181.5zM194 241q0 -172 39 -207q19 -18 50 -18q29 0 49 18q39 34 39 207t-39 207q-20 18 -49 18q-31 0 -50 -18q-39 -34 -39 -207z" />
    <glyph glyph-name="p" unicode="p" horiz-adv-x="604" 
d="M413 230q0 122 -19.5 168t-59.5 46q-37 0 -65 -35q-30 -47 -30 -118v-121q0 -78 22 -116q21 -36 62 -36q47 0 68.5 49t21.5 163zM75 -81v446q0 40 -3 52q-4 22 -19 31q-16 10 -40 13v18h219q7 0 7 -7l-1 -65h4q41 84 139 84q84 0 142 -64t58 -185q0 -119 -69 -185.5
t-159 -66.5q-69 0 -109 32h-5v-103q0 -42 5 -65q5 -25 25 -34q13 -6 34 -7v-18h-291v18q19 1 32 7q22 11 27 34q4 15 4 65z" />
    <glyph glyph-name="q" unicode="q" horiz-adv-x="597" 
d="M427 410h5l82 78h26q-7 -73 -7 -137v-432q0 -51 4 -65q6 -25 25 -33q10 -4 32 -8v-18h-285v18q21 2 33 7q22 9 26 34q4 19 4 65v132h-6q-34 -61 -132 -61q-89 0 -149.5 65.5t-60.5 182.5q0 118 72.5 185.5t174.5 67.5q104 0 156 -81zM365 194v143q0 66 -21 96
q-20 28 -56 28q-94 0 -94 -224q0 -117 23.5 -163.5t66.5 -46.5q36 0 58 35q23 36 23 132z" />
    <glyph glyph-name="r" unicode="r" horiz-adv-x="476" 
d="M244 376q18 57 54 86q33 29 85 29q44 0 72 -28q21 -21 21 -59q0 -35 -20 -56.5t-52 -21.5q-54 0 -72 48l-5 13t-5 12.5t-4.5 9.5t-5.5 7t-7 2q-17 0 -37 -33.5t-24 -75.5q-3 -30 -3 -81v-95q0 -54 7 -75q7 -26 23 -32q17 -6 34 -7v-19h-290v19q21 2 33 6q19 11 26 35
q4 21 4 72v232q0 34 -3 54q-5 23 -19 31q-15 9 -42 12v18h220q7 0 7 -7q0 -6 -1.5 -45.5t-1.5 -50.5h6z" />
    <glyph glyph-name="s" unicode="s" horiz-adv-x="431" 
d="M415 155q0 -80 -54.5 -122t-134.5 -42q-82 0 -135 53h-7l-30 -42h-16l-8 177h21q59 -164 174 -164q34 0 52 15.5t18 43.5q0 37 -22 54.5t-84 42.5q-81 32 -118 68t-37 105q0 67 50 107t136 40q72 0 115 -47h6l19 36h14l8 -146h-20q-23 69 -58 100q-35 32 -85 32
q-30 0 -48 -15t-18 -40q0 -29 21 -47.5t84 -42.5q77 -29 117 -64t40 -102z" />
    <glyph glyph-name="t" unicode="t" horiz-adv-x="371" 
d="M362 76l13 -15q-48 -70 -149 -70q-75 0 -111 29q-37 32 -37 110q0 285 1 316q-6 0 -36 1t-36 2v21q75 14 124.5 55.5t84.5 119.5h26v-166h108v-32h-108l-1 -344q0 -58 55 -58q40 0 66 31z" />
    <glyph glyph-name="u" unicode="u" horiz-adv-x="620" 
d="M542 117q0 -31 3 -53q6 -29 25 -38q16 -7 35 -7v-19q-1 0 -108 -2l-107 -1q-8 0 -8 9q0 4 0.5 31.5t0.5 44.5h-7q-12 -33 -39 -59q-36 -33 -116 -33q-86 0 -125 50q-28 36 -28 114v194q0 40 -3 62q-3 23 -13 33q-14 17 -45 18v18h219q9 0 9 -6q-3 -27 -3 -117v-243
q0 -40 14 -57q16 -19 45 -19q28 0 52 28q25 30 32 76q4 35 4 100v128q0 41 -4 54q-6 19 -21 28q-14 8 -38 10v18h220q8 0 8 -6q0 -4 -1 -43.5t-1 -74.5v-238z" />
    <glyph glyph-name="v" unicode="v" horiz-adv-x="518" 
d="M530 461q-20 -4 -31 -11q-15 -10 -23 -25q-15 -19 -37 -80l-128 -347h-91l-128 326q-16 41 -39 89q-13 26 -26 37q-13 9 -35 11v18h308v-18q-29 -3 -37 -9q-18 -11 -18 -36q0 -22 18 -73l68 -196h5l70 192q21 54 21 81q0 24 -19 33q-13 6 -35 8v18h157v-18z" />
    <glyph glyph-name="w" unicode="w" horiz-adv-x="807" 
d="M519 -3l-111 337h-3l-107 -337h-96l-116 327q-27 84 -40 105q-10 18 -22 24q-10 6 -28 8v18h293v-18q-18 -2 -27 -8q-18 -10 -18 -36q0 -22 16 -81l54 -182h5l73 216q-14 42 -20 52q-10 22 -23 31q-9 5 -24 8v18h287v-18q-19 -2 -28 -8q-20 -12 -20 -37q0 -20 16 -72
l56 -190h5l60 185q17 64 17 81q0 23 -19 33q-10 6 -31 8v18h148v-18q-19 -4 -30 -11q-13 -8 -22 -22q-13 -18 -35 -85l-109 -346h-101z" />
    <glyph glyph-name="x" unicode="x" horiz-adv-x="518" 
d="M184 0h-175v19q20 3 40 15q39 23 91 96l55 78l-100 165q-41 63 -56 74q-15 10 -39 14v18h295v-18q-16 -1 -30 -6q-18 -7 -18 -21q0 -17 18 -45l45 -76h5l31 48q31 45 31 68q0 16 -14 24q-15 7 -34 8v18h166v-17q-17 -4 -39 -15q-15 -10 -29.5 -25t-23.5 -27t-32 -45
l-45 -65l106 -179q32 -54 58 -72q19 -12 40 -15v-19h-294v19q12 0 32 5q18 8 18 22q0 13 -18 42l-56 92h-4l-45 -62q-32 -46 -32 -64q0 -16 18 -26q15 -7 35 -9v-19z" />
    <glyph glyph-name="y" unicode="y" horiz-adv-x="521" 
d="M263 -81q-25 -58 -55 -87q-41 -41 -100 -41q-44 0 -73.5 23t-29.5 61q0 29 19 49t49 20q46 0 68 -33q4 -6 16 -48q6 -14 21 -14q24 0 47 61q14 39 14 54q0 16 -10 38l-133 319q-25 63 -42 91q-14 27 -29 38q-17 9 -35 11v18h309v-18q-22 -2 -37 -10q-18 -8 -18 -30
q0 -20 20 -77l64 -174h7l67 169q21 48 21 77q0 26 -22 37q-10 5 -31 8v18h162v-18q-18 -2 -31 -11q-17 -10 -30 -31q-15 -24 -36 -77l-87 -214.5z" />
    <glyph glyph-name="z" unicode="z" horiz-adv-x="494" 
d="M473 180l-27 -180h-426v11l257 439v4h-83q-46 0 -76 -36q-26 -27 -69 -108h-20l32 169h402v-12l-257 -438v-4h77q36 0 57.5 11t43.5 39q41 54 71 105h18z" />
    <glyph glyph-name="braceleft" unicode="{" horiz-adv-x="377" 
d="M362 -137q-56 1 -98 7.5t-79.5 22t-57 46t-19.5 74.5q0 32 14 89t14 75q0 53 -45 80q-19 11 -64 15v23q44 2 64 14q45 24 45 80q0 18 -14 75t-14 89q0 36 13.5 63t36 43t56.5 26.5t69 14t79 4.5v-23q-48 -3 -73 -25.5t-25 -74.5q0 -23 8 -74.5t8 -72.5q0 -136 -189 -149
v-4q189 -11 189 -150q0 -20 -8 -71t-8 -74q0 -52 24.5 -74.5t73.5 -25.5v-23z" />
    <glyph glyph-name="bar" unicode="|" horiz-adv-x="199" 
d="M121 -130h-46v848h46v-848z" />
    <glyph glyph-name="braceright" unicode="}" horiz-adv-x="377" 
d="M13 -137v23q50 3 74.5 25t24.5 75q0 23 -7.5 74t-7.5 71q0 139 189 151v3q-189 12 -189 149q0 21 7.5 72.5t7.5 74.5q0 52 -25.5 74.5t-73.5 25.5v23q45 -1 79.5 -4.5t69 -13.5t56.5 -26.5t36 -43.5t14 -63q0 -32 -13.5 -89t-13.5 -75q0 -55 46 -80q23 -12 62 -14v-23
q-39 -4 -63 -15q-45 -20 -45 -80q0 -18 13.5 -75t13.5 -89q0 -44 -19.5 -74.5t-57 -46t-79.5 -22t-99 -7.5z" />
    <glyph glyph-name="asciitilde" unicode="~" horiz-adv-x="395" 
d="M371 361q-36 -144 -120 -144q-28 0 -72 13t-66 13q-44 0 -65 -52l-25 9q31 144 121 144q26 0 68.5 -13.5t63.5 -13.5q45 0 70 52z" />
    <glyph glyph-name="uni00A0" unicode="&#xa0;" horiz-adv-x="178" 
 />
    <glyph glyph-name="exclamdown" unicode="&#xa1;" horiz-adv-x="285" 
d="M232 458q0 -37 -24.5 -62t-66.5 -25t-66.5 25t-24.5 62t24.5 62t66.5 25t66.5 -25t24.5 -62zM142 -155q-49 0 -73.5 26t-24.5 67q0 15 1.5 29.5t6 36l7 33t11.5 45t13 49.5q30 115 45 200h27q27 -132 45 -199l9.5 -37.5t9 -34.5t7 -27t6 -27t4 -22.5t3 -24t0.5 -21.5
q0 -42 -24 -67.5t-73 -25.5z" />
    <glyph glyph-name="cent" unicode="&#xa2;" horiz-adv-x="503" 
d="M240 53q15 -15 37 -21v432q-27 -2 -43 -22q-44 -49 -44 -197q0 -146 50 -192zM495 142q-39 -138 -188 -150v-87h-30v86q-97 1 -163 49q-92 68 -92 197q0 113 73.5 182t181.5 72v77h30v-77q87 -4 138 -43q41 -29 41 -70q0 -34 -20 -51t-49 -17q-63 0 -74 80q-10 64 -36 72
v-435h3q67 0 106.5 35.5t54.5 87.5z" />
    <glyph glyph-name="sterling" unicode="&#xa3;" horiz-adv-x="691" 
d="M443 -26q-70 0 -167 66q-72 -57 -150 -57q-58 0 -89 25.5t-31 70.5q0 53 40 86.5t100 33.5q36 0 85 -9q-28 71 -34 97h-100v30h94q-3 28 -2 55q8 140 97.5 223.5t207.5 83.5q79 0 124 -33.5t45 -89.5q0 -55 -36.5 -87t-92.5 -32q-80 0 -110 71l21 13q21 -38 61 -38
q70 0 70 82q0 85 -83 85q-36 0 -61 -24t-31 -66q-8 -10 -5 -105.5t1 -135.5v-2h141v-30h-144q-7 -73 -29 -127q83 -18 124 -18q64 0 96 21.5t45 67.5l26 -4q-5 -48 -17.5 -89t-36 -80t-64.5 -61.5t-95 -22.5zM131 11q71 0 102 64q-77 66 -124 66q-63 0 -63 -62q0 -32 23 -50
t62 -18z" />
    <glyph glyph-name="currency" unicode="&#xa4;" horiz-adv-x="500" 
 />
    <glyph glyph-name="yen" unicode="&#xa5;" horiz-adv-x="635" 
d="M486 20v-20h-345v20q30 4 48 12q21 10 28 28q8 21 8 67v69h-150v32h150v68h-150v31h138l-113 216q-24 48 -48.5 71t-57.5 31v20h344v-20q-27 -3 -42 -9q-26 -11 -27 -32.5t19 -63.5l96 -190h4l81 163q28 56 28 86q0 29 -27 39q-14 5 -34 7v20h201v-20q-42 -8 -71 -37
t-64 -101l-90 -180h141v-31h-152v-68h152v-32h-152v-69q0 -48 9 -66q8 -21 29 -30q22 -8 47 -11z" />
    <glyph glyph-name="brokenbar" unicode="&#xa6;" horiz-adv-x="199" 
d="M121 349h-46v369h46v-369zM121 -130h-46v369h46v-369z" />
    <glyph glyph-name="section" unicode="&#xa7;" horiz-adv-x="538" 
d="M281 186q80 -47 100 -63q28 26 28 60q0 38 -28.5 64.5t-125.5 87.5q-76 44 -98 63q-29 -19 -29 -59t28.5 -66.5t124.5 -86.5zM251 -191q-83 0 -131 29.5t-48 76.5q0 25 15.5 41t42.5 16q47 0 59 -43q3 -11 3.5 -31.5t2.5 -27.5q12 -34 57 -34q35 0 59 20.5t24 56.5
q0 23 -8.5 41t-32 36.5t-41 29.5t-58.5 33q-99 59 -136 100t-37 109q0 51 32 91.5t83 63.5q-51 51 -51 123q0 73 53 119.5t142 46.5q85 0 131 -25t46 -70q0 -23 -15 -38.5t-40 -15.5q-45 0 -56 40q-3 10 -4.5 30t-3.5 26q-11 26 -55 26q-35 0 -57 -19t-22 -51q0 -43 31 -71
t106 -70q101 -59 138.5 -99t37.5 -107q0 -49 -32 -93.5t-82 -66.5q49 -49 49 -117q0 -76 -56 -126t-146 -50z" />
    <glyph glyph-name="dieresis" unicode="&#xa8;" horiz-adv-x="488" 
d="M346 553q-31 0 -51.5 20t-20.5 51t20.5 51.5t51.5 20.5t51 -20.5t20 -51.5t-20 -51t-51 -20zM144 553q-31 0 -51.5 20t-20.5 51t20.5 51.5t51.5 20.5t51 -20.5t20 -51.5t-20 -51t-51 -20z" />
    <glyph glyph-name="copyright" unicode="&#xa9;" horiz-adv-x="927" 
d="M465 691q174 0 298.5 -125t124.5 -299q0 -176 -124 -300t-299 -124q-176 0 -301 124.5t-125 300.5q0 175 125 299t301 124zM465 660q-161 0 -275 -114t-114 -278q0 -165 114 -279.5t275 -114.5q160 0 273 114t113 279q0 164 -113 278.5t-273 114.5zM686 198
q-49 -175 -214 -175q-118 0 -185 70q-67 67 -67 174q0 113 79 180.5t192 67.5q87 0 139 -52h5l23 34h15v-190h-23q-12 66 -38 113q-39 68 -105 68q-43 0 -65 -30q-54 -56 -54 -181q0 -122 41 -173q30 -40 83 -40q103 0 150 143z" />
    <glyph glyph-name="ordfeminine" unicode="&#xaa;" horiz-adv-x="451" 
d="M140 278q-52 0 -83.5 25t-31.5 75q0 41 25 67q26 26 87 43q59 15 85.5 29.5t32.5 35.5v53q0 34 -9.5 46t-33.5 12t-35 -15q-2 -5 -2.5 -12t0 -16.5t-0.5 -24.5q-4 -60 -67 -60q-60 0 -60 49q0 34 25 56q44 42 141 42q92 0 134.5 -28t42.5 -75q0 -2 0.5 -97.5t0.5 -98.5
q0 -50 8 -60q6 -10 21 -10q10 0 25 5l4 -13q-31 -28 -104 -28q-45 0 -63 16q-18 14 -21 46h-5q-27 -62 -116 -62zM255 513q-7 -5 -25 -15t-26 -15q-23 -13 -31 -31q-9 -16 -9 -57q0 -74 40 -74q22 0 36 18t14 49z" />
    <glyph glyph-name="guillemotleft" unicode="&#xab;" horiz-adv-x="454" 
d="M29 262l193 157l17 -17l-95 -149l95 -148l-17 -18l-193 157v18zM221 261l185 155l19 -18l-94 -145l93 -145l-18 -18l-185 154v17z" />
    <glyph glyph-name="registered" unicode="&#xae;" horiz-adv-x="568" 
d="M543 428q0 -106 -76.5 -182.5t-182.5 -76.5t-182.5 76.5t-76.5 182.5t76.5 182t182.5 76t182.5 -76t76.5 -182zM55 428q0 -95 67 -163.5t162 -68.5t162 68.5t67 163.5q0 94 -67 162.5t-162 68.5t-162 -68.5t-67 -162.5zM318 505q0 30 -8 41.5t-29 11.5h-22v-109h18
q23 0 32 12.5t9 43.5zM445 301h-110q-16 21 -19 57q-5 48 -13 62q-7 13 -32 13h-12v-64q0 -21 2 -37q2 -9 11 -14q3 -1 17 -4v-13h-144v13q13 3 18 5q9 4 10 15q3 12 3 35v138q0 29 -4 38q-2 9 -12 14q-9 3 -15 3v14h162q47 0 71 -19t24 -51q0 -54 -79 -64v-3
q38 -5 54.5 -17.5t23.5 -50.5q8 -40 22 -49q9 -6 22 -8v-13z" />
    <glyph glyph-name="macron" unicode="&#xaf;" horiz-adv-x="390" 
d="M323 569h-256v62h256v-62z" />
    <glyph glyph-name="degree" unicode="&#xb0;" horiz-adv-x="318" 
d="M287 556q0 -53 -37.5 -88.5t-91.5 -35.5q-53 0 -90 35.5t-37 88.5t37 88t90 35q54 0 91.5 -35t37.5 -88zM230 556q0 92 -72 92q-33 0 -52 -23.5t-19 -68.5t19 -68t52 -23q72 0 72 91z" />
    <glyph glyph-name="acute" unicode="&#xb4;" horiz-adv-x="388" 
d="M91 548l89 111q2 3 9 10.5t9.5 10t8.5 9t9 9t9 7t10 6.5t10 4.5t11.5 3.5t11.5 1q25 0 41 -16.5t16 -42.5q0 -49 -68 -72l-155 -58z" />
    <glyph glyph-name="mu" unicode="&#xb5;" horiz-adv-x="500" 
 />
    <glyph glyph-name="paragraph" unicode="&#xb6;" horiz-adv-x="589" 
d="M582 646h-88v-781h-32v781h-98v-781h-33v329h-28q-128 0 -196 70t-68 171q0 105 73 171.5t190 66.5h280v-27z" />
    <glyph glyph-name="periodcentered" unicode="&#xb7;" horiz-adv-x="307" 
d="M66 288q0 34 24 59.5t63 25.5q38 0 62 -25.5t24 -59.5q0 -36 -23.5 -61t-62.5 -25t-63 25t-24 61z" />
    <glyph glyph-name="cedilla" unicode="&#xb8;" horiz-adv-x="368" 
d="M293 -113q0 -83 -136 -83q-60 0 -95 24l11 18q31 -18 64 -18q58 0 58 57q0 50 -38 50q-15 0 -30 -11l-22 11l22 70h28l-19 -56q21 14 62 14q45 0 70 -20t25 -56z" />
    <glyph glyph-name="ordmasculine" unicode="&#xba;" horiz-adv-x="472" 
d="M451 481q0 -95 -60.5 -148.5t-154.5 -53.5t-154.5 53t-60.5 149q0 95 60.5 148t154.5 53t154.5 -53t60.5 -148zM303 481q0 85 -6.5 120.5t-24.5 48.5q-16 13 -36 13q-21 0 -36 -12q-19 -14 -25.5 -49.5t-6.5 -120.5q0 -84 7 -120t25 -50q15 -12 36 -12q22 0 35 12
q19 13 25.5 49t6.5 121z" />
    <glyph glyph-name="guillemotright" unicode="&#xbb;" horiz-adv-x="454" 
d="M425 262v-18l-193 -157l-18 18l96 147l-96 150l18 17zM233 262v-17l-186 -155l-18 18l94 145l-94 145l18 18z" />
    <glyph glyph-name="questiondown" unicode="&#xbf;" horiz-adv-x="492" 
d="M240 469q0 37 24.5 62t66.5 25t66.5 -25t24.5 -62t-24.5 -62t-66.5 -25t-66.5 25t-24.5 62zM19 52q0 61 46.5 105t104.5 61t114 17h35v107h27v-132h-38q-114 0 -114 -202q0 -63 22.5 -94t60.5 -31q18 0 26 14.5t13 53.5q12 96 84 96q36 0 55.5 -20t19.5 -55
q0 -50 -56 -83t-146 -33q-73 0 -138 29q-116 50 -116 167z" />
    <glyph glyph-name="Agrave" unicode="&#xc0;" horiz-adv-x="672" 
d="M251 446l-80 -216h163l-77 216h-6zM200 21v-21h-211v21q25 3 42 14q16 9 36 37q21 36 41 90l199 516h57l181 -487q32 -81 51 -112q21 -31 46 -46q21 -10 36 -12v-21h-374v21q21 2 40 10q34 13 34 46q0 28 -18 80l-15 42h-185l-19 -51q-15 -39 -15 -66q0 -40 30 -51
q18 -8 44 -10zM451 741l-7 -21q-19 2 -90.5 13.5t-81.5 12.5q-39 8 -60 24t-21 47q0 25 16 41.5t43 16.5q22 0 38 -8.5t43 -28.5l57 -46z" />
    <glyph glyph-name="Aacute" unicode="&#xc1;" horiz-adv-x="672" 
d="M200 21v-21h-211v21q25 3 42 14q16 9 36 37q21 36 41 90l199 516h57l181 -487q32 -81 51 -112q21 -31 46 -46q21 -10 36 -12v-21h-374v21q21 2 40 10q34 13 34 46q0 28 -18 80l-15 42h-185l-19 -51q-15 -39 -15 -66q0 -40 30 -51q18 -8 44 -10zM216 740l119 97
q47 37 83 37q26 0 42.5 -16.5t16.5 -41.5q0 -57 -84 -70l-170 -26zM251 446l-80 -216h163l-77 216h-6z" />
    <glyph glyph-name="Acircumflex" unicode="&#xc2;" horiz-adv-x="672" 
d="M251 446l-80 -216h163l-77 216h-6zM200 21v-21h-211v21q25 3 42 14q16 9 36 37q21 36 41 90l199 516h57l181 -487q32 -81 51 -112q21 -31 46 -46q21 -10 36 -12v-21h-374v21q21 2 40 10q34 13 34 46q0 28 -18 80l-15 42h-185l-19 -51q-15 -39 -15 -66q0 -40 30 -51
q18 -8 44 -10zM485 733l-14 -17l-138 64l-136 -64l-14 17l113 131h75l56.5 -65z" />
    <glyph glyph-name="Atilde" unicode="&#xc3;" horiz-adv-x="672" 
d="M251 446l-80 -216h163l-77 216h-6zM200 21v-21h-211v21q25 3 42 14q16 9 36 37q21 36 41 90l199 516h57l181 -487q32 -81 51 -112q21 -31 46 -46q21 -10 36 -12v-21h-374v21q21 2 40 10q34 13 34 46q0 28 -18 80l-15 42h-185l-19 -51q-15 -39 -15 -66q0 -40 30 -51
q18 -8 44 -10zM516 853q-10 -49 -40.5 -86t-74.5 -37q-27 0 -71 15t-65 15q-44 0 -61 -46l-24 4q12 55 40 90.5t72 35.5q26 0 71 -15.5t66 -15.5q45 0 64 44z" />
    <glyph glyph-name="Adieresis" unicode="&#xc4;" horiz-adv-x="672" 
d="M251 446l-80 -216h163l-77 216h-6zM200 21v-21h-211v21q25 3 42 14q16 9 36 37q21 36 41 90l199 516h57l181 -487q32 -81 51 -112q21 -31 46 -46q21 -10 36 -12v-21h-374v21q21 2 40 10q34 13 34 46q0 28 -18 80l-15 42h-185l-19 -51q-15 -39 -15 -66q0 -40 30 -51
q18 -8 44 -10zM447 724q-31 0 -51.5 20t-20.5 51t20.5 51.5t51.5 20.5t51 -20.5t20 -51.5t-20 -51t-51 -20zM228 724q-31 0 -51.5 20t-20.5 51t20.5 51.5t51.5 20.5t51 -20.5t20 -51.5t-20 -51t-51 -20z" />
    <glyph glyph-name="Aring" unicode="&#xc5;" horiz-adv-x="674" 
d="M251 446l-80 -216h163l-77 216h-6zM200 21v-21h-211v21q25 3 42 14q16 9 36 37q21 36 41 90l199 516h57l181 -487q32 -81 51 -112q21 -31 46 -46q21 -10 36 -12v-21h-374v21q21 2 40 10q34 13 34 46q0 28 -18 80l-15 42h-185l-19 -51q-15 -39 -15 -66q0 -40 30 -51
q18 -8 44 -10zM427 807q-1 -40 -28 -65t-65 -25q-40 0 -67 25t-27 65t27 65.5t67 25.5t66.5 -25.5t26.5 -65.5zM277 807q0 -29 15 -47t42 -18t42 18t15 47q0 28 -15.5 46t-41.5 18q-28 0 -42.5 -17.5t-14.5 -46.5z" />
    <glyph glyph-name="AE" unicode="&#xc6;" horiz-adv-x="955" 
d="M189 21v-21h-212v21q21 3 41 15q17 12 37 39q24 30 56 87l269 473l-22 10q-13 5 -39 8v20h556l25 -209h-20q-63 100 -105 138q-46 44 -106 44h-30q-22 0 -33 -10q-14 -13 -14 -56v-217h42q55 0 83 28q27 25 45 91h20v-267h-20q-7 24 -10.5 35t-12.5 27.5t-23 30.5
q-26 27 -82 27h-42v-207q0 -63 14 -79q16 -22 55 -22h25q29 0 51.5 12.5t50.5 43.5q52 53 108 161h19l-21 -244h-567v21q26 2 37 8q25 10 36 33q12 24 12 79v123h-204l-63 -111q-27 -48 -27 -76q0 -35 28 -47q17 -7 43 -9zM412 618h-5l-182 -323h187v323z" />
    <glyph glyph-name="Ccedilla" unicode="&#xc7;" horiz-adv-x="672" 
d="M451 -121q0 -83 -136 -83q-60 0 -95 24l11 18q31 -18 64 -18q58 0 58 57q0 50 -38 50q-15 0 -30 -11l-22 11l21 69q-111 25 -181 112t-70 229q0 157 104.5 253.5t252.5 96.5q125 0 182 -64h5l36 52h14v-231h-22q-25 96 -66 149q-28 34 -58 49.5t-79 15.5q-58 0 -95 -33
q-83 -70 -83 -280q0 -196 84 -267q45 -37 119 -37q64 0 116.5 39.5t81.5 109.5l25 -12q-37 -90 -103.5 -140.5t-177.5 -50.5q-26 0 -58 5l-17 -51q21 14 62 14q45 0 70 -20t25 -56z" />
    <glyph glyph-name="Egrave" unicode="&#xc8;" horiz-adv-x="666" 
d="M457 741l-7 -21q-19 2 -90.5 13.5t-81.5 12.5q-39 8 -60 24t-21 47q0 25 16 41.5t43 16.5q22 0 38 -8.5t43 -28.5l57 -46zM626 244l-19 -244h-581v21q20 1 37 8q25 12 36 33q11 23 11 86v380q0 60 -10 84q-12 20 -36 33q-14 7 -38 8v20h561l24 -209h-20q-58 96 -104 138
q-44 44 -110 44h-38q-24 0 -35 -12q-15 -15 -15 -54v-217h45q53 0 82 29q29 28 46 90h20v-267h-20q-17 61 -48 93q-26 27 -80 27h-45v-207q0 -62 16 -80q15 -21 59 -21h28q36 0 57 12t50 44q49 49 109 161h18z" />
    <glyph glyph-name="Eacute" unicode="&#xc9;" horiz-adv-x="666" 
d="M626 244l-19 -244h-581v21q20 1 37 8q25 12 36 33q11 23 11 86v380q0 60 -10 84q-12 20 -36 33q-14 7 -38 8v20h561l24 -209h-20q-58 96 -104 138q-44 44 -110 44h-38q-24 0 -35 -12q-15 -15 -15 -54v-217h45q53 0 82 29q29 28 46 90h20v-267h-20q-17 61 -48 93
q-26 27 -80 27h-45v-207q0 -62 16 -80q15 -21 59 -21h28q36 0 57 12t50 44q49 49 109 161h18zM228 740l119 97q47 37 83 37q26 0 42.5 -16.5t16.5 -41.5q0 -57 -84 -70l-170 -26z" />
    <glyph glyph-name="Ecircumflex" unicode="&#xca;" horiz-adv-x="666" 
d="M487 733l-14 -17l-138 64l-136 -64l-14 17l113 131h75l56.5 -65zM626 244l-19 -244h-581v21q20 1 37 8q25 12 36 33q11 23 11 86v380q0 60 -10 84q-12 20 -36 33q-14 7 -38 8v20h561l24 -209h-20q-58 96 -104 138q-44 44 -110 44h-38q-24 0 -35 -12q-15 -15 -15 -54v-217
h45q53 0 82 29q29 28 46 90h20v-267h-20q-17 61 -48 93q-26 27 -80 27h-45v-207q0 -62 16 -80q15 -21 59 -21h28q36 0 57 12t50 44q49 49 109 161h18z" />
    <glyph glyph-name="Edieresis" unicode="&#xcb;" horiz-adv-x="666" 
d="M626 244l-19 -244h-581v21q20 1 37 8q25 12 36 33q11 23 11 86v380q0 60 -10 84q-12 20 -36 33q-14 7 -38 8v20h561l24 -209h-20q-58 96 -104 138q-44 44 -110 44h-38q-24 0 -35 -12q-15 -15 -15 -54v-217h45q53 0 82 29q29 28 46 90h20v-267h-20q-17 61 -48 93
q-26 27 -80 27h-45v-207q0 -62 16 -80q15 -21 59 -21h28q36 0 57 12t50 44q49 49 109 161h18zM440 724q-31 0 -51.5 20t-20.5 51t20.5 51.5t51.5 20.5t51 -20.5t20 -51.5t-20 -51t-51 -20zM221 724q-31 0 -51.5 20t-20.5 51t20.5 51.5t51.5 20.5t51 -20.5t20 -51.5t-20 -51
t-51 -20z" />
    <glyph glyph-name="Igrave" unicode="&#xcc;" horiz-adv-x="400" 
d="M290 527v-381q0 -65 10 -85q14 -23 37 -32q17 -7 38 -8v-21h-349v21q20 1 38 8q25 12 35 34q11 23 11 83v381q0 60 -11 86q-11 24 -34 31q-16 6 -39 8v21h349v-21q-23 -1 -39 -8q-25 -9 -36 -31q-10 -24 -10 -86zM332 741l-7 -21q-19 2 -90.5 13.5t-81.5 12.5
q-39 8 -60 24t-21 47q0 25 16 41.5t43 16.5q22 0 38 -8.5t43 -28.5l57 -46z" />
    <glyph glyph-name="Iacute" unicode="&#xcd;" horiz-adv-x="400" 
d="M290 527v-381q0 -65 10 -85q14 -23 37 -32q17 -7 38 -8v-21h-349v21q20 1 38 8q25 12 35 34q11 23 11 83v381q0 60 -11 86q-11 24 -34 31q-16 6 -39 8v21h349v-21q-23 -1 -39 -8q-25 -9 -36 -31q-10 -24 -10 -86zM83 740l119 97q47 37 83 37q26 0 42.5 -16.5t16.5 -41.5
q0 -57 -84 -70l-170 -26z" />
    <glyph glyph-name="Icircumflex" unicode="&#xce;" horiz-adv-x="400" 
d="M290 527v-381q0 -65 10 -85q14 -23 37 -32q17 -7 38 -8v-21h-349v21q20 1 38 8q25 12 35 34q11 23 11 83v381q0 60 -11 86q-11 24 -34 31q-16 6 -39 8v21h349v-21q-23 -1 -39 -8q-25 -9 -36 -31q-10 -24 -10 -86zM354 733l-14 -17l-138 64l-136 -64l-14 17l113 131h75
l56.5 -65z" />
    <glyph glyph-name="Idieresis" unicode="&#xcf;" horiz-adv-x="400" 
d="M290 527v-381q0 -65 10 -85q14 -23 37 -32q17 -7 38 -8v-21h-349v21q20 1 38 8q25 12 35 34q11 23 11 83v381q0 60 -11 86q-11 24 -34 31q-16 6 -39 8v21h349v-21q-23 -1 -39 -8q-25 -9 -36 -31q-10 -24 -10 -86zM310 724q-31 0 -51.5 20t-20.5 51t20.5 51.5t51.5 20.5
t51 -20.5t20 -51.5t-20 -51t-51 -20zM91 724q-31 0 -51.5 20t-20.5 51t20.5 51.5t51.5 20.5t51 -20.5t20 -51.5t-20 -51t-51 -20z" />
    <glyph glyph-name="Eth" unicode="&#xd0;" horiz-adv-x="758" 
d="M34 327v33h76v167q0 59 -10 86q-10 22 -35 33q-14 5 -39 7v20h353q119 0 191 -42q72 -41 115 -117t43 -175t-40.5 -176.5t-112.5 -120.5q-77 -42 -159 -42h-390v21q27 4 37 8q25 11 36 33q11 24 11 84v181h-76zM535 338q0 176 -61 257q-36 51 -115 51h-30q-21 0 -31 -10
q-7 -7 -7 -35v-241h123v-33h-123v-203q0 -62 12 -77q13 -20 52 -20h20q66 0 102 50q58 84 58 261z" />
    <glyph glyph-name="Ntilde" unicode="&#xd1;" horiz-adv-x="738" 
d="M575 853q-10 -49 -40.5 -86t-74.5 -37q-27 0 -71 15t-65 15q-44 0 -61 -46l-24 4q12 55 40 90.5t72 35.5q26 0 71 -15.5t66 -15.5q45 0 64 44zM635 -4h-68l-398 543h-7v-380q0 -68 17 -97q14 -25 41 -35q17 -5 36 -6v-21h-224v21q17 2 32 6q26 7 43 34q21 32 21 98v305
q0 90 -21 132q-16 32 -50 48q-12 6 -34 9v20h273l300 -414h5v250q0 74 -20 105q-15 22 -44 32q-12 5 -39 7v20h235v-20q-27 -4 -40 -8q-26 -8 -40 -34q-18 -33 -18 -102v-513z" />
    <glyph glyph-name="Ograve" unicode="&#xd2;" horiz-adv-x="750" 
d="M502 741l-7 -21q-19 2 -90.5 13.5t-81.5 12.5q-39 8 -60 24t-21 47q0 25 16 41.5t43 16.5q22 0 38 -8.5t43 -28.5l57 -46zM375 687q147 0 245 -97t98 -253t-98 -253t-245 -97t-244.5 97t-97.5 253t97.5 253t244.5 97zM375 15q51 0 85 33q66 58 66 289q0 227 -66 289
q-35 32 -85 32q-52 0 -86 -33q-66 -62 -66 -288q0 -228 67 -289q34 -33 85 -33z" />
    <glyph glyph-name="Oacute" unicode="&#xd3;" horiz-adv-x="750" 
d="M375 687q147 0 245 -97t98 -253t-98 -253t-245 -97t-244.5 97t-97.5 253t97.5 253t244.5 97zM375 15q51 0 85 33q66 58 66 289q0 227 -66 289q-35 32 -85 32q-52 0 -86 -33q-66 -62 -66 -288q0 -228 67 -289q34 -33 85 -33zM247 740l119 97q47 37 83 37q26 0 42.5 -16.5
t16.5 -41.5q0 -57 -84 -70l-170 -26z" />
    <glyph glyph-name="Ocircumflex" unicode="&#xd4;" horiz-adv-x="750" 
d="M524 733l-14 -17l-138 64l-136 -64l-14 17l113 131h75l56.5 -65zM375 687q147 0 245 -97t98 -253t-98 -253t-245 -97t-244.5 97t-97.5 253t97.5 253t244.5 97zM375 15q51 0 85 33q66 58 66 289q0 227 -66 289q-35 32 -85 32q-52 0 -86 -33q-66 -62 -66 -288
q0 -228 67 -289q34 -33 85 -33z" />
    <glyph glyph-name="Otilde" unicode="&#xd5;" horiz-adv-x="750" 
d="M552 853q-10 -49 -40.5 -86t-74.5 -37q-27 0 -71 15t-65 15q-44 0 -61 -46l-24 4q12 55 40 90.5t72 35.5q26 0 71 -15.5t66 -15.5q45 0 64 44zM375 687q147 0 245 -97t98 -253t-98 -253t-245 -97t-244.5 97t-97.5 253t97.5 253t244.5 97zM375 15q51 0 85 33q66 58 66 289
q0 227 -66 289q-35 32 -85 32q-52 0 -86 -33q-66 -62 -66 -288q0 -228 67 -289q34 -33 85 -33z" />
    <glyph glyph-name="Odieresis" unicode="&#xd6;" horiz-adv-x="750" 
d="M482 724q-31 0 -51.5 20t-20.5 51t20.5 51.5t51.5 20.5t51 -20.5t20 -51.5t-20 -51t-51 -20zM263 724q-31 0 -51.5 20t-20.5 51t20.5 51.5t51.5 20.5t51 -20.5t20 -51.5t-20 -51t-51 -20zM375 687q147 0 245 -97t98 -253t-98 -253t-245 -97t-244.5 97t-97.5 253t97.5 253
t244.5 97zM375 15q51 0 85 33q66 58 66 289q0 227 -66 289q-35 32 -85 32q-52 0 -86 -33q-66 -62 -66 -288q0 -228 67 -289q34 -33 85 -33z" />
    <glyph glyph-name="multiply" unicode="&#xd7;" horiz-adv-x="431" 
d="M356 108l-141 141l-140 -140l-28 28l140 140l-141 141l29 30l142 -141l140 140l29 -28l-141 -140l141 -141z" />
    <glyph glyph-name="Oslash" unicode="&#xd8;" horiz-adv-x="749" 
d="M223 337q0 -112 15 -184l253 429q-15 29 -31 44q-35 32 -85 32q-52 0 -86 -33q-66 -62 -66 -288zM375 15q51 0 85 33q66 58 66 289q0 138 -23 212l-254 -434q14 -42 41 -67q34 -33 85 -33zM375 -13q-95 0 -175 44l-54 -91l-25 13l55 93q-67 46 -105 121t-38 170
q0 156 97.5 253t244.5 97q85 0 157 -35l47 81l25 -13l-48 -81q75 -45 118.5 -123t43.5 -179q0 -156 -98 -253t-245 -97z" />
    <glyph glyph-name="Ugrave" unicode="&#xd9;" horiz-adv-x="725" 
d="M522 741l-7 -21q-19 2 -90.5 13.5t-81.5 12.5q-39 8 -60 24t-21 47q0 25 16 41.5t43 16.5q22 0 38 -8.5t43 -28.5l57 -46zM626 227q0 -106 -30 -154q-53 -86 -220 -86q-186 0 -248 106q-31 56 -31 157v277q0 64 -10 86q-9 21 -34 32q-13 5 -39 7v21h348v-21
q-24 -2 -37 -8q-25 -11 -36 -31q-12 -23 -12 -85v-321q0 -60 16 -102q27 -77 136 -77q102 0 142 67q21 36 21 131v288q0 70 -19 99q-14 23 -43 33q-17 6 -36 7v20h225v-20q-23 -3 -32 -7q-25 -8 -43 -35q-18 -29 -18 -97v-287z" />
    <glyph glyph-name="Uacute" unicode="&#xda;" horiz-adv-x="725" 
d="M626 227q0 -106 -30 -154q-53 -86 -220 -86q-186 0 -248 106q-31 56 -31 157v277q0 64 -10 86q-9 21 -34 32q-13 5 -39 7v21h348v-21q-24 -2 -37 -8q-25 -11 -36 -31q-12 -23 -12 -85v-321q0 -60 16 -102q27 -77 136 -77q102 0 142 67q21 36 21 131v288q0 70 -19 99
q-14 23 -43 33q-17 6 -36 7v20h225v-20q-23 -3 -32 -7q-25 -8 -43 -35q-18 -29 -18 -97v-287zM288 740l119 97q47 37 83 37q26 0 42.5 -16.5t16.5 -41.5q0 -57 -84 -70l-170 -26z" />
    <glyph glyph-name="Ucircumflex" unicode="&#xdb;" horiz-adv-x="725" 
d="M552 733l-14 -17l-138 64l-136 -64l-14 17l113 131h75l56.5 -65zM626 227q0 -106 -30 -154q-53 -86 -220 -86q-186 0 -248 106q-31 56 -31 157v277q0 64 -10 86q-9 21 -34 32q-13 5 -39 7v21h348v-21q-24 -2 -37 -8q-25 -11 -36 -31q-12 -23 -12 -85v-321q0 -60 16 -102
q27 -77 136 -77q102 0 142 67q21 36 21 131v288q0 70 -19 99q-14 23 -43 33q-17 6 -36 7v20h225v-20q-23 -3 -32 -7q-25 -8 -43 -35q-18 -29 -18 -97v-287z" />
    <glyph glyph-name="Udieresis" unicode="&#xdc;" horiz-adv-x="725" 
d="M626 227q0 -106 -30 -154q-53 -86 -220 -86q-186 0 -248 106q-31 56 -31 157v277q0 64 -10 86q-9 21 -34 32q-13 5 -39 7v21h348v-21q-24 -2 -37 -8q-25 -11 -36 -31q-12 -23 -12 -85v-321q0 -60 16 -102q27 -77 136 -77q102 0 142 67q21 36 21 131v288q0 70 -19 99
q-14 23 -43 33q-17 6 -36 7v20h225v-20q-23 -3 -32 -7q-25 -8 -43 -35q-18 -29 -18 -97v-287zM517 724q-31 0 -51.5 20t-20.5 51t20.5 51.5t51.5 20.5t51 -20.5t20 -51.5t-20 -51t-51 -20zM298 724q-31 0 -51.5 20t-20.5 51t20.5 51.5t51.5 20.5t51 -20.5t20 -51.5t-20 -51
t-51 -20z" />
    <glyph glyph-name="Yacute" unicode="&#xdd;" horiz-adv-x="652" 
d="M235 298l-141 260q-27 51 -46.5 69.5t-53.5 24.5v21h356v-21q-30 -1 -46 -8q-46 -19 -6 -99l99 -198h5l86 170q30 59 30 90q0 30 -28 40q-16 5 -35 5v21h200v-21q-42 -7 -68 -35t-63 -100l-110 -214v-161q0 -59 11 -82q11 -20 35 -31q16 -7 39 -8v-21h-349v21q21 1 38 9
q25 12 35 32q12 22 12 80v156zM250 740l119 97q47 37 83 37q26 0 42.5 -16.5t16.5 -41.5q0 -57 -84 -70l-170 -26z" />
    <glyph glyph-name="Thorn" unicode="&#xde;" horiz-adv-x="655" 
d="M289 459v-263h54q71 0 96 42q21 42 21 121q0 76 -25.5 110.5t-83.5 34.5h-27q-20 0 -27 -10q-8 -11 -8 -35zM373 21v-21h-348v21q25 2 39 7q24 11 34 32q11 24 11 86v375q0 63 -11 90q-11 23 -36 33q-12 6 -37 8v21h348v-21q-25 -2 -38 -8q-23 -10 -35 -33
q-11 -30 -11 -80h85q261 0 261 -170q0 -100 -76 -149q-68 -44 -219 -44h-51v-22q0 -63 11 -86q12 -22 34 -31q13 -6 39 -8z" />
    <glyph glyph-name="germandbls" unicode="&#xdf;" horiz-adv-x="648" 
d="M639 157q0 -73 -49.5 -119t-122.5 -46q-62 0 -105 43h-7l-16 -32h-16l-9 161h19q24 -79 56.5 -114t77.5 -35q31 0 47.5 15.5t16.5 40.5q0 9 -3.5 17.5t-7.5 14.5t-15.5 14.5l-20 14.5l-28.5 19.5l-34 22.5q-59 40 -88 74.5t-29 84.5q0 24 5 43.5t18.5 37t21 26t28 25.5
t24.5 21q44 39 44 104q0 51 -23.5 75.5t-74.5 24.5q-105 0 -105 -115v-447q0 -57 7 -77q4 -17 21 -25q9 -5 27 -7v-19h-279v19q22 2 30 6q21 9 26 34q5 21 5 69v319h-67v32h67v27q0 105 73 160q68 49 188 51q91 0 150 -30t59 -82q0 -18 -5.5 -32.5t-19 -28.5t-21.5 -20.5
t-29 -20.5t-25 -17q-27 -17 -37.5 -30.5t-10.5 -30.5q0 -22 17.5 -38t85.5 -61q69 -44 101.5 -79.5t32.5 -89.5z" />
    <glyph glyph-name="agrave" unicode="&#xe0;" horiz-adv-x="530" 
d="M540 23q-12 -11 -46.5 -21.5t-80.5 -10.5q-56 0 -79 20q-18 14 -24 54h-7q-11 -32 -44.5 -53t-87.5 -21q-68 0 -107 32.5t-39 92.5q0 56 35 88q31 28 107 47q125 24 131 70v80q0 36 -11.5 50.5t-37.5 14.5q-33 0 -44 -15q-4 -8 -8 -65q-4 -70 -73 -70q-31 0 -50.5 15.5
t-19.5 42.5q0 40 31 65q25 23 69.5 37.5t95.5 14.5q111 0 161 -32t50 -94v-242q0 -56 9 -74q7 -16 31 -16q18 0 34 7zM298 277q-8 -9 -52 -30q-35 -17 -48 -37q-16 -27 -16 -77q0 -93 53 -93q24 0 41.5 15.5t21.5 41.5v180zM366 549l-11 -18q-37 17 -90 35t-64 23
q-68 23 -68 71q0 26 16 43t41 17q18 0 35 -10t26.5 -20t26.5 -31z" />
    <glyph glyph-name="aacute" unicode="&#xe1;" horiz-adv-x="537" 
d="M540 23q-12 -11 -46.5 -21.5t-80.5 -10.5q-56 0 -79 20q-18 14 -24 54h-7q-11 -32 -44.5 -53t-87.5 -21q-68 0 -107 32.5t-39 92.5q0 56 35 88q31 28 107 47q125 24 131 70v80q0 36 -11.5 50.5t-37.5 14.5q-33 0 -44 -15q-4 -8 -8 -65q-4 -70 -73 -70q-31 0 -50.5 15.5
t-19.5 42.5q0 40 31 65q25 23 69.5 37.5t95.5 14.5q111 0 161 -32t50 -94v-242q0 -56 9 -74q7 -16 31 -16q18 0 34 7zM157 548l89 111q2 3 9 10.5t9.5 10t8.5 9t9 9t9 7t10 6.5t10 4.5t11.5 3.5t11.5 1q25 0 41 -16.5t16 -42.5q0 -49 -68 -72l-155 -58zM298 277
q-8 -9 -52 -30q-35 -17 -48 -37q-16 -27 -16 -77q0 -93 53 -93q24 0 41.5 15.5t21.5 41.5v180z" />
    <glyph glyph-name="acircumflex" unicode="&#xe2;" horiz-adv-x="537" 
d="M540 23q-12 -11 -46.5 -21.5t-80.5 -10.5q-56 0 -79 20q-18 14 -24 54h-7q-11 -32 -44.5 -53t-87.5 -21q-68 0 -107 32.5t-39 92.5q0 56 35 88q31 28 107 47q125 24 131 70v80q0 36 -11.5 50.5t-37.5 14.5q-33 0 -44 -15q-4 -8 -8 -65q-4 -70 -73 -70q-31 0 -50.5 15.5
t-19.5 42.5q0 40 31 65q25 23 69.5 37.5t95.5 14.5q111 0 161 -32t50 -94v-242q0 -56 9 -74q7 -16 31 -16q18 0 34 7zM298 277q-8 -9 -52 -30q-35 -17 -48 -37q-16 -27 -16 -77q0 -93 53 -93q24 0 41.5 15.5t21.5 41.5v180zM401 542l-17 -16l-131 85l-130 -85l-19 16l35 48
l51.5 70t27.5 39h71z" />
    <glyph glyph-name="atilde" unicode="&#xe3;" horiz-adv-x="537" 
d="M540 23q-12 -11 -46.5 -21.5t-80.5 -10.5q-56 0 -79 20q-18 14 -24 54h-7q-11 -32 -44.5 -53t-87.5 -21q-68 0 -107 32.5t-39 92.5q0 56 35 88q31 28 107 47q125 24 131 70v80q0 36 -11.5 50.5t-37.5 14.5q-33 0 -44 -15q-4 -8 -8 -65q-4 -70 -73 -70q-31 0 -50.5 15.5
t-19.5 42.5q0 40 31 65q25 23 69.5 37.5t95.5 14.5q111 0 161 -32t50 -94v-242q0 -56 9 -74q7 -16 31 -16q18 0 34 7zM298 277q-8 -9 -52 -30q-35 -17 -48 -37q-16 -27 -16 -77q0 -93 53 -93q24 0 41.5 15.5t21.5 41.5v180zM424 681q-10 -51 -38.5 -87t-71.5 -36
q-28 0 -70 16t-59 16q-37 0 -56 -47l-23 5q26 125 107 125q25 0 67 -16t62 -16q40 0 59 45z" />
    <glyph glyph-name="adieresis" unicode="&#xe4;" horiz-adv-x="537" 
d="M540 23q-12 -11 -46.5 -21.5t-80.5 -10.5q-56 0 -79 20q-18 14 -24 54h-7q-11 -32 -44.5 -53t-87.5 -21q-68 0 -107 32.5t-39 92.5q0 56 35 88q31 28 107 47q125 24 131 70v80q0 36 -11.5 50.5t-37.5 14.5q-33 0 -44 -15q-4 -8 -8 -65q-4 -70 -73 -70q-31 0 -50.5 15.5
t-19.5 42.5q0 40 31 65q25 23 69.5 37.5t95.5 14.5q111 0 161 -32t50 -94v-242q0 -56 9 -74q7 -16 31 -16q18 0 34 7zM298 277q-8 -9 -52 -30q-35 -17 -48 -37q-16 -27 -16 -77q0 -93 53 -93q24 0 41.5 15.5t21.5 41.5v180zM356 545q-31 0 -51.5 20t-20.5 51t20.5 51.5
t51.5 20.5t51 -20.5t20 -51.5t-20 -51t-51 -20zM154 545q-31 0 -51.5 20t-20.5 51t20.5 51.5t51.5 20.5t51 -20.5t20 -51.5t-20 -51t-51 -20z" />
    <glyph glyph-name="aring" unicode="&#xe5;" horiz-adv-x="537" 
d="M540 23q-12 -11 -46.5 -21.5t-80.5 -10.5q-56 0 -79 20q-18 14 -24 54h-7q-11 -32 -44.5 -53t-87.5 -21q-68 0 -107 32.5t-39 92.5q0 56 35 88q31 28 107 47q125 24 131 70v80q0 36 -11.5 50.5t-37.5 14.5q-33 0 -44 -15q-4 -8 -8 -65q-4 -70 -73 -70q-31 0 -50.5 15.5
t-19.5 42.5q0 40 31 65q25 23 69.5 37.5t95.5 14.5q111 0 161 -32t50 -94v-242q0 -56 9 -74q7 -16 31 -16q18 0 34 7zM298 277q-8 -9 -52 -30q-35 -17 -48 -37q-16 -27 -16 -77q0 -93 53 -93q24 0 41.5 15.5t21.5 41.5v180zM346 625q0 -40 -27 -65.5t-66 -25.5
q-40 0 -66.5 25t-26.5 66q0 39 27 64.5t66 25.5q40 0 66.5 -25t26.5 -65zM197 625q0 -29 14.5 -47t41.5 -18t42 18t15 47t-15 46.5t-42 17.5q-28 0 -42 -17.5t-14 -46.5z" />
    <glyph glyph-name="ae" unicode="&#xe6;" horiz-adv-x="782" 
d="M551 -9q-89 0 -160 52q-29 22 -46 49h-9q-38 -101 -165 -101q-66 0 -106 32t-40 91q0 58 34 88q33 30 107 48q73 16 100.5 30t31.5 41v86q0 57 -52 57q-30 0 -42 -19q-5 -8 -7 -60q-2 -36 -22 -54t-53 -18q-31 0 -49.5 16.5t-18.5 43.5q0 40 30 65q57 50 165 50
q99 0 141 -64h5q24 27 66.5 45.5t85.5 18.5q106 0 161 -56.5t55 -134.5q0 -25 -3 -40h-296q0 -157 38 -196q29 -34 81 -34q117 0 160 127l21 -9q-52 -154 -213 -154zM616 320q0 86 -19 121q-15 23 -50 23q-32 0 -50 -24q-27 -37 -30 -159h119q17 0 23.5 8t6.5 31zM298 274
q-7 -8 -53 -31q-36 -17 -48 -38q-15 -25 -15 -74q0 -101 51 -101q24 0 42.5 19.5t22.5 49.5v175z" />
    <glyph glyph-name="ccedilla" unicode="&#xe7;" horiz-adv-x="508" 
d="M353 -112q0 -83 -136 -83q-60 0 -95 24l11 18q31 -18 64 -18q58 0 58 57q0 50 -38 50q-15 0 -30 -11l-22 11l21 68q-41 12 -70 36q-92 64 -92 197q0 115 75 184.5t186 69.5q102 0 159 -43q43 -29 43 -70q0 -34 -20 -51t-51 -17q-67 0 -76 80q-6 40 -17 57.5t-37 17.5
q-31 0 -52 -21q-42 -44 -42 -199q0 -84 13 -125.5t37 -66.5q24 -26 70 -26q67 0 106 35.5t55 87.5l23 -8q-19 -67 -71 -109t-142 -42q-42 0 -71 7l-16 -48q21 14 62 14q45 0 70 -20t25 -56z" />
    <glyph glyph-name="egrave" unicode="&#xe8;" horiz-adv-x="522" 
d="M500 146q-52 -155 -215 -155q-109 0 -179 57q-82 66 -82 191q0 112 75 182t180 70q106 0 163 -58.5t57 -134.5q0 -26 -3 -41h-301v-8q0 -149 37 -189q30 -33 84 -33q65 0 105.5 36.5t57.5 90.5zM229 440q-30 -40 -33 -157h128q15 0 21 8t6 30q0 87 -19 120q-18 24 -52 24
q-30 0 -51 -25zM381 549l-11 -18q-37 17 -90 35t-64 23q-68 23 -68 71q0 26 16 43t41 17q18 0 35 -10t26.5 -20t26.5 -31z" />
    <glyph glyph-name="eacute" unicode="&#xe9;" horiz-adv-x="522" 
d="M500 146q-52 -155 -215 -155q-109 0 -179 57q-82 66 -82 191q0 112 75 182t180 70q106 0 163 -58.5t57 -134.5q0 -26 -3 -41h-301v-8q0 -149 37 -189q30 -33 84 -33q65 0 105.5 36.5t57.5 90.5zM229 440q-30 -40 -33 -157h128q15 0 21 8t6 30q0 87 -19 120q-18 24 -52 24
q-30 0 -51 -25zM164 548l89 111q2 3 9 10.5t9.5 10t8.5 9t9 9t9 7t10 6.5t10 4.5t11.5 3.5t11.5 1q25 0 41 -16.5t16 -42.5q0 -49 -68 -72l-155 -58z" />
    <glyph glyph-name="ecircumflex" unicode="&#xea;" horiz-adv-x="522" 
d="M422 542l-17 -16l-131 85l-130 -85l-19 16l35 48l51.5 70t27.5 39h71zM229 440q-30 -40 -33 -157h128q15 0 21 8t6 30q0 87 -19 120q-18 24 -52 24q-30 0 -51 -25zM500 146q-52 -155 -215 -155q-109 0 -179 57q-82 66 -82 191q0 112 75 182t180 70q106 0 163 -58.5
t57 -134.5q0 -26 -3 -41h-301v-8q0 -149 37 -189q30 -33 84 -33q65 0 105.5 36.5t57.5 90.5z" />
    <glyph glyph-name="edieresis" unicode="&#xeb;" horiz-adv-x="522" 
d="M378 545q-31 0 -51.5 20t-20.5 51t20.5 51.5t51.5 20.5t51 -20.5t20 -51.5t-20 -51t-51 -20zM176 545q-31 0 -51.5 20t-20.5 51t20.5 51.5t51.5 20.5t51 -20.5t20 -51.5t-20 -51t-51 -20zM229 440q-30 -40 -33 -157h128q15 0 21 8t6 30q0 87 -19 120q-18 24 -52 24
q-30 0 -51 -25zM500 146q-52 -155 -215 -155q-109 0 -179 57q-82 66 -82 191q0 112 75 182t180 70q106 0 163 -58.5t57 -134.5q0 -26 -3 -41h-301v-8q0 -149 37 -189q30 -33 84 -33q65 0 105.5 36.5t57.5 90.5z" />
    <glyph glyph-name="igrave" unicode="&#xec;" horiz-adv-x="318" 
d="M242 372v-242q0 -52 5 -70q7 -25 26 -34q9 -5 31 -7v-19h-286v19q18 1 31 7q20 10 26 34q4 20 4 70v234q0 38 -4 55q-4 22 -19 30q-13 9 -39 12v18h221q6 0 6 -7q0 -11 -1 -42t-1 -58zM247 549l-11 -18q-37 17 -90 35t-64 23q-68 23 -68 71q0 26 16 43t41 17q18 0 35 -10
t26.5 -20t26.5 -31z" />
    <glyph glyph-name="iacute" unicode="&#xed;" horiz-adv-x="318" 
d="M242 372v-242q0 -52 5 -70q7 -25 26 -34q9 -5 31 -7v-19h-286v19q18 1 31 7q20 10 26 34q4 20 4 70v234q0 38 -4 55q-4 22 -19 30q-13 9 -39 12v18h221q6 0 6 -7q0 -11 -1 -42t-1 -58zM32 548l89 111q2 3 9 10.5t9.5 10t8.5 9t9 9t9 7t10 6.5t10 4.5t11.5 3.5t11.5 1
q25 0 41 -16.5t16 -42.5q0 -49 -68 -72l-155 -58z" />
    <glyph glyph-name="icircumflex" unicode="&#xee;" horiz-adv-x="318" 
d="M285 542l-17 -16l-131 85l-130 -85l-19 16l35 48l51.5 70t27.5 39h71zM242 372v-242q0 -52 5 -70q7 -25 26 -34q9 -5 31 -7v-19h-286v19q18 1 31 7q20 10 26 34q4 20 4 70v234q0 38 -4 55q-4 22 -19 30q-13 9 -39 12v18h221q6 0 6 -7q0 -11 -1 -42t-1 -58z" />
    <glyph glyph-name="idieresis" unicode="&#xef;" horiz-adv-x="318" 
d="M242 372v-242q0 -52 5 -70q7 -25 26 -34q9 -5 31 -7v-19h-286v19q18 1 31 7q20 10 26 34q4 20 4 70v234q0 38 -4 55q-4 22 -19 30q-13 9 -39 12v18h221q6 0 6 -7q0 -11 -1 -42t-1 -58zM246 543q-31 0 -51.5 20t-20.5 51t20.5 51.5t51.5 20.5t51 -20.5t20 -51.5t-20 -51
t-51 -20zM44 543q-31 0 -51.5 20t-20.5 51t20.5 51.5t51.5 20.5t51 -20.5t20 -51.5t-20 -51t-51 -20z" />
    <glyph glyph-name="eth" unicode="&#xf0;" horiz-adv-x="556" 
d="M277 -9q-113 0 -185 67t-72 181q0 112 73.5 180t182.5 68q48 0 73 -28h2q-21 75 -66 129l-122 -60l-8 26l112 55q-46 49 -117 90l11 17q94 -35 162 -79l113 56l8 -26l-95 -47q187 -131 187 -354q0 -136 -72 -205.5t-187 -69.5zM367 244q1 152 -35 196q-19 23 -56 23
q-33 0 -51 -21q-35 -39 -35 -203q0 -159 33 -199q21 -24 54 -24q37 0 55 23q33 46 35 205z" />
    <glyph glyph-name="ntilde" unicode="&#xf1;" horiz-adv-x="627" 
d="M555 128q0 -48 4 -67q5 -25 26 -34q16 -7 31 -8v-19h-274v19q16 2 27 8q14 6 19 32q3 14 3 70v249q0 34 -14 49q-12 12 -36 12q-56 0 -81 -68q-17 -42 -17 -104v-138q0 -51 3 -69q5 -24 21 -33q13 -7 25 -8v-19h-275v19q22 2 31 7q22 9 28 35q4 17 4 70v233q0 41 -3 55
q-4 20 -19 29q-19 11 -39 13v18h216q7 0 7 -7q0 -18 -2 -78h6q20 39 49 62q42 35 117 35q65 0 103 -39q40 -40 40 -109v-215zM477 681q-10 -51 -38.5 -87t-71.5 -36q-28 0 -70 16t-59 16q-37 0 -56 -47l-23 5q26 125 107 125q25 0 67 -16t62 -16q40 0 59 45z" />
    <glyph glyph-name="ograve" unicode="&#xf2;" 
d="M24 241q0 113 73 181.5t186 68.5t185.5 -68.5t72.5 -181.5t-72.5 -181.5t-185.5 -68.5t-186 68.5t-73 181.5zM194 241q0 -172 39 -207q19 -18 50 -18q29 0 49 18q39 34 39 207t-39 207q-20 18 -49 18q-31 0 -50 -18q-39 -34 -39 -207zM386 549l-11 -18q-37 17 -90 35
t-64 23q-68 23 -68 71q0 26 16 43t41 17q18 0 35 -10t26.5 -20t26.5 -31z" />
    <glyph glyph-name="oacute" unicode="&#xf3;" 
d="M24 241q0 113 73 181.5t186 68.5t185.5 -68.5t72.5 -181.5t-72.5 -181.5t-185.5 -68.5t-186 68.5t-73 181.5zM194 241q0 -172 39 -207q19 -18 50 -18q29 0 49 18q39 34 39 207t-39 207q-20 18 -49 18q-31 0 -50 -18q-39 -34 -39 -207zM162 548l89 111q2 3 9 10.5t9.5 10
t8.5 9t9 9t9 7t10 6.5t10 4.5t11.5 3.5t11.5 1q25 0 41 -16.5t16 -42.5q0 -49 -68 -72l-155 -58z" />
    <glyph glyph-name="ocircumflex" unicode="&#xf4;" 
d="M427 542l-17 -16l-131 85l-130 -85l-19 16l35 48l51.5 70t27.5 39h71zM24 241q0 113 73 181.5t186 68.5t185.5 -68.5t72.5 -181.5t-72.5 -181.5t-185.5 -68.5t-186 68.5t-73 181.5zM194 241q0 -172 39 -207q19 -18 50 -18q29 0 49 18q39 34 39 207t-39 207q-20 18 -49 18
q-31 0 -50 -18q-39 -34 -39 -207z" />
    <glyph glyph-name="otilde" unicode="&#xf5;" 
d="M24 241q0 113 73 181.5t186 68.5t185.5 -68.5t72.5 -181.5t-72.5 -181.5t-185.5 -68.5t-186 68.5t-73 181.5zM194 241q0 -172 39 -207q19 -18 50 -18q29 0 49 18q39 34 39 207t-39 207q-20 18 -49 18q-31 0 -50 -18q-39 -34 -39 -207zM441 681q-10 -51 -38.5 -87
t-71.5 -36q-28 0 -70 16t-59 16q-37 0 -56 -47l-23 5q26 125 107 125q25 0 67 -16t62 -16q40 0 59 45z" />
    <glyph glyph-name="odieresis" unicode="&#xf6;" horiz-adv-x="562" 
d="M380 545q-31 0 -51.5 20t-20.5 51t20.5 51.5t51.5 20.5t51 -20.5t20 -51.5t-20 -51t-51 -20zM178 545q-31 0 -51.5 20t-20.5 51t20.5 51.5t51.5 20.5t51 -20.5t20 -51.5t-20 -51t-51 -20zM24 241q0 113 73 181.5t186 68.5t185.5 -68.5t72.5 -181.5t-72.5 -181.5
t-185.5 -68.5t-186 68.5t-73 181.5zM194 241q0 -172 39 -207q19 -18 50 -18q29 0 49 18q39 34 39 207t-39 207q-20 18 -49 18q-31 0 -50 -18q-39 -34 -39 -207z" />
    <glyph glyph-name="divide" unicode="&#xf7;" horiz-adv-x="534" 
d="M339 417q0 -31 -20 -51t-51 -20t-51.5 20t-20.5 51t20.5 51.5t51.5 20.5t51 -20.5t20 -51.5zM472 259h-410v40h410v-40zM339 138q0 -31 -20 -51t-51 -20t-51.5 20t-20.5 51t20.5 51.5t51.5 20.5t51 -20.5t20 -51.5z" />
    <glyph glyph-name="oslash" unicode="&#xf8;" horiz-adv-x="561" 
d="M24 241q0 113 73 181.5t186 68.5q49 0 97 -16l35 75l24 -12l-34 -73q63 -29 99.5 -87.5t36.5 -136.5q0 -113 -72.5 -181.5t-185.5 -68.5q-50 0 -95 14l-38 -81l-25 11l38 80q-65 29 -102 87.5t-37 138.5zM194 241q0 -91 9 -141l149 317q-7 20 -20 31q-20 18 -49 18
q-31 0 -50 -18q-39 -34 -39 -207zM371 241q0 84 -8 135l-149 -315q7 -17 19 -27q19 -18 50 -18q29 0 49 18q39 34 39 207z" />
    <glyph glyph-name="ugrave" unicode="&#xf9;" horiz-adv-x="620" 
d="M542 117q0 -31 3 -53q6 -29 25 -38q16 -7 35 -7v-19q-1 0 -108 -2l-107 -1q-8 0 -8 9q0 4 0.5 31.5t0.5 44.5h-7q-12 -33 -39 -59q-36 -33 -116 -33q-86 0 -125 50q-28 36 -28 114v194q0 40 -3 62q-3 23 -13 33q-14 17 -45 18v18h219q9 0 9 -6q-3 -27 -3 -117v-243
q0 -40 14 -57q16 -19 45 -19q28 0 52 28q25 30 32 76q4 35 4 100v128q0 41 -4 54q-6 19 -21 28q-14 8 -38 10v18h220q8 0 8 -6q0 -4 -1 -43.5t-1 -74.5v-238zM386 549l-11 -18q-37 17 -90 35t-64 23q-68 23 -68 71q0 26 16 43t41 17q18 0 35 -10t26.5 -20t26.5 -31z" />
    <glyph glyph-name="uacute" unicode="&#xfa;" horiz-adv-x="620" 
d="M542 117q0 -31 3 -53q6 -29 25 -38q16 -7 35 -7v-19q-1 0 -108 -2l-107 -1q-8 0 -8 9q0 4 0.5 31.5t0.5 44.5h-7q-12 -33 -39 -59q-36 -33 -116 -33q-86 0 -125 50q-28 36 -28 114v194q0 40 -3 62q-3 23 -13 33q-14 17 -45 18v18h219q9 0 9 -6q-3 -27 -3 -117v-243
q0 -40 14 -57q16 -19 45 -19q28 0 52 28q25 30 32 76q4 35 4 100v128q0 41 -4 54q-6 19 -21 28q-14 8 -38 10v18h220q8 0 8 -6q0 -4 -1 -43.5t-1 -74.5v-238zM185 548l89 111q2 3 9 10.5t9.5 10t8.5 9t9 9t9 7t10 6.5t10 4.5t11.5 3.5t11.5 1q25 0 41 -16.5t16 -42.5
q0 -49 -68 -72l-155 -58z" />
    <glyph glyph-name="ucircumflex" unicode="&#xfb;" horiz-adv-x="620" 
d="M427 542l-17 -16l-131 85l-130 -85l-19 16l35 48l51.5 70t27.5 39h71zM542 117q0 -31 3 -53q6 -29 25 -38q16 -7 35 -7v-19q-1 0 -108 -2l-107 -1q-8 0 -8 9q0 4 0.5 31.5t0.5 44.5h-7q-12 -33 -39 -59q-36 -33 -116 -33q-86 0 -125 50q-28 36 -28 114v194q0 40 -3 62
q-3 23 -13 33q-14 17 -45 18v18h219q9 0 9 -6q-3 -27 -3 -117v-243q0 -40 14 -57q16 -19 45 -19q28 0 52 28q25 30 32 76q4 35 4 100v128q0 41 -4 54q-6 19 -21 28q-14 8 -38 10v18h220q8 0 8 -6q0 -4 -1 -43.5t-1 -74.5v-238z" />
    <glyph glyph-name="udieresis" unicode="&#xfc;" horiz-adv-x="620" 
d="M382 545q-31 0 -51.5 20t-20.5 51t20.5 51.5t51.5 20.5t51 -20.5t20 -51.5t-20 -51t-51 -20zM180 545q-31 0 -51.5 20t-20.5 51t20.5 51.5t51.5 20.5t51 -20.5t20 -51.5t-20 -51t-51 -20zM542 117q0 -31 3 -53q6 -29 25 -38q16 -7 35 -7v-19q-1 0 -108 -2l-107 -1
q-8 0 -8 9q0 4 0.5 31.5t0.5 44.5h-7q-12 -33 -39 -59q-36 -33 -116 -33q-86 0 -125 50q-28 36 -28 114v194q0 40 -3 62q-3 23 -13 33q-14 17 -45 18v18h219q9 0 9 -6q-3 -27 -3 -117v-243q0 -40 14 -57q16 -19 45 -19q28 0 52 28q25 30 32 76q4 35 4 100v128q0 41 -4 54
q-6 19 -21 28q-14 8 -38 10v18h220q8 0 8 -6q0 -4 -1 -43.5t-1 -74.5v-238z" />
    <glyph glyph-name="yacute" unicode="&#xfd;" horiz-adv-x="521" 
d="M263 -81q-25 -58 -55 -87q-41 -41 -100 -41q-44 0 -73.5 23t-29.5 61q0 29 19 49t49 20q46 0 68 -33q4 -6 16 -48q6 -14 21 -14q24 0 47 61q14 39 14 54q0 16 -10 38l-133 319q-25 63 -42 91q-14 27 -29 38q-17 9 -35 11v18h309v-18q-22 -2 -37 -10q-18 -8 -18 -30
q0 -20 20 -77l64 -174h7l67 169q21 48 21 77q0 26 -22 37q-10 5 -31 8v18h162v-18q-18 -2 -31 -11q-17 -10 -30 -31q-15 -24 -36 -77l-87 -214.5zM209 548l89 111q2 3 9 10.5t9.5 10t8.5 9t9 9t9 7t10 6.5t10 4.5t11.5 3.5t11.5 1q25 0 41 -16.5t16 -42.5q0 -49 -68 -72
l-155 -58z" />
    <glyph glyph-name="thorn" unicode="&#xfe;" horiz-adv-x="591" 
d="M400 228q0 121 -19.5 168t-59.5 47q-39 0 -63 -34q-29 -40 -29 -123v-116q0 -84 21 -119q21 -33 61 -33q47 0 68 48.5t21 161.5zM65 -77v668q0 44 -3 60q-4 23 -18 31q-16 8 -40 10v20h218q7 0 7 -7q0 -6 -1 -39.5t-1 -41.5v-216h4q39 82 138 82q84 0 142 -64.5
t58 -185.5q0 -119 -68.5 -184.5t-159.5 -65.5q-67 0 -107 32h-5v-99q0 -42 3 -62q4 -31 30 -41q12 -4 36 -6v-19h-301v19q24 2 33 6q24 9 30 38q5 22 5 65z" />
    <glyph glyph-name="ydieresis" unicode="&#xff;" horiz-adv-x="521" 
d="M263 -81q-25 -58 -55 -87q-41 -41 -100 -41q-44 0 -73.5 23t-29.5 61q0 29 19 49t49 20q46 0 68 -33q4 -6 16 -48q6 -14 21 -14q24 0 47 61q14 39 14 54q0 16 -10 38l-133 319q-25 63 -42 91q-14 27 -29 38q-17 9 -35 11v18h309v-18q-22 -2 -37 -10q-18 -8 -18 -30
q0 -20 20 -77l64 -174h7l67 169q21 48 21 77q0 26 -22 37q-10 5 -31 8v18h162v-18q-18 -2 -31 -11q-17 -10 -30 -31q-15 -24 -36 -77l-87 -214.5zM379 545q-31 0 -51.5 20t-20.5 51t20.5 51.5t51.5 20.5t51 -20.5t20 -51.5t-20 -51t-51 -20zM177 545q-31 0 -51.5 20
t-20.5 51t20.5 51.5t51.5 20.5t51 -20.5t20 -51.5t-20 -51t-51 -20z" />
    <glyph glyph-name="Amacron" unicode="&#x100;" horiz-adv-x="653" 
d="M251 446l-80 -216h163l-77 216h-6zM200 21v-21h-211v21q25 3 42 14q16 9 36 37q21 36 41 90l199 516h57l181 -487q32 -81 51 -112q21 -31 46 -46q21 -10 36 -12v-21h-374v21q21 2 40 10q34 13 34 46q0 28 -18 80l-15 42h-185l-19 -51q-15 -39 -15 -66q0 -40 30 -51
q18 -8 44 -10zM480 732h-285v68h285v-68z" />
    <glyph glyph-name="amacron" unicode="&#x101;" horiz-adv-x="537" 
d="M540 23q-12 -11 -46.5 -21.5t-80.5 -10.5q-56 0 -79 20q-18 14 -24 54h-7q-11 -32 -44.5 -53t-87.5 -21q-68 0 -107 32.5t-39 92.5q0 56 35 88q31 28 107 47q125 24 131 70v80q0 36 -11.5 50.5t-37.5 14.5q-33 0 -44 -15q-4 -8 -8 -65q-4 -70 -73 -70q-31 0 -50.5 15.5
t-19.5 42.5q0 40 31 65q25 23 69.5 37.5t95.5 14.5q111 0 161 -32t50 -94v-242q0 -56 9 -74q7 -16 31 -16q18 0 34 7zM298 277q-8 -9 -52 -30q-35 -17 -48 -37q-16 -27 -16 -77q0 -93 53 -93q24 0 41.5 15.5t21.5 41.5v180zM392 569h-256v62h256v-62z" />
    <glyph glyph-name="Abreve" unicode="&#x102;" horiz-adv-x="653" 
d="M251 446l-80 -216h163l-77 216h-6zM200 21v-21h-211v21q25 3 42 14q16 9 36 37q21 36 41 90l199 516h57l181 -487q32 -81 51 -112q21 -31 46 -46q21 -10 36 -12v-21h-374v21q21 2 40 10q34 13 34 46q0 28 -18 80l-15 42h-185l-19 -51q-15 -39 -15 -66q0 -40 30 -51
q18 -8 44 -10zM333 717q-59 0 -94.5 38t-43.5 107l18 7q34 -65 119 -65q88 0 119 65l20 -7q-8 -69 -43.5 -107t-94.5 -38z" />
    <glyph glyph-name="abreve" unicode="&#x103;" horiz-adv-x="537" 
d="M540 23q-12 -11 -46.5 -21.5t-80.5 -10.5q-56 0 -79 20q-18 14 -24 54h-7q-11 -32 -44.5 -53t-87.5 -21q-68 0 -107 32.5t-39 92.5q0 56 35 88q31 28 107 47q125 24 131 70v80q0 36 -11.5 50.5t-37.5 14.5q-33 0 -44 -15q-4 -8 -8 -65q-4 -70 -73 -70q-31 0 -50.5 15.5
t-19.5 42.5q0 40 31 65q25 23 69.5 37.5t95.5 14.5q111 0 161 -32t50 -94v-242q0 -56 9 -74q7 -16 31 -16q18 0 34 7zM298 277q-8 -9 -52 -30q-35 -17 -48 -37q-16 -27 -16 -77q0 -93 53 -93q24 0 41.5 15.5t21.5 41.5v180zM260 536q-59 0 -92 38t-40 108l19 7
q31 -68 113 -68q84 0 113 68l19 -7q-13 -146 -132 -146z" />
    <glyph glyph-name="Aogonek" unicode="&#x104;" horiz-adv-x="672" 
d="M374 104l-32 92h-186l-19 -54q-12 -39 -12 -59q0 -41 29 -52q18 -8 46 -10v-21h-213v21q28 4 43 13q21 14 36 38q20 31 42 90l197 516h61l180 -487q32 -83 50 -112q24 -35 48 -46q20 -9 38 -12v-21h-210q-52 0 -72.5 -6t-33.5 -23q-29 -30 -29 -91q0 -67 81 -72v-21
q-101 -6 -152.5 18t-51.5 68q0 36 26.5 58t86.5 50q32 16 46.5 30t14.5 37q0 18 -14 56zM248 446l-81 -222h165l-77 222h-7z" />
    <glyph glyph-name="aogonek" unicode="&#x105;" horiz-adv-x="537" 
d="M485 -213q-100 -5 -151.5 18t-51.5 70q0 36 36 62t117 59q-18 -4 -30 -4q-49 0 -71 20q-18 13 -24 53h-7q-11 -32 -44.5 -53t-87.5 -21q-68 0 -107 32.5t-39 92.5q0 56 35 88q31 28 107 47q69 13 98 29t33 41v80q0 36 -12 50.5t-38 14.5q-30 0 -43 -18q-6 -11 -8 -62
q-3 -73 -74 -73q-31 0 -50 16.5t-19 44.5q0 40 31 65q25 23 69.5 37.5t95.5 14.5q111 0 161 -32t50 -94v-242q0 -59 9 -74q9 -16 31 -16q18 0 34 7l5 -17q-18 -14 -58 -27q-77 -34 -77 -117q0 -66 80 -71v-21zM298 277q-5 -6 -53 -32q-34 -15 -47 -35q-16 -27 -16 -77
q0 -93 53 -93q24 0 41.5 15.5t21.5 41.5v180z" />
    <glyph glyph-name="Cacute" unicode="&#x106;" horiz-adv-x="673" 
d="M402 658q-58 0 -95 -33q-83 -70 -83 -280q0 -196 84 -267q45 -37 119 -37q64 0 116.5 39.5t81.5 109.5l25 -12q-37 -90 -103.5 -140.5t-177.5 -50.5q-67 0 -127 22t-107 64t-74.5 110t-27.5 154q0 157 104.5 253.5t252.5 96.5q125 0 182 -64h5l36 52h14v-231h-22
q-25 96 -66 149q-28 34 -58 49.5t-79 15.5zM281 746l119 97q47 37 83 37q26 0 42.5 -16.5t16.5 -41.5q0 -57 -84 -70l-170 -26z" />
    <glyph glyph-name="cacute" unicode="&#x107;" horiz-adv-x="508" 
d="M286 465q-31 0 -52 -21q-42 -44 -42 -199q0 -84 13 -125.5t37 -66.5q24 -26 70 -26q67 0 106 35.5t55 87.5l23 -8q-19 -67 -71 -109t-142 -42q-101 0 -167 49q-92 64 -92 197q0 115 75 184.5t186 69.5q102 0 159 -43q43 -29 43 -70q0 -34 -20 -51t-51 -17q-67 0 -76 80
q-6 40 -17 57.5t-37 17.5zM173 548l89 111q2 3 9 10.5t9.5 10t8.5 9t9 9t9 7t10 6.5t10 4.5t11.5 3.5t11.5 1q25 0 41 -16.5t16 -42.5q0 -49 -68 -72l-155 -58z" />
    <glyph glyph-name="Ccircumflex" unicode="&#x108;" horiz-adv-x="673" 
d="M532 733l-14 -17l-138 64l-136 -64l-14 17l113 131h75l56.5 -65zM402 658q-58 0 -95 -33q-83 -70 -83 -280q0 -196 84 -267q45 -37 119 -37q64 0 116.5 39.5t81.5 109.5l25 -12q-37 -90 -103.5 -140.5t-177.5 -50.5q-67 0 -127 22t-107 64t-74.5 110t-27.5 154
q0 157 104.5 253.5t252.5 96.5q125 0 182 -64h5l36 52h14v-231h-22q-25 96 -66 149q-28 34 -58 49.5t-79 15.5z" />
    <glyph glyph-name="ccircumflex" unicode="&#x109;" horiz-adv-x="508" 
d="M424 542l-17 -16l-131 85l-130 -85l-19 16l35 48l51.5 70t27.5 39h71zM286 465q-31 0 -52 -21q-42 -44 -42 -199q0 -84 13 -125.5t37 -66.5q24 -26 70 -26q67 0 106 35.5t55 87.5l23 -8q-19 -67 -71 -109t-142 -42q-101 0 -167 49q-92 64 -92 197q0 115 75 184.5
t186 69.5q102 0 159 -43q43 -29 43 -70q0 -34 -20 -51t-51 -17q-67 0 -76 80q-6 40 -17 57.5t-37 17.5z" />
    <glyph glyph-name="Cdotaccent" unicode="&#x10a;" horiz-adv-x="673" 
d="M402 658q-58 0 -95 -33q-83 -70 -83 -280q0 -196 84 -267q45 -37 119 -37q64 0 116.5 39.5t81.5 109.5l25 -12q-37 -90 -103.5 -140.5t-177.5 -50.5q-67 0 -127 22t-107 64t-74.5 110t-27.5 154q0 157 104.5 253.5t252.5 96.5q125 0 182 -64h5l36 52h14v-231h-22
q-25 96 -66 149q-28 34 -58 49.5t-79 15.5zM384 722q-42 0 -66.5 22t-24.5 55t24.5 55t66.5 22t66.5 -22t24.5 -55t-24.5 -55t-66.5 -22z" />
    <glyph glyph-name="cdotaccent" unicode="&#x10b;" horiz-adv-x="508" 
d="M286 465q-31 0 -52 -21q-42 -44 -42 -199q0 -84 13 -125.5t37 -66.5q24 -26 70 -26q67 0 106 35.5t55 87.5l23 -8q-19 -67 -71 -109t-142 -42q-101 0 -167 49q-92 64 -92 197q0 115 75 184.5t186 69.5q102 0 159 -43q43 -29 43 -70q0 -34 -20 -51t-51 -17q-67 0 -76 80
q-6 40 -17 57.5t-37 17.5zM282 523q-42 0 -66.5 25t-24.5 62t24.5 62t66.5 25t66.5 -25t24.5 -62t-24.5 -62t-66.5 -25z" />
    <glyph glyph-name="Ccaron" unicode="&#x10c;" horiz-adv-x="673" 
d="M528 852q-112 -128 -115 -131h-74l-113 131l14 16l137 -64l137 64zM402 658q-58 0 -95 -33q-83 -70 -83 -280q0 -196 84 -267q45 -37 119 -37q64 0 116.5 39.5t81.5 109.5l25 -12q-37 -90 -103.5 -140.5t-177.5 -50.5q-67 0 -127 22t-107 64t-74.5 110t-27.5 154
q0 157 104.5 253.5t252.5 96.5q125 0 182 -64h5l36 52h14v-231h-22q-25 96 -66 149q-28 34 -58 49.5t-79 15.5z" />
    <glyph glyph-name="ccaron" unicode="&#x10d;" horiz-adv-x="508" 
d="M430 690l-34.5 -48.5l-51 -70.5t-27.5 -38h-71q-4 6 -27.5 38.5l-51 70.5l-34.5 48l19 15l130 -88l129 88zM286 465q-31 0 -52 -21q-42 -44 -42 -199q0 -84 13 -125.5t37 -66.5q24 -26 70 -26q67 0 106 35.5t55 87.5l23 -8q-19 -67 -71 -109t-142 -42q-101 0 -167 49
q-92 64 -92 197q0 115 75 184.5t186 69.5q102 0 159 -43q43 -29 43 -70q0 -34 -20 -51t-51 -17q-67 0 -76 80q-6 40 -17 57.5t-37 17.5z" />
    <glyph glyph-name="Dcaron" unicode="&#x10e;" horiz-adv-x="759" 
d="M498 852q-112 -128 -115 -131h-74l-113 131l14 16l137 -64l137 64zM26 673h353q119 0 191 -42q72 -41 115 -117t43 -175t-40.5 -176.5t-112.5 -120.5q-77 -42 -159 -42h-390v21q27 4 37 8q25 11 36 33q11 24 11 84v381q0 59 -10 86q-10 22 -35 33q-14 5 -39 7v20z
M535 338q0 176 -61 257q-36 51 -115 51h-30q-21 0 -31 -10q-7 -7 -7 -35v-477q0 -62 12 -77q13 -20 52 -20h20q66 0 102 50q58 84 58 261z" />
    <glyph glyph-name="dcaron" unicode="&#x10f;" horiz-adv-x="608" 
d="M581 535l20 187h109l-33 -61l-37.5 -69l-31.5 -57h-27zM364 165v166q0 49 -21 81q-24 39 -59 39q-91 0 -91 -212q0 -208 89 -208q35 0 58.5 40.5t23.5 93.5zM592 0q-6 0 -108.5 -1t-103.5 -1q-6 0 -8 5q-1 8 -1 25v50h-6q-29 -87 -129 -87q-88 0 -150 66t-62 183
q0 113 64.5 182t154.5 69q85 0 116 -57h5v165q0 43 -4 58q-3 16 -15 24q-14 9 -48 12v19h225q7 0 7 -7q-4 -124 -4 -160v-424q0 -40 3 -55q6 -28 27 -37q13 -8 37 -10v-19z" />
    <glyph glyph-name="Dcroat" unicode="&#x110;" horiz-adv-x="758" 
d="M34 327v33h76v167q0 59 -10 86q-10 22 -35 33q-14 5 -39 7v20h353q119 0 191 -42q72 -41 115 -117t43 -175t-40.5 -176.5t-112.5 -120.5q-77 -42 -159 -42h-390v21q27 4 37 8q25 11 36 33q11 24 11 84v181h-76zM535 338q0 176 -61 257q-36 51 -115 51h-30q-21 0 -31 -10
q-7 -7 -7 -35v-241h123v-33h-123v-203q0 -62 12 -77q13 -20 52 -20h20q66 0 102 50q58 84 58 261z" />
    <glyph glyph-name="dcroat" unicode="&#x111;" horiz-adv-x="600" 
d="M251 572v30h113q0 40 -4 55q-3 16 -15 24q-14 9 -48 12v19h225q7 0 7 -7q-3 -80 -4 -103h69v-30h-69v-27v-424q0 -40 3 -55q6 -28 27 -37q13 -8 37 -10v-19q-6 0 -108.5 -1t-103.5 -1q-6 0 -8 5q-1 8 -1 25v50h-6q-29 -87 -129 -87q-88 0 -150 66t-62 183q0 113 64.5 182
t154.5 69q85 0 116 -57h5v138h-113zM364 165v166q0 49 -21 81q-24 39 -59 39q-91 0 -91 -212q0 -208 89 -208q35 0 58.5 40.5t23.5 93.5z" />
    <glyph glyph-name="Emacron" unicode="&#x112;" horiz-adv-x="666" 
d="M626 244l-19 -244h-581v21q20 1 37 8q25 12 36 33q11 23 11 86v380q0 60 -10 84q-12 20 -36 33q-14 7 -38 8v20h561l24 -209h-20q-58 96 -104 138q-44 44 -110 44h-38q-24 0 -35 -12q-15 -15 -15 -54v-217h45q53 0 82 29q29 28 46 90h20v-267h-20q-17 61 -48 93
q-26 27 -80 27h-45v-207q0 -62 16 -80q15 -21 59 -21h28q36 0 57 12t50 44q49 49 109 161h18zM475 732h-285v68h285v-68z" />
    <glyph glyph-name="emacron" unicode="&#x113;" horiz-adv-x="522" 
d="M229 440q-30 -40 -33 -157h128q15 0 21 8t6 30q0 87 -19 120q-18 24 -52 24q-30 0 -51 -25zM500 146q-52 -155 -215 -155q-109 0 -179 57q-82 66 -82 191q0 112 75 182t180 70q106 0 163 -58.5t57 -134.5q0 -26 -3 -41h-301v-8q0 -149 37 -189q30 -33 84 -33
q65 0 105.5 36.5t57.5 90.5zM406 569h-256v62h256v-62z" />
    <glyph glyph-name="Ebreve" unicode="&#x114;" horiz-adv-x="666" 
d="M626 244l-19 -244h-581v21q20 1 37 8q25 12 36 33q11 23 11 86v380q0 60 -10 84q-12 20 -36 33q-14 7 -38 8v20h561l24 -209h-20q-58 96 -104 138q-44 44 -110 44h-38q-24 0 -35 -12q-15 -15 -15 -54v-217h45q53 0 82 29q29 28 46 90h20v-267h-20q-17 61 -48 93
q-26 27 -80 27h-45v-207q0 -62 16 -80q15 -21 59 -21h28q36 0 57 12t50 44q49 49 109 161h18zM334 717q-59 0 -94.5 38t-43.5 107l18 7q34 -65 119 -65q88 0 119 65l20 -7q-8 -69 -43.5 -107t-94.5 -38z" />
    <glyph glyph-name="ebreve" unicode="&#x115;" horiz-adv-x="522" 
d="M229 440q-30 -40 -33 -157h128q15 0 21 8t6 30q0 87 -19 120q-18 24 -52 24q-30 0 -51 -25zM500 146q-52 -155 -215 -155q-109 0 -179 57q-82 66 -82 191q0 112 75 182t180 70q106 0 163 -58.5t57 -134.5q0 -26 -3 -41h-301v-8q0 -149 37 -189q30 -33 84 -33
q65 0 105.5 36.5t57.5 90.5zM279 536q-59 0 -92 38t-40 108l19 7q31 -68 113 -68q84 0 113 68l19 -7q-13 -146 -132 -146z" />
    <glyph glyph-name="Edotaccent" unicode="&#x116;" horiz-adv-x="666" 
d="M335 722q-42 0 -66.5 22t-24.5 55t24.5 55t66.5 22t66.5 -22t24.5 -55t-24.5 -55t-66.5 -22zM626 244l-19 -244h-581v21q20 1 37 8q25 12 36 33q11 23 11 86v380q0 60 -10 84q-12 20 -36 33q-14 7 -38 8v20h561l24 -209h-20q-58 96 -104 138q-44 44 -110 44h-38
q-24 0 -35 -12q-15 -15 -15 -54v-217h45q53 0 82 29q29 28 46 90h20v-267h-20q-17 61 -48 93q-26 27 -80 27h-45v-207q0 -62 16 -80q15 -21 59 -21h28q36 0 57 12t50 44q49 49 109 161h18z" />
    <glyph glyph-name="edotaccent" unicode="&#x117;" horiz-adv-x="522" 
d="M229 440q-30 -40 -33 -157h128q15 0 21 8t6 30q0 87 -19 120q-18 24 -52 24q-30 0 -51 -25zM500 146q-52 -155 -215 -155q-109 0 -179 57q-82 66 -82 191q0 112 75 182t180 70q106 0 163 -58.5t57 -134.5q0 -26 -3 -41h-301v-8q0 -149 37 -189q30 -33 84 -33
q65 0 105.5 36.5t57.5 90.5zM277 523q-42 0 -66.5 25t-24.5 62t24.5 62t66.5 25t66.5 -25t24.5 -62t-24.5 -62t-66.5 -25z" />
    <glyph glyph-name="Eogonek" unicode="&#x118;" horiz-adv-x="666" 
d="M480 0h-454v21q24 2 35 6q25 9 38 31q13 23 13 72v395q0 63 -12 88q-11 25 -38 34q-18 5 -36 6v20h558l25 -209h-20q-63 100 -105 138q-46 44 -109 44h-32q-33 0 -44 -14q-9 -13 -9 -52v-217h41q53 0 82 29q29 28 46 90h19v-267h-19q-17 62 -47 93q-27 27 -81 27h-41
v-207q0 -60 14 -77q14 -24 63 -24h17q37 0 60.5 12.5t52.5 43.5q52 53 108 161h19l-20 -244h-96q-52 -49 -52 -121q0 -65 80 -71v-21q-203 -9 -203 89q0 37 32.5 64t114.5 60z" />
    <glyph glyph-name="eogonek" unicode="&#x119;" horiz-adv-x="521" 
d="M405 -213q-100 -5 -151.5 18t-51.5 70q0 36 36 64t110 60q-27 -8 -63 -8q-101 0 -168 49q-95 69 -95 196q0 112 75.5 181.5t181.5 69.5t163 -58t57 -133q0 -24 -3 -41h-301v-15q0 -140 37 -180q30 -33 85 -33q121 0 162 127l21 -8q-11 -36 -30 -63t-32 -38t-36 -28
q-76 -52 -76 -133q0 -70 79 -76v-21zM228 435q-28 -35 -32 -154h128q15 0 21 8t6 30q0 86 -19 118q-16 24 -52 24q-32 0 -52 -26z" />
    <glyph glyph-name="Ecaron" unicode="&#x11a;" horiz-adv-x="666" 
d="M486 852q-112 -128 -115 -131h-74l-113 131l14 16l137 -64l137 64zM626 244l-19 -244h-581v21q20 1 37 8q25 12 36 33q11 23 11 86v380q0 60 -10 84q-12 20 -36 33q-14 7 -38 8v20h561l24 -209h-20q-58 96 -104 138q-44 44 -110 44h-38q-24 0 -35 -12q-15 -15 -15 -54
v-217h45q53 0 82 29q29 28 46 90h20v-267h-20q-17 61 -48 93q-26 27 -80 27h-45v-207q0 -62 16 -80q15 -21 59 -21h28q36 0 57 12t50 44q49 49 109 161h18z" />
    <glyph glyph-name="ecaron" unicode="&#x11b;" horiz-adv-x="522" 
d="M428 690l-34.5 -48.5l-51 -70.5t-27.5 -38h-71q-4 6 -27.5 38.5l-51 70.5l-34.5 48l19 15l130 -88l129 88zM229 440q-30 -40 -33 -157h128q15 0 21 8t6 30q0 87 -19 120q-18 24 -52 24q-30 0 -51 -25zM500 146q-52 -155 -215 -155q-109 0 -179 57q-82 66 -82 191
q0 112 75 182t180 70q106 0 163 -58.5t57 -134.5q0 -26 -3 -41h-301v-8q0 -149 37 -189q30 -33 84 -33q65 0 105.5 36.5t57.5 90.5z" />
    <glyph glyph-name="Gcircumflex" unicode="&#x11c;" horiz-adv-x="746" 
d="M539 733l-14 -17l-138 64l-136 -64l-14 17l113 131h75l56.5 -65zM483 201q0 39 -13 66q-11 21 -35 31q-14 6 -36 8v21h328v-21q-25 -2 -37 -7q-24 -11 -36 -34q-10 -21 -10 -88v-130q-31 -16 -100 -36q-96 -24 -168 -24q-155 0 -248.5 97t-93.5 253q0 150 101.5 250
t244.5 100q124 0 188 -72h7l31 51h16v-229h-21q-29 103 -65 150q-29 38 -59.5 54.5t-82.5 16.5q-53 0 -91 -38q-32 -31 -54.5 -105.5t-22.5 -177.5q0 -229 68 -288q34 -34 83 -34q61 0 87 23q19 21 19 90v73z" />
    <glyph glyph-name="gcircumflex" unicode="&#x11d;" 
d="M402 542l-17 -16l-131 85l-130 -85l-19 16l35 48l51.5 70t27.5 39h71zM180 331q0 -76 17 -106.5t48 -30.5q72 0 72 137t-70 137q-67 0 -67 -137zM528 -15q0 -88 -90 -141t-213 -53q-218 0 -218 95q0 72 132 90v6q-42 6 -69.5 32.5t-27.5 68.5q0 43 28 68.5t68 36.5v5
q-100 40 -100 138q0 75 61 117.5t149 42.5q105 0 161 -57h7q9 28 33.5 45t58.5 17q36 0 53.5 -17.5t17.5 -46.5q0 -24 -13.5 -38t-37.5 -14q-36 0 -50 39q-4 9 -5.5 12t-4.5 7.5t-6 5.5t-7 1q-10 0 -16.5 -10t-6.5 -24q0 -5 13 -34q11 -20 11 -45q0 -78 -59.5 -119.5
t-150.5 -41.5q-36 0 -76 6q-42 -2 -42 -29q0 -34 56 -34q11 0 86.5 3.5t94.5 3.5q82 0 122.5 -33t40.5 -103zM431 -82q0 33 -20.5 45.5t-63.5 12.5q-38 1 -153 -6q-106 -10 -106 -79q0 -75 142 -75q88 0 144.5 27t56.5 75z" />
    <glyph glyph-name="Gbreve" unicode="&#x11e;" horiz-adv-x="746" 
d="M384 717q-59 0 -94.5 38t-43.5 107l18 7q34 -65 119 -65q88 0 119 65l20 -7q-8 -69 -43.5 -107t-94.5 -38zM483 201q0 39 -13 66q-11 21 -35 31q-14 6 -36 8v21h328v-21q-25 -2 -37 -7q-24 -11 -36 -34q-10 -21 -10 -88v-130q-31 -16 -100 -36q-96 -24 -168 -24
q-155 0 -248.5 97t-93.5 253q0 150 101.5 250t244.5 100q124 0 188 -72h7l31 51h16v-229h-21q-29 103 -65 150q-29 38 -59.5 54.5t-82.5 16.5q-53 0 -91 -38q-32 -31 -54.5 -105.5t-22.5 -177.5q0 -229 68 -288q34 -34 83 -34q61 0 87 23q19 21 19 90v73z" />
    <glyph glyph-name="gbreve" unicode="&#x11f;" 
d="M180 331q0 -76 17 -106.5t48 -30.5q72 0 72 137t-70 137q-67 0 -67 -137zM528 -15q0 -88 -90 -141t-213 -53q-218 0 -218 95q0 72 132 90v6q-42 6 -69.5 32.5t-27.5 68.5q0 43 28 68.5t68 36.5v5q-100 40 -100 138q0 75 61 117.5t149 42.5q105 0 161 -57h7q9 28 33.5 45
t58.5 17q36 0 53.5 -17.5t17.5 -46.5q0 -24 -13.5 -38t-37.5 -14q-36 0 -50 39q-4 9 -5.5 12t-4.5 7.5t-6 5.5t-7 1q-10 0 -16.5 -10t-6.5 -24q0 -5 13 -34q11 -20 11 -45q0 -78 -59.5 -119.5t-150.5 -41.5q-36 0 -76 6q-42 -2 -42 -29q0 -34 56 -34q11 0 86.5 3.5t94.5 3.5
q82 0 122.5 -33t40.5 -103zM431 -82q0 33 -20.5 45.5t-63.5 12.5q-38 1 -153 -6q-106 -10 -106 -79q0 -75 142 -75q88 0 144.5 27t56.5 75zM249 536q-59 0 -92 38t-40 108l19 7q31 -68 113 -68q84 0 113 68l19 -7q-13 -146 -132 -146z" />
    <glyph glyph-name="Gdotaccent" unicode="&#x120;" horiz-adv-x="746" 
d="M386 722q-42 0 -66.5 22t-24.5 55t24.5 55t66.5 22t66.5 -22t24.5 -55t-24.5 -55t-66.5 -22zM483 201q0 39 -13 66q-11 21 -35 31q-14 6 -36 8v21h328v-21q-25 -2 -37 -7q-24 -11 -36 -34q-10 -21 -10 -88v-130q-31 -16 -100 -36q-96 -24 -168 -24q-155 0 -248.5 97
t-93.5 253q0 150 101.5 250t244.5 100q124 0 188 -72h7l31 51h16v-229h-21q-29 103 -65 150q-29 38 -59.5 54.5t-82.5 16.5q-53 0 -91 -38q-32 -31 -54.5 -105.5t-22.5 -177.5q0 -229 68 -288q34 -34 83 -34q61 0 87 23q19 21 19 90v73z" />
    <glyph glyph-name="gdotaccent" unicode="&#x121;" 
d="M180 331q0 -76 17 -106.5t48 -30.5q72 0 72 137t-70 137q-67 0 -67 -137zM528 -15q0 -88 -90 -141t-213 -53q-218 0 -218 95q0 72 132 90v6q-42 6 -69.5 32.5t-27.5 68.5q0 43 28 68.5t68 36.5v5q-100 40 -100 138q0 75 61 117.5t149 42.5q105 0 161 -57h7q9 28 33.5 45
t58.5 17q36 0 53.5 -17.5t17.5 -46.5q0 -24 -13.5 -38t-37.5 -14q-36 0 -50 39q-4 9 -5.5 12t-4.5 7.5t-6 5.5t-7 1q-10 0 -16.5 -10t-6.5 -24q0 -5 13 -34q11 -20 11 -45q0 -78 -59.5 -119.5t-150.5 -41.5q-36 0 -76 6q-42 -2 -42 -29q0 -34 56 -34q11 0 86.5 3.5t94.5 3.5
q82 0 122.5 -33t40.5 -103zM431 -82q0 33 -20.5 45.5t-63.5 12.5q-38 1 -153 -6q-106 -10 -106 -79q0 -75 142 -75q88 0 144.5 27t56.5 75zM249 523q-42 0 -66.5 25t-24.5 62t24.5 62t66.5 25t66.5 -25t24.5 -62t-24.5 -62t-66.5 -25z" />
    <glyph glyph-name="uni0122" unicode="&#x122;" horiz-adv-x="746" 
d="M456 -133q0 -105 -156 -152l-7 20q85 27 85 59q0 12 -18 16q-69 15 -69 69q0 31 21.5 52t57.5 21q37 0 61.5 -23.5t24.5 -61.5zM483 201q0 39 -13 66q-11 21 -35 31q-14 6 -36 8v21h328v-21q-25 -2 -37 -7q-24 -11 -36 -34q-10 -21 -10 -88v-130q-31 -16 -100 -36
q-96 -24 -168 -24q-155 0 -248.5 97t-93.5 253q0 150 101.5 250t244.5 100q124 0 188 -72h7l31 51h16v-229h-21q-29 103 -65 150q-29 38 -59.5 54.5t-82.5 16.5q-53 0 -91 -38q-32 -31 -54.5 -105.5t-22.5 -177.5q0 -229 68 -288q34 -34 83 -34q61 0 87 23q19 21 19 90v73z
" />
    <glyph glyph-name="uni0123" unicode="&#x123;" 
d="M167 599q0 55 40 93t108 58l7 -21q-80 -25 -80 -55q0 -12 16 -16q72 -20 72 -71q0 -32 -21 -50t-57 -18q-37 0 -61 21t-24 59zM180 331q0 -76 17 -106.5t48 -30.5q72 0 72 137t-70 137q-67 0 -67 -137zM528 -15q0 -88 -90 -141t-213 -53q-218 0 -218 95q0 72 132 90v6
q-42 6 -69.5 32.5t-27.5 68.5q0 43 28 68.5t68 36.5v5q-100 40 -100 138q0 75 61 117.5t149 42.5q105 0 161 -57h7q9 28 33.5 45t58.5 17q36 0 53.5 -17.5t17.5 -46.5q0 -24 -13.5 -38t-37.5 -14q-36 0 -50 39q-4 9 -5.5 12t-4.5 7.5t-6 5.5t-7 1q-10 0 -16.5 -10t-6.5 -24
q0 -5 13 -34q11 -20 11 -45q0 -78 -59.5 -119.5t-150.5 -41.5q-36 0 -76 6q-42 -2 -42 -29q0 -34 56 -34q11 0 86.5 3.5t94.5 3.5q82 0 122.5 -33t40.5 -103zM431 -82q0 33 -20.5 45.5t-63.5 12.5q-38 1 -153 -6q-106 -10 -106 -79q0 -75 142 -75q88 0 144.5 27t56.5 75z
" />
    <glyph glyph-name="Hcircumflex" unicode="&#x124;" horiz-adv-x="809" 
d="M365 21v-21h-339v21q22 1 37 8q24 10 36 34q11 23 11 83v379q0 64 -11 87q-11 22 -36 32q-14 6 -37 8v21h339v-21q-15 -1 -28 -6q-27 -11 -37 -33q-10 -24 -10 -85v-170h232v170q0 59 -10 84q-8 18 -36 33q-16 6 -28 7v21h339v-21q-24 -2 -39 -8q-23 -9 -34 -32
q-12 -25 -12 -88v-378q0 -63 11 -85q12 -21 35 -32q16 -7 39 -8v-21h-339v21q17 1 30 8q26 12 34 34q10 25 10 83v181h-232v-181q0 -59 10 -83q12 -25 35 -34q13 -7 30 -8zM555 733l-14 -17l-138 64l-136 -64l-14 17l113 131h75l56.5 -65z" />
    <glyph glyph-name="hcircumflex" unicode="&#x125;" horiz-adv-x="627" 
d="M554 128q0 -38 4 -68q4 -25 27 -35q10 -4 31 -6v-19h-275v19q18 2 27 8q16 8 20 38q3 15 3 64v249q0 31 -12 46q-14 15 -39 15q-52 0 -81 -68q-17 -39 -17 -97v-145q0 -41 3 -63q4 -31 21 -39q14 -7 26 -8v-19h-275v19q22 2 31 7q21 10 27 35q4 19 4 68v469q0 37 -4 56
q-3 20 -17 29q-15 9 -40 10v19h219q6 0 6 -7q0 -2 -0.5 -34.5t-0.5 -48.5v-225h6q18 38 45 58q39 36 114 36q69 0 107 -39q40 -37 40 -110v-214zM454 757l-14 -17l-138 64l-136 -64l-14 17l113 131h75l56.5 -65z" />
    <glyph glyph-name="Hbar" unicode="&#x126;" horiz-adv-x="813" 
d="M21 464v31h91v30q0 64 -11 87q-11 22 -36 32q-14 6 -37 8v21h339v-21q-15 -1 -28 -6q-27 -11 -37 -33q-10 -24 -10 -85v-33h232v33q0 59 -10 84q-8 18 -36 33q-16 6 -28 7v21h339v-21q-24 -2 -39 -8q-22 -9 -34 -32q-12 -25 -12 -88v-29h88v-31h-88v-318q0 -63 11 -85
q12 -21 35 -32q16 -7 39 -8v-21h-339v21q17 1 30 8q26 12 34 34q10 25 10 83v181h-232v-181q0 -59 10 -83q12 -25 35 -34q13 -7 30 -8v-21h-339v21q22 1 37 8q24 10 36 34q11 23 11 83v318h-91zM292 358h232v106h-232v-106z" />
    <glyph glyph-name="hbar" unicode="&#x127;" horiz-adv-x="627" 
d="M9 572v30h70q0 35 -4 52q-3 20 -17 29q-15 9 -40 10v19h219q6 0 6 -7q0 -2 -0.5 -34.5t-0.5 -48.5v-20h109v-30h-109v-175h6q18 38 45 58q39 36 114 36q69 0 107 -39q40 -37 40 -110v-214q0 -38 4 -68q4 -25 27 -35q10 -4 31 -6v-19h-275v19q18 2 27 8q16 8 20 38
q3 15 3 64v249q0 31 -12 46q-14 15 -39 15q-52 0 -81 -68q-17 -39 -17 -97v-145q0 -41 3 -63q4 -31 21 -39q14 -7 26 -8v-19h-275v19q22 2 31 7q21 10 27 35q4 19 4 68v443h-70z" />
    <glyph glyph-name="Itilde" unicode="&#x128;" horiz-adv-x="400" 
d="M290 527v-381q0 -65 10 -85q14 -23 37 -32q17 -7 38 -8v-21h-349v21q20 1 38 8q25 12 35 34q11 23 11 83v381q0 60 -11 86q-11 24 -34 31q-16 6 -39 8v21h349v-21q-23 -1 -39 -8q-25 -9 -36 -31q-10 -24 -10 -86zM374 853q-10 -49 -40.5 -86t-74.5 -37q-27 0 -71 15
t-65 15q-44 0 -61 -46l-24 4q12 55 40 90.5t72 35.5q26 0 71 -15.5t66 -15.5q45 0 64 44z" />
    <glyph glyph-name="itilde" unicode="&#x129;" horiz-adv-x="318" 
d="M242 372v-242q0 -52 5 -70q7 -25 26 -34q9 -5 31 -7v-19h-286v19q18 1 31 7q20 10 26 34q4 20 4 70v234q0 38 -4 55q-4 22 -19 30q-13 9 -39 12v18h221q6 0 6 -7q0 -11 -1 -42t-1 -58zM298 681q-10 -51 -38.5 -87t-71.5 -36q-28 0 -70 16t-59 16q-37 0 -56 -47l-23 5
q26 125 107 125q25 0 67 -16t62 -16q40 0 59 45z" />
    <glyph glyph-name="Imacron" unicode="&#x12a;" horiz-adv-x="400" 
d="M290 527v-381q0 -65 10 -85q14 -23 37 -32q17 -7 38 -8v-21h-349v21q20 1 38 8q25 12 35 34q11 23 11 83v381q0 60 -11 86q-11 24 -34 31q-16 6 -39 8v21h349v-21q-23 -1 -39 -8q-25 -9 -36 -31q-10 -24 -10 -86zM346 732h-285v68h285v-68z" />
    <glyph glyph-name="imacron" unicode="&#x12b;" horiz-adv-x="318" 
d="M242 372v-242q0 -52 5 -70q7 -25 26 -34q9 -5 31 -7v-19h-286v19q18 1 31 7q20 10 26 34q4 20 4 70v234q0 38 -4 55q-4 22 -19 30q-13 9 -39 12v18h221q6 0 6 -7q0 -11 -1 -42t-1 -58zM258 569h-253v62h253v-62z" />
    <glyph glyph-name="Ibreve" unicode="&#x12c;" horiz-adv-x="400" 
d="M290 527v-381q0 -65 10 -85q14 -23 37 -32q17 -7 38 -8v-21h-349v21q20 1 38 8q25 12 35 34q11 23 11 83v381q0 60 -11 86q-11 24 -34 31q-16 6 -39 8v21h349v-21q-23 -1 -39 -8q-25 -9 -36 -31q-10 -24 -10 -86zM203 717q-59 0 -94.5 38t-43.5 107l18 7q34 -65 119 -65
q88 0 119 65l20 -7q-8 -69 -43.5 -107t-94.5 -38z" />
    <glyph glyph-name="ibreve" unicode="&#x12d;" horiz-adv-x="318" 
d="M242 372v-242q0 -52 5 -70q7 -25 26 -34q9 -5 31 -7v-19h-286v19q18 1 31 7q20 10 26 34q4 20 4 70v234q0 38 -4 55q-4 22 -19 30q-13 9 -39 12v18h221q6 0 6 -7q0 -11 -1 -42t-1 -58zM137 536q-59 0 -92 38t-40 108l19 7q31 -68 113 -68q84 0 113 68l19 -7
q-13 -146 -132 -146z" />
    <glyph glyph-name="Iogonek" unicode="&#x12e;" horiz-adv-x="407" 
d="M262 0h-236v21q23 2 37 7q25 9 38 28q13 27 13 102v353q0 80 -12 104q-13 21 -40 30q-13 5 -36 7v21h355v-21q-22 -2 -38 -7q-25 -8 -38 -30q-12 -27 -12 -104v-353q0 -79 14 -102q12 -20 36 -28q15 -5 38 -7v-21h-93q-51 -48 -51 -121q0 -66 80 -71v-21q-204 -9 -204 89
q0 37 32.5 64t116.5 60z" />
    <glyph glyph-name="iogonek" unicode="&#x12f;" horiz-adv-x="308" 
d="M156 538q-40 0 -64.5 21.5t-24.5 56.5t24.5 56.5t64.5 21.5t65 -22t25 -56q0 -35 -24.5 -56.5t-65.5 -21.5zM220 0h-207v19q19 1 32 7q20 9 26 34q4 21 4 70v231q0 36 -4 52q-4 23 -18 31q-11 8 -38 13v20h216q8 0 8 -9q0 -10 -0.5 -41.5t-0.5 -58.5v-238q0 -55 4 -70
q7 -24 26 -34q9 -5 32 -7v-19h-53q-52 -47 -52 -121q0 -66 80 -71v-21q-204 -9 -204 89q0 37 33 64t116 60z" />
    <glyph glyph-name="Idotaccent" unicode="&#x130;" horiz-adv-x="400" 
d="M290 527v-381q0 -65 10 -85q14 -23 37 -32q17 -7 38 -8v-21h-349v21q20 1 38 8q25 12 35 34q11 23 11 83v381q0 60 -11 86q-11 24 -34 31q-16 6 -39 8v21h349v-21q-23 -1 -39 -8q-25 -9 -36 -31q-10 -24 -10 -86zM206 722q-42 0 -66.5 22t-24.5 55t24.5 55t66.5 22
t66.5 -22t24.5 -55t-24.5 -55t-66.5 -22z" />
    <glyph glyph-name="dotlessi" unicode="&#x131;" horiz-adv-x="318" 
d="M242 372v-242q0 -52 5 -70q7 -25 26 -34q9 -5 31 -7v-19h-286v19q18 1 31 7q20 10 26 34q4 20 4 70v234q0 38 -4 55q-4 22 -19 30q-13 9 -39 12v18h221q6 0 6 -7q0 -11 -1 -42t-1 -58z" />
    <glyph glyph-name="IJ" unicode="&#x132;" horiz-adv-x="912" 
d="M290 527v-381q0 -65 10 -85q14 -23 37 -32q17 -7 38 -8v-21h-349v21q20 1 38 8q25 12 35 34q11 23 11 83v381q0 60 -11 86q-11 24 -34 31q-16 6 -39 8v21h349v-21q-23 -1 -39 -8q-25 -9 -36 -31q-10 -24 -10 -86zM634 521q0 68 -11 91q-10 22 -35 33q-15 6 -38 7v21h348
v-21q-24 -2 -37 -8q-25 -10 -36 -33q-12 -24 -12 -89v-278q0 -141 -69 -203q-60 -54 -173 -54q-91 0 -137 34q-50 35 -50 92q0 38 23.5 62t60.5 24q31 0 51 -16.5t25 -45.5q6 -31 -2 -64q-5 -23 -4 -34q1 -9 12.5 -15t25.5 -6q31 0 47 29q11 25 11 91v383z" />
    <glyph glyph-name="ij" unicode="&#x133;" horiz-adv-x="593" 
d="M159 531q-42 0 -66.5 25t-24.5 62t24.5 62t66.5 25t66.5 -25t24.5 -62t-24.5 -62t-66.5 -25zM241 378v-248q0 -47 5 -72q5 -22 26 -32q9 -5 31 -7v-19h-286v19q22 2 31 7q22 11 26 34q4 20 4 70v234q0 36 -3 55q-6 22 -19 30q-15 9 -40 12v18h220q7 0 7 -7q0 -11 -1 -39
t-1 -55zM451 531q-42 0 -66.5 25t-24.5 62t24.5 62t66.5 25t66.5 -25t24.5 -62t-24.5 -62t-66.5 -25zM372 -69v434q0 36 -4 55q-3 21 -18 30q-17 8 -40 11v18h219q7 0 7 -7q0 -11 -0.5 -42t-0.5 -58v-333q0 -82 -22.5 -127.5t-59.5 -74.5q-62 -46 -145 -46q-56 0 -97 20
q-55 25 -55 83q0 30 20.5 49t53.5 19q36 0 55 -17.5t19 -46.5q0 -20 -12 -44l-5 -18q0 -21 30 -21t42 29q13 26 13 87z" />
    <glyph glyph-name="Jcircumflex" unicode="&#x134;" horiz-adv-x="530" 
d="M491 733l-14 -17l-138 64l-136 -64l-14 17l113 131h75l56.5 -65zM252 521q0 68 -11 91q-10 22 -35 33q-15 6 -38 7v21h348v-21q-24 -2 -37 -8q-25 -10 -36 -33q-12 -24 -12 -89v-278q0 -141 -69 -203q-60 -54 -173 -54q-91 0 -137 34q-50 35 -50 92q0 38 23.5 62t60.5 24
q31 0 51 -16.5t25 -45.5q6 -31 -2 -64q-5 -23 -4 -34q1 -9 12.5 -15t25.5 -6q31 0 47 29q11 25 11 91v383z" />
    <glyph glyph-name="jcircumflex" unicode="&#x135;" horiz-adv-x="307" 
d="M79 -53v412q0 39 -3 53q-4 20 -19 30q-16 9 -38 12v19h218q6 0 6 -6q0 -11 -0.5 -42t-0.5 -58v-331q0 -82 -22.5 -125.5t-60.5 -73.5q-63 -46 -146 -46q-63 0 -100 18q-57 26 -57 81q0 31 21 49.5t54 18.5q36 0 55.5 -18t19.5 -47q0 -17 -10 -39q-4 -11 -4 -20
q0 -21 29 -21t45 40q13 32 13 94zM284 542l-17 -16l-131 85l-130 -85l-19 16l35 48l51.5 70t27.5 39h71z" />
    <glyph glyph-name="uni0136" unicode="&#x136;" horiz-adv-x="738" 
d="M488 -129q0 -105 -156 -152l-7 20q85 27 85 59q0 12 -18 16q-69 15 -69 69q0 31 21.5 52t57.5 21q37 0 61.5 -23.5t24.5 -61.5zM373 21v-21h-349v21q25 2 37 8q25 10 36 33q11 26 11 87v379q0 61 -11 84q-12 22 -35 33q-12 5 -38 7v21h349v-21q-28 -2 -39 -8
q-26 -12 -35 -32q-11 -26 -11 -84v-190l165 179q58 65 58 93q0 26 -27 36q-18 5 -38 6v21h245v-21q-39 -5 -79 -29q-46 -28 -104 -91l-121 -129v-5q116 -5 169 -57q61 -55 80 -170q7 -43 16 -70.5t16.5 -38t20.5 -20.5q24 -19 58 -21v-21h-245q-17 17 -31.5 57.5t-19.5 93.5
q-1 7 -2 23t-1.5 22.5t-2 19t-2 19t-2 16t-3 15.5t-3.5 13t-4.5 12.5t-5.5 10.5q-14 23 -27.5 32.5t-36.5 9.5q-30 0 -52 -25l-21 -24v-149q0 -61 11 -83q13 -24 36 -34q14 -6 38 -8z" />
    <glyph glyph-name="uni0137" unicode="&#x137;" horiz-adv-x="613" 
d="M412 -113q0 -105 -156 -152l-7 20q85 27 85 59q0 12 -18 16q-69 15 -69 69q0 31 21.5 52t57.5 21q37 0 61.5 -23.5t24.5 -61.5zM304 19v-19h-284v19q18 2 28 7q21 10 27 33q4 18 4 68v473q0 36 -3 53q-4 21 -19 31q-13 7 -40 9v19h220q7 0 7 -8q-2 -50 -2 -102v-353
l106 99q51 46 51 74q0 21 -22 30q-10 5 -37 9v18h224v-18q-30 -8 -65 -26q-31 -17 -88 -67l-63 -55q136 -15 161 -107q5 -15 13.5 -46.5t12.5 -43.5t11 -30t16 -32q19 -30 55 -36v-18h-205q-16 14 -26.5 46.5t-25.5 109.5q-9 44 -23.5 67.5t-46.5 33.5l-48 -42v-88
q0 -48 4 -67q7 -25 26 -34q12 -5 32 -7z" />
    <glyph glyph-name="Lacute" unicode="&#x139;" horiz-adv-x="637" 
d="M26 0v21q23 2 39 8q26 11 35 34q11 23 11 80v387q0 57 -12 82q-10 23 -36 33q-10 5 -37 7v21h347v-21q-22 -1 -37 -7q-26 -12 -35 -33q-12 -25 -12 -82v-390q0 -69 18 -93q16 -20 53 -20h28q31 0 50 10.5t41 35.5q53 60 117 180h21l-23 -253h-568zM78 740l119 97
q47 37 83 37q26 0 42.5 -16.5t16.5 -41.5q0 -57 -84 -70l-170 -26z" />
    <glyph glyph-name="lacute" unicode="&#x13a;" horiz-adv-x="318" 
d="M241 601v-474q0 -47 4 -67q7 -26 26 -34q11 -5 32 -7v-19h-285v19q19 1 29 7q21 11 27 33q4 17 4 68v473q0 41 -4 53q-4 22 -19 31q-10 7 -39 9v19h219q8 0 8 -8q0 -11 -1 -44.5t-1 -58.5zM15 764l119 97q47 37 83 37q26 0 42.5 -16.5t16.5 -41.5q0 -57 -84 -70l-170 -26
z" />
    <glyph glyph-name="uni013B" unicode="&#x13b;" horiz-adv-x="637" 
d="M417 -129q0 -105 -156 -152l-7 20q85 27 85 59q0 12 -18 16q-69 15 -69 69q0 31 21.5 52t57.5 21q37 0 61.5 -23.5t24.5 -61.5zM26 0v21q23 2 39 8q26 11 35 34q11 23 11 80v387q0 57 -12 82q-10 23 -36 33q-10 5 -37 7v21h347v-21q-22 -1 -37 -7q-26 -12 -35 -33
q-12 -25 -12 -82v-390q0 -69 18 -93q16 -20 53 -20h28q31 0 50 10.5t41 35.5q53 60 117 180h21l-23 -253h-568z" />
    <glyph glyph-name="uni013C" unicode="&#x13c;" horiz-adv-x="317" 
d="M238 -113q0 -105 -156 -152l-7 20q85 27 85 59q0 12 -18 16q-69 15 -69 69q0 31 21.5 52t57.5 21q37 0 61.5 -23.5t24.5 -61.5zM242 601v-474q0 -47 4 -67q7 -26 26 -34q11 -5 32 -7v-19h-285v19q19 1 29 7q21 11 27 33q4 17 4 68v473q0 41 -4 53q-4 22 -19 31
q-10 7 -39 9v19h219q8 0 8 -8q0 -11 -1 -44.5t-1 -58.5z" />
    <glyph glyph-name="Lcaron" unicode="&#x13d;" horiz-adv-x="637" 
d="M442 504l20 187h109l-33 -61l-37.5 -69l-31.5 -57h-27zM26 0v21q23 2 39 8q26 11 35 34q11 23 11 80v387q0 57 -12 82q-10 23 -36 33q-10 5 -37 7v21h347v-21q-22 -1 -37 -7q-26 -12 -35 -33q-12 -25 -12 -82v-390q0 -69 18 -93q16 -20 53 -20h28q31 0 50 10.5t41 35.5
q53 60 117 180h21l-23 -253h-568z" />
    <glyph glyph-name="lcaron" unicode="&#x13e;" horiz-adv-x="384" 
d="M287 535l20 187h109l-102 -187h-27zM242 601v-474q0 -47 4 -67q7 -26 26 -34q11 -5 32 -7v-19h-285v19q19 1 29 7q21 11 27 33q4 17 4 68v473q0 41 -4 53q-4 22 -19 31q-10 7 -39 9v19h219q8 0 8 -8q0 -11 -1 -44.5t-1 -58.5z" />
    <glyph glyph-name="Ldot" unicode="&#x13f;" horiz-adv-x="624" 
d="M396 367q0 37 24.5 62t66.5 25t66.5 -25t24.5 -62t-24.5 -62t-66.5 -25t-66.5 25t-24.5 62zM26 0v21q23 2 39 8q26 11 35 34q11 23 11 80v387q0 57 -12 82q-10 23 -36 33q-10 5 -37 7v21h347v-21q-22 -1 -37 -7q-26 -12 -35 -33q-12 -25 -12 -82v-390q0 -69 18 -93
q16 -20 53 -20h28q31 0 50 10.5t41 35.5q53 60 117 180h21l-23 -253h-568z" />
    <glyph glyph-name="ldot" unicode="&#x140;" horiz-adv-x="444" 
d="M241 601v-474q0 -47 4 -67q7 -26 26 -34q11 -5 32 -7v-19h-285v19q19 1 29 7q21 11 27 33q4 17 4 68v473q0 41 -4 53q-4 22 -19 31q-10 7 -39 9v19h219q8 0 8 -8q0 -11 -1 -44.5t-1 -58.5zM372 248q-39 0 -61.5 24.5t-22.5 59.5t22.5 59t61.5 24q38 0 60.5 -24t22.5 -59
t-22.5 -59.5t-60.5 -24.5z" />
    <glyph glyph-name="Lslash" unicode="&#x141;" horiz-adv-x="624" 
d="M37 228v31l74 29v242q0 57 -12 82q-10 23 -36 33q-10 5 -37 7v21h347v-21q-22 -1 -37 -7q-26 -12 -35 -33q-12 -25 -12 -82v-171l183 72v-31l-183 -72v-188q0 -69 18 -93q16 -20 53 -20h28q31 0 50 10.5t41 35.5q53 60 117 180h21l-23 -253h-568v21q23 2 39 8
q26 11 35 34q11 23 11 80v114z" />
    <glyph glyph-name="lslash" unicode="&#x142;" horiz-adv-x="320" 
d="M240 601v-185l68 34v-32l-68 -34v-257q0 -47 4 -67q7 -26 26 -34q11 -5 32 -7v-19h-285v19q19 1 29 7q21 11 27 33q4 17 4 68v176l-68 -33v32l68 33v265q0 41 -4 53q-4 22 -19 31q-10 7 -39 9v19h219q8 0 8 -8q0 -11 -1 -44.5t-1 -58.5z" />
    <glyph glyph-name="Nacute" unicode="&#x143;" horiz-adv-x="739" 
d="M635 -4h-68l-398 543h-7v-380q0 -68 17 -97q14 -25 41 -35q17 -5 36 -6v-21h-224v21q17 2 32 6q26 7 43 34q21 32 21 98v305q0 90 -21 132q-16 32 -50 48q-12 6 -34 9v20h273l300 -414h5v250q0 74 -20 105q-15 22 -44 32q-12 5 -39 7v20h235v-20q-27 -4 -40 -8
q-26 -8 -40 -34q-18 -33 -18 -102v-513zM285 740l119 97q47 37 83 37q26 0 42.5 -16.5t16.5 -41.5q0 -57 -84 -70l-170 -26z" />
    <glyph glyph-name="nacute" unicode="&#x144;" horiz-adv-x="627" 
d="M555 128q0 -48 4 -67q5 -25 26 -34q16 -7 31 -8v-19h-274v19q16 2 27 8q14 6 19 32q3 14 3 70v249q0 34 -14 49q-12 12 -36 12q-56 0 -81 -68q-17 -42 -17 -104v-138q0 -51 3 -69q5 -24 21 -33q13 -7 25 -8v-19h-275v19q22 2 31 7q22 9 28 35q4 17 4 70v233q0 41 -3 55
q-4 20 -19 29q-19 11 -39 13v18h216q7 0 7 -7q0 -18 -2 -78h6q20 39 49 62q42 35 117 35q65 0 103 -39q40 -40 40 -109v-215zM218 548l89 111q2 3 9 10.5t9.5 10t8.5 9t9 9t9 7t10 6.5t10 4.5t11.5 3.5t11.5 1q25 0 41 -16.5t16 -42.5q0 -49 -68 -72l-155 -58z" />
    <glyph glyph-name="uni0145" unicode="&#x145;" horiz-adv-x="739" 
d="M479 -129q0 -105 -156 -152l-7 20q85 27 85 59q0 12 -18 16q-69 15 -69 69q0 31 21.5 52t57.5 21q37 0 61.5 -23.5t24.5 -61.5zM635 -4h-68l-398 543h-7v-380q0 -68 17 -97q14 -25 41 -35q17 -5 36 -6v-21h-224v21q17 2 32 6q26 7 43 34q21 32 21 98v305q0 90 -21 132
q-16 32 -50 48q-12 6 -34 9v20h273l300 -414h5v250q0 74 -20 105q-15 22 -44 32q-12 5 -39 7v20h235v-20q-27 -4 -40 -8q-26 -8 -40 -34q-18 -33 -18 -102v-513z" />
    <glyph glyph-name="uni0146" unicode="&#x146;" horiz-adv-x="627" 
d="M396 -113q0 -105 -156 -152l-7 20q85 27 85 59q0 12 -18 16q-69 15 -69 69q0 31 21.5 52t57.5 21q37 0 61.5 -23.5t24.5 -61.5zM555 128q0 -48 4 -67q5 -25 26 -34q16 -7 31 -8v-19h-274v19q16 2 27 8q14 6 19 32q3 14 3 70v249q0 34 -14 49q-12 12 -36 12q-56 0 -81 -68
q-17 -42 -17 -104v-138q0 -51 3 -69q5 -24 21 -33q13 -7 25 -8v-19h-275v19q22 2 31 7q22 9 28 35q4 17 4 70v233q0 41 -3 55q-4 20 -19 29q-19 11 -39 13v18h216q7 0 7 -7q0 -18 -2 -78h6q20 39 49 62q42 35 117 35q65 0 103 -39q40 -40 40 -109v-215z" />
    <glyph glyph-name="Ncaron" unicode="&#x147;" horiz-adv-x="739" 
d="M536 852q-112 -128 -115 -131h-74l-113 131l14 16l137 -64l137 64zM635 -4h-68l-398 543h-7v-380q0 -68 17 -97q14 -25 41 -35q17 -5 36 -6v-21h-224v21q17 2 32 6q26 7 43 34q21 32 21 98v305q0 90 -21 132q-16 32 -50 48q-12 6 -34 9v20h273l300 -414h5v250
q0 74 -20 105q-15 22 -44 32q-12 5 -39 7v20h235v-20q-27 -4 -40 -8q-26 -8 -40 -34q-18 -33 -18 -102v-513z" />
    <glyph glyph-name="ncaron" unicode="&#x148;" horiz-adv-x="627" 
d="M459 690l-34.5 -48.5l-51 -70.5t-27.5 -38h-71q-4 6 -27.5 38.5l-51 70.5l-34.5 48l19 15l130 -88l129 88zM555 128q0 -48 4 -67q5 -25 26 -34q16 -7 31 -8v-19h-274v19q16 2 27 8q14 6 19 32q3 14 3 70v249q0 34 -14 49q-12 12 -36 12q-56 0 -81 -68q-17 -42 -17 -104
v-138q0 -51 3 -69q5 -24 21 -33q13 -7 25 -8v-19h-275v19q22 2 31 7q22 9 28 35q4 17 4 70v233q0 41 -3 55q-4 20 -19 29q-19 11 -39 13v18h216q7 0 7 -7q0 -18 -2 -78h6q20 39 49 62q42 35 117 35q65 0 103 -39q40 -40 40 -109v-215z" />
    <glyph glyph-name="napostrophe" unicode="&#x149;" horiz-adv-x="705" 
d="M121 609q0 -135 -161 -187l-8 23q51 20 73.5 37.5t22.5 38.5q0 15 -25 21q-81 19 -81 84q0 37 26 57.5t62 20.5q40 0 65.5 -26t25.5 -69zM646 128q0 -48 4 -67q5 -25 26 -34q16 -7 31 -8v-19h-274v19q16 2 27 8q14 6 19 32q3 14 3 70v249q0 34 -14 49q-12 12 -36 12
q-56 0 -81 -68q-17 -42 -17 -104v-138q0 -51 3 -69q5 -24 21 -33q13 -7 25 -8v-19h-275v19q22 2 31 7q22 9 28 35q4 17 4 70v233q0 41 -3 55q-4 20 -19 29q-19 11 -39 13v18h216q7 0 7 -7q0 -18 -2 -78h6q20 39 49 62q42 35 117 35q65 0 103 -39q40 -40 40 -109v-215z" />
    <glyph glyph-name="Eng" unicode="&#x14a;" horiz-adv-x="737" 
d="M480 -203q-81 0 -129 35q-49 36 -49 95q0 40 24.5 65t62.5 25q35 0 59 -21.5t25 -54.5q2 -25 -6 -55q-10 -30 -8 -40q3 -19 35 -19q41 0 72 34q35 39 35 111v18l-432 549h-7v-380q0 -68 17 -97q15 -27 41 -35q17 -5 36 -6v-21h-224v21q17 2 32 6q27 7 44 34q20 31 20 98
v305q0 90 -21 132q-17 34 -50 48q-12 6 -34 9v20h273l300 -400h5v236q0 74 -20 105q-16 24 -44 32q-12 5 -39 7v20h235v-20q-27 -4 -40 -8q-27 -10 -40 -34q-18 -33 -18 -102v-539q0 -79 -44 -128q-43 -45 -111 -45z" />
    <glyph glyph-name="eng" unicode="&#x14b;" horiz-adv-x="605" 
d="M391 -69v445q0 33 -14 50q-12 12 -36 12q-53 0 -81 -66q-17 -40 -17 -106v-137q0 -51 3 -69q4 -24 22 -33q16 -7 28 -8v-19h-279v19q22 2 31 7q22 9 28 35q4 17 4 70v233q0 41 -3 55q-5 21 -19 29q-16 10 -39 13v18h216q7 0 7 -7q0 -5 -1 -33.5t-1 -44.5h6q20 40 47 61
q42 35 119 35q66 0 104 -41q39 -39 39 -113v-297q0 -82 -22.5 -127.5t-59.5 -74.5q-60 -46 -145 -46q-56 0 -97 20q-56 26 -56 83q0 31 21 49.5t54 18.5q36 0 54.5 -17t18.5 -46q0 -23 -11 -45q-5 -13 -5 -19q0 -20 30 -20t42 29q12 24 12 87z" />
    <glyph glyph-name="Omacron" unicode="&#x14c;" horiz-adv-x="751" 
d="M516 732h-285v68h285v-68zM375 687q147 0 245 -97t98 -253t-98 -253t-245 -97t-244.5 97t-97.5 253t97.5 253t244.5 97zM375 15q51 0 85 33q66 58 66 289q0 227 -66 289q-35 32 -85 32q-52 0 -86 -33q-66 -62 -66 -288q0 -228 67 -289q34 -33 85 -33z" />
    <glyph glyph-name="omacron" unicode="&#x14d;" 
d="M409 569h-256v62h256v-62zM24 241q0 113 73 181.5t186 68.5t185.5 -68.5t72.5 -181.5t-72.5 -181.5t-185.5 -68.5t-186 68.5t-73 181.5zM194 241q0 -172 39 -207q19 -18 50 -18q29 0 49 18q39 34 39 207t-39 207q-20 18 -49 18q-31 0 -50 -18q-39 -34 -39 -207z" />
    <glyph glyph-name="Obreve" unicode="&#x14e;" horiz-adv-x="751" 
d="M374 717q-59 0 -94.5 38t-43.5 107l18 7q34 -65 119 -65q88 0 119 65l20 -7q-8 -69 -43.5 -107t-94.5 -38zM375 687q147 0 245 -97t98 -253t-98 -253t-245 -97t-244.5 97t-97.5 253t97.5 253t244.5 97zM375 15q51 0 85 33q66 58 66 289q0 227 -66 289q-35 32 -85 32
q-52 0 -86 -33q-66 -62 -66 -288q0 -228 67 -289q34 -33 85 -33z" />
    <glyph glyph-name="obreve" unicode="&#x14f;" 
d="M24 241q0 113 73 181.5t186 68.5t185.5 -68.5t72.5 -181.5t-72.5 -181.5t-185.5 -68.5t-186 68.5t-73 181.5zM194 241q0 -172 39 -207q19 -18 50 -18q29 0 49 18q39 34 39 207t-39 207q-20 18 -49 18q-31 0 -50 -18q-39 -34 -39 -207zM280 536q-59 0 -92 38t-40 108l19 7
q31 -68 113 -68q84 0 113 68l19 -7q-13 -146 -132 -146z" />
    <glyph glyph-name="Ohungarumlaut" unicode="&#x150;" horiz-adv-x="751" 
d="M567 910q22 0 37 -14.5t15 -36.5q0 -42 -53 -74q-19 -13 -114 -68h-22q8 15 21 43l26 57t15 32q16 30 32.5 45.5t42.5 15.5zM378 910q22 0 37 -14.5t15 -36.5q0 -42 -53 -74q-22 -16 -115 -68h-21q8 16 21 44.5l26 56.5t15 31q32 61 75 61zM375 687q147 0 245 -97
t98 -253t-98 -253t-245 -97t-244.5 97t-97.5 253t97.5 253t244.5 97zM375 15q51 0 85 33q66 58 66 289q0 227 -66 289q-35 32 -85 32q-52 0 -86 -33q-66 -62 -66 -288q0 -228 67 -289q34 -33 85 -33z" />
    <glyph glyph-name="ohungarumlaut" unicode="&#x151;" 
d="M462 724q21 0 35.5 -14t14.5 -35q0 -25 -13 -42t-42 -35q-2 -2 -25.5 -18l-48.5 -33.5t-41 -26.5l-15 11q10 19 34 72l27 60q29 61 74 61zM278 724q21 0 35.5 -14t14.5 -35q0 -26 -13 -42t-42 -35q-4 -2 -49.5 -34t-65.5 -44l-16 11q10 19 34.5 72t27.5 60q27 61 74 61z
M24 241q0 113 73 181.5t186 68.5t185.5 -68.5t72.5 -181.5t-72.5 -181.5t-185.5 -68.5t-186 68.5t-73 181.5zM194 241q0 -172 39 -207q19 -18 50 -18q29 0 49 18q39 34 39 207t-39 207q-20 18 -49 18q-31 0 -50 -18q-39 -34 -39 -207z" />
    <glyph glyph-name="OE" unicode="&#x152;" horiz-adv-x="1031" 
d="M368 647q-49 0 -81 -29q-64 -55 -64 -281q0 -122 15 -188t48 -94q31 -28 80 -28q50 0 72 19.5t32.5 84t10.5 205.5q0 146 -10.5 210.5t-31.5 82.5t-71 18zM991 244l-20 -244h-603q-153 0 -244.5 90t-91.5 247q0 156 91.5 245.5t244.5 90.5h586l24 -209h-20
q-56 91 -107 138q-24 23 -46.5 33.5t-59.5 10.5h-31q-29 0 -42 -14q-12 -16 -12 -51v-218h43q52 0 80 29q30 30 48 90h18v-267h-18q-16 57 -48 93q-27 27 -80 27h-43v-190q0 -78 16 -96q17 -21 59 -21h24q33 0 54 11t51 43q56 62 108 162h19z" />
    <glyph glyph-name="oe" unicode="&#x153;" horiz-adv-x="859" 
d="M836 145q-50 -154 -212 -154q-98 0 -161 67l-7 8h-6q-60 -75 -168 -75q-112 0 -182.5 68t-70.5 182q0 113 71 181.5t182 68.5q108 0 167 -73h6q60 73 162 73q105 0 160 -58.5t55 -134.5q0 -26 -3 -41h-293v-8q0 -81 7 -124.5t27 -64.5q30 -33 82 -33q121 0 164 127z
M198 241q0 -98 8 -144.5t28 -63.5q18 -17 48 -17t48 17q19 17 27 63.5t8 144.5t-8 144.5t-27 63.5q-18 17 -48 17t-48 -17q-20 -17 -28 -63.5t-8 -144.5zM567 440q-27 -32 -31 -157h121q15 0 21 8t6 30v41.5t-1 28.5t-4.5 30.5t-8.5 19.5q-18 24 -52 24q-31 0 -51 -25z" />
    <glyph glyph-name="Racute" unicode="&#x154;" horiz-adv-x="749" 
d="M375 21v-21h-350v21q22 1 38 8q25 9 36 33t11 84v379q0 64 -10 90q-11 21 -37 32q-12 4 -38 6v20h368q253 0 253 -167q0 -93 -96 -137q-41 -21 -92 -29v-4q66 -7 106 -28q61 -31 81 -126q21 -109 49 -139q21 -19 54 -22v-21h-239q-31 42 -43 142q-1 10 -4.5 39.5l-4.5 38
t-5 26.5t-9.5 28.5t-13.5 20.5q-24 31 -85 31h-54v-180q0 -59 10 -84q11 -22 37 -33q14 -6 38 -8zM366 646h-44q-16 0 -24 -9q-8 -8 -8 -32v-251h57q42 0 63 8.5t34 29.5q23 40 23 120q0 76 -24.5 105t-76.5 29zM216 740l119 97q47 37 83 37q26 0 42.5 -16.5t16.5 -41.5
q0 -57 -84 -70l-170 -26z" />
    <glyph glyph-name="racute" unicode="&#x155;" horiz-adv-x="476" 
d="M244 376q18 57 54 86q33 29 85 29q44 0 72 -28q21 -21 21 -59q0 -35 -20 -56.5t-52 -21.5q-54 0 -72 48l-5 13t-5 12.5t-4.5 9.5t-5.5 7t-7 2q-17 0 -37 -33.5t-24 -75.5q-3 -30 -3 -81v-95q0 -54 7 -75q7 -26 23 -32q17 -6 34 -7v-19h-290v19q21 2 33 6q19 11 26 35
q4 21 4 72v232q0 34 -3 54q-5 23 -19 31q-15 9 -42 12v18h220q7 0 7 -7q0 -6 -1.5 -45.5t-1.5 -50.5h6zM152 548l89 111q2 3 9 10.5t9.5 10t8.5 9t9 9t9 7t10 6.5t10 4.5t11.5 3.5t11.5 1q25 0 41 -16.5t16 -42.5q0 -49 -68 -72l-155 -58z" />
    <glyph glyph-name="uni0156" unicode="&#x156;" horiz-adv-x="749" 
d="M487 -129q0 -105 -156 -152l-7 20q85 27 85 59q0 12 -18 16q-69 15 -69 69q0 31 21.5 52t57.5 21q37 0 61.5 -23.5t24.5 -61.5zM366 646h-44q-16 0 -24 -9q-8 -8 -8 -32v-251h57q42 0 63 8.5t34 29.5q23 40 23 120q0 76 -24.5 105t-76.5 29zM375 21v-21h-350v21
q22 1 38 8q25 9 36 33t11 84v379q0 64 -10 90q-11 21 -37 32q-12 4 -38 6v20h368q253 0 253 -167q0 -93 -96 -137q-41 -21 -92 -29v-4q66 -7 106 -28q61 -31 81 -126q21 -109 49 -139q21 -19 54 -22v-21h-239q-31 42 -43 142q-1 10 -4.5 39.5l-4.5 38t-5 26.5t-9.5 28.5
t-13.5 20.5q-24 31 -85 31h-54v-180q0 -59 10 -84q11 -22 37 -33q14 -6 38 -8z" />
    <glyph glyph-name="uni0157" unicode="&#x157;" horiz-adv-x="476" 
d="M235 -113q0 -105 -156 -152l-7 20q85 27 85 59q0 12 -18 16q-69 15 -69 69q0 31 21.5 52t57.5 21q37 0 61.5 -23.5t24.5 -61.5zM244 376q18 57 54 86q33 29 85 29q44 0 72 -28q21 -21 21 -59q0 -35 -20 -56.5t-52 -21.5q-54 0 -72 48l-5 13t-5 12.5t-4.5 9.5t-5.5 7t-7 2
q-17 0 -37 -33.5t-24 -75.5q-3 -30 -3 -81v-95q0 -54 7 -75q7 -26 23 -32q17 -6 34 -7v-19h-290v19q21 2 33 6q19 11 26 35q4 21 4 72v232q0 34 -3 54q-5 23 -19 31q-15 9 -42 12v18h220q7 0 7 -7q0 -6 -1.5 -45.5t-1.5 -50.5h6z" />
    <glyph glyph-name="Rcaron" unicode="&#x158;" horiz-adv-x="749" 
d="M494 852q-112 -128 -115 -131h-74l-113 131l14 16l137 -64l137 64zM366 646h-44q-16 0 -24 -9q-8 -8 -8 -32v-251h57q42 0 63 8.5t34 29.5q23 40 23 120q0 76 -24.5 105t-76.5 29zM375 21v-21h-350v21q22 1 38 8q25 9 36 33t11 84v379q0 64 -10 90q-11 21 -37 32
q-12 4 -38 6v20h368q253 0 253 -167q0 -93 -96 -137q-41 -21 -92 -29v-4q66 -7 106 -28q61 -31 81 -126q21 -109 49 -139q21 -19 54 -22v-21h-239q-31 42 -43 142q-1 10 -4.5 39.5l-4.5 38t-5 26.5t-9.5 28.5t-13.5 20.5q-24 31 -85 31h-54v-180q0 -59 10 -84q11 -22 37 -33
q14 -6 38 -8z" />
    <glyph glyph-name="rcaron" unicode="&#x159;" horiz-adv-x="476" 
d="M402 690l-34.5 -48.5l-51 -70.5t-27.5 -38h-71q-4 6 -27.5 38.5l-51 70.5l-34.5 48l19 15l130 -88l129 88zM244 376q18 57 54 86q33 29 85 29q44 0 72 -28q21 -21 21 -59q0 -35 -20 -56.5t-52 -21.5q-54 0 -72 48l-5 13t-5 12.5t-4.5 9.5t-5.5 7t-7 2q-17 0 -37 -33.5
t-24 -75.5q-3 -30 -3 -81v-95q0 -54 7 -75q7 -26 23 -32q17 -6 34 -7v-19h-290v19q21 2 33 6q19 11 26 35q4 21 4 72v232q0 34 -3 54q-5 23 -19 31q-15 9 -42 12v18h220q7 0 7 -7q0 -6 -1.5 -45.5t-1.5 -50.5h6z" />
    <glyph glyph-name="Sacute" unicode="&#x15a;" horiz-adv-x="573" 
d="M541 209q0 -104 -74 -163t-185 -59q-108 0 -179 69h-6l-36 -55h-17l-8 244h22q31 -93 90.5 -161.5t133.5 -68.5q56 0 87 27t31 72q0 27 -7.5 46t-31 36t-42 26.5t-64.5 29.5q-48 21 -80 39t-64.5 45t-48.5 63.5t-16 82.5q0 94 66 149.5t163 55.5q54 0 85 -13t62 -39h6
l34 39h20l12 -209h-22q-23 62 -60 114q-54 78 -131 78q-44 0 -70.5 -21.5t-26.5 -62.5q0 -12 2.5 -22.5l4.5 -19t9.5 -17.5t11 -14t15 -13t16 -11.5t19.5 -11t19.5 -9.5l23 -10.5t22.5 -10.5q41 -19 60 -28.5t49.5 -26.5t45 -31.5t30.5 -35.5t22.5 -46.5t6.5 -56.5zM155 740
l119 97q47 37 83 37q26 0 42.5 -16.5t16.5 -41.5q0 -57 -84 -70l-170 -26z" />
    <glyph glyph-name="sacute" unicode="&#x15b;" horiz-adv-x="431" 
d="M415 155q0 -80 -54.5 -122t-134.5 -42q-82 0 -135 53h-7l-30 -42h-16l-8 177h21q59 -164 174 -164q34 0 52 15.5t18 43.5q0 37 -22 54.5t-84 42.5q-81 32 -118 68t-37 105q0 67 50 107t136 40q72 0 115 -47h6l19 36h14l8 -146h-20q-23 69 -58 100q-35 32 -85 32
q-30 0 -48 -15t-18 -40q0 -29 21 -47.5t84 -42.5q77 -29 117 -64t40 -102zM107 548l89 111q2 3 9 10.5t9.5 10t8.5 9t9 9t9 7t10 6.5t10 4.5t11.5 3.5t11.5 1q25 0 41 -16.5t16 -42.5q0 -49 -68 -72l-155 -58z" />
    <glyph glyph-name="Scircumflex" unicode="&#x15c;" horiz-adv-x="573" 
d="M431 733l-14 -17l-138 64l-136 -64l-14 17l113 131h75l56.5 -65zM541 209q0 -104 -74 -163t-185 -59q-108 0 -179 69h-6l-36 -55h-17l-8 244h22q31 -93 90.5 -161.5t133.5 -68.5q56 0 87 27t31 72q0 27 -7.5 46t-31 36t-42 26.5t-64.5 29.5q-48 21 -80 39t-64.5 45
t-48.5 63.5t-16 82.5q0 94 66 149.5t163 55.5q54 0 85 -13t62 -39h6l34 39h20l12 -209h-22q-23 62 -60 114q-54 78 -131 78q-44 0 -70.5 -21.5t-26.5 -62.5q0 -12 2.5 -22.5l4.5 -19t9.5 -17.5t11 -14t15 -13t16 -11.5t19.5 -11t19.5 -9.5l23 -10.5t22.5 -10.5
q41 -19 60 -28.5t49.5 -26.5t45 -31.5t30.5 -35.5t22.5 -46.5t6.5 -56.5z" />
    <glyph glyph-name="scircumflex" unicode="&#x15d;" horiz-adv-x="431" 
d="M364 542l-17 -16l-131 85l-130 -85l-19 16l35 48l51.5 70t27.5 39h71zM415 155q0 -80 -54.5 -122t-134.5 -42q-82 0 -135 53h-7l-30 -42h-16l-8 177h21q59 -164 174 -164q34 0 52 15.5t18 43.5q0 37 -22 54.5t-84 42.5q-81 32 -118 68t-37 105q0 67 50 107t136 40
q72 0 115 -47h6l19 36h14l8 -146h-20q-23 69 -58 100q-35 32 -85 32q-30 0 -48 -15t-18 -40q0 -29 21 -47.5t84 -42.5q77 -29 117 -64t40 -102z" />
    <glyph glyph-name="uni015E" unicode="&#x15e;" horiz-adv-x="573" 
d="M395 -121q0 -83 -136 -83q-60 0 -95 24l11 18q31 -18 64 -18q58 0 58 57q0 50 -38 50q-15 0 -30 -11l-22 11l20 66q-72 13 -124 63h-6l-36 -55h-17l-8 244h22q31 -93 90.5 -161.5t133.5 -68.5q56 0 87 27t31 72q0 27 -7.5 46t-31 36t-42 26.5t-64.5 29.5q-48 21 -80 39
t-64.5 45t-48.5 63.5t-16 82.5q0 94 66 149.5t163 55.5q54 0 85 -13t62 -39h6l34 39h20l12 -209h-22q-23 62 -60 114q-54 78 -131 78q-44 0 -70.5 -21.5t-26.5 -62.5q0 -12 2.5 -22.5l4.5 -19t9.5 -17.5t11 -14t15 -13t16 -11.5t19.5 -11t19.5 -9.5l23 -10.5t22.5 -10.5
q41 -19 60 -28.5t49.5 -26.5t45 -31.5t30.5 -35.5t22.5 -46.5t6.5 -56.5q0 -104 -74 -163t-185 -59q-10 0 -28 2l-16 -48q21 14 62 14q45 0 70 -20t25 -56z" />
    <glyph glyph-name="uni015F" unicode="&#x15f;" horiz-adv-x="431" 
d="M325 -113q0 -83 -136 -83q-60 0 -95 24l11 18q31 -18 64 -18q58 0 58 57q0 50 -38 50q-15 0 -30 -11l-22 11l21 67q-38 12 -67 42h-7l-30 -42h-16l-8 177h21q59 -164 174 -164q34 0 52 15.5t18 43.5q0 37 -22 54.5t-84 42.5q-81 32 -118 68t-37 105q0 67 50 107t136 40
q72 0 115 -47h6l19 36h14l8 -146h-20q-23 69 -58 100q-35 32 -85 32q-30 0 -48 -15t-18 -40q0 -29 21 -47.5t84 -42.5q77 -29 117 -64t40 -102q0 -80 -54.5 -122t-134.5 -42q-15 0 -43 4l-15 -46q21 14 62 14q45 0 70 -20t25 -56z" />
    <glyph glyph-name="Scaron" unicode="&#x160;" horiz-adv-x="573" 
d="M431 852q-112 -128 -115 -131h-74l-113 131l14 16l137 -64l137 64zM541 209q0 -104 -74 -163t-185 -59q-108 0 -179 69h-6l-36 -55h-17l-8 244h22q31 -93 90.5 -161.5t133.5 -68.5q56 0 87 27t31 72q0 27 -7.5 46t-31 36t-42 26.5t-64.5 29.5q-48 21 -80 39t-64.5 45
t-48.5 63.5t-16 82.5q0 94 66 149.5t163 55.5q54 0 85 -13t62 -39h6l34 39h20l12 -209h-22q-23 62 -60 114q-54 78 -131 78q-44 0 -70.5 -21.5t-26.5 -62.5q0 -12 2.5 -22.5l4.5 -19t9.5 -17.5t11 -14t15 -13t16 -11.5t19.5 -11t19.5 -9.5l23 -10.5t22.5 -10.5
q41 -19 60 -28.5t49.5 -26.5t45 -31.5t30.5 -35.5t22.5 -46.5t6.5 -56.5z" />
    <glyph glyph-name="scaron" unicode="&#x161;" horiz-adv-x="431" 
d="M367 690l-34.5 -48.5l-51 -70.5t-27.5 -38h-71q-4 6 -27.5 38.5l-51 70.5l-34.5 48l19 15l130 -88l129 88zM415 155q0 -80 -54.5 -122t-134.5 -42q-82 0 -135 53h-7l-30 -42h-16l-8 177h21q59 -164 174 -164q34 0 52 15.5t18 43.5q0 37 -22 54.5t-84 42.5q-81 32 -118 68
t-37 105q0 67 50 107t136 40q72 0 115 -47h6l19 36h14l8 -146h-20q-23 69 -58 100q-35 32 -85 32q-30 0 -48 -15t-18 -40q0 -29 21 -47.5t84 -42.5q77 -29 117 -64t40 -102z" />
    <glyph glyph-name="Tcommaaccent" unicode="&#x162;" horiz-adv-x="699" 
d="M435 -129q0 -105 -156 -152l-7 20q85 27 85 59q0 12 -18 16q-69 15 -69 69q0 31 21.5 52t57.5 21q37 0 61.5 -23.5t24.5 -61.5zM439 148q0 -64 12 -87q10 -20 35 -32q15 -5 37 -8v-21h-348v21q20 1 37 8q24 11 36 34q11 25 11 83v499h-24q-52 0 -101 -52
q-45 -50 -99 -151h-20l20 231h629l20 -231h-20q-54 101 -99 152q-27 28 -49.5 39.5t-52.5 11.5h-24v-497z" />
    <glyph glyph-name="tcommaaccent" unicode="&#x163;" horiz-adv-x="371" 
d="M302 -113q0 -105 -156 -152l-7 20q85 27 85 59q0 12 -18 16q-69 15 -69 69q0 31 21.5 52t57.5 21q37 0 61.5 -23.5t24.5 -61.5zM362 76l13 -15q-48 -70 -149 -70q-75 0 -111 29q-37 32 -37 110q0 285 1 316q-6 0 -36 1t-36 2v21q75 14 124.5 55.5t84.5 119.5h26v-166h108
v-32h-108l-1 -344q0 -58 55 -58q40 0 66 31z" />
    <glyph glyph-name="Tcaron" unicode="&#x164;" horiz-adv-x="699" 
d="M502 852q-112 -128 -115 -131h-74l-113 131l14 16l137 -64l137 64zM439 148q0 -64 12 -87q10 -20 35 -32q15 -5 37 -8v-21h-348v21q20 1 37 8q24 11 36 34q11 25 11 83v499h-24q-52 0 -101 -52q-45 -50 -99 -151h-20l20 231h629l20 -231h-20q-54 101 -99 152
q-27 28 -49.5 39.5t-52.5 11.5h-24v-497z" />
    <glyph glyph-name="tcaron" unicode="&#x165;" horiz-adv-x="371" 
d="M291 530l20 187h109l-102 -187h-27zM362 76l13 -15q-48 -70 -149 -70q-75 0 -111 29q-37 32 -37 110q0 285 1 316q-6 0 -36 1t-36 2v21q75 14 124.5 55.5t84.5 119.5h26v-166h108v-32h-108l-1 -344q0 -58 55 -58q40 0 66 31z" />
    <glyph glyph-name="Tbar" unicode="&#x166;" horiz-adv-x="699" 
d="M439 148q0 -64 12 -87q10 -20 35 -32q15 -5 37 -8v-21h-348v21q20 1 37 8q24 11 36 34q11 25 11 83v230h-133v31h133v238h-24q-52 0 -101 -52q-45 -50 -99 -151h-20l20 231h629l20 -231h-20q-54 101 -99 152q-27 28 -49.5 39.5t-52.5 11.5h-24v-238h132v-31h-132v-228z
" />
    <glyph glyph-name="tbar" unicode="&#x167;" horiz-adv-x="371" 
d="M8 319v32h70q0 85 1 95q-6 0 -36 1t-36 2v21q75 14 124.5 55.5t84.5 119.5h26v-166h108v-32h-108l-1 -96h110v-32h-110v-216q0 -58 55 -58q40 0 66 31l13 -15q-48 -70 -149 -70q-75 0 -111 29q-37 32 -37 110v189h-70z" />
    <glyph glyph-name="Utilde" unicode="&#x168;" horiz-adv-x="727" 
d="M626 227q0 -106 -30 -154q-53 -86 -220 -86q-186 0 -248 106q-31 56 -31 157v277q0 64 -10 86q-9 21 -34 32q-13 5 -39 7v21h348v-21q-24 -2 -37 -8q-25 -11 -36 -31q-12 -23 -12 -85v-321q0 -60 16 -102q27 -77 136 -77q102 0 142 67q21 36 21 131v288q0 70 -19 99
q-14 23 -43 33q-17 6 -36 7v20h225v-20q-23 -3 -32 -7q-25 -8 -43 -35q-18 -29 -18 -97v-287zM588 853q-10 -49 -40.5 -86t-74.5 -37q-27 0 -71 15t-65 15q-44 0 -61 -46l-24 4q12 55 40 90.5t72 35.5q26 0 71 -15.5t66 -15.5q45 0 64 44z" />
    <glyph glyph-name="utilde" unicode="&#x169;" horiz-adv-x="620" 
d="M542 117q0 -31 3 -53q6 -29 25 -38q16 -7 35 -7v-19q-1 0 -108 -2l-107 -1q-8 0 -8 9q0 4 0.5 31.5t0.5 44.5h-7q-12 -33 -39 -59q-36 -33 -116 -33q-86 0 -125 50q-28 36 -28 114v194q0 40 -3 62q-3 23 -13 33q-14 17 -45 18v18h219q9 0 9 -6q-3 -27 -3 -117v-243
q0 -40 14 -57q16 -19 45 -19q28 0 52 28q25 30 32 76q4 35 4 100v128q0 41 -4 54q-6 19 -21 28q-14 8 -38 10v18h220q8 0 8 -6q0 -4 -1 -43.5t-1 -74.5v-238zM453 681q-10 -51 -38.5 -87t-71.5 -36q-28 0 -70 16t-59 16q-37 0 -56 -47l-23 5q26 125 107 125q25 0 67 -16
t62 -16q40 0 59 45z" />
    <glyph glyph-name="Umacron" unicode="&#x16a;" horiz-adv-x="727" 
d="M626 227q0 -106 -30 -154q-53 -86 -220 -86q-186 0 -248 106q-31 56 -31 157v277q0 64 -10 86q-9 21 -34 32q-13 5 -39 7v21h348v-21q-24 -2 -37 -8q-25 -11 -36 -31q-12 -23 -12 -85v-321q0 -60 16 -102q27 -77 136 -77q102 0 142 67q21 36 21 131v288q0 70 -19 99
q-14 23 -43 33q-17 6 -36 7v20h225v-20q-23 -3 -32 -7q-25 -8 -43 -35q-18 -29 -18 -97v-287zM561 732h-285v68h285v-68z" />
    <glyph glyph-name="umacron" unicode="&#x16b;" horiz-adv-x="620" 
d="M542 117q0 -31 3 -53q6 -29 25 -38q16 -7 35 -7v-19q-1 0 -108 -2l-107 -1q-8 0 -8 9q0 4 0.5 31.5t0.5 44.5h-7q-12 -33 -39 -59q-36 -33 -116 -33q-86 0 -125 50q-28 36 -28 114v194q0 40 -3 62q-3 23 -13 33q-14 17 -45 18v18h219q9 0 9 -6q-3 -27 -3 -117v-243
q0 -40 14 -57q16 -19 45 -19q28 0 52 28q25 30 32 76q4 35 4 100v128q0 41 -4 54q-6 19 -21 28q-14 8 -38 10v18h220q8 0 8 -6q0 -4 -1 -43.5t-1 -74.5v-238zM411 569h-256v62h256v-62z" />
    <glyph glyph-name="Ubreve" unicode="&#x16c;" horiz-adv-x="727" 
d="M626 227q0 -106 -30 -154q-53 -86 -220 -86q-186 0 -248 106q-31 56 -31 157v277q0 64 -10 86q-9 21 -34 32q-13 5 -39 7v21h348v-21q-24 -2 -37 -8q-25 -11 -36 -31q-12 -23 -12 -85v-321q0 -60 16 -102q27 -77 136 -77q102 0 142 67q21 36 21 131v288q0 70 -19 99
q-14 23 -43 33q-17 6 -36 7v20h225v-20q-23 -3 -32 -7q-25 -8 -43 -35q-18 -29 -18 -97v-287zM407 717q-59 0 -94.5 38t-43.5 107l18 7q34 -65 119 -65q88 0 119 65l20 -7q-8 -69 -43.5 -107t-94.5 -38z" />
    <glyph glyph-name="ubreve" unicode="&#x16d;" horiz-adv-x="620" 
d="M542 117q0 -31 3 -53q6 -29 25 -38q16 -7 35 -7v-19q-1 0 -108 -2l-107 -1q-8 0 -8 9q0 4 0.5 31.5t0.5 44.5h-7q-12 -33 -39 -59q-36 -33 -116 -33q-86 0 -125 50q-28 36 -28 114v194q0 40 -3 62q-3 23 -13 33q-14 17 -45 18v18h219q9 0 9 -6q-3 -27 -3 -117v-243
q0 -40 14 -57q16 -19 45 -19q28 0 52 28q25 30 32 76q4 35 4 100v128q0 41 -4 54q-6 19 -21 28q-14 8 -38 10v18h220q8 0 8 -6q0 -4 -1 -43.5t-1 -74.5v-238zM281 536q-59 0 -92 38t-40 108l19 7q31 -68 113 -68q84 0 113 68l19 -7q-13 -146 -132 -146z" />
    <glyph glyph-name="Uring" unicode="&#x16e;" horiz-adv-x="727" 
d="M626 227q0 -106 -30 -154q-53 -86 -220 -86q-186 0 -248 106q-31 56 -31 157v277q0 64 -10 86q-9 21 -34 32q-13 5 -39 7v21h348v-21q-24 -2 -37 -8q-25 -11 -36 -31q-12 -23 -12 -85v-321q0 -60 16 -102q27 -77 136 -77q102 0 142 67q21 36 21 131v288q0 70 -19 99
q-14 23 -43 33q-17 6 -36 7v20h225v-20q-23 -3 -32 -7q-25 -8 -43 -35q-18 -29 -18 -97v-287zM499 807q-1 -40 -28 -65t-65 -25q-40 0 -67 25t-27 65t27 65.5t67 25.5t66.5 -25.5t26.5 -65.5zM349 807q0 -29 15 -47t42 -18t42 18t15 47q0 28 -15.5 46t-41.5 18
q-28 0 -42.5 -17.5t-14.5 -46.5z" />
    <glyph glyph-name="uring" unicode="&#x16f;" horiz-adv-x="620" 
d="M383 623q0 -40 -27 -65.5t-66 -25.5q-40 0 -66.5 25t-26.5 66q0 39 27 64.5t66 25.5q40 0 66.5 -25t26.5 -65zM234 623q0 -29 14.5 -47t41.5 -18t42 18t15 47t-15 46.5t-42 17.5q-28 0 -42 -17.5t-14 -46.5zM542 117q0 -31 3 -53q6 -29 25 -38q16 -7 35 -7v-19
q-1 0 -108 -2l-107 -1q-8 0 -8 9q0 4 0.5 31.5t0.5 44.5h-7q-12 -33 -39 -59q-36 -33 -116 -33q-86 0 -125 50q-28 36 -28 114v194q0 40 -3 62q-3 23 -13 33q-14 17 -45 18v18h219q9 0 9 -6q-3 -27 -3 -117v-243q0 -40 14 -57q16 -19 45 -19q28 0 52 28q25 30 32 76
q4 35 4 100v128q0 41 -4 54q-6 19 -21 28q-14 8 -38 10v18h220q8 0 8 -6q0 -4 -1 -43.5t-1 -74.5v-238z" />
    <glyph glyph-name="Uhungarumlaut" unicode="&#x170;" horiz-adv-x="727" 
d="M585 910q22 0 37 -14.5t15 -36.5q0 -42 -53 -74q-19 -13 -114 -68h-22q8 15 21 43l26 57t15 32q16 30 32.5 45.5t42.5 15.5zM396 910q22 0 37 -14.5t15 -36.5q0 -42 -53 -74q-22 -16 -115 -68h-21q8 16 21 44.5l26 56.5t15 31q32 61 75 61zM626 227q0 -106 -30 -154
q-53 -86 -220 -86q-186 0 -248 106q-31 56 -31 157v277q0 64 -10 86q-9 21 -34 32q-13 5 -39 7v21h348v-21q-24 -2 -37 -8q-25 -11 -36 -31q-12 -23 -12 -85v-321q0 -60 16 -102q27 -77 136 -77q102 0 142 67q21 36 21 131v288q0 70 -19 99q-14 23 -43 33q-17 6 -36 7v20
h225v-20q-23 -3 -32 -7q-25 -8 -43 -35q-18 -29 -18 -97v-287z" />
    <glyph glyph-name="uhungarumlaut" unicode="&#x171;" horiz-adv-x="620" 
d="M542 117q0 -31 3 -53q6 -29 25 -38q16 -7 35 -7v-19q-1 0 -108 -2l-107 -1q-8 0 -8 9q0 4 0.5 31.5t0.5 44.5h-7q-12 -33 -39 -59q-36 -33 -116 -33q-86 0 -125 50q-28 36 -28 114v194q0 40 -3 62q-3 23 -13 33q-14 17 -45 18v18h219q9 0 9 -6q-3 -27 -3 -117v-243
q0 -40 14 -57q16 -19 45 -19q28 0 52 28q25 30 32 76q4 35 4 100v128q0 41 -4 54q-6 19 -21 28q-14 8 -38 10v18h220q8 0 8 -6q0 -4 -1 -43.5t-1 -74.5v-238zM471 724q21 0 35.5 -14t14.5 -35q0 -25 -13 -42t-42 -35q-2 -2 -25.5 -18l-48.5 -33.5t-41 -26.5l-15 11
q10 19 34 72l27 60q29 61 74 61zM287 724q21 0 35.5 -14t14.5 -35q0 -26 -13 -42t-42 -35q-4 -2 -49.5 -34t-65.5 -44l-16 11l33.5 72t28.5 60q27 61 74 61z" />
    <glyph glyph-name="Uogonek" unicode="&#x172;" horiz-adv-x="730" 
d="M499 -213q-100 -4 -152 19t-52 70q0 34 32 60.5t117 59.5q-38 -8 -72 -8q-84 1 -149 28.5t-95 80.5q-32 56 -32 158v255q0 79 -13 105q-11 21 -36 31q-8 4 -37 6v21h353v-21q-26 -2 -38 -6q-26 -9 -36 -31q-13 -23 -13 -103v-299q0 -66 15 -101q35 -78 137 -78
q95 0 135 62q24 38 24 127v288q0 72 -20 103q-15 23 -44 32q-18 5 -40 7v20h238v-20q-19 -2 -38 -7q-28 -11 -44 -35q-17 -32 -17 -100v-284q0 -102 -32 -151q-16 -24 -36.5 -38t-60.5 -32q-74 -35 -74 -125q0 -67 80 -73v-21z" />
    <glyph glyph-name="uogonek" unicode="&#x173;" horiz-adv-x="620" 
d="M533 0q-147 0 -147 -121q0 -66 80 -71v-21q-100 -5 -151.5 18t-51.5 70q0 36 33 64.5t87 44.5v98h-7q-12 -33 -39 -59q-36 -33 -116 -33q-86 0 -125 50q-28 36 -28 112v196q0 41 -3 62q-5 24 -14 33q-14 17 -44 18v18h219q9 0 9 -7q-3 -54 -3 -116v-243q0 -41 14 -56
q17 -20 45 -20t52 28q25 26 32 76q4 35 4 100v128q0 41 -4 54q-6 19 -21 28q-14 8 -38 10v18h220q8 0 8 -7q0 -4 -1 -43t-1 -74v-238q0 -31 3 -53q6 -28 25 -38q12 -5 35 -7v-19h-72z" />
    <glyph glyph-name="Wcircumflex" unicode="&#x174;" horiz-adv-x="1059" 
d="M751 733l-14 -17l-138 64l-136 -64l-14 17l113 131h75l56.5 -65zM699 -4l-162 487h-4l-157 -487h-80l-181 535q-18 50 -28 65q-19 29 -33 38q-21 15 -48 19v20h365v-20q-28 -3 -43 -9q-26 -9 -26 -40q0 -22 23 -95l86 -281h5l102 313q-15 36 -17 40q-25 48 -43 59
q-14 10 -39 13v20h363v-20q-30 -3 -44 -10q-28 -12 -28 -41q0 -26 21 -93l84 -281h6l91 291q16 53 16 73q0 33 -26 49q-12 8 -44 12v20h203v-20q-27 -5 -40 -12q-19 -11 -38 -39q-16 -22 -37 -89l-166 -517h-81z" />
    <glyph glyph-name="wcircumflex" unicode="&#x175;" horiz-adv-x="807" 
d="M564 542l-17 -16l-131 85l-130 -85l-19 16l35 48l51.5 70t27.5 39h71zM519 -3l-111 337h-3l-107 -337h-96l-116 327q-27 84 -40 105q-10 18 -22 24q-10 6 -28 8v18h293v-18q-18 -2 -27 -8q-18 -10 -18 -36q0 -22 16 -81l54 -182h5l73 216q-14 42 -20 52q-10 22 -23 31
q-9 5 -24 8v18h287v-18q-19 -2 -28 -8q-20 -12 -20 -37q0 -20 16 -72l56 -190h5l60 185q17 64 17 81q0 23 -19 33q-10 6 -31 8v18h148v-18q-19 -4 -30 -11q-13 -8 -22 -22q-13 -18 -35 -85l-109 -346h-101z" />
    <glyph glyph-name="Ycircumflex" unicode="&#x176;" horiz-adv-x="654" 
d="M235 298l-141 260q-27 51 -46.5 69.5t-53.5 24.5v21h356v-21q-30 -1 -46 -8q-46 -19 -6 -99l99 -198h5l86 170q30 59 30 90q0 30 -28 40q-16 5 -35 5v21h200v-21q-42 -7 -68 -35t-63 -100l-110 -214v-161q0 -59 11 -82q11 -20 35 -31q16 -7 39 -8v-21h-349v21q21 1 38 9
q25 12 35 32q12 22 12 80v156zM521 733l-14 -17l-138 64l-136 -64l-14 17l113 131h75l56.5 -65z" />
    <glyph glyph-name="ycircumflex" unicode="&#x177;" horiz-adv-x="521" 
d="M263 -81q-25 -58 -55 -87q-41 -41 -100 -41q-44 0 -73.5 23t-29.5 61q0 29 19 49t49 20q46 0 68 -33q4 -6 16 -48q6 -14 21 -14q24 0 47 61q14 39 14 54q0 16 -10 38l-133 319q-25 63 -42 91q-14 27 -29 38q-17 9 -35 11v18h309v-18q-22 -2 -37 -10q-18 -8 -18 -30
q0 -20 20 -77l64 -174h7l67 169q21 48 21 77q0 26 -22 37q-10 5 -31 8v18h162v-18q-18 -2 -31 -11q-17 -10 -30 -31q-15 -24 -36 -77l-87 -214.5zM427 542l-17 -16l-131 85l-130 -85l-19 16l35 48l51.5 70t27.5 39h71z" />
    <glyph glyph-name="Ydieresis" unicode="&#x178;" horiz-adv-x="654" 
d="M235 298l-141 260q-27 51 -46.5 69.5t-53.5 24.5v21h356v-21q-30 -1 -46 -8q-46 -19 -6 -99l99 -198h5l86 170q30 59 30 90q0 30 -28 40q-16 5 -35 5v21h200v-21q-42 -7 -68 -35t-63 -100l-110 -214v-161q0 -59 11 -82q11 -20 35 -31q16 -7 39 -8v-21h-349v21q21 1 38 9
q25 12 35 32q12 22 12 80v156zM473 724q-31 0 -51.5 20t-20.5 51t20.5 51.5t51.5 20.5t51 -20.5t20 -51.5t-20 -51t-51 -20zM254 724q-31 0 -51.5 20t-20.5 51t20.5 51.5t51.5 20.5t51 -20.5t20 -51.5t-20 -51t-51 -20z" />
    <glyph glyph-name="Zacute" unicode="&#x179;" horiz-adv-x="654" 
d="M620 673v-19l-374 -625h70q61 0 97 13.5t71 42.5q16 13 31.5 29t25.5 27.5t23.5 30.5l18.5 26.5t17 27t13 21.5h23l-46 -247h-558v19l383 626h-72q-52 0 -84.5 -10.5t-65.5 -36.5q-57 -43 -113 -140h-22l31 215h531zM261 740l119 97q47 37 83 37q26 0 42.5 -16.5
t16.5 -41.5q0 -57 -84 -70l-170 -26z" />
    <glyph glyph-name="zacute" unicode="&#x17a;" horiz-adv-x="494" 
d="M473 180l-27 -180h-426v11l257 439v4h-83q-46 0 -76 -36q-26 -27 -69 -108h-20l32 169h402v-12l-257 -438v-4h77q36 0 57.5 11t43.5 39q41 54 71 105h18zM171 548l89 111q2 3 9 10.5t9.5 10t8.5 9t9 9t9 7t10 6.5t10 4.5t11.5 3.5t11.5 1q25 0 41 -16.5t16 -42.5
q0 -49 -68 -72l-155 -58z" />
    <glyph glyph-name="Zdotaccent" unicode="&#x17b;" horiz-adv-x="654" 
d="M620 673v-19l-374 -625h70q61 0 97 13.5t71 42.5q16 13 31.5 29t25.5 27.5t23.5 30.5l18.5 26.5t17 27t13 21.5h23l-46 -247h-558v19l383 626h-72q-52 0 -84.5 -10.5t-65.5 -36.5q-57 -43 -113 -140h-22l31 215h531zM370 722q-42 0 -66.5 22t-24.5 55t24.5 55t66.5 22
t66.5 -22t24.5 -55t-24.5 -55t-66.5 -22z" />
    <glyph glyph-name="zdotaccent" unicode="&#x17c;" horiz-adv-x="494" 
d="M473 180l-27 -180h-426v11l257 439v4h-83q-46 0 -76 -36q-26 -27 -69 -108h-20l32 169h402v-12l-257 -438v-4h77q36 0 57.5 11t43.5 39q41 54 71 105h18zM263 523q-42 0 -66.5 25t-24.5 62t24.5 62t66.5 25t66.5 -25t24.5 -62t-24.5 -62t-66.5 -25z" />
    <glyph glyph-name="Zcaron" unicode="&#x17d;" horiz-adv-x="654" 
d="M499 856q-112 -128 -115 -131h-74l-113 131l14 16l137 -64l137 64zM620 673v-19l-374 -625h70q61 0 97 13.5t71 42.5q16 13 31.5 29t25.5 27.5t23.5 30.5l18.5 26.5t17 27t13 21.5h23l-46 -247h-558v19l383 626h-72q-52 0 -84.5 -10.5t-65.5 -36.5q-57 -43 -113 -140h-22
l31 215h531z" />
    <glyph glyph-name="zcaron" unicode="&#x17e;" horiz-adv-x="494" 
d="M421 690l-34.5 -48.5l-51 -70.5t-27.5 -38h-71q-4 6 -27.5 38.5l-51 70.5l-34.5 48l19 15l130 -88l129 88zM473 180l-27 -180h-426v11l257 439v4h-83q-46 0 -76 -36q-26 -27 -69 -108h-20l32 169h402v-12l-257 -438v-4h77q36 0 57.5 11t43.5 39q41 54 71 105h18z" />
    <glyph glyph-name="uni0192" unicode="&#x192;" horiz-adv-x="513" 
d="M-32 -182q-70 0 -108.5 25t-38.5 65q0 29 19.5 44t48.5 15q32 0 49.5 -15t18.5 -39q1 -14 -4 -30.5t-5 -23.5q3 -16 21 -16q17 0 29 14t23 56q24 93 58 257.5t49 226.5h-80l7 31h81q69 251 254 251q68 0 107.5 -28t39.5 -76q0 -34 -19.5 -53t-51.5 -19q-71 0 -71 67
q0 11 6 32.5t6 30.5q0 18 -18 18q-13 0 -22 -8t-17 -32q-15 -38 -47 -183h96l-7 -31h-95q-33 -176 -92 -366q-70 -213 -237 -213z" />
    <glyph glyph-name="Aringacute" unicode="&#x1fa;" horiz-adv-x="661" 
d="M200 21v-21h-211v21q25 3 42 14q16 9 36 37q21 36 41 90l199 516h57l181 -487q32 -81 51 -112q21 -31 46 -46q21 -10 36 -12v-21h-374v21q21 2 40 10q34 13 34 46q0 28 -18 80l-15 42h-185l-19 -51q-15 -39 -15 -66q0 -40 30 -51q18 -8 44 -10zM429 805q-1 -40 -28 -65
t-65 -25q-40 0 -67 25t-27 65t27 65.5t67 25.5t66.5 -25.5t26.5 -65.5zM212 933l119 97q47 37 83 37q26 0 42.5 -16.5t16.5 -41.5q0 -57 -84 -70l-170 -26zM251 446l-80 -216h163l-77 216h-6zM279 805q0 -29 15 -47t42 -18t42 18t15 47q0 28 -15.5 46t-41.5 18
q-28 0 -42.5 -17.5t-14.5 -46.5z" />
    <glyph glyph-name="aringacute" unicode="&#x1fb;" horiz-adv-x="537" 
d="M540 23q-12 -11 -46.5 -21.5t-80.5 -10.5q-56 0 -79 20q-18 14 -24 54h-7q-11 -32 -44.5 -53t-87.5 -21q-68 0 -107 32.5t-39 92.5q0 56 35 88q31 28 107 47q125 24 131 70v80q0 36 -11.5 50.5t-37.5 14.5q-33 0 -44 -15q-4 -8 -8 -65q-4 -70 -73 -70q-31 0 -50.5 15.5
t-19.5 42.5q0 40 31 65q25 23 69.5 37.5t95.5 14.5q111 0 161 -32t50 -94v-242q0 -56 9 -74q7 -16 31 -16q18 0 34 7zM353 607q0 -40 -27 -65.5t-66 -25.5q-40 0 -66.5 25t-26.5 66q0 39 27 64.5t66 25.5q40 0 66.5 -25t26.5 -65zM140 736l119 97q47 37 83 37
q26 0 42.5 -16.5t16.5 -41.5q0 -57 -84 -70l-170 -26zM298 277q-8 -9 -52 -30q-35 -17 -48 -37q-16 -27 -16 -77q0 -93 53 -93q24 0 41.5 15.5t21.5 41.5v180zM204 607q0 -29 14.5 -47t41.5 -18t42 18t15 47t-15 46.5t-42 17.5q-28 0 -42 -17.5t-14 -46.5z" />
    <glyph glyph-name="AEacute" unicode="&#x1fc;" horiz-adv-x="955" 
d="M189 21v-21h-212v21q21 3 41 15q17 12 37 39q24 30 56 87l269 473l-22 10q-13 5 -39 8v20h556l25 -209h-20q-63 100 -105 138q-46 44 -106 44h-30q-22 0 -33 -10q-14 -13 -14 -56v-217h42q55 0 83 28q27 25 45 91h20v-267h-20q-7 24 -10.5 35t-12.5 27.5t-23 30.5
q-26 27 -82 27h-42v-207q0 -63 14 -79q16 -22 55 -22h25q29 0 51.5 12.5t50.5 43.5q52 53 108 161h19l-21 -244h-567v21q26 2 37 8q25 10 36 33q12 24 12 79v123h-204l-63 -111q-27 -48 -27 -76q0 -35 28 -47q17 -7 43 -9zM412 618h-5l-182 -323h187v323zM505 740l119 97
q47 37 83 37q26 0 42.5 -16.5t16.5 -41.5q0 -57 -84 -70l-170 -26z" />
    <glyph glyph-name="aeacute" unicode="&#x1fd;" horiz-adv-x="786" 
d="M551 -9q-89 0 -160 52q-29 22 -46 49h-9q-38 -101 -165 -101q-66 0 -106 32t-40 91q0 58 34 88q33 30 107 48q73 16 100.5 30t31.5 41v86q0 57 -52 57q-30 0 -42 -19q-5 -8 -7 -60q-2 -36 -22 -54t-53 -18q-31 0 -49.5 16.5t-18.5 43.5q0 40 30 65q57 50 165 50
q99 0 141 -64h5q24 27 66.5 45.5t85.5 18.5q106 0 161 -56.5t55 -134.5q0 -25 -3 -40h-296q0 -157 38 -196q29 -34 81 -34q117 0 160 127l21 -9q-52 -154 -213 -154zM616 320q0 86 -19 121q-15 23 -50 23q-32 0 -50 -24q-27 -37 -30 -159h119q17 0 23.5 8t6.5 31zM298 274
q-7 -8 -53 -31q-36 -17 -48 -38q-15 -25 -15 -74q0 -101 51 -101q24 0 42.5 19.5t22.5 49.5v175zM314 548l89 111q2 3 9 10.5t9.5 10t8.5 9t9 9t9 7t10 6.5t10 4.5t11.5 3.5t11.5 1q25 0 41 -16.5t16 -42.5q0 -49 -68 -72l-155 -58z" />
    <glyph glyph-name="Oslashacute" unicode="&#x1fe;" horiz-adv-x="751" 
d="M375 -13q-95 0 -175 44l-54 -91l-25 13l55 93q-67 46 -105 121t-38 170q0 156 97.5 253t244.5 97q85 0 157 -35l47 81l25 -13l-48 -81q75 -45 118.5 -123t43.5 -179q0 -156 -98 -253t-245 -97zM375 15q51 0 85 33q66 58 66 289q0 138 -23 212l-254 -434q14 -42 41 -67
q34 -33 85 -33zM223 337q0 -112 15 -184l253 429q-15 29 -31 44q-35 32 -85 32q-52 0 -86 -33q-66 -62 -66 -288zM260 740l119 97q47 37 83 37q26 0 42.5 -16.5t16.5 -41.5q0 -57 -84 -70l-170 -26z" />
    <glyph glyph-name="oslashacute" unicode="&#x1ff;" 
d="M24 241q0 113 73 181.5t186 68.5q49 0 97 -16l35 75l24 -12l-34 -73q63 -29 99.5 -87.5t36.5 -136.5q0 -113 -72.5 -181.5t-185.5 -68.5q-50 0 -95 14l-38 -81l-25 11l38 80q-65 29 -102 87.5t-37 138.5zM194 241q0 -91 9 -141l149 317q-7 20 -20 31q-20 18 -49 18
q-31 0 -50 -18q-39 -34 -39 -207zM371 241q0 84 -8 135l-149 -315q7 -17 19 -27q19 -18 50 -18q29 0 49 18q39 34 39 207zM164 548l89 111q2 3 9 10.5t9.5 10t8.5 9t9 9t9 7t10 6.5t10 4.5t11.5 3.5t11.5 1q25 0 41 -16.5t16 -42.5q0 -49 -68 -72l-155 -58z" />
    <glyph glyph-name="uni0218" unicode="&#x218;" horiz-adv-x="573" 
d="M371 -129q0 -105 -156 -152l-7 20q85 27 85 59q0 12 -18 16q-69 15 -69 69q0 31 21.5 52t57.5 21q37 0 61.5 -23.5t24.5 -61.5zM541 209q0 -104 -74 -163t-185 -59q-108 0 -179 69h-6l-36 -55h-17l-8 244h22q31 -93 90.5 -161.5t133.5 -68.5q56 0 87 27t31 72
q0 27 -7.5 46t-31 36t-42 26.5t-64.5 29.5q-48 21 -80 39t-64.5 45t-48.5 63.5t-16 82.5q0 94 66 149.5t163 55.5q54 0 85 -13t62 -39h6l34 39h20l12 -209h-22q-23 62 -60 114q-54 78 -131 78q-44 0 -70.5 -21.5t-26.5 -62.5q0 -12 2.5 -22.5l4.5 -19t9.5 -17.5t11 -14
t15 -13t16 -11.5t19.5 -11t19.5 -9.5l23 -10.5t22.5 -10.5q41 -19 60 -28.5t49.5 -26.5t45 -31.5t30.5 -35.5t22.5 -46.5t6.5 -56.5z" />
    <glyph glyph-name="uni0219" unicode="&#x219;" horiz-adv-x="431" 
d="M304 -113q0 -105 -156 -152l-7 20q85 27 85 59q0 12 -18 16q-69 15 -69 69q0 31 21.5 52t57.5 21q37 0 61.5 -23.5t24.5 -61.5zM415 155q0 -80 -54.5 -122t-134.5 -42q-82 0 -135 53h-7l-30 -42h-16l-8 177h21q59 -164 174 -164q34 0 52 15.5t18 43.5q0 37 -22 54.5
t-84 42.5q-81 32 -118 68t-37 105q0 67 50 107t136 40q72 0 115 -47h6l19 36h14l8 -146h-20q-23 69 -58 100q-35 32 -85 32q-30 0 -48 -15t-18 -40q0 -29 21 -47.5t84 -42.5q77 -29 117 -64t40 -102z" />
    <glyph glyph-name="uni021A" unicode="&#x21a;" horiz-adv-x="699" 
d="M435 -129q0 -105 -156 -152l-7 20q85 27 85 59q0 12 -18 16q-69 15 -69 69q0 31 21.5 52t57.5 21q37 0 61.5 -23.5t24.5 -61.5zM439 148q0 -64 12 -87q10 -20 35 -32q15 -5 37 -8v-21h-348v21q20 1 37 8q24 11 36 34q11 25 11 83v499h-24q-52 0 -101 -52
q-45 -50 -99 -151h-20l20 231h629l20 -231h-20q-54 101 -99 152q-27 28 -49.5 39.5t-52.5 11.5h-24v-497z" />
    <glyph glyph-name="uni021B" unicode="&#x21b;" horiz-adv-x="371" 
d="M302 -113q0 -105 -156 -152l-7 20q85 27 85 59q0 12 -18 16q-69 15 -69 69q0 31 21.5 52t57.5 21q37 0 61.5 -23.5t24.5 -61.5zM362 76l13 -15q-48 -70 -149 -70q-75 0 -111 29q-37 32 -37 110q0 285 1 316q-6 0 -36 1t-36 2v21q75 14 124.5 55.5t84.5 119.5h26v-166h108
v-32h-108l-1 -344q0 -58 55 -58q40 0 66 31z" />
    <glyph glyph-name="uni0237" unicode="&#x237;" horiz-adv-x="288" 
d="M76 -53v412q0 39 -3 53q-4 20 -19 30q-16 9 -38 12v19h218q6 0 6 -6q0 -11 -0.5 -42t-0.5 -58v-331q0 -82 -22.5 -125.5t-60.5 -73.5q-63 -46 -146 -46q-63 0 -100 18q-57 26 -57 81q0 31 21 49.5t54 18.5q36 0 55.5 -18t19.5 -47q0 -17 -10 -39q-4 -11 -4 -20
q0 -21 29 -21t45 40q13 32 13 94z" />
    <glyph glyph-name="circumflex" unicode="&#x2c6;" horiz-adv-x="457" 
d="M376 546l-17 -16l-131 85l-130 -85l-19 16l35 48l51.5 70t27.5 39h71z" />
    <glyph glyph-name="caron" unicode="&#x2c7;" horiz-adv-x="457" 
d="M377 694l-34.5 -48.5l-51 -70.5t-27.5 -38h-71q-4 6 -27.5 38.5l-51 70.5l-34.5 48l19 15l130 -88l129 88z" />
    <glyph glyph-name="breve" unicode="&#x2d8;" horiz-adv-x="402" 
d="M208 536q-59 0 -92 38t-40 108l19 7q31 -68 113 -68q84 0 113 68l19 -7q-13 -146 -132 -146z" />
    <glyph glyph-name="dotaccent" unicode="&#x2d9;" horiz-adv-x="406" 
d="M202 531q-42 0 -66.5 25t-24.5 62t24.5 62t66.5 25t66.5 -25t24.5 -62t-24.5 -62t-66.5 -25z" />
    <glyph glyph-name="ring" unicode="&#x2da;" horiz-adv-x="399" 
d="M291 625q0 -40 -27 -65.5t-66 -25.5q-40 0 -66.5 25t-26.5 66q0 39 27 64.5t66 25.5q40 0 66.5 -25t26.5 -65zM142 625q0 -29 14.5 -47t41.5 -18t42 18t15 47t-15 46.5t-42 17.5q-28 0 -42 -17.5t-14 -46.5z" />
    <glyph glyph-name="ogonek" unicode="&#x2db;" horiz-adv-x="345" 
d="M262 -213q-99 -5 -150.5 18t-51.5 70q0 39 36 66t126 62h27q-66 -40 -66 -124q0 -65 79 -71v-21z" />
    <glyph glyph-name="tilde" unicode="&#x2dc;" horiz-adv-x="438" 
d="M376 681q-10 -51 -38.5 -87t-71.5 -36q-28 0 -70 16t-59 16q-37 0 -56 -47l-23 5q26 125 107 125q25 0 67 -16t62 -16q40 0 59 45z" />
    <glyph glyph-name="hungarumlaut" unicode="&#x2dd;" horiz-adv-x="485" 
d="M394 724q21 0 35.5 -14t14.5 -35q0 -25 -13 -42t-42 -35q-2 -2 -25.5 -18l-48.5 -33.5t-41 -26.5l-15 11l33 72t28 60q29 61 74 61zM210 724q21 0 35.5 -14t14.5 -35q0 -26 -13 -42t-42 -35q-4 -2 -49.5 -34t-65.5 -44l-16 11q10 19 34.5 72t27.5 60q27 61 74 61z" />
    <glyph glyph-name="Wgrave" unicode="&#x1e80;" horiz-adv-x="1059" 
d="M707 741l-7 -21q-19 2 -90.5 13.5t-81.5 12.5q-39 8 -60 24t-21 47q0 25 16 41.5t43 16.5q22 0 38 -8.5t43 -28.5l57 -46zM699 -4l-162 487h-4l-157 -487h-80l-181 535q-18 50 -28 65q-19 29 -33 38q-21 15 -48 19v20h365v-20q-28 -3 -43 -9q-26 -9 -26 -40q0 -22 23 -95
l86 -281h5l102 313q-15 36 -17 40q-25 48 -43 59q-14 10 -39 13v20h363v-20q-30 -3 -44 -10q-28 -12 -28 -41q0 -26 21 -93l84 -281h6l91 291q16 53 16 73q0 33 -26 49q-12 8 -44 12v20h203v-20q-27 -5 -40 -12q-19 -11 -38 -39q-16 -22 -37 -89l-166 -517h-81z" />
    <glyph glyph-name="wgrave" unicode="&#x1e81;" horiz-adv-x="807" 
d="M519 -3l-111 337h-3l-107 -337h-96l-116 327q-27 84 -40 105q-10 18 -22 24q-10 6 -28 8v18h293v-18q-18 -2 -27 -8q-18 -10 -18 -36q0 -22 16 -81l54 -182h5l73 216q-14 42 -20 52q-10 22 -23 31q-9 5 -24 8v18h287v-18q-19 -2 -28 -8q-20 -12 -20 -37q0 -20 16 -72
l56 -190h5l60 185q17 64 17 81q0 23 -19 33q-10 6 -31 8v18h148v-18q-19 -4 -30 -11q-13 -8 -22 -22q-13 -18 -35 -85l-109 -346h-101zM532 549l-11 -18q-37 17 -90 35t-64 23q-68 23 -68 71q0 26 16 43t41 17q18 0 35 -10t26.5 -20t26.5 -31z" />
    <glyph glyph-name="Wacute" unicode="&#x1e82;" horiz-adv-x="1059" 
d="M699 -4l-162 487h-4l-157 -487h-80l-181 535q-18 50 -28 65q-19 29 -33 38q-21 15 -48 19v20h365v-20q-28 -3 -43 -9q-26 -9 -26 -40q0 -22 23 -95l86 -281h5l102 313q-15 36 -17 40q-25 48 -43 59q-14 10 -39 13v20h363v-20q-30 -3 -44 -10q-28 -12 -28 -41
q0 -26 21 -93l84 -281h6l91 291q16 53 16 73q0 33 -26 49q-12 8 -44 12v20h203v-20q-27 -5 -40 -12q-19 -11 -38 -39q-16 -22 -37 -89l-166 -517h-81zM473 742l119 97q47 37 83 37q26 0 42.5 -16.5t16.5 -41.5q0 -57 -84 -70l-170 -26z" />
    <glyph glyph-name="wacute" unicode="&#x1e83;" horiz-adv-x="807" 
d="M519 -3l-111 337h-3l-107 -337h-96l-116 327q-27 84 -40 105q-10 18 -22 24q-10 6 -28 8v18h293v-18q-18 -2 -27 -8q-18 -10 -18 -36q0 -22 16 -81l54 -182h5l73 216q-14 42 -20 52q-10 22 -23 31q-9 5 -24 8v18h287v-18q-19 -2 -28 -8q-20 -12 -20 -37q0 -20 16 -72
l56 -190h5l60 185q17 64 17 81q0 23 -19 33q-10 6 -31 8v18h148v-18q-19 -4 -30 -11q-13 -8 -22 -22q-13 -18 -35 -85l-109 -346h-101zM326 548l89 111q2 3 9 10.5t9.5 10t8.5 9t9 9t9 7t10 6.5t10 4.5t11.5 3.5t11.5 1q25 0 41 -16.5t16 -42.5q0 -49 -68 -72l-155 -58z" />
    <glyph glyph-name="Wdieresis" unicode="&#x1e84;" horiz-adv-x="1059" 
d="M708 724q-31 0 -51.5 20t-20.5 51t20.5 51.5t51.5 20.5t51 -20.5t20 -51.5t-20 -51t-51 -20zM489 724q-31 0 -51.5 20t-20.5 51t20.5 51.5t51.5 20.5t51 -20.5t20 -51.5t-20 -51t-51 -20zM699 -4l-162 487h-4l-157 -487h-80l-181 535q-18 50 -28 65q-19 29 -33 38
q-21 15 -48 19v20h365v-20q-28 -3 -43 -9q-26 -9 -26 -40q0 -22 23 -95l86 -281h5l102 313q-15 36 -17 40q-25 48 -43 59q-14 10 -39 13v20h363v-20q-30 -3 -44 -10q-28 -12 -28 -41q0 -26 21 -93l84 -281h6l91 291q16 53 16 73q0 33 -26 49q-12 8 -44 12v20h203v-20
q-27 -5 -40 -12q-19 -11 -38 -39q-16 -22 -37 -89l-166 -517h-81z" />
    <glyph glyph-name="wdieresis" unicode="&#x1e85;" horiz-adv-x="807" 
d="M512 545q-31 0 -51.5 20t-20.5 51t20.5 51.5t51.5 20.5t51 -20.5t20 -51.5t-20 -51t-51 -20zM310 545q-31 0 -51.5 20t-20.5 51t20.5 51.5t51.5 20.5t51 -20.5t20 -51.5t-20 -51t-51 -20zM519 -3l-111 337h-3l-107 -337h-96l-116 327q-27 84 -40 105q-10 18 -22 24
q-10 6 -28 8v18h293v-18q-18 -2 -27 -8q-18 -10 -18 -36q0 -22 16 -81l54 -182h5l73 216q-14 42 -20 52q-10 22 -23 31q-9 5 -24 8v18h287v-18q-19 -2 -28 -8q-20 -12 -20 -37q0 -20 16 -72l56 -190h5l60 185q17 64 17 81q0 23 -19 33q-10 6 -31 8v18h148v-18
q-19 -4 -30 -11q-13 -8 -22 -22q-13 -18 -35 -85l-109 -346h-101z" />
    <glyph glyph-name="Ygrave" unicode="&#x1ef2;" horiz-adv-x="651" 
d="M235 298l-141 260q-27 51 -46.5 69.5t-53.5 24.5v21h356v-21q-30 -1 -46 -8q-46 -19 -6 -99l99 -198h5l86 170q30 59 30 90q0 30 -28 40q-16 5 -35 5v21h200v-21q-42 -7 -68 -35t-63 -100l-110 -214v-161q0 -59 11 -82q11 -20 35 -31q16 -7 39 -8v-21h-349v21q21 1 38 9
q25 12 35 32q12 22 12 80v156zM474 741l-7 -21q-19 2 -90.5 13.5t-81.5 12.5q-39 8 -60 24t-21 47q0 25 16 41.5t43 16.5q22 0 38 -8.5t43 -28.5l57 -46z" />
    <glyph glyph-name="ygrave" unicode="&#x1ef3;" horiz-adv-x="521" 
d="M263 -81q-25 -58 -55 -87q-41 -41 -100 -41q-44 0 -73.5 23t-29.5 61q0 29 19 49t49 20q46 0 68 -33q4 -6 16 -48q6 -14 21 -14q24 0 47 61q14 39 14 54q0 16 -10 38l-133 319q-25 63 -42 91q-14 27 -29 38q-17 9 -35 11v18h309v-18q-22 -2 -37 -10q-18 -8 -18 -30
q0 -20 20 -77l64 -174h7l67 169q21 48 21 77q0 26 -22 37q-10 5 -31 8v18h162v-18q-18 -2 -31 -11q-17 -10 -30 -31q-15 -24 -36 -77l-87 -214.5zM379 549l-11 -18q-37 17 -90 35t-64 23q-68 23 -68 71q0 26 16 43t41 17q18 0 35 -10t26.5 -20t26.5 -31z" />
    <glyph glyph-name="uni2009" unicode="&#x2009;" horiz-adv-x="80" 
 />
    <glyph glyph-name="endash" unicode="&#x2013;" horiz-adv-x="500" 
d="M466 259h-432v47h432v-47z" />
    <glyph glyph-name="emdash" unicode="&#x2014;" horiz-adv-x="822" 
d="M789 259h-755v47h755v-47z" />
    <glyph glyph-name="quoteleft" unicode="&#x2018;" horiz-adv-x="254" 
d="M36 503q0 135 161 187l8 -23q-51 -20 -73.5 -37.5t-22.5 -38.5q0 -15 25 -21q81 -19 81 -84q0 -37 -26 -57.5t-62 -20.5q-40 0 -65.5 26t-25.5 69z" />
    <glyph glyph-name="quoteright" unicode="&#x2019;" horiz-adv-x="254" 
d="M215 593q0 -135 -161 -187l-8 23q51 20 73.5 37.5t22.5 38.5q0 15 -25 21q-81 19 -81 84q0 37 26 57.5t62 20.5q40 0 65.5 -26t25.5 -69z" />
    <glyph glyph-name="quotesinglbase" unicode="&#x201a;" horiz-adv-x="258" 
d="M218 51q0 -72 -45 -119.5t-116 -70.5l-9 22q94 38 94 82q0 13 -19 17q-84 13 -84 84q0 37 26 58.5t62 21.5q40 0 65.5 -25.5t25.5 -69.5z" />
    <glyph glyph-name="quotedblleft" unicode="&#x201c;" horiz-adv-x="473" 
d="M36 503q0 135 161 187l8 -23q-51 -20 -73.5 -37.5t-22.5 -38.5q0 -15 25 -21q81 -19 81 -84q0 -37 -26 -57.5t-62 -20.5q-40 0 -65.5 26t-25.5 69zM255 503q0 135 161 187l8 -23q-51 -20 -73.5 -37.5t-22.5 -38.5q0 -15 25 -21q81 -19 81 -84q0 -37 -26 -57.5t-62 -20.5
q-40 0 -65.5 26t-25.5 69z" />
    <glyph glyph-name="quotedblright" unicode="&#x201d;" horiz-adv-x="473" 
d="M215 593q0 -135 -161 -187l-8 23q51 20 73.5 37.5t22.5 38.5q0 15 -25 21q-81 19 -81 84q0 37 26 57.5t62 20.5q40 0 65.5 -26t25.5 -69zM434 593q0 -135 -161 -187l-8 23q51 20 73.5 37.5t22.5 38.5q0 15 -25 21q-81 19 -81 84q0 37 26 57.5t62 20.5q40 0 65.5 -26
t25.5 -69z" />
    <glyph glyph-name="quotedblbase" unicode="&#x201e;" horiz-adv-x="472" 
d="M218 51q0 -72 -45 -119.5t-116 -70.5l-9 22q94 38 94 82q0 13 -19 17q-84 13 -84 84q0 37 26 58.5t62 21.5q40 0 65.5 -25.5t25.5 -69.5zM432 51q0 -72 -45 -119.5t-116 -70.5l-9 22q94 38 94 82q0 13 -19 17q-84 13 -84 84q0 37 26 58.5t62 21.5q40 0 65.5 -25.5
t25.5 -69.5z" />
    <glyph glyph-name="dagger" unicode="&#x2020;" horiz-adv-x="503" 
d="M265 -146h-26l-67 524l61 72q-68 -29 -121 -29q-38 0 -67 25t-29 68q0 25 14.5 41.5t40.5 16.5q24 0 37.5 -13.5t13.5 -34.5q0 -8 -9 -29q-13 -23 -13 -26q0 -19 25 -19q15 0 30.5 2.5t24.5 5.5l27.5 9l24.5 8q-2 26 -24 69.5t-22 78.5q0 29 18.5 46.5t47.5 17.5
t47.5 -17.5t18.5 -46.5q0 -35 -22 -78.5t-24 -69.5q5 -2 24 -8.5t27.5 -8.5t24 -5t30.5 -3q26 0 26 19q0 6 -14 26q-8 19 -8 29q0 21 13.5 34.5t36.5 13.5q27 0 41 -16.5t14 -41.5q0 -43 -28.5 -68t-65.5 -25q-54 0 -122 29l61 -72z" />
    <glyph glyph-name="daggerdbl" unicode="&#x2021;" horiz-adv-x="507" 
d="M267 282h-26l-67 110l61 62q-78 -27 -121 -27q-38 0 -67 24t-29 68q0 25 14.5 41.5t40.5 16.5q24 0 37.5 -14t13.5 -34q0 -10 -9 -28q-13 -26 -13 -27q0 -18 25 -18q12 0 27.5 2.5t26 5.5l28 8t25.5 7q-2 26 -24 67.5t-22 76.5q0 29 18.5 46.5t47.5 17.5t47.5 -17.5
t18.5 -46.5q0 -35 -22 -76.5t-24 -67.5q84 -23 106 -23q26 0 26 18q0 7 -14 27q-8 13 -8 28q0 20 13.5 34t36.5 14q26 0 40.5 -16.5t14.5 -41.5q0 -44 -28.5 -68t-65.5 -24q-44 0 -122 27l61 -62zM267 258l67 -111l-61 -61q76 29 122 29q37 0 65.5 -25t28.5 -68
q0 -25 -14 -42t-41 -17q-23 0 -36.5 14t-13.5 34q0 11 8 30q14 20 14 26q0 17 -26 17q-35 0 -106 -23q2 -26 24 -67.5t22 -75.5q0 -29 -18.5 -46.5t-47.5 -17.5t-47.5 17.5t-18.5 46.5q0 34 22 75.5t24 67.5q-5 1 -24 7l-27.5 8.5t-24.5 5t-31 2.5q-25 0 -25 -17
q0 -7 13 -26q9 -21 9 -30q0 -20 -13.5 -34t-37.5 -14q-26 0 -40.5 17t-14.5 42q0 43 29 68t67 25q45 0 121 -29l-61 61l67 111h26z" />
    <glyph glyph-name="bullet" unicode="&#x2022;" horiz-adv-x="434" 
d="M216 464q58 0 98.5 -40.5t40.5 -97.5q0 -58 -40.5 -97.5t-98.5 -39.5q-57 0 -97.5 40t-40.5 97t40.5 97.5t97.5 40.5z" />
    <glyph glyph-name="ellipsis" unicode="&#x2026;" horiz-adv-x="872" 
d="M729 -13q-37 0 -60.5 24t-23.5 59t23.5 59t60.5 24t60.5 -24t23.5 -59t-23.5 -59t-60.5 -24zM436 -13q-37 0 -60.5 24t-23.5 59t23.5 59t60.5 24t60.5 -24t23.5 -59t-23.5 -59t-60.5 -24zM144 -13q-37 0 -60.5 24t-23.5 59t23.5 59t60.5 24t60.5 -24t23.5 -59t-23.5 -59
t-60.5 -24z" />
    <glyph glyph-name="perthousand" unicode="&#x2030;" horiz-adv-x="1171" 
d="M592 672l-379 -687l-24 13l379 688zM377 507q0 -77 -53 -128t-125 -51q-77 0 -125.5 49.5t-48.5 128.5t51.5 128.5t123.5 49.5q77 0 127 -49.5t50 -127.5zM200 663q-30 0 -43 -37.5t-13 -119.5q0 -81 13 -118.5t43 -37.5q31 0 44.5 37.5t13.5 119.5q0 81 -13.5 118.5
t-44.5 37.5zM581 343q77 0 126 -49.5t49 -127.5q0 -77 -52.5 -127.5t-123.5 -50.5q-78 0 -127 49t-49 128q0 78 52.5 128t124.5 50zM975 343q77 0 126 -49.5t49 -127.5q0 -77 -52 -127.5t-124 -50.5q-77 0 -126 49t-49 128t52 128.5t124 49.5zM636 166q0 81 -12.5 118
t-42.5 37t-43 -37t-13 -119q0 -83 12.5 -120t43.5 -37q30 0 42.5 38t12.5 120zM1031 166q0 80 -13 117.5t-43 37.5t-43 -37t-13 -119t13 -119.5t43 -37.5t43 38t13 120z" />
    <glyph glyph-name="guilsinglleft" unicode="&#x2039;" horiz-adv-x="268" 
d="M29 262l193 157l17 -17l-95 -149l95 -148l-17 -18l-193 157v18z" />
    <glyph glyph-name="guilsinglright" unicode="&#x203a;" horiz-adv-x="268" 
d="M240 262v-18l-193 -157l-18 18l96 147l-96 150l18 17z" />
    <glyph glyph-name="fraction" unicode="&#x2044;" horiz-adv-x="424" 
d="M468 714l-479 -740l-32 21l477 740z" />
    <glyph glyph-name="Euro" unicode="&#x20ac;" horiz-adv-x="629" 
d="M615 215q-19 -102 -79 -165t-167 -63q-114 0 -189.5 69.5t-93.5 197.5h-68v30h65q-2 32 -2 50q0 17 2 47h-65v29h69q20 123 100 196t201 73q98 0 159.5 -42t61.5 -108q0 -36 -21.5 -58.5t-57.5 -22.5q-40 0 -60.5 19.5t-20.5 53.5q0 14 8 42q8 34 8 43q0 46 -66 46
q-110 0 -124 -242h170v-29h-171q-1 -15 -1 -48t1 -49h119v-30h-117q14 -222 135 -222q66 0 110.5 48.5t64.5 140.5z" />
    <glyph glyph-name="trademark" unicode="&#x2122;" horiz-adv-x="780" 
d="M324 704l15 -120h-20q-21 54 -38 73q-21 27 -46 27h-11v-173q0 -32 3 -47q3 -14 13 -20q12 -8 31 -9v-18h-187v18q16 2 28 9q10 6 13 18q3 16 3 49v173h-11q-25 0 -46 -27q-23 -28 -38 -73h-20l15 120h296zM766 418h-180v18q8 1 20 4q16 7 18 19q4 15 4 52v150h-4
l-68 -245h-60l-68 248h-4v-150q0 -42 4 -55q5 -13 17 -19q10 -3 19 -4v-19h-109v19q16 2 22 4q13 6 17 19q5 17 5 56v90q0 45 -5 59q-5 12 -17 16q-10 4 -21 6v18h159l43 -169h4l46 169h158v-18q-12 -1 -21 -5q-11 -4 -17 -15q-4 -9 -4 -56v-99q0 -42 4 -52q4 -13 16 -18
q11 -4 22 -5v-18z" />
    <glyph glyph-name="minus" unicode="&#x2212;" horiz-adv-x="464" 
d="M428 258h-391v39h391v-39z" />
    <glyph glyph-name="Q.swash" unicode="&#xe2f0;" horiz-adv-x="729" 
d="M693 -327q-61 0 -117.5 25.5t-140.5 96.5l-35 31l-35 30.5t-31.5 24t-35 21t-34 12t-39.5 5.5q-34 0 -34 -24q0 -4 3 -7.5t9.5 -8t11.5 -9.5q20 -20 19 -52q-1 -29 -19 -44t-46 -15q-27 0 -45.5 18t-18.5 49q0 75 133 129q10 3 30 10.5l36.5 13.5t28.5 9
q-133 11 -217.5 104t-84.5 236q0 152 94.5 247t239.5 95q146 0 240.5 -95t94.5 -247q0 -141 -82 -233t-213 -106q-100 -21 -171 -55v-3q48 14 115 12q105 -3 202 -53l63 -31.5l52 -26t35.5 -15t39 -11t37.5 -2.5q69 1 95 69l11 -3q-10 -69 -48 -125q-19 -31 -58.5 -51.5
t-84.5 -20.5zM222 328q0 -218 52 -280q32 -41 91 -41t91 41q51 57 51 280q0 221 -50 279q-34 43 -92 43t-92 -43q-51 -59 -51 -279z" />
    <glyph glyph-name="K.alt" unicode="&#xe48a;" horiz-adv-x="753" 
d="M368 21v-21h-342v21q24 1 38 8q24 10 35 33q11 24 11 84v382q0 62 -11 85t-35 32q-17 7 -38 7v21h348v-21q-23 -2 -37 -7q-25 -12 -36 -33q-11 -26 -11 -84v-196l184 190q58 59 58 88q0 16 -6.5 23t-21.5 13q-14 4 -37 6v21h244v-21q-35 -5 -79 -31q-33 -20 -105 -92
l-79 -79q21 -38 113 -184.5t98 -157.5q31 -46 58 -65q27 -20 45 -22v-21h-341v21q51 3 51 31q0 20 -40 85l-114 181l-28 -28v-144q0 -60 10 -84q10 -22 34 -33q9 -5 34 -8z" />
    <glyph glyph-name="k.alt" unicode="&#xe4ca;" horiz-adv-x="603" 
d="M304 19v-19h-284v19q19 2 29 6q22 10 26 34q4 18 4 68v473q0 41 -2 53q-6 23 -20 31q-12 7 -40 9v19h220q7 0 7 -8q-2 -50 -2 -102v-361l107 103q52 50 52 78q0 21 -21 30q-15 7 -38 9v18h224v-18q-33 -5 -75 -31q-37 -22 -89 -72l-27 -26q31 -54 90.5 -145.5
t78.5 -118.5q29 -42 65 -49v-19h-208q-3 6 -30.5 52l-63 104.5l-42.5 69.5l-23 -21v-82q0 -44 4 -63q7 -27 26 -34q12 -5 32 -7z" />
    <glyph glyph-name="idotaccent" horiz-adv-x="298" 
d="M160 531q-42 0 -66.5 25t-24.5 62t24.5 62t66.5 25t66.5 -25t24.5 -62t-24.5 -62t-66.5 -25zM242 378v-248q0 -47 5 -72q5 -22 26 -32q9 -5 31 -7v-19h-286v19q22 2 31 7q22 11 26 34q4 20 4 70v234q0 36 -3 55q-6 22 -19 30q-15 9 -40 12v18h220q7 0 7 -7q0 -11 -1 -39
t-1 -55z" />
    <glyph glyph-name="space_uni0326" horiz-adv-x="317" 
d="M236 -113q0 -105 -156 -152l-7 20q85 27 85 59q0 12 -18 16q-69 15 -69 69q0 31 21.5 52t57.5 21q37 0 61.5 -23.5t24.5 -61.5z" />
    <glyph glyph-name="Kcommaaccent.alt" horiz-adv-x="753" 
d="M502 -123q0 -105 -156 -152l-7 20q85 27 85 59q0 12 -18 16q-69 15 -69 69q0 31 21.5 52t57.5 21q37 0 61.5 -23.5t24.5 -61.5zM368 21v-21h-342v21q24 1 38 8q24 10 35 33q11 24 11 84v382q0 62 -11 85t-35 32q-17 7 -38 7v21h348v-21q-23 -2 -37 -7q-25 -12 -36 -33
q-11 -26 -11 -84v-196l184 190q58 59 58 88q0 16 -6.5 23t-21.5 13q-14 4 -37 6v21h244v-21q-35 -5 -79 -31q-33 -20 -105 -92l-79 -79q21 -38 113 -184.5t98 -157.5q31 -46 58 -65q27 -20 45 -22v-21h-341v21q51 3 51 31q0 20 -40 85l-114 181l-28 -28v-144q0 -60 10 -84
q10 -22 34 -33q9 -5 34 -8z" />
    <glyph glyph-name="kcommaaccent.alt" horiz-adv-x="603" 
d="M385 -113q0 -105 -156 -152l-7 20q85 27 85 59q0 12 -18 16q-69 15 -69 69q0 31 21.5 52t57.5 21q37 0 61.5 -23.5t24.5 -61.5zM304 19v-19h-284v19q19 2 29 6q22 10 26 34q4 18 4 68v473q0 41 -2 53q-6 23 -20 31q-12 7 -40 9v19h220q7 0 7 -8q-2 -50 -2 -102v-361
l107 103q52 50 52 78q0 21 -21 30q-15 7 -38 9v18h224v-18q-33 -5 -75 -31q-37 -22 -89 -72l-27 -26q31 -54 90.5 -145.5t78.5 -118.5q29 -42 65 -49v-19h-208q-3 6 -30.5 52l-63 104.5l-42.5 69.5l-23 -21v-82q0 -44 4 -63q7 -27 26 -34q12 -5 32 -7z" />
    <glyph glyph-name="f_f_k.alt" horiz-adv-x="1250" 
d="M307 0h-286v19q23 2 31 6q21 9 26 35q4 20 4 68v319h-68v32h68v35q1 98 69 152q55 44 149 44q78 0 120 -22q26 -13 40 -35l18 16q60 48 162 48q37 0 70 -5h175q6 0 6 -8q0 -10 -1 -44t-1 -59v-361l107 104q53 50 53 78q0 21 -22 30q-15 7 -37 9v18h222v-18
q-39 -8 -78 -33q-41 -29 -84 -70l-28 -27q69 -117 169 -264q29 -40 65 -48v-19h-208q-3 6 -31.5 53.5l-62 102.5t-42.5 71l-23 -23v-81q0 -47 5 -64q7 -25 26 -33q13 -6 31 -7v-19h-284v19q20 4 28 7q24 10 29 33q3 23 3 68v428q-10 9 -17 18q-8 11 -16 45l-11 48
q-7 24 -43 24q-38 0 -55 -28q-17 -31 -17 -90v-93h118v-32h-118v-316q0 -51 5 -70q6 -28 25 -35q9 -5 32 -7v-19h-287v19q22 2 31 6q22 11 28 35q3 15 3 68v319h-160v-319q0 -42 5 -67q6 -27 25 -35q13 -5 32 -7v-19zM405 479v37q0 9 2 27q-38 0 -58 31q-8 11 -18 43l-10 47
q-5 20 -27 20q-26 0 -37 -22q-12 -28 -12 -96v-87h160z" />
    <glyph glyph-name="f_k.alt" horiz-adv-x="928" 
d="M307 19v-19h-286v19q23 2 31 6q21 9 26 35q4 20 4 68v319h-68v32h68v37q1 96 72 153q63 48 163 48q37 0 70 -5h174q7 0 7 -8q0 -10 -0.5 -44t-0.5 -58v-361l106 103q52 49 52 78q0 22 -20 30q-16 7 -38 9v18h222v-18q-35 -6 -76 -32q-35 -22 -85 -71l-28 -26
q33 -56 93 -148.5t77 -116.5q30 -41 64 -48v-19h-208q-7 14 -137 226l-22 -21v-82q0 -49 4 -63q6 -26 26 -34q10 -5 32 -7v-19h-285v19q20 1 30 7q20 9 26 33q4 18 4 68v429q-10 8 -16 17q-12 18 -17 45l-11 48q-6 24 -44 24q-37 0 -53 -28q-18 -27 -18 -90v-93h119v-32
h-119v-314q0 -47 5 -72q6 -28 25 -35q10 -5 32 -7z" />
    <glyph glyph-name="space_uni0326.alt" horiz-adv-x="316" 
d="M83 591q0 55 40 93t108 58l7 -21q-80 -25 -80 -55q0 -12 16 -16q72 -20 72 -71q0 -32 -21 -50t-57 -18q-37 0 -61 21t-24 59z" />
    <glyph glyph-name="caron.alt" horiz-adv-x="457" 
d="M160 530l20 187h109l-33 -61l-37.5 -69l-31.5 -57h-27z" />
    <glyph glyph-name="questiondown.uc" horiz-adv-x="492" 
d="M240 600q0 37 24.5 62t66.5 25t66.5 -25t24.5 -62t-24.5 -62t-66.5 -25t-66.5 25t-24.5 62zM19 183q0 61 46.5 105t104.5 61t114 17h35v107h27v-132h-38q-114 0 -114 -202q0 -63 22.5 -94t60.5 -31q18 0 26 14.5t13 53.5q12 96 84 96q36 0 55.5 -20t19.5 -55
q0 -50 -56 -83t-146 -33q-73 0 -138 29q-116 50 -116 167z" />
    <glyph glyph-name="exclamdown.uc" horiz-adv-x="285" 
d="M51 601q0 37 24.5 62t66.5 25t66.5 -25t24.5 -62t-24.5 -62t-66.5 -25t-66.5 25t-24.5 62zM143 -12q-49 0 -73.5 26t-24.5 67q0 15 1.5 29.5t6 36l7 33t11.5 45t13 49.5q30 115 45 200h27q27 -132 45 -199l9.5 -37.5t9 -34.5t7 -27t6 -27t4 -22.5t3 -24t0.5 -21.5
q0 -42 -24 -67.5t-73 -25.5z" />
    <glyph glyph-name="hyphen.uc" horiz-adv-x="341" 
d="M281 289h-221v91h221v-91z" />
    <glyph glyph-name="endash.uc" horiz-adv-x="500" 
d="M466 312h-432v47h432v-47z" />
    <glyph glyph-name="emdash.uc" horiz-adv-x="822" 
d="M789 312h-755v47h755v-47z" />
    <glyph glyph-name="guilsinglleft.uc" horiz-adv-x="265" 
d="M32 328v18l193 157l18 -18l-96 -148l96 -148l-18 -17z" />
    <glyph glyph-name="guilsinglright.uc" horiz-adv-x="265" 
d="M40 172l-17 17l95 147l-95 149l17 18l194 -157v-18z" />
    <glyph glyph-name="guillemotleft.uc" horiz-adv-x="451" 
d="M32 328v18l193 157l18 -17l-96 -149l96 -148l-18 -17zM225 345l185 155l18 -18l-94 -145l93 -145l-17 -17l-185 153v17z" />
    <glyph glyph-name="guillemotright.uc" horiz-adv-x="451" 
d="M225 171l-18 18l96 146l-96 150l18 17l195 -157v-18zM226 346v-18l-185 -154l-18 17l93 145l-93 146l18 17z" />
    <glyph glyph-name="parenleft.uc" horiz-adv-x="321" 
d="M300 -42l-22 -16q-48 31 -85.5 65t-71 81.5t-52 110t-18.5 136.5q0 246 227 393l22 -15q-86 -145 -86 -378q0 -231 86 -377z" />
    <glyph glyph-name="parenright.uc" horiz-adv-x="321" 
d="M20 -42q87 145 87 377q0 231 -87 378l22 15q48 -33 84.5 -67.5t71 -82t53.5 -109.5t19 -134q0 -74 -18 -136t-52.5 -109t-71 -81t-86.5 -67z" />
    <glyph glyph-name="bracketleft.uc" horiz-adv-x="333" 
d="M315 -46h-240v765h240v-22h-89v-720h89v-23z" />
    <glyph glyph-name="bracketright.uc" horiz-adv-x="333" 
d="M259 708v-742h-241v23h89v696h-89v23h241z" />
    <glyph glyph-name="braceleft.uc" horiz-adv-x="360" 
d="M26 325v23q40 2 61 13q22 10 32 24t10 42q0 17 -13 72t-13 85q0 74 65.5 104t178.5 32v-23q-45 -4 -66.5 -23.5t-21.5 -63.5q0 -22 7 -70.5t7 -68.5q0 -63 -43 -94.5t-144 -37.5v-4q101 -7 144 -38.5t43 -94.5q0 -19 -7 -67.5t-7 -71.5q0 -43 21 -63t67 -24v-22
q-114 2 -179 31.5t-65 103.5q0 31 13 85t13 71q0 29 -9.5 43t-33.5 24q-28 11 -60 13z" />
    <glyph glyph-name="braceright.uc" horiz-adv-x="360" 
d="M335 325q-33 -2 -61 -13q-42 -17 -42 -67q0 -17 13 -71t13 -85q0 -74 -65 -103.5t-180 -31.5v22q47 4 68 24t21 63q0 23 -7.5 71.5t-7.5 67.5q0 63 43 94.5t145 37.5v4q-102 7 -145 38.5t-43 94.5q0 20 7.5 68.5t7.5 70.5q0 43 -22 63t-67 24v23q114 -2 179.5 -32
t65.5 -104q0 -30 -13 -85t-13 -72q0 -50 43 -66q32 -12 60 -13v-23z" />
    <glyph glyph-name="slash.uc" horiz-adv-x="348" 
d="M368 699l-339 -749l-43 19l339 749z" />
    <glyph glyph-name="backslash.uc" horiz-adv-x="348" 
d="M323 -50l-340 748l44 19l339 -749z" />
    <glyph glyph-name="bar.uc" horiz-adv-x="171" 
d="M114 -52h-47v783h47v-783z" />
    <glyph glyph-name="at.uc" horiz-adv-x="821" 
d="M796 423q0 -120 -75 -200t-183 -80q-44 0 -66.5 18.5t-22.5 48.5q0 16 6 40h-5q-22 -41 -41 -61q-42 -46 -108 -46q-42 0 -71 31t-29 87q0 103 80 192t182 89q61 0 68 -47h7q14 31 20 40h118l-26 -77.5l-33 -98.5q-39 -113 -39 -143q0 -27 27 -27q64 0 114 68.5t50 164.5
q0 122 -79.5 184.5t-220.5 62.5q-156 0 -260 -101t-104 -262q0 -150 82.5 -227.5t232.5 -77.5q176 0 302 92l11 -21q-49 -39 -133 -66.5t-179 -27.5q-186 0 -289 85.5t-103 239.5q0 117 62 207.5t161.5 136.5t217.5 46q152 0 239 -71t87 -199zM510 474q0 43 -32 43
q-33 0 -66 -54q-29 -51 -54 -124.5t-25 -106.5q0 -44 27 -44q26 0 55 45q8 12 41 78q13 28 26 64q28 76 28 99z" />
    <glyph glyph-name="grave.uc" horiz-adv-x="421" 
d="M343 741l-7 -21q-19 2 -90.5 13.5t-81.5 12.5q-39 8 -60 24t-21 47q0 25 16 41.5t43 16.5q22 0 38 -8.5t43 -28.5l57 -46z" />
    <glyph glyph-name="dieresis.uc" horiz-adv-x="488" 
d="M354 724q-31 0 -51.5 20t-20.5 51t20.5 51.5t51.5 20.5t51 -20.5t20 -51.5t-20 -51t-51 -20zM135 724q-31 0 -51.5 20t-20.5 51t20.5 51.5t51.5 20.5t51 -20.5t20 -51.5t-20 -51t-51 -20z" />
    <glyph glyph-name="macron.uc" horiz-adv-x="414" 
d="M349 732h-285v68h285v-68z" />
    <glyph glyph-name="acute.uc" horiz-adv-x="421" 
d="M91 740l119 97q47 37 83 37q26 0 42.5 -16.5t16.5 -41.5q0 -57 -84 -70l-170 -26z" />
    <glyph glyph-name="circumflex.uc" horiz-adv-x="456" 
d="M380 733l-14 -17l-138 64l-136 -64l-14 17l113 131h75l56.5 -65z" />
    <glyph glyph-name="caron.uc" horiz-adv-x="457" 
d="M380 852q-112 -128 -115 -131h-74l-113 131l14 16l137 -64l137 64z" />
    <glyph glyph-name="breve.uc" horiz-adv-x="402" 
d="M213 717q-59 0 -94.5 38t-43.5 107l18 7q34 -65 119 -65q88 0 119 65l20 -7q-8 -69 -43.5 -107t-94.5 -38z" />
    <glyph glyph-name="dotaccent.uc" horiz-adv-x="406" 
d="M203 722q-42 0 -66.5 22t-24.5 55t24.5 55t66.5 22t66.5 -22t24.5 -55t-24.5 -55t-66.5 -22z" />
    <glyph glyph-name="ring.uc" horiz-adv-x="375" 
d="M293 802q-1 -40 -28 -65t-65 -25q-40 0 -67 25t-27 65t27 65.5t67 25.5t66.5 -25.5t26.5 -65.5zM143 802q0 -29 15 -47t42 -18t42 18t15 47q0 28 -15.5 46t-41.5 18q-28 0 -42.5 -17.5t-14.5 -46.5z" />
    <glyph glyph-name="tilde.uc" horiz-adv-x="438" 
d="M402 853q-10 -49 -40.5 -86t-74.5 -37q-27 0 -71 15t-65 15q-44 0 -61 -46l-24 4q12 55 40 90.5t72 35.5q26 0 71 -15.5t66 -15.5q45 0 64 44z" />
    <glyph glyph-name="hungarumlaut.uc" horiz-adv-x="445" 
d="M389 910q22 0 37 -14.5t15 -36.5q0 -42 -53 -74q-19 -13 -114 -68h-22q8 15 21 43l26 57t15 32q16 30 32.5 45.5t42.5 15.5zM200 910q22 0 37 -14.5t15 -36.5q0 -42 -53 -74q-22 -16 -115 -68h-21q8 16 21 44.5l26 56.5t15 31q32 61 75 61z" />
    <glyph glyph-name="acute.ucpl" horiz-adv-x="500" 
d="M244 775l57 121q15 32 31.5 48t42.5 16q53 0 53 -53q0 -35 -57 -79q-3 -3 -96 -77z" />
    </font>
</defs>
</svg>
