<svg xmlns="http://www.w3.org/2000/svg" width="264.864" height="140.455" viewBox="0 0 264.864 140.455"><defs><style>.a{isolation:isolate;}.b{fill:#25318a;}.c,.f{fill:#fff;}.d{fill:#ededed;}.e{fill:#e41f26;}.f,.i,.j{stroke:#000;}.f,.i,.j,.k{stroke-width:1.856px;}.g{fill:#f4c100;}.h{fill:#00b33c;}.i{fill-opacity:0;}.j,.k{fill:none;}.k{stroke:#fff;}.l{fill:#ffc900;}.m{fill:#00a5ff;mix-blend-mode:multiply;}.n{fill:#183cf2;}.o{fill:#f7f7f7;}.p{fill:#360050;}.q{fill:#ef063c;}.r{fill:#c21300;}</style></defs><title>World Cup Predictor  copy</title><g class="a"><rect class="b" x="47.5" y="-2.045" width="95" height="190" transform="translate(2.045 187.955) rotate(-90)"/><polygon class="c" points="106.693 101.765 113.131 97.113 105.188 97.092 102.754 89.533 100.281 97.08 92.338 97.06 98.752 101.744 96.277 109.292 102.715 104.64 109.129 109.324 106.693 101.765"/><polygon class="c" points="55.159 117.607 68.035 108.303 52.15 108.262 47.281 93.143 42.335 108.237 26.449 108.197 39.277 117.566 34.327 132.66 47.204 123.357 60.031 132.726 55.159 117.607"/><polygon class="c" points="121.518 64.82 128.652 59.665 119.85 59.642 117.153 51.265 114.412 59.629 105.611 59.606 112.718 64.797 109.976 73.16 117.11 68.006 124.218 73.197 121.518 64.82"/><polygon class="c" points="180.942 71.145 186.248 67.311 179.702 67.295 177.696 61.065 175.659 67.285 169.113 67.268 174.399 71.128 172.359 77.347 177.665 73.514 182.95 77.374 180.942 71.145"/><polygon class="c" points="154.876 88.99 162.011 83.835 153.209 83.812 150.511 75.435 147.771 83.799 138.969 83.776 146.077 88.967 143.334 97.331 150.469 92.176 157.576 97.367 154.876 88.99"/><polygon class="c" points="127.418 124.901 134.553 119.746 125.751 119.723 123.053 111.346 120.313 119.71 111.511 119.687 118.619 124.878 115.876 133.241 123.011 128.087 130.118 133.278 127.418 124.901"/><rect class="d" x="0.031" y="45.455" width="79.135" height="39.653"/><rect class="e" x="35.679" y="45.524" width="7.899" height="39.583"/><rect class="e" x="0.091" y="61.321" width="79.076" height="7.899"/><polygon class="b" points="0 80.659 0 71.853 17.613 71.853 0 80.659"/><polygon class="b" points="0 49.973 0 58.779 17.613 58.779 0 49.973"/><polygon class="b" points="79.167 80.659 79.167 71.853 61.554 71.853 79.167 80.659"/><polygon class="b" points="79.167 49.973 79.167 58.779 61.554 58.779 79.167 49.973"/><polygon class="b" points="46.211 57.599 46.211 45.524 70.269 45.524 46.211 57.599"/><polygon class="b" points="32.956 73.033 32.956 85.108 8.806 85.108 32.956 73.033"/><polygon class="b" points="46.211 73.033 46.211 85.108 70.36 85.108 46.211 73.033"/><polygon class="b" points="32.956 57.599 32.956 45.524 8.806 45.524 32.956 57.599"/><polygon class="e" points="5.992 85.108 0 85.108 26.51 71.853 32.32 71.853 5.992 85.108"/><polygon class="e" points="52.748 58.779 46.846 58.779 73.265 45.524 79.167 45.524 52.748 58.779"/><polygon class="e" points="79.167 85.108 79.167 82.112 58.649 71.853 52.748 71.853 79.167 85.108"/><polygon class="e" points="0 45.524 0 48.52 20.518 58.779 26.419 58.779 0 45.524"/><ellipse class="f" cx="152.009" cy="44.131" rx="25.671" ry="25.956"/><polygon class="g" points="179.495 27.534 179.51 27.527 152.009 13.624 124.51 27.527 124.51 39.399 133.257 39.399 139.99 60.33 164.028 60.33 170.762 39.399 179.495 39.399 179.495 27.534"/><polygon class="h" points="152.009 97.753 132.554 83.46 139.99 60.33 164.028 60.33 171.464 83.46 152.009 97.753"/><polygon class="c" points="134.015 83.46 170.186 83.46 170.186 92.102 167.099 97.755 136.491 97.755 134.015 92.971 134.015 83.46"/><path class="i" d="M169.125,82.484a18.37,18.37,0,0,1,.885,5.652,18,18,0,1,1-36,0A18.394,18.394,0,0,1,134.735,83"/><ellipse class="f" cx="162.575" cy="103.564" rx="5.747" ry="5.811"/><ellipse class="f" cx="141.445" cy="103.564" rx="5.747" ry="5.811"/><rect class="c" x="141.445" y="91.636" width="21.117" height="18.887"/><polygon class="d" points="152.009 140.455 135.532 106.349 168.486 106.349 152.009 140.455"/><polygon points="152.009 129.24 175.535 140.455 128.483 140.455 152.009 129.24"/><line class="j" x1="136.833" y1="109.121" x2="167.185" y2="109.121"/><polygon class="f" points="152.009 83.46 146.901 106.349 152.009 129.24 157.119 106.349 152.009 83.46"/><ellipse class="c" cx="152.009" cy="13.624" rx="6.517" ry="6.589"/><ellipse class="c" cx="152.009" cy="7.044" rx="5.589" ry="5.662"/><path d="M152.009,2.311a4.733,4.733,0,1,1-4.66,4.733,4.7,4.7,0,0,1,4.66-4.733m0-1.856a6.553,6.553,0,0,0-6.517,6.589,6.517,6.517,0,1,0,13.034,0A6.553,6.553,0,0,0,152.009.455Z"/><line class="k" x1="152.009" y1="70.089" x2="152.009" y2="83.46"/><line class="k" x1="152.009" y1="129.24" x2="152.009" y2="140.455"/><polygon class="l" points="259.036 140.455 238.998 120.416 232.787 140.455 259.036 140.455"/><polygon class="l" points="206.538 140.455 232.787 140.455 226.577 120.416 206.538 140.455"/><path class="m" d="M202.155,41.623l0-.015Z"/><path class="n" d="M264.864,32.077a32.077,32.077,0,1,0-63.784,4.885h63.415A32.326,32.326,0,0,0,264.864,32.077Z"/><path class="m" d="M263.424,41.608l0,.015Z"/><rect class="o" x="227.528" y="51.458" width="10.518" height="10.518" transform="translate(28.077 181.217) rotate(-45)"/><path class="p" d="M232.787,64.154l-7.437-7.437,7.437-7.437,7.437,7.437-7.437,7.437A32.091,32.091,0,0,0,263.42,41.623l0-.015a31.876,31.876,0,0,0,1.07-4.646H201.08a31.876,31.876,0,0,0,1.07,4.646l0,.015A32.091,32.091,0,0,0,232.787,64.154Z"/><path class="q" d="M232.787,64.154a32.091,32.091,0,0,1-30.633-22.531l24.422,78.794,6.211-6.211L239,120.416,263.42,41.623A32.091,32.091,0,0,1,232.787,64.154Z"/><polygon class="r" points="226.577 120.416 232.787 140.455 238.998 120.416 232.787 114.206 226.577 120.416"/></g></svg>