<svg xmlns="http://www.w3.org/2000/svg" width="264.594" height="140.455" viewBox="0 0 264.594 140.455"><defs><style>.a{isolation:isolate;}.b,.d{fill:#fff;}.c{fill:#eb001b;}.d,.f,.h{stroke:#000;}.d,.f,.h,.i{stroke-width:1.856px;}.e{fill:#25318a;}.f{fill-opacity:0;}.g{fill:#e7e7e7;}.h,.i{fill:none;}.i{stroke:#fff;}.j{fill:#ffc900;}.k{fill:#00a5ff;mix-blend-mode:multiply;}.l{fill:#183cf2;}.m{fill:#f7f7f7;}.n{fill:#360050;}.o{fill:#ef063c;}.p{fill:#c21300;}</style></defs><title>World Cup Predictor  copy</title><g class="a"><rect class="b" x="0.036" y="50.455" width="189.964" height="89.963"/><rect class="c" x="87.801" y="0.455" width="14.397" height="190" transform="translate(190.455 0.455) rotate(90)"/><rect class="c" x="37.515" y="50.455" width="14.288" height="90"/><path class="d" d="M169.684,24.422A25.663,25.663,0,1,1,137.8,23.2C142.052,20.039,165.194,20.528,169.684,24.422Z"/><polygon class="e" points="152.979 97.753 133.523 83.46 140.96 60.33 164.997 60.33 172.434 83.46 152.979 97.753"/><polygon class="b" points="134.985 83.46 171.155 83.46 171.155 92.102 168.068 97.755 137.46 97.755 134.985 92.971 134.985 83.46"/><path class="f" d="M170.094,82.484a18.37,18.37,0,0,1,.885,5.652,18,18,0,1,1-36,0A18.394,18.394,0,0,1,135.7,83"/><ellipse class="d" cx="163.544" cy="103.564" rx="5.747" ry="5.811"/><ellipse class="d" cx="142.415" cy="103.564" rx="5.747" ry="5.811"/><rect class="b" x="142.415" y="91.636" width="21.117" height="18.887"/><polygon class="g" points="152.979 140.455 136.501 106.349 169.456 106.349 152.979 140.455"/><polygon points="152.979 129.24 176.504 140.455 129.453 140.455 152.979 129.24"/><line class="h" x1="137.803" y1="109.121" x2="168.154" y2="109.121"/><polygon class="d" points="152.979 83.46 147.87 106.349 152.979 129.24 158.089 106.349 152.979 83.46"/><path class="g" d="M158.8,16.568a6.475,6.475,0,0,1-11.648,0L125.48,27.527V39.4h8.746L140.96,60.33H165L171.731,39.4h8.733V27.534l.015-.007Z"/><ellipse class="b" cx="152.978" cy="7.044" rx="5.589" ry="5.661"/><path d="M152.978,2.311a4.733,4.733,0,1,1-4.66,4.733,4.7,4.7,0,0,1,4.66-4.733m0-1.856a6.553,6.553,0,0,0-6.517,6.589,6.517,6.517,0,1,0,13.034,0A6.553,6.553,0,0,0,152.978.454Z"/><line class="i" x1="152.979" y1="70.089" x2="152.979" y2="83.46"/><line class="i" x1="152.979" y1="129.24" x2="152.979" y2="140.455"/><polygon class="j" points="258.766 140.455 238.728 120.416 232.517 140.455 258.766 140.455"/><polygon class="j" points="206.268 140.455 232.517 140.455 226.306 120.416 206.268 140.455"/><path class="k" d="M201.884,41.623l0-.015Z"/><path class="l" d="M264.594,32.077a32.077,32.077,0,1,0-63.784,4.885h63.415A32.326,32.326,0,0,0,264.594,32.077Z"/><path class="k" d="M263.154,41.608l0,.015Z"/><rect class="m" x="227.258" y="51.458" width="10.518" height="10.518" transform="translate(27.998 181.026) rotate(-45)"/><path class="n" d="M232.517,64.154l-7.437-7.437,7.437-7.437,7.437,7.437-7.437,7.437a32.091,32.091,0,0,0,30.633-22.531l0-.015a31.876,31.876,0,0,0,1.07-4.646H200.81a31.876,31.876,0,0,0,1.07,4.646l0,.015A32.091,32.091,0,0,0,232.517,64.154Z"/><path class="o" d="M232.517,64.154a32.091,32.091,0,0,1-30.633-22.531l24.422,78.794,6.211-6.211,6.211,6.211L263.15,41.623A32.091,32.091,0,0,1,232.517,64.154Z"/><polygon class="p" points="226.306 120.416 232.517 140.455 238.728 120.416 232.517 114.206 226.306 120.416"/></g></svg>